<svg width="66" height="68" viewBox="0 0 66 68" fill="none" xmlns="http://www.w3.org/2000/svg">
<path d="M0 53.5251C0 40.3105 0 27.0885 0 13.8738C0.0438053 13.779 0.0949115 13.6841 0.124115 13.582C0.66438 11.7577 1.95664 10.7581 3.86217 10.707C4.60686 10.6851 5.34425 10.707 6.08894 10.707C7.04535 10.707 7.99447 10.707 9.02389 10.707C9.02389 10.3932 9.02389 10.1597 9.02389 9.92623C9.02389 8.02904 9.02389 6.13185 9.02389 4.23466C9.03119 2.14045 10.2358 0.921875 12.302 0.921875C26.0058 0.921875 39.7095 0.921875 53.4133 0.921875C55.494 0.921875 56.706 2.13316 56.7133 4.21277C56.7133 6.13185 56.7133 8.05093 56.7133 9.97001C56.7133 10.1962 56.7352 10.4297 56.7425 10.6194C56.8374 10.6632 56.8593 10.6778 56.8812 10.6778C57.3192 10.6851 57.75 10.6924 58.188 10.707C58.9327 10.7289 59.3343 11.0645 59.3562 11.6629C59.3781 12.2831 58.94 12.6699 58.188 12.6917C57.7135 12.7063 57.2462 12.6917 56.7571 12.6917V42.7257H63.9776C63.9923 42.536 64.0142 42.3828 64.0142 42.2368C64.0142 33.0574 64.0142 23.8779 64.0142 14.6911C64.0142 13.4725 63.4666 12.8815 62.24 12.6772C61.5684 12.5677 61.2179 12.1737 61.269 11.5899C61.3128 11.0135 61.7363 10.6924 62.4226 10.707C64.4887 10.7581 66.0073 12.4583 66.0073 14.7495C66.0073 27.3731 66.0073 40.004 66.0073 52.6276C66.0073 53.08 65.9562 53.547 65.8321 53.9848C65.3502 55.6996 63.9119 56.6774 61.8969 56.6847C55.2604 56.6847 48.6312 56.6847 41.9947 56.6847H41.2354V61.9603C43.6593 62.2449 45.2436 63.4562 45.8934 65.7912C46.2 66.9076 46.0686 67.3819 45.3239 67.9146H20.6907C20.1212 67.6081 19.9533 67.1411 20.0117 66.499C20.1358 65.2001 20.6834 64.1275 21.6398 63.2519C22.5232 62.4419 23.5965 62.0698 24.7865 61.9749V56.692C24.4945 56.692 24.2608 56.692 24.0199 56.692C21.0777 56.692 18.1281 56.692 15.1858 56.692C14.9449 56.692 14.704 56.692 14.4704 56.6628C13.9666 56.5971 13.6892 56.2687 13.6454 55.7872C13.6015 55.3056 13.8352 54.9261 14.317 54.7948C14.6018 54.7145 14.9157 54.7072 15.2223 54.7072C30.7586 54.7072 46.2949 54.7072 61.8239 54.7072C63.3571 54.7072 64.0069 54.0578 64.0142 52.5181C64.0142 50.1613 64.0142 47.8117 64.0142 45.4548C64.0142 45.2432 63.9923 45.0315 63.985 44.7907H2.01504C2.00774 44.9951 1.99314 45.1629 1.99314 45.338C1.99314 47.7606 1.99314 50.1758 1.99314 52.5984C1.99314 54.0432 2.67212 54.7072 4.125 54.7072C6.00133 54.7072 7.87765 54.6999 9.75398 54.7072C10.4695 54.7072 10.8856 55.1085 10.8856 55.6996C10.8856 56.3052 10.4841 56.6774 9.75398 56.6774C7.68053 56.6774 5.60708 56.6993 3.53363 56.6482C2.19027 56.6117 1.17544 55.9331 0.518363 54.7656C0.299336 54.3934 0.175221 53.9483 0 53.5251ZM11.0243 42.7257H54.6909V17.4639H53.8002C43.0168 17.4639 32.2407 17.4639 21.4573 17.4639C21.1726 17.4639 20.8878 17.4639 20.6104 17.4274C20.1066 17.3545 19.8365 17.0115 19.8 16.5372C19.7635 16.0556 20.0044 15.6835 20.4863 15.5594C20.7783 15.4865 21.0923 15.4719 21.3916 15.4719C32.2188 15.4719 43.0387 15.4719 53.8659 15.4719H54.7347V14.8005C54.7347 11.3126 54.7347 7.82473 54.7347 4.33682C54.7347 3.23499 54.3989 2.91392 53.2746 2.91392C39.6803 2.91392 26.0861 2.91392 12.4918 2.91392C11.3237 2.91392 11.0097 3.22769 11.0097 4.3879C11.0097 7.85392 11.0097 11.3199 11.0097 14.786C11.0097 14.9976 11.0243 15.2092 11.0389 15.4719C11.8201 15.4719 12.5575 15.4719 13.2949 15.4719C14.0615 15.4719 14.8208 15.45 15.5874 15.4938C16.208 15.5302 16.6095 15.9681 16.573 16.5007C16.5292 17.0845 16.2007 17.4201 15.6093 17.4493C15.0617 17.4712 14.5215 17.4639 13.9739 17.4639C13.0029 17.4639 12.0246 17.4639 11.0316 17.4639V42.7257H11.0243ZM8.98739 12.6917C7.3885 12.6917 5.82611 12.6917 4.25642 12.6917C2.62102 12.6917 1.98584 13.312 1.98584 14.9319C1.98584 23.9581 1.98584 32.9844 1.98584 42.0106C1.98584 42.2441 1.98584 42.4776 1.98584 42.733H8.98009V12.6917H8.98739ZM26.8746 61.953H39.1327V56.7357H26.8746V61.953ZM22.2312 65.8933H43.7615C43.3965 64.7185 42.3451 63.9961 40.9799 63.9888C37.5558 63.9816 34.1316 63.9888 30.7075 63.9888C28.7655 63.9888 26.8235 63.9743 24.8814 63.9961C23.6111 64.0107 22.5889 64.755 22.2312 65.8933Z" fill="#0D57B7"/>
<path d="M36.5413 49.7096C36.5559 51.3514 35.2199 52.7159 33.5845 52.7378C31.9199 52.7597 30.5254 51.3878 30.5254 49.7314C30.5254 48.1042 31.8907 46.7397 33.5261 46.7324C35.1614 46.7324 36.5267 48.0751 36.5413 49.7096ZM33.548 50.7457C34.0663 50.7384 34.5409 50.2568 34.5482 49.7387C34.5482 49.1915 34.0371 48.7026 33.4895 48.7318C32.9566 48.761 32.5112 49.2426 32.5258 49.7679C32.5404 50.3006 33.0223 50.7603 33.548 50.7457Z" fill="#0D57B7"/>
<path d="M13.4922 30.4527C13.4922 27.5339 13.4922 24.6079 13.4922 21.6891C13.4922 20.6457 13.8207 20.3027 14.8502 20.3027C20.742 20.3027 26.6338 20.3027 32.5256 20.3027C33.5185 20.3027 33.869 20.6457 33.869 21.6454C33.869 27.5339 33.869 33.4225 33.869 39.3038C33.869 40.3327 33.5185 40.661 32.4745 40.661C26.6046 40.661 20.7347 40.661 14.8648 40.661C13.828 40.661 13.4922 40.3108 13.4922 39.2819C13.4922 36.3413 13.4922 33.3933 13.4922 30.4527ZM15.5145 31.2335C15.5875 31.2554 15.6313 31.2845 15.6679 31.27C15.792 31.2408 15.9161 31.2043 16.0475 31.1678C17.7924 30.6424 19.457 30.7957 20.9829 31.8391C21.786 32.3937 22.5453 33.0212 23.3338 33.605C24.9911 34.8381 26.1665 34.9038 27.8822 33.7728C29.0796 32.9847 30.3134 32.4229 31.832 32.6928V22.324H15.5218V31.2262L15.5145 31.2335ZM31.8612 38.6179C31.8612 37.4869 31.8393 36.3997 31.8685 35.3197C31.8831 34.8381 31.7225 34.6776 31.2479 34.6484C30.4302 34.59 29.7732 34.9184 29.1307 35.3562C26.6046 37.071 24.4143 36.9834 21.9904 35.1081C21.2822 34.5608 20.5886 33.999 19.8513 33.5028C18.5371 32.6126 17.1791 32.7366 15.8285 33.4225C15.6825 33.4955 15.4999 33.6925 15.4999 33.8385C15.478 35.4219 15.4853 37.0053 15.4853 38.6325H31.8612V38.6179Z" fill="#0D57B7"/>
<path d="M17.7841 12.7142C16.7401 12.7142 15.6888 12.7288 14.6448 12.7142C13.6518 12.6996 13.2138 11.9772 13.7029 11.1235C14.7324 9.30653 15.7764 7.49691 16.8423 5.69458C17.3607 4.81895 18.2149 4.83354 18.7406 5.72376C19.7773 7.48961 20.7994 9.25545 21.8142 11.0359C22.3545 11.9845 21.9091 12.7069 20.7994 12.7142C19.7992 12.7215 18.7917 12.7142 17.7914 12.7142H17.7841ZM17.7695 8.03688C17.2366 8.96358 16.7547 9.80272 16.2436 10.6856H19.2954C18.7844 9.79542 18.3098 8.97817 17.7695 8.03688Z" fill="#0D57B7"/>
<path d="M35.5692 8.26257C32.8897 8.26257 30.203 8.26257 27.5236 8.26257C27.3046 8.26257 27.0855 8.27716 26.8738 8.24067C26.3628 8.15311 26.0561 7.83935 26.0415 7.30667C26.0269 6.74481 26.3336 6.40916 26.8738 6.307C27.0636 6.27052 27.2681 6.28511 27.4579 6.28511C32.8678 6.28511 38.2705 6.28511 43.6805 6.28511C43.8776 6.28511 44.0747 6.27052 44.2645 6.3143C44.7756 6.42375 45.0676 6.74481 45.0676 7.27749C45.0676 7.80286 44.7756 8.13122 44.2645 8.24067C44.0528 8.28446 43.8338 8.26986 43.6147 8.26986C40.9353 8.26986 38.2486 8.26986 35.5692 8.26986V8.26257Z" fill="#0D57B7"/>
<path d="M44.5946 23.1407C42.3314 23.1407 40.0608 23.1407 37.7975 23.1407C37.4982 23.1407 37.1112 23.148 36.9214 22.9801C36.6659 22.7539 36.4177 22.3453 36.4323 22.0315C36.4469 21.747 36.7827 21.4259 37.0601 21.2362C37.2427 21.1048 37.5639 21.1486 37.8267 21.1486C42.3387 21.1486 46.8433 21.1486 51.3553 21.1486C51.4429 21.1486 51.5305 21.1486 51.6181 21.1486C52.3482 21.1924 52.7643 21.5426 52.7789 22.1264C52.7862 22.732 52.3555 23.1407 51.5889 23.148C49.2599 23.1625 46.9236 23.148 44.5946 23.148V23.1407Z" fill="#0D57B7"/>
<path d="M44.5721 31.9044C42.3308 31.9044 40.0821 31.9044 37.8407 31.9044C37.5633 31.9044 37.1982 31.9409 37.023 31.7876C36.7456 31.5468 36.4316 31.1601 36.4316 30.839C36.4316 30.5545 36.7967 30.2115 37.0814 29.9999C37.2566 29.8686 37.5852 29.905 37.8407 29.905C42.3308 29.905 46.8135 29.905 51.3035 29.905C51.5007 29.905 51.6978 29.9123 51.8876 29.9415C52.4352 30.0291 52.7564 30.3502 52.7637 30.9047C52.7637 31.4301 52.4644 31.7512 51.9533 31.8533C51.7197 31.8971 51.4788 31.9044 51.2378 31.9044C49.0184 31.9044 46.7916 31.9044 44.5721 31.9044Z" fill="#0D57B7"/>
<path d="M44.5142 27.5041C42.2947 27.5041 40.0679 27.5041 37.8484 27.5041C37.6513 27.5041 37.4542 27.5114 37.2644 27.4895C36.746 27.4166 36.4321 27.1247 36.3956 26.592C36.3591 26.0301 36.6584 25.6872 37.1914 25.5631C37.3958 25.5121 37.6221 25.534 37.8411 25.534C42.3312 25.534 46.8139 25.534 51.304 25.534C51.4354 25.534 51.5668 25.534 51.6982 25.534C52.348 25.5704 52.7788 25.9572 52.7788 26.519C52.7788 27.0809 52.3626 27.4895 51.7055 27.5041C50.8367 27.526 49.9606 27.5041 49.0918 27.5041C47.5659 27.5041 46.04 27.5041 44.5142 27.5041Z" fill="#0D57B7"/>
<path d="M44.5945 34.2904C46.8359 34.2904 49.0846 34.2904 51.3259 34.2904C51.545 34.2904 51.7713 34.2758 51.9757 34.3269C52.4795 34.4437 52.7788 34.7793 52.7642 35.3047C52.7496 35.8301 52.4503 36.1511 51.9392 36.246C51.7494 36.2825 51.545 36.2679 51.3551 36.2679C46.8432 36.2679 42.3386 36.2679 37.8266 36.2679C37.6295 36.2679 37.4324 36.2825 37.2425 36.246C36.7315 36.1584 36.4175 35.852 36.3956 35.3266C36.3737 34.7574 36.6804 34.4291 37.2133 34.3196C37.4251 34.2758 37.6441 34.2904 37.8631 34.2904C40.1045 34.2904 42.3532 34.2904 44.5945 34.2904Z" fill="#0D57B7"/>
<path d="M30.8028 12.5164C29.6274 12.5164 28.4447 12.5164 27.2692 12.5164C26.7655 12.5164 26.3055 12.407 26.0865 11.8743C25.8674 11.327 26.1595 10.7433 26.7363 10.59C26.9626 10.5244 27.2108 10.5098 27.4444 10.5098C29.6931 10.5098 31.9345 10.5098 34.1832 10.5098C34.2708 10.5098 34.3584 10.5098 34.446 10.5098C35.1542 10.5535 35.5922 10.933 35.5995 11.5094C35.5995 12.0786 35.1688 12.4945 34.4606 12.5091C33.2413 12.531 32.0221 12.5091 30.7955 12.5091L30.8028 12.5164Z" fill="#0D57B7"/>
<path d="M40.6943 40.668C39.6722 40.668 38.6501 40.6826 37.628 40.668C36.7957 40.6534 36.3795 40.2958 36.3868 39.6464C36.3941 39.0262 36.803 38.6686 37.5988 38.6613C39.6868 38.6467 41.7749 38.6467 43.8629 38.6613C44.6514 38.6613 45.0603 39.0262 45.0676 39.6464C45.0749 40.2885 44.6514 40.6534 43.8264 40.668C42.7824 40.6826 41.7384 40.668 40.6943 40.668Z" fill="#0D57B7"/>
<path d="M23.2827 27.592C23.2681 25.9137 24.6042 24.5419 26.2834 24.52C27.9334 24.4908 29.3351 25.8772 29.3424 27.5409C29.3497 29.2192 28.0137 30.5983 26.3345 30.6129C24.6699 30.6348 23.29 29.2776 23.2754 27.592H23.2827ZM27.3566 27.5847C27.3712 27.0228 26.9039 26.5485 26.3345 26.5339C25.7504 26.5193 25.2831 26.9644 25.2758 27.5409C25.2612 28.1101 25.7285 28.5916 26.2907 28.5989C26.8455 28.6135 27.3493 28.1392 27.3566 27.5847Z" fill="#0D57B7"/>
</svg>
