<svg width="74" height="65" viewBox="0 0 74 65" fill="none" xmlns="http://www.w3.org/2000/svg">
<path d="M38.4511 0C39.8607 0.145589 41.2757 0.246382 42.6797 0.442367C51.8527 1.73027 59.7272 5.68918 66.3309 12.2239C66.9246 12.8119 66.9468 13.2598 66.4529 13.9654C65.7704 14.9341 65.0712 15.8916 64.3442 16.894C64.9269 17.6051 65.5151 18.2994 66.0756 19.0218C70.3708 24.5374 72.9456 30.7753 73.7336 37.7524C73.8779 39.0515 73.9445 40.3674 73.9944 41.6721C74.0444 42.8144 73.6781 43.1672 72.5683 43.1672C69.7992 43.1672 67.0301 43.1672 64.2554 43.1672C63.1234 43.1672 62.7793 42.848 62.7682 41.7057C62.7405 38.8387 62.2355 36.0613 61.2865 33.3567C60.4708 31.0273 59.3387 28.8715 57.907 26.8724C57.8016 26.7212 57.6739 26.5812 57.5075 26.3797C56.4531 27.8411 55.4376 29.2522 54.4165 30.6577C54.2611 30.8705 54.1057 31.1001 53.9004 31.2569C53.462 31.5873 52.9848 31.5649 52.5741 31.2009C52.1968 30.8649 52.0636 30.4338 52.3022 29.9522C52.4298 29.6946 52.6074 29.4594 52.7739 29.2242C55.3488 25.6461 57.9237 22.0736 60.4042 18.3778C55.0047 22.3368 49.5997 26.2957 44.178 30.2714C46.1758 34.1519 45.7041 37.6852 42.7963 40.8994C43.7507 41.1626 44.3945 40.9778 44.9771 40.0986C46.3256 38.0604 47.7906 36.0949 49.2612 34.1463C49.5165 33.8103 50.027 33.4799 50.421 33.4743C51.2978 33.4631 51.6474 34.4823 51.0869 35.283C50.1824 36.5709 49.2501 37.842 48.3289 39.1187C47.724 39.9586 47.1192 40.8042 46.4865 41.6833C46.7252 41.8401 46.9249 41.9689 47.1192 42.0977C49.1114 43.4472 50.249 45.3063 50.31 47.7421C50.3655 49.9259 50.3378 52.1154 50.3267 54.3048C50.3267 55.1671 49.9327 55.5591 49.0892 55.5591C41.0205 55.5591 32.9518 55.5647 24.8831 55.5591C24.0451 55.5591 23.6678 55.1615 23.6622 54.288C23.6511 52.1265 23.6178 49.9595 23.6789 47.7981C23.7788 44.0855 26.6089 41.2074 30.2881 41.0058C30.5711 40.989 30.8541 41.0058 31.3147 41.0058C29.2948 38.8835 28.3403 36.5093 28.6788 33.7039C28.9341 31.6265 29.8553 29.885 31.3869 28.4571C33.8286 26.1781 38.5788 24.9406 42.8074 28.5691C46.0426 26.1949 49.2889 23.815 52.5908 21.396C50.2268 19.5762 47.7074 18.2491 44.9605 17.3643C30.2493 12.6383 14.9831 21.5584 11.7645 36.8005C11.4316 38.3796 11.3705 40.0258 11.2484 41.6441C11.1541 42.876 10.8988 43.1784 9.66689 43.1784C6.91999 43.1784 4.17308 43.1616 1.43172 43.1896C0.788001 43.1896 0.32186 42.9936 0 42.4337C0 41.5601 0 40.681 0 39.8075C0.0610424 39.3091 0.122085 38.8051 0.177578 38.3068C1.08211 29.969 4.33956 22.7175 9.99985 16.5748C11.9088 14.5029 14.0342 12.6831 16.3705 11.1096C17.0197 10.6728 17.6579 10.7736 18.013 11.3224C18.3627 11.8599 18.2239 12.4367 17.6135 12.8958C17.2861 13.1422 16.9309 13.3494 16.6091 13.607C15.4493 14.5365 14.3006 15.4773 13.2684 16.3172C14.9387 18.0363 16.5147 19.6545 18.1018 21.284C18.1074 21.284 18.1629 21.2672 18.1962 21.2392C23.0907 16.8324 28.7898 14.3629 35.3546 13.9766C35.8596 13.9486 35.9318 13.7078 35.9262 13.2766C35.9096 11.356 35.9262 9.4409 35.9151 7.52024C35.9151 7.35786 35.8763 7.20107 35.8596 7.02188C35.4268 7.02188 35.0439 6.99948 34.6665 7.02188C31.9474 7.21787 29.2615 7.66023 26.67 8.53377C25.0995 9.06573 23.579 9.73768 22.0363 10.348C21.3704 10.6112 20.7711 10.3984 20.5213 9.81048C20.2772 9.24492 20.5047 8.70176 21.1262 8.36578C21.2538 8.29859 21.387 8.24259 21.5202 8.181C25.3825 6.39473 29.4169 5.26921 33.6565 4.92764C43.3845 4.13809 52.1357 6.7083 59.8659 12.7503C60.5818 13.3102 61.2699 13.9094 61.9913 14.5141C62.6739 14.0102 63.3231 13.5286 63.9946 13.0302C63.8448 12.8734 63.7726 12.7839 63.6838 12.7055C58.6784 8.097 52.896 4.96123 46.3034 3.34855C43.3179 2.62061 40.288 2.27903 37.2247 2.23424C36.6088 2.22304 36.1204 2.05505 35.9762 1.3831C35.8152 0.638353 36.2703 0.26878 36.864 0.00559959C37.3968 0.00559959 37.924 0.00559959 38.4567 0.00559959L38.4511 0ZM48.1735 53.3361C48.1735 51.5386 48.1902 49.8139 48.1735 48.0892C48.1347 45.2111 46.1425 43.1952 43.279 43.1784C39.1115 43.156 34.944 43.156 30.782 43.1784C27.8797 43.1896 25.8764 45.2055 25.8431 48.1228C25.8265 49.6795 25.8376 51.2306 25.8431 52.7873C25.8431 52.9721 25.882 53.1513 25.9042 53.3193H29.7942C29.7942 52.7369 29.7831 52.2049 29.7942 51.673C29.8164 50.889 30.2437 50.4243 30.9152 50.4411C31.5478 50.4579 31.9418 50.9114 31.9585 51.673C31.9696 52.2217 31.9585 52.7705 31.9585 53.3081H42.0637C42.0637 52.7369 42.0582 52.2273 42.0637 51.7178C42.0748 50.917 42.4744 50.4467 43.1348 50.4411C43.7951 50.4411 44.2113 50.9114 44.228 51.701C44.2391 52.2441 44.228 52.7929 44.228 53.3361H48.1735ZM16.3871 23.0255C14.7501 21.3736 13.1519 19.7665 11.5259 18.1259C5.67694 24.5486 2.55268 32.1528 2.18088 40.933H9.02872C10.4049 31.6265 11.3206 29.4034 16.3871 23.0255ZM63.0235 18.725C61.7194 20.5393 60.493 22.2752 59.2222 23.9774C58.917 24.3862 58.9336 24.6326 59.2388 25.0357C61.5862 28.1155 63.2454 31.5425 64.1222 35.3222C64.544 37.1533 64.7549 39.0347 65.0712 40.9274H71.8302C71.4584 32.4944 68.5617 25.1421 63.0235 18.725ZM60.1711 15.8412C53.8116 10.264 46.5143 7.31306 38.0904 6.97149C38.0904 9.12173 38.1126 11.1544 38.0738 13.1926C38.0627 13.8142 38.2902 13.9598 38.8562 13.9878C42.5798 14.195 46.1203 15.1413 49.4277 16.866C51.1702 17.7731 52.8072 18.8818 54.5719 19.9457C56.3532 18.6354 58.24 17.2579 60.1711 15.8412ZM37.025 40.9834C40.4433 40.9778 43.2235 38.1668 43.2235 34.723C43.2235 31.2849 40.4322 28.4571 37.025 28.4515C33.59 28.4403 30.7765 31.2905 30.7931 34.7622C30.8097 38.206 33.6011 40.989 37.025 40.9834Z" fill="white"/>
<path d="M0 46.2242C0.410649 45.7202 0.932283 45.5746 1.58155 45.5802C4.27852 45.6082 6.97548 45.5914 9.66689 45.5914C9.83337 45.5914 10.0054 45.5914 10.1719 45.6026C10.799 45.6418 11.1652 46.0058 11.1985 46.6106C11.2318 47.2209 10.8988 47.7137 10.294 47.7249C7.1697 47.7641 4.0399 47.7585 0.910086 47.7137C0.604874 47.7137 0.299663 47.3161 0 47.0977C0 46.8065 0 46.5154 0 46.2242Z" fill="white"/>
<path d="M48.1296 62.7605V60.2575H47.2417C42.7412 60.2575 38.2351 60.2575 33.7346 60.2575C33.496 60.2575 33.2519 60.2687 33.0132 60.2351C32.4639 60.1567 32.1475 59.8151 32.0976 59.2719C32.0477 58.7232 32.3085 58.3256 32.8301 58.1632C33.0798 58.0848 33.3517 58.0736 33.6126 58.0736C38.668 58.0736 43.7234 58.0736 48.7788 58.0736C50.0108 58.0736 50.3326 58.3928 50.3326 59.6135C50.3326 60.879 50.3326 62.1389 50.3326 63.4044C50.3326 64.6867 50.0219 65.0003 48.7622 65.0003C42.9853 65.0003 37.203 65.0003 31.4261 65.0003C29.334 65.0003 27.2364 65.0003 25.1443 65.0003C24.0067 65.0003 23.6627 64.6587 23.6627 63.5332C23.6571 62.1501 23.6516 60.767 23.6627 59.3783C23.6738 58.4768 24.04 58.096 24.939 58.0792C25.9268 58.0568 26.9146 58.0624 27.9023 58.0792C28.6903 58.096 29.1731 58.5272 29.1787 59.1711C29.1787 59.8151 28.6959 60.2407 27.9134 60.2575C27.2864 60.2743 26.6648 60.2687 26.0378 60.2799C25.9934 60.2799 25.9545 60.3191 25.8713 60.3639V62.7605H48.124H48.1296Z" fill="white"/>
<path d="M68.3955 45.5916C69.8161 45.5916 71.2367 45.586 72.6574 45.5916C73.512 45.5916 74.0003 46.0004 74.0003 46.6667C74.0003 47.3387 73.512 47.7643 72.6629 47.7699C69.8217 47.7811 66.9804 47.7811 64.1336 47.7699C63.2901 47.7699 62.7907 47.3387 62.7852 46.6723C62.7852 46.0004 63.2679 45.5916 64.1225 45.586C65.5432 45.5748 66.9638 45.586 68.3844 45.586L68.3955 45.5916Z" fill="white"/>
<path d="M68.3731 50.3014C68.9003 50.3014 69.4331 50.2846 69.9602 50.3014C70.6262 50.3238 71.0868 50.7774 71.0923 51.3765C71.0923 51.9421 70.665 52.4461 70.049 52.4684C68.9447 52.502 67.8404 52.5076 66.7361 52.4684C66.1146 52.4461 65.7206 51.9533 65.7317 51.3597C65.7428 50.7662 66.1534 50.3406 66.7916 50.307C67.3188 50.2846 67.846 50.307 68.3787 50.3014H68.3731Z" fill="white"/>
<path d="M5.63261 50.301C6.15979 50.301 6.69253 50.2842 7.21971 50.3066C7.85788 50.3346 8.26853 50.7657 8.27963 51.3593C8.29073 51.9528 7.89673 52.4456 7.2752 52.468C6.17089 52.5072 5.06658 52.5072 3.96227 52.468C3.34629 52.4456 2.91345 51.9416 2.919 51.3761C2.919 50.7769 3.38514 50.329 4.05106 50.301C4.57824 50.2786 5.10542 50.301 5.63816 50.301H5.63261Z" fill="white"/>
</svg>
