<svg width="70" height="58" viewBox="0 0 70 58" fill="none" xmlns="http://www.w3.org/2000/svg">
<path d="M69.6207 43.9225C69.4729 44.457 69.3364 45.003 69.1658 45.5375C67.8237 49.4615 63.8315 51.7476 59.6687 50.9855C55.7675 50.2804 52.8445 46.6294 52.9469 42.6031C53.0492 38.7588 55.7675 35.4945 59.5436 34.6756C59.828 34.6188 60.1123 34.5619 60.4763 34.4936V33.7544C60.4763 29.6371 60.4763 25.5084 60.4763 21.3911C60.4763 20.3334 60.3966 20.2538 59.373 20.2538C57.7238 20.2538 56.0746 20.2538 54.3117 20.2538C54.3117 20.9021 54.3117 21.5049 54.3117 22.1077C54.3003 23.2564 53.9022 23.7341 52.7535 23.9616C51.8891 24.1322 51.0133 24.28 50.1717 24.5189C49.8987 24.5871 49.6485 24.8601 49.4779 25.099C48.8751 25.9292 49.0229 26.6913 49.6826 27.4419C50.1148 27.931 50.4333 28.5224 50.7745 29.0684C51.3204 29.9214 51.2635 30.5583 50.5697 31.2635C49.2845 32.5715 47.9879 33.8681 46.6799 35.1533C45.9634 35.8585 45.3151 35.9267 44.4848 35.3922C43.6886 34.8804 42.9152 34.323 42.0963 33.834C41.8688 33.6975 41.5163 33.7089 41.2433 33.7544C40.231 33.9363 39.742 34.5619 39.6851 35.6083C39.651 36.2566 39.4462 36.8935 39.3098 37.5304C39.105 38.4517 38.5705 38.8839 37.6378 38.8953C37.0123 38.8953 36.3753 38.8953 35.7043 38.8953V41.0108C40.5381 41.6022 43.7114 45.8787 43.0972 50.4851C42.5399 54.6479 38.9458 57.7302 34.783 57.6847C30.5975 57.6392 27.0034 54.4545 26.5598 50.3714C26.0366 45.6058 29.3691 41.5681 33.9869 41.0222V38.8953C33.4409 38.8953 32.8836 38.8953 32.3263 38.8953C31.0069 38.8953 30.5861 38.5541 30.3245 37.2802C30.1539 36.4386 30.0061 35.5855 29.7786 34.7666C29.699 34.4936 29.4374 34.2434 29.1985 34.0614C28.3682 33.47 27.6062 33.6065 26.8442 34.2775C26.3323 34.7211 25.7295 35.051 25.1495 35.4149C24.3647 35.904 23.705 35.8585 23.0567 35.2102C21.7146 33.8908 20.3839 32.5601 19.0645 31.2294C18.3935 30.547 18.348 29.91 18.8712 29.0911C19.383 28.295 19.9403 27.5216 20.4294 26.7027C20.5659 26.4752 20.5545 26.134 20.509 25.861C20.4749 25.5994 20.2815 25.3719 20.2133 25.1103C20.0995 24.7122 19.8721 24.5416 19.4512 24.4734C18.5641 24.3369 17.6769 24.1322 16.7898 23.9388C15.7775 23.7227 15.3681 23.2223 15.3453 22.1987C15.3453 21.5959 15.3453 20.9817 15.3453 20.3334C15.152 20.2992 15.0041 20.2651 14.8563 20.2651C13.2526 20.2651 11.6375 20.2651 10.0338 20.2651C9.47649 20.2651 9.1694 20.4585 9.1694 21.0499C9.1694 25.4629 9.1694 29.8759 9.1694 34.2889C9.1694 34.3572 9.20352 34.414 9.22627 34.5278C11.8081 34.8917 13.9122 36.0973 15.3453 38.3152C16.5055 40.1009 16.9035 42.0572 16.5851 44.1499C15.9595 48.2445 12.3313 51.2358 8.10027 51.1448C3.93749 51.0652 0.445758 47.8009 0.0363041 43.5813C-0.316281 39.9644 1.87885 35.3922 7.52021 34.4823V33.6975C7.52021 29.6029 7.52021 25.497 7.52021 21.4025C7.52021 19.4235 8.305 18.6273 10.2613 18.6273C11.865 18.6273 13.48 18.6273 15.0837 18.6159C15.1292 18.6159 15.1634 18.5932 15.3226 18.5363C15.3226 17.979 15.3226 17.3762 15.3226 16.7734C15.334 15.6815 15.732 15.2038 16.7898 14.9877C17.6769 14.8057 18.5755 14.6579 19.4399 14.4304C19.7128 14.3622 19.9631 14.0892 20.145 13.8503C20.3156 13.6229 20.4294 13.3272 20.4863 13.0428C20.5317 12.7926 20.5431 12.4628 20.418 12.258C19.9176 11.4277 19.3489 10.6316 18.8257 9.81268C18.3025 9.00514 18.3707 8.35684 19.0418 7.67442C20.3498 6.35507 21.6577 5.03571 22.9771 3.73911C23.6595 3.06806 24.3192 2.99982 25.1154 3.51164C25.9115 4.02345 26.7077 4.54664 27.4925 5.09258C27.7996 5.30868 28.0725 5.3883 28.4137 5.18357C28.664 5.03572 28.9824 4.99022 29.2099 4.81961C29.426 4.67176 29.6648 4.44428 29.7217 4.20543C29.9492 3.28416 30.1084 2.35152 30.3018 1.41887C30.5065 0.463479 31.0183 0.019904 32.0078 0.00853029C33.839 -0.00284343 35.6815 -0.00284343 37.5127 0.00853029C38.5477 0.00853029 39.0482 0.440732 39.2643 1.45299C39.4462 2.34014 39.651 3.21592 39.7988 4.11444C39.8671 4.5239 40.0832 4.68313 40.4244 4.88786C41.3115 5.41105 42.0281 5.28594 42.7901 4.63763C43.3019 4.19406 43.9047 3.86422 44.4848 3.50026C45.2582 3.01119 45.9179 3.07943 46.5776 3.71636C47.9197 5.03571 49.2504 6.36644 50.5697 7.70854C51.2067 8.35684 51.2749 9.01652 50.7745 9.8013C50.2627 10.6088 49.7508 11.405 49.1935 12.1784C48.9547 12.5196 48.9092 12.804 49.1253 13.1566C49.2504 13.3727 49.3528 13.6001 49.4096 13.839C49.512 14.2598 49.785 14.3963 50.183 14.4645C51.0929 14.6238 52.0028 14.8057 52.9127 15.0105C53.8454 15.2152 54.2548 15.727 54.2776 16.6824C54.289 17.2511 54.2776 17.8198 54.289 18.3771C54.289 18.4226 54.3117 18.4681 54.3458 18.5932C54.5505 18.6046 54.7894 18.6273 55.0282 18.6273C56.4727 18.6273 57.9285 18.6273 59.373 18.6273C61.2838 18.6273 62.08 19.4348 62.08 21.3684C62.08 25.4629 62.08 29.5688 62.08 33.6634V34.3344C63.2401 34.778 64.3774 35.0737 65.367 35.6083C67.5962 36.8253 68.9156 38.7702 69.4501 41.2496C69.4842 41.4202 69.5525 41.5909 69.598 41.7615V43.9338L69.6207 43.9225ZM52.6625 22.301C52.6625 20.4699 52.6739 18.6842 52.6398 16.9099C52.6398 16.7734 52.344 16.5573 52.1507 16.5118C51.1384 16.2729 50.1148 16.0796 49.0912 15.8862C48.5907 15.7953 48.3064 15.5223 48.1358 15.0446C47.9197 14.4077 47.6467 13.7821 47.3624 13.1679C47.1463 12.713 47.1463 12.3263 47.442 11.9054C48.022 11.0752 48.5452 10.188 49.1367 9.3691C49.4324 8.95965 49.3641 8.73217 49.0229 8.41371C47.9424 7.3787 46.896 6.32095 45.8497 5.24044C45.5426 4.92198 45.3265 4.86511 44.9398 5.13808C44.155 5.70676 43.3019 6.19583 42.5172 6.76452C42.0167 7.11711 41.5731 7.19672 41.0158 6.88963C40.4813 6.59391 39.9126 6.36644 39.3325 6.19583C38.7183 6.01385 38.4567 5.6499 38.3544 5.04709C38.1951 4.0917 37.9677 3.1363 37.7971 2.18091C37.7288 1.7942 37.581 1.61222 37.1374 1.61222C35.6019 1.63497 34.0551 1.63497 32.5197 1.61222C32.0875 1.61222 31.9168 1.76008 31.8486 2.15816C31.6666 3.15905 31.4505 4.14856 31.2685 5.14945C31.1776 5.67264 30.9046 5.97973 30.3928 6.15034C29.7786 6.35507 29.1644 6.60529 28.573 6.901C28.0612 7.1626 27.6517 7.11711 27.1854 6.79864C26.3551 6.21858 25.4907 5.67264 24.649 5.10396C24.3761 4.92198 24.1713 4.84236 23.8984 5.13808C22.7837 6.28682 21.6236 7.41282 20.509 8.57294C20.3839 8.69805 20.3611 9.07339 20.4521 9.23262C21.0094 10.1425 21.5895 11.0297 22.2037 11.9054C22.4994 12.3263 22.5108 12.713 22.2947 13.1679C22.0103 13.7594 21.726 14.3508 21.5326 14.9763C21.3507 15.5564 20.9981 15.818 20.4294 15.9204C19.4512 16.1023 18.4731 16.2843 17.5063 16.5118C17.3016 16.5573 17.0059 16.8075 17.0059 16.9667C16.9718 18.7297 16.9831 20.4926 16.9831 22.301C18.166 22.5399 19.3148 22.7901 20.4635 23.0062C21.0094 23.1086 21.3393 23.3588 21.5213 23.9161C21.7146 24.5189 21.9535 25.1103 22.2492 25.6676C22.5222 26.1908 22.488 26.6344 22.1582 27.1121C21.4871 28.0675 20.8616 29.057 20.2815 29.9328C21.6691 31.3204 22.9885 32.6397 24.3533 34.0046C25.2632 33.4018 26.2641 32.7762 27.2195 32.1052C27.6858 31.7753 28.1066 31.7753 28.6071 32.0256C29.1303 32.2871 29.6762 32.5374 30.2335 32.6966C30.916 32.89 31.2003 33.3108 31.314 33.9932C31.496 35.0965 31.7576 36.1883 31.9851 37.2688H37.6833C37.9222 36.1087 38.161 34.96 38.3771 33.7999C38.4795 33.2539 38.7411 32.9241 39.2984 32.7535C39.8784 32.5829 40.4585 32.3554 40.9931 32.0597C41.5731 31.7412 42.0395 31.7981 42.5626 32.1734C43.5067 32.8331 44.4734 33.4473 45.3151 33.9932C46.7141 32.6056 48.0448 31.2976 49.3983 29.9555C48.7954 29.0343 48.1699 28.0675 47.5102 27.1235C47.169 26.6458 47.1235 26.2136 47.4079 25.679C47.6922 25.1445 47.9424 24.5758 48.113 23.9957C48.295 23.3929 48.6362 23.1086 49.2504 23.0062C50.3764 22.8128 51.5024 22.5512 52.6739 22.3124L52.6625 22.301ZM67.0503 46.1403C68.8359 43.331 67.9829 39.3843 65.2077 37.3939C62.3415 35.3239 58.338 35.8585 56.0974 38.5541C54.0956 40.9653 54.2321 44.5708 55.5628 46.0721C56.3931 44.5366 57.6442 43.513 59.2706 42.9102C58.0423 41.2724 58.0082 39.7256 59.1455 38.5654C60.1805 37.5077 61.9207 37.3257 63.024 38.2925C63.5244 38.7247 63.9339 39.373 64.1272 40.0099C64.4571 41.0904 64.0476 42.0799 63.2173 42.9216C64.9575 43.5244 66.1745 44.6163 67.0389 46.1517L67.0503 46.1403ZM6.37147 42.9216C5.13173 41.1132 5.14311 39.5663 6.38284 38.4403C7.47472 37.4394 9.15803 37.4053 10.2954 38.3607C11.6261 39.4867 11.6716 40.988 10.3978 42.9216C12.0583 43.4903 13.2867 44.5935 14.1625 46.1403C15.8913 43.24 15.1065 39.4981 12.445 37.4736C9.71534 35.3922 5.8824 35.722 3.50529 38.2129C1.26467 40.5672 1.24192 44.2296 2.65226 46.0721C3.49392 44.5708 4.69953 43.4903 6.37147 42.9102V42.9216ZM40.595 52.703C42.3124 50.0301 41.6073 46.2541 39.0709 44.1841C36.4663 42.0458 32.622 42.205 30.1994 44.5366C27.9702 46.6863 27.4242 50.5079 29.0848 52.6802C29.9151 51.122 31.1662 50.0756 32.804 49.4728C31.5415 47.562 31.587 46.0493 32.9177 44.9233C34.0665 43.9566 35.7157 43.9907 36.8303 45.003C38.0928 46.1631 38.1041 47.6758 36.8417 49.4728C38.4909 50.0643 39.7306 51.122 40.595 52.7143V52.703ZM8.39599 49.5183C9.98831 49.5183 11.3987 48.9951 12.6384 47.9943C12.9 47.7782 12.9796 47.5962 12.8431 47.255C12.1607 45.5034 10.3295 44.2409 8.39599 44.2296C6.46246 44.2182 4.63129 45.4579 3.92612 47.2095C3.77826 47.5621 3.83513 47.7782 4.13084 48.017C5.38195 49.0065 6.79229 49.5297 8.39599 49.5297V49.5183ZM61.2269 49.5183C62.8306 49.5183 64.2182 49.0179 65.4693 48.0625C65.8105 47.8009 65.8902 47.5621 65.7082 47.1526C64.9575 45.4124 63.1718 44.2182 61.261 44.2296C59.3616 44.2296 57.5646 45.4579 56.8367 47.1867C56.6774 47.5734 56.7457 47.8009 57.0641 48.0397C58.3039 49.0065 59.6915 49.5183 61.2269 49.5297V49.5183ZM34.965 56.0696C36.4208 56.0696 37.8426 55.5578 39.0937 54.5569C39.4008 54.318 39.4349 54.1019 39.287 53.7494C38.5705 51.9978 36.8075 50.8036 34.874 50.7808C32.9291 50.7581 31.1093 51.9751 30.3814 53.738C30.2449 54.0792 30.2677 54.2953 30.5747 54.5455C31.8259 55.535 33.2362 56.0582 34.965 56.0582V56.0696ZM36.1706 47.1526C36.1479 46.4361 35.5109 45.8219 34.7944 45.8446C34.0779 45.8674 33.4637 46.5043 33.4864 47.2208C33.5092 47.9488 34.1461 48.5516 34.8626 48.5288C35.5792 48.5061 36.1934 47.8691 36.1706 47.1526ZM9.70397 40.6582C9.71534 39.9075 9.15803 39.3161 8.40736 39.3047C7.66807 39.2934 7.05389 39.8734 7.04252 40.6127C7.03114 41.352 7.62258 41.9662 8.35049 41.9776C9.08979 41.9889 9.69259 41.4089 9.70397 40.6582ZM59.9531 40.59C59.9303 41.3406 60.499 41.9548 61.2383 41.9776C61.9662 42.0003 62.5804 41.4202 62.6145 40.681C62.6373 39.9417 62.0686 39.3275 61.3293 39.3047C60.5786 39.282 59.9872 39.8507 59.9644 40.59H59.9531Z" fill="#0D57B7"/>
<path d="M34.8391 11.1319C39.3886 11.1092 43.1419 14.8398 43.1533 19.4006C43.1761 24.0297 39.5023 27.7489 34.8846 27.7831C30.2555 27.8058 26.5363 24.1435 26.5022 19.5257C26.4681 14.8853 30.1645 11.1661 34.8278 11.1433L34.8391 11.1319ZM32.826 19.5599C31.5749 17.8197 31.5635 16.3184 32.7464 15.1582C33.8041 14.1232 35.5329 13.964 36.6362 14.9535C37.1366 15.4085 37.5233 16.1023 37.728 16.7506C38.0579 17.8083 37.5347 18.7182 36.9091 19.4461C37.6484 19.9125 38.4105 20.2878 39.0247 20.8223C39.6388 21.3569 40.1279 22.0507 40.6625 22.6649C42.3685 20.2082 41.6065 16.2729 38.9905 14.1801C36.295 12.0191 32.3142 12.3262 29.9371 14.8625C27.9239 17.0122 27.4917 20.9702 29.1068 22.7104C29.9371 21.1863 31.1654 20.1399 32.826 19.5485V19.5599ZM34.5662 26.1566C36.4201 26.1566 37.8304 25.6334 39.0815 24.6439C39.3886 24.4051 39.4227 24.189 39.2862 23.8478C38.5811 22.1076 36.784 20.8906 34.8732 20.8678C32.9397 20.8451 31.1085 22.0735 30.3806 23.825C30.2214 24.2117 30.301 24.4278 30.6195 24.678C31.8592 25.6334 33.2468 26.1566 34.5775 26.1566H34.5662ZM36.1699 17.251C36.1699 16.5231 35.5443 15.9316 34.805 15.9316C34.0657 15.9316 33.4629 16.5458 33.4743 17.2737C33.4743 18.0017 34.1112 18.6158 34.8278 18.6045C35.5557 18.5931 36.1699 17.9675 36.1585 17.251H36.1699Z" fill="#0D57B7"/>
</svg>
