<svg width="55" height="60" viewBox="0 0 55 60" fill="none" xmlns="http://www.w3.org/2000/svg">
<path d="M26.7604 0C27.5439 0 28.3275 0 29.1123 0C29.2053 0.0270038 29.2961 0.0716187 29.3903 0.0798373C32.9005 0.369834 36.0572 1.58618 38.8062 3.77231C42.7665 6.92236 45.0925 11.0234 45.453 16.0719C45.6651 19.0447 45.5827 22.041 45.5532 25.0266C45.5343 26.9909 44.0249 28.408 42.0407 28.469C41.3419 28.4902 40.6408 28.4725 40.0682 28.4725C39.6133 30.0165 39.2563 31.4946 38.7402 32.9153C38.2088 34.377 37.2614 35.6109 36.175 36.7592C36.8101 38.0272 37.4252 39.287 38.078 40.528C38.1687 40.7006 38.4221 40.8262 38.6271 40.8955C40.1624 41.4191 41.706 41.9193 43.2437 42.4359C48.962 44.3543 52.484 48.3673 54.255 54.004C54.6026 55.1088 54.7428 56.2782 54.9797 57.4183V59.1758C54.645 59.7406 54.1749 60.0047 53.4915 60.0047C36.4496 59.9942 19.4089 59.9977 2.36701 59.9954C1.30417 59.9954 0.876449 59.5457 0.90355 58.4761C0.968357 55.9436 1.53866 53.5262 2.66041 51.2567C4.63172 47.2695 7.57749 44.2897 11.8241 42.7352C13.6222 42.0766 15.4568 41.5189 17.2644 40.8861C17.5071 40.8015 17.764 40.5808 17.8853 40.3542C18.4556 39.2882 18.9717 38.1939 19.5303 37.1208C19.6716 36.8496 19.6186 36.697 19.4407 36.4598C18.7832 35.5898 18.1163 34.7198 17.5578 33.7876C17.282 33.3274 17.0334 33.1254 16.489 33.1489C15.1234 33.21 14.0052 32.7004 13.2263 31.5463C12.6478 30.688 12.6395 29.7124 12.6371 28.7285C12.6371 28.5301 12.4969 28.2342 12.3343 28.1473C10.9439 27.4159 10.2958 26.2712 10.2994 24.7237C10.3041 22.4977 10.31 20.2728 10.2994 18.0467C10.2829 15.0294 10.8709 12.1494 12.3002 9.47598C14.6638 5.05675 18.2565 2.10042 23.0887 0.707969C24.28 0.366312 25.5337 0.231293 26.7604 0ZM19.9674 33.1829C20.3739 34.1128 21.4686 35.3421 22.5503 36.1181C27.7808 39.8705 35.2088 37.4449 37.0611 30.5589C37.6656 28.3129 37.8423 25.9495 38.1534 23.6307C38.316 22.419 38.3419 21.1886 38.4303 19.9687C37.1566 19.7339 35.9358 19.5648 34.7422 19.2772C31.2309 18.433 28.1343 16.7893 25.4489 14.3742C25.2828 14.2251 25.0023 14.103 24.789 14.123C23.2325 14.2615 21.835 14.8239 20.5848 15.7632C19.3076 16.7236 18.4816 18.0655 17.5413 19.3089C17.4411 19.4415 17.4435 19.6811 17.4611 19.8654C17.7051 22.4484 17.9372 25.0325 18.2247 27.6108C18.3449 28.6851 18.5923 29.7453 18.7797 30.8007H22.2498C22.8613 29.4024 23.8994 28.5747 25.4406 28.489C26.2996 28.4408 27.1657 28.4479 28.0259 28.4855C29.9877 28.5712 31.4748 30.1163 31.4606 32.0159C31.4477 33.9144 29.9406 35.4266 27.974 35.4971C27.3672 35.5182 26.758 35.4794 26.1523 35.5076C24.3342 35.5922 23.0027 34.8795 22.2463 33.1606C21.5617 33.1606 20.8771 33.1606 20.1936 33.1606C20.1229 33.1606 20.0534 33.1724 19.9698 33.1806L19.9674 33.1829ZM25.8719 57.6225C22.6964 53.0049 19.5703 48.4777 17.8323 43.179C16.3111 43.6862 14.9113 44.1852 13.4926 44.6208C9.80332 45.7526 7.10145 48.0773 5.22087 51.3882C4.12858 53.3102 3.48169 55.3765 3.31437 57.6225H25.8719ZM30.0042 57.6096H52.5889C52.0598 53.0542 50.1015 49.357 46.4369 46.6109C43.9637 44.7582 40.9272 44.2792 38.045 43.1579C36.2976 48.487 33.181 53.0037 30.0054 57.6108L30.0042 57.6096ZM17.4482 15.3346C17.5024 15.3652 17.5554 15.3957 17.6096 15.4262C17.6886 15.317 17.7557 15.1961 17.8476 15.0998C19.8036 13.0299 22.218 11.9439 25.053 11.7302C25.7069 11.6809 26.2242 11.8594 26.7003 12.309C27.2529 12.8315 27.8326 13.3316 28.4418 13.7884C31.41 16.0132 34.7764 17.1873 38.4574 17.5301C38.8934 13.4948 36.6016 9.37383 32.5152 7.71134C30.7171 6.97989 28.8448 7.00807 26.9642 7.03038C23.9018 7.06677 21.3826 8.25376 19.4513 10.6242C18.3307 11.9991 17.6615 13.577 17.4482 15.3335V15.3346ZM43.1341 16.3831C42.6062 8.52028 35.653 1.86326 27.0196 2.38573C18.2483 2.91758 12.9164 10.2955 12.788 16.3631H14.9891C15.002 16.2246 15.0126 16.1271 15.0197 16.0309C15.0279 15.9334 15.0291 15.836 15.0397 15.7385C15.5947 10.6688 18.2318 7.17831 23.0239 5.35262C25.2415 4.50728 27.5722 4.5836 29.8746 4.7421C34.9084 5.08728 39.122 8.59072 40.4217 13.4444C40.6762 14.3942 40.7834 15.3839 40.9637 16.3831H43.1341ZM32.1959 50.1272C30.677 48.6138 29.2301 47.1721 27.7478 45.6951C26.5212 46.9878 25.2686 48.3262 23.9901 49.6388C23.7062 49.9312 23.6732 50.1261 23.9065 50.4759C25.2097 52.4202 26.4846 54.3833 27.7713 56.3393C27.8102 56.3992 27.8656 56.4485 27.9363 56.5295C29.3797 54.3598 30.7996 52.2241 32.1947 50.1272H32.1959ZM33.4531 47.765C33.4531 47.765 33.4909 47.7509 33.505 47.7192C34.3286 45.8289 35.1511 43.9375 35.9677 42.0449C36.0113 41.9439 36.0537 41.7983 36.0124 41.7138C35.5152 40.6935 35.0026 39.6815 34.4665 38.6131C32.7544 40.4188 31.1107 42.1529 29.5129 43.8377C30.8573 45.1785 32.1535 46.47 33.4531 47.7662V47.765ZM26.084 44.0373C24.4261 42.3889 22.7977 40.771 21.1469 39.1308C20.7793 39.8588 20.3645 40.6254 20.0098 41.4191C19.9061 41.6516 19.8873 41.9874 19.9709 42.2269C20.2855 43.1274 20.6332 44.0185 21.0161 44.892C21.4485 45.8818 21.9316 46.8504 22.423 47.893C23.7085 46.5393 24.9151 45.2689 26.084 44.0373ZM15.5735 26.1267C15.3755 23.6354 15.1823 21.2156 14.9902 18.7946H12.6525C12.6525 20.8457 12.6419 22.8511 12.6584 24.8552C12.6642 25.6125 13.1096 26.0786 13.839 26.1197C14.4011 26.1514 14.9655 26.1256 15.5747 26.1256L15.5735 26.1267ZM40.2991 26.1303C40.7975 26.1303 41.2806 26.1338 41.7649 26.1303C42.7889 26.1197 43.2166 25.6912 43.2201 24.658C43.2249 22.8475 43.2225 21.0359 43.2201 19.2255C43.2201 19.0776 43.1954 18.9285 43.1824 18.7794H40.8836C40.6891 21.2297 40.4971 23.6483 40.3003 26.1314L40.2991 26.1303ZM26.7344 33.1536C27.1457 33.1536 27.5592 33.1794 27.9669 33.1477C28.6221 33.0961 29.0863 32.6135 29.1017 32.0159C29.1181 31.4007 28.6398 30.8653 27.9599 30.8336C27.1586 30.796 26.3538 30.7972 25.5526 30.8336C24.8963 30.8641 24.4332 31.3655 24.4179 31.9619C24.4026 32.5771 24.881 33.0925 25.5597 33.1466C25.9485 33.1783 26.3421 33.1524 26.7344 33.1512V33.1536ZM25.8059 40.103C26.4186 40.717 27.1268 41.4261 27.8621 42.1623C28.4677 41.5212 29.1064 40.845 29.8075 40.103H25.8059ZM15.0645 28.5007C14.8323 29.784 15.0939 30.9322 16.3606 30.735C16.2263 29.993 16.0908 29.2498 15.9553 28.5007H15.0645Z" fill="white"/>
<path d="M45.1525 48.6338C45.3316 48.7312 45.6474 48.8463 45.8972 49.0447C47.1662 50.0544 48.1713 51.2872 48.9348 52.7161C49.3001 53.3994 49.1693 54.0639 48.6037 54.4126C48.0052 54.7813 47.317 54.6075 46.9199 53.896C46.2448 52.6867 45.387 51.6453 44.3218 50.7612C43.9011 50.4125 43.7043 49.9581 43.9235 49.4063C44.1167 48.9203 44.495 48.689 45.1525 48.6338Z" fill="white"/>
<path d="M42.0343 47.5863C42.026 48.2015 41.4711 48.7451 40.856 48.7368C40.2385 48.7286 39.6942 48.1756 39.7012 47.5628C39.7083 46.9476 40.2645 46.4051 40.8795 46.4122C41.497 46.4192 42.0414 46.9734 42.0343 47.5863Z" fill="white"/>
</svg>
