<svg width="65" height="63" viewBox="0 0 65 63" fill="none" xmlns="http://www.w3.org/2000/svg">
<path d="M4.51206 0C19.7238 0 34.9475 0 50.1593 0C50.3268 0 50.5901 0.03538 50.7457 0.0825533C53.1992 0.731187 54.2524 2.08742 54.2644 4.57581C54.2644 7.09959 54.2644 9.62336 54.2644 12.1471C54.2644 12.383 54.2644 12.6189 54.2644 12.8901C56.3828 12.8901 58.3935 12.8901 60.4042 12.8901C63.3244 12.8901 65 14.553 65 17.4305C65 26.3581 65 35.2739 65 44.2014C65 49.874 65 55.5466 64.988 61.2074C64.988 61.632 64.8444 62.1273 64.605 62.4693C64.1143 63.1533 63.2885 63.1533 62.4029 62.599C57.6036 59.5681 52.8043 56.5137 47.981 53.5064C47.5621 53.2469 47.0714 53.1054 46.5807 53.1054C36.1563 53.0818 25.7199 53.0936 15.2955 53.0818C12.4471 53.0818 10.7715 51.4189 10.7595 48.6121C10.7595 47.4682 10.7595 46.3242 10.7595 45.1685C10.7595 45.0152 10.7236 44.8736 10.6997 44.6732C10.4484 44.8265 10.2688 44.9326 10.0893 45.0387C7.6358 46.5837 5.18229 48.1404 2.71681 49.6853C1.84312 50.2396 1.2088 50.2986 0.658258 49.8386C0.21543 49.4966 0 48.9777 0 48.4352C0 33.9294 0 19.4236 0 4.91782C0 3.70311 0.335113 2.51198 1.02928 1.50955C1.06518 1.46237 1.10109 1.40341 1.13699 1.35623C1.48407 0.896294 1.93887 0.60146 2.44154 0.400973C3.0998 0.117933 3.80593 0 4.51206 0ZM3.05192 45.8879C3.3272 45.7228 3.49475 45.6284 3.65034 45.5341C7.74351 42.9513 11.8367 40.3686 15.9179 37.7741C16.4924 37.4085 17.0668 37.2434 17.761 37.2434C28.3769 37.2551 38.9928 37.2434 49.6207 37.2434C50.9133 37.2434 51.2245 36.9367 51.2245 35.6513C51.2245 25.3085 51.2245 14.9775 51.2245 4.63478C51.2245 3.32572 50.9133 3.03089 49.5728 3.03089C34.6124 3.03089 19.664 3.03089 4.70355 3.03089C3.3631 3.03089 3.05192 3.33751 3.05192 4.64657C3.05192 18.1264 3.05192 31.6179 3.05192 45.0977V45.8879ZM61.9481 58.7544C61.9481 58.4124 61.9481 58.2119 61.9481 58.0114C61.9481 44.4845 61.9481 30.9575 61.9481 17.4305C61.9481 17.2654 61.9481 17.1003 61.9481 16.9352C61.8882 16.3692 61.5052 15.921 60.9427 15.9092C58.7406 15.8856 56.5504 15.9092 54.2644 15.9092V16.7465C54.2644 23.0678 54.2644 29.3772 54.2644 35.6984C54.2644 36.3117 54.2046 36.9603 54.0131 37.5382C53.4266 39.2836 51.8588 40.2624 49.7523 40.2624C39.2801 40.2624 28.8078 40.2624 18.3355 40.2624C18.0123 40.2624 17.6413 40.2978 17.378 40.4511C16.2889 41.088 15.2237 41.772 14.1705 42.4678C14.0029 42.5739 13.8234 42.8098 13.8115 42.9867C13.7875 45.0034 13.7875 47.0318 13.8115 49.0485C13.8115 49.6735 14.2184 50.0155 14.8647 50.0745C15.0921 50.0981 15.3314 50.0863 15.5588 50.0863C26.091 50.0863 36.6231 50.0863 47.1672 50.0863C47.8733 50.0863 48.4717 50.2278 49.0702 50.617C50.9013 51.8081 52.7684 52.9639 54.6115 54.1314C57.0171 55.641 59.4108 57.1623 61.9361 58.7544H61.9481Z" fill="#0D57B7"/>
<path d="M27.1438 29.2943C21.4588 29.2943 15.7619 29.2943 10.077 29.2943C9.82562 29.2943 9.56231 29.2943 9.31098 29.2707C8.64075 29.2 8.10218 28.6693 8.00643 28.0089C7.91068 27.3366 8.30564 26.6408 8.95193 26.4168C9.19129 26.3342 9.44263 26.2988 9.69396 26.2988C21.3032 26.2988 32.9125 26.2988 44.5218 26.2988C45.3716 26.2988 45.958 26.6762 46.1734 27.3131C46.4966 28.2683 45.8503 29.2236 44.833 29.2825C44.2465 29.3179 43.6481 29.2943 43.0617 29.2943C37.7477 29.2943 32.4458 29.2943 27.1318 29.2943H27.1438Z" fill="#0D57B7"/>
<path d="M27.0962 21.6404C21.4113 21.6404 15.7143 21.6404 10.0294 21.6404C9.80198 21.6404 9.56261 21.6404 9.33521 21.6168C8.53333 21.5107 7.95885 20.8385 7.99476 20.0601C8.03066 19.3053 8.62908 18.7039 9.41899 18.6449C9.61048 18.6331 9.80198 18.6449 9.99347 18.6449C21.4113 18.6449 32.841 18.6449 44.2588 18.6449C44.4503 18.6449 44.6418 18.6449 44.8333 18.6449C45.6352 18.7039 46.2216 19.2817 46.2575 20.0601C46.2934 20.8502 45.7429 21.5225 44.929 21.6286C44.7016 21.664 44.4623 21.6522 44.2349 21.6522C38.526 21.6522 32.8171 21.6522 27.1082 21.6522L27.0962 21.6404Z" fill="#0D57B7"/>
<path d="M19.1852 10.9795C22.3568 10.9795 25.5284 10.9795 28.7 10.9795C29.6814 10.9795 30.3038 11.4866 30.3756 12.3239C30.4474 13.114 29.9687 13.7627 29.1787 13.916C28.9154 13.975 28.6282 13.975 28.3649 13.975C22.2611 13.975 16.1452 13.975 10.0414 13.975C9.76612 13.975 9.49084 13.975 9.22754 13.916C8.4496 13.7627 7.94693 13.0905 8.00677 12.3239C8.06661 11.5809 8.64109 11.0266 9.431 10.9795C10.0653 10.9441 10.6996 10.9677 11.334 10.9677C13.955 10.9677 16.5761 10.9677 19.1972 10.9677L19.1852 10.9795Z" fill="#0D57B7"/>
</svg>
