<svg width="59" height="66" viewBox="0 0 59 66" fill="none" xmlns="http://www.w3.org/2000/svg">
<path d="M38.3303 7.34486C38.3279 6.95214 38.1419 6.4647 37.8758 6.18437C36.0516 4.25358 34.1966 2.35436 32.3158 0.481662C32.0546 0.22153 31.6063 0.027062 31.2417 0.0232736C28.1082 -0.0120841 24.9746 0.000543632 21.8411 0.00433197C21.0011 0.00433197 20.6513 0.369275 20.6513 1.23807C20.6488 8.48263 20.6488 15.7272 20.6513 22.9717C20.6513 23.8342 21.006 24.1928 21.8497 24.1954C23.8365 24.2017 25.8233 24.1979 27.8101 24.1979H28.4912C28.5023 24.3659 28.5146 24.4669 28.5146 24.5679C28.5159 28.4105 28.5073 31.767 28.5282 35.6096V35.6159L28.4949 38.1731V38.4787C27.7571 37.6566 27.0797 36.9002 26.3837 36.1261C25.8085 36.731 25.3823 37.1805 24.8786 37.7109C25.3774 38.2072 25.8911 38.7072 26.3961 39.2199C27.1671 40.0016 27.9259 40.7984 28.7019 41.5763C29.2044 42.0814 29.7131 42.1483 30.1676 41.6937C31.4831 40.3754 32.7678 39.0229 34.0932 37.6541C33.6177 37.2108 33.1558 36.7802 32.6089 36.2701C31.9807 36.9621 31.3058 37.7071 30.5199 38.5734V38.168L30.4706 35.5099V35.4821C30.4928 31.7657 30.483 28.5343 30.483 24.8179V24.1979C32.7493 24.1979 34.9197 24.2004 37.09 24.1966C38.0113 24.1954 38.3476 23.8506 38.3488 22.9048C38.3513 17.7186 38.3599 12.5324 38.3303 7.34486ZM32.4821 3.80277C33.1657 4.50487 33.9392 5.29916 34.6437 6.02273H32.4821V3.80277ZM36.3472 22.1484H22.6442V2.06645H30.483V4.04522C30.483 4.98978 30.4756 5.93434 30.4854 6.87763C30.4928 7.69718 30.85 8.06086 31.6568 8.06591C33.008 8.07348 34.3592 8.06717 35.7104 8.06717H36.3472V22.1484Z" fill="white"/>
<path d="M58.639 6.27198C56.7286 4.31088 54.828 2.33969 52.8893 0.407637C52.6454 0.163921 52.2008 0.0237528 51.8472 0.0199644C48.7544 -0.00907947 45.6615 0.00102275 42.5686 0.00481109C41.6399 0.00481109 41.3012 0.345761 41.3012 1.28527C41.2987 8.48815 41.2987 15.691 41.3012 22.8939C41.3012 23.8688 41.6337 24.1958 42.6093 24.1971C44.5763 24.1996 46.5422 24.1984 48.5093 24.1984H49.1485C49.0734 25.9372 47.8626 27.1798 46.2675 27.2164C45.2846 27.2391 44.3017 27.2139 43.3175 27.224C40.5153 27.2543 38.3869 29.4288 38.3524 32.2928C38.3462 32.7638 38.3512 33.2348 38.3512 33.7058C38.3019 33.7286 38.2514 33.7513 38.2021 33.774C37.5123 33.0391 36.8226 32.3041 36.2018 31.6425C35.6869 32.121 35.225 32.5504 34.7705 32.9722C34.8062 33.0416 34.8185 33.0845 34.8456 33.1136C36.0466 34.3473 37.2451 35.5836 38.4497 36.8135C39.1087 37.4853 39.5632 37.4828 40.2308 36.8034C41.364 35.648 42.4922 34.4888 43.6193 33.3283C43.7289 33.2159 43.8176 33.0833 43.8508 33.0429C43.4087 32.5315 43.0046 32.0642 42.507 31.4884C41.8049 32.2789 41.1361 33.0302 40.4673 33.7829C40.418 33.7563 40.3675 33.7298 40.317 33.702C40.317 33.25 40.3133 32.7992 40.3182 32.3471C40.3392 30.5438 41.5881 29.2583 43.3458 29.2406C44.3497 29.2305 45.3536 29.2558 46.3574 29.2305C48.4501 29.18 50.2768 27.7619 50.8927 25.7061C51.0355 25.2339 51.0971 24.7351 51.2055 24.1984C53.3229 24.1984 55.4488 24.1794 57.576 24.2097C58.1759 24.2186 58.6526 24.0784 59.0012 23.5682V6.68238C58.8804 6.54474 58.7671 6.40204 58.6403 6.27198H58.639ZM53.1381 3.53049C53.972 4.38286 54.7369 5.16452 55.5535 5.99922H53.1381V3.53049ZM56.9897 22.1565H43.3027V2.05304H51.0984C51.1094 2.21594 51.1316 2.39525 51.1328 2.57456C51.1353 3.9169 51.1328 5.26049 51.1328 6.60409C51.1341 7.7911 51.4088 8.06765 52.5912 8.06765C54.0422 8.06891 55.4944 8.06765 56.9885 8.06765V22.1565H56.9897Z" fill="white"/>
<path d="M22.8028 31.492C22.0884 32.2535 21.4035 32.9834 20.6485 33.7877C20.6485 33.2334 20.6534 32.7775 20.6485 32.3217C20.6152 29.4173 18.4905 27.2491 15.6501 27.2238C14.6672 27.215 13.683 27.2415 12.7013 27.215C11.1112 27.1708 9.88188 25.8802 9.85848 24.1982C12.0793 24.1982 14.2484 24.1995 16.4162 24.1969C17.3721 24.1957 17.6985 23.8585 17.6985 22.866C17.6997 17.7012 17.7095 12.5365 17.6788 7.37295C17.6763 6.96255 17.478 6.45365 17.1996 6.15942C15.3927 4.24379 13.5512 2.35972 11.6851 0.503439C11.4092 0.230679 10.9399 0.0286342 10.5581 0.0248459C7.44675 -0.0130374 4.33416 0.000853127 1.2228 0.00464146C0.342114 0.00590424 0.0009238 0.359482 0.0009238 1.26868C-0.000307933 8.49051 -0.000307933 15.7123 0.0009238 22.9342C0.0009238 23.8408 0.344577 24.1944 1.22527 24.1969C3.21082 24.2007 5.19761 24.1982 7.18439 24.1982H7.83351C8.18456 27.4764 10.0999 29.238 13.2384 29.2392C13.9749 29.2392 14.714 29.2619 15.4493 29.2342C17.7034 29.1496 19.1716 31.0159 18.525 33.9292C17.765 33.1008 17.0838 32.3583 16.431 31.6473C15.974 32.0918 15.5318 32.5212 15.0453 32.9935C16.1391 34.111 17.2095 35.2046 18.2786 36.3007C19.615 37.6695 19.7197 37.6695 21.0611 36.2944C22.1302 35.1995 23.1994 34.1034 24.1946 33.0856C23.7352 32.5603 23.3201 32.0843 22.8028 31.492ZM11.8342 3.62629C12.6052 4.43068 13.3689 5.22623 14.1153 6.0041H11.8342V3.62629ZM2.00372 22.1386V2.05539H9.83261C9.83261 3.58714 9.83138 5.09237 9.83261 6.59761C9.83261 7.78967 10.1073 8.06748 11.2848 8.06748C12.737 8.06874 14.1893 8.06748 15.687 8.06748V22.1386H2.00372Z" fill="white"/>
<path d="M34.3937 10.1338V12.0633H24.6162V10.1338H34.3937Z" fill="white"/>
<path d="M24.6113 16.101V14.1602H34.379V16.101H24.6113Z" fill="white"/>
<path d="M24.5957 8.02868V6.10547H28.4695V8.02868H24.5957Z" fill="white"/>
<path d="M26.5184 20.1398H24.624V18.1875H26.5184V20.1398Z" fill="white"/>
<path d="M28.54 20.117V18.1875H30.4529V20.117H28.54Z" fill="white"/>
<path d="M34.3794 20.1345H32.4961V18.1924H34.3794V20.1345Z" fill="white"/>
<path d="M45.2617 12.0581V10.1172H55.017V12.0581H45.2617Z" fill="white"/>
<path d="M55.0375 14.1602V16.1023H45.2822V14.1602H55.0375Z" fill="white"/>
<path d="M45.2617 20.1235V18.1826H55.017V20.1235H45.2617Z" fill="white"/>
<path d="M49.1344 8.04238H45.2754V6.08887H49.1344V8.04238Z" fill="white"/>
<path d="M13.7209 12.0754H3.9668V10.1357H13.7209V12.0754Z" fill="white"/>
<path d="M3.97852 14.1436H13.7326V16.0832H3.97852V14.1436Z" fill="white"/>
<path d="M3.96094 20.1235V18.1826H13.7163V20.1235H3.96094Z" fill="white"/>
<path d="M7.838 6.09668V8.03757H3.98145V6.09668H7.838Z" fill="white"/>
<path d="M19.2655 42C19.9035 42.169 20.1585 42.6176 20.2795 43.2397C21.013 47.0262 21.7721 50.8075 22.5204 54.5914C22.6671 55.3325 23.0386 55.6474 23.8022 55.6474C27.4229 55.6493 31.0442 55.6493 34.6649 55.6474C35.3927 55.6474 35.7764 55.3415 35.9276 54.6394C36.5009 51.9807 37.0704 49.3213 37.6386 46.6614C37.7975 45.9189 37.3311 45.3237 36.5682 45.2955C36.228 45.2827 35.8866 45.2981 35.5458 45.2904C34.8552 45.2744 34.3792 44.8251 34.3805 44.1985C34.3818 43.5706 34.8584 43.1098 35.5483 43.1111C36.1326 43.1124 36.7315 43.0791 37.2978 43.1917C39.1146 43.5527 40.2177 45.2808 39.8269 47.1055C39.2484 49.8065 38.6572 52.5049 38.0601 55.202C37.7084 56.7886 36.4368 57.8197 34.8084 57.8242C31.0916 57.8338 27.3749 57.8351 23.6581 57.8242C22.0271 57.8191 20.7344 56.7476 20.4128 55.1559C19.703 51.6466 18.999 48.1354 18.3097 44.6222C18.2431 44.2824 18.1245 44.18 17.7786 44.1902C16.885 44.2177 15.9888 44.1723 15.0958 44.2081C14.3982 44.2356 13.8972 44.0142 13.6416 43.3415V42.8948C13.8088 42.4333 14.1201 42.1267 14.5999 42H19.2655Z" fill="white"/>
<path d="M30.0122 49.6975C30.0122 50.3753 30.0141 51.0442 30.0122 51.713C30.0096 52.4298 29.574 52.9137 28.9341 52.9182C28.289 52.9227 27.8367 52.4215 27.8341 51.6964C27.8316 51.0474 27.8309 50.399 27.8284 49.75C27.8284 49.7308 27.8149 49.7116 27.7938 49.654C27.1622 49.654 26.5171 49.6566 25.8713 49.6521C25.7131 49.6508 25.5504 49.6457 25.3973 49.6092C24.8566 49.4812 24.5229 49.0012 24.5722 48.4444C24.6183 47.9208 25.0488 47.4984 25.5908 47.4824C26.2077 47.4645 26.8258 47.476 27.4427 47.4747C27.558 47.4747 27.6734 47.4747 27.8335 47.4747C27.8335 46.9537 27.8335 46.4583 27.8335 45.9629C27.8335 45.7287 27.8258 45.4944 27.8361 45.2608C27.863 44.6528 28.3421 44.1958 28.9347 44.2022C29.5317 44.2086 29.9994 44.6675 30.0084 45.28C30.0186 45.9917 30.0109 46.7041 30.0109 47.4568C30.1384 47.4632 30.2505 47.4734 30.362 47.4741C30.9584 47.476 31.5541 47.4696 32.1505 47.4766C32.8187 47.4849 33.2812 47.933 33.2818 48.5576C33.2825 49.1798 32.8155 49.6406 32.155 49.6515C31.4741 49.6623 30.7925 49.6579 30.1115 49.6611C30.0923 49.6611 30.0731 49.6745 30.0128 49.6969L30.0122 49.6975Z" fill="white"/>
<path d="M34.3604 65.9998C32.575 65.9972 31.0907 64.4989 31.1016 62.7094C31.1125 60.9141 32.6013 59.4426 34.3943 59.4542C36.181 59.4663 37.6537 60.9384 37.6537 62.7119C37.6537 64.5264 36.1752 66.0023 34.3604 65.9998ZM34.3719 61.6431C33.7608 61.6495 33.272 62.1481 33.2886 62.7491C33.3047 63.3424 33.7941 63.8192 34.3841 63.816C34.9862 63.8128 35.4757 63.3097 35.4648 62.7043C35.4545 62.1109 34.9664 61.6373 34.3719 61.6431Z" fill="white"/>
<path d="M21.2959 62.7266C21.294 60.9217 22.7514 59.4612 24.5617 59.4541C26.3407 59.4471 27.8262 60.9198 27.8307 62.6946C27.8352 64.5219 26.3823 65.9901 24.5617 65.9997C22.768 66.0087 21.2978 64.5353 21.2965 62.7266H21.2959ZM24.5828 61.6437C23.9691 61.6354 23.4823 62.1064 23.4778 62.7138C23.4733 63.3212 23.9531 63.8108 24.5572 63.816C25.1523 63.8204 25.652 63.3218 25.6526 62.7228C25.6526 62.1346 25.1741 61.6514 24.5828 61.6437Z" fill="white"/>
</svg>
