<svg width="66" height="66" viewBox="0 0 66 66" fill="none" xmlns="http://www.w3.org/2000/svg">
<g clip-path="url(#clip0_1018_5443)">
<path d="M65.9998 4.67375V45.9214C65.9743 45.9596 65.9296 45.9915 65.9232 46.0298C65.0687 49.1605 63.194 50.5951 59.9545 50.5951C53.9284 50.5951 47.9024 50.5951 41.8763 50.5951H41.0856C41.9528 53.4899 42.7818 56.2891 43.649 59.0818C43.6937 59.2285 44.0189 59.3751 44.2229 59.3751C45.46 59.4006 46.6971 59.3879 47.9342 59.3879C49.2351 59.3879 49.6624 59.8916 49.4647 61.1796C49.0311 64.0234 46.7928 65.9681 43.9105 65.9809C40.2438 65.9936 36.5771 65.9809 32.9105 65.9809C29.2693 65.9809 25.6218 66 21.9806 65.9745C19.0983 65.9554 16.7261 63.7301 16.5221 60.9182C16.4455 59.8342 16.8473 59.3879 17.9313 59.3879C19.3725 59.3879 20.8137 59.3879 22.2867 59.3879C23.1667 56.4548 24.034 53.5537 24.9267 50.5887H24.0786C18.0079 50.5887 11.9371 50.5887 5.86642 50.5887C2.63337 50.5887 0.0125042 47.9681 0.0125042 44.7354C0.0125042 38.6397 0.0125042 32.5505 0.0125042 26.4548C0.0125042 19.5112 -0.000249409 12.5739 0.0125042 5.63018C0.0125042 3.25824 1.12207 1.53029 3.26468 0.490967C3.37308 0.439957 3.48787 0.388948 3.60903 0.344315C4.24671 0.108395 4.92903 0 5.61135 0C23.9893 0 42.3673 0 60.7453 0C61.0896 0 61.434 0.0573858 61.7656 0.146653C63.5319 0.605739 64.7945 1.67056 65.5406 3.32837C65.7319 3.75558 65.8467 4.22104 65.9934 4.67375H65.9998ZM63.7998 39.5707C63.7998 39.2901 63.7998 39.0861 63.7998 38.882C63.7998 27.864 63.7998 16.8395 63.7998 5.82147C63.7998 3.54516 62.4479 2.20616 60.1522 2.20616C42.0485 2.20616 23.9447 2.20616 5.84091 2.20616C3.29656 2.20616 1.81077 4.017 2.28903 6.60574H3.02236C5.31163 6.60574 7.60729 6.56748 9.89656 6.61849C11.3122 6.65037 12.6641 6.45909 14.0096 6.03826C15.7122 5.50266 17.4403 5.05632 19.1429 4.53985C19.6913 4.37407 20.1569 4.43783 20.6542 4.69288C23.1667 5.96812 25.6728 7.23061 28.2044 8.46121C28.638 8.67163 29.1545 8.7864 29.6392 8.79277C35.8055 8.8119 41.9656 8.80553 48.1319 8.80553C50.3256 8.80553 51.6966 10.17 51.6966 12.3634C51.6966 15.3666 51.6966 18.3634 51.6966 21.3666V22.0744C55.8479 22.9671 58.4177 26.1041 58.2902 30.0191C58.1627 33.762 55.325 36.8353 51.4479 37.3518C49.7134 37.5813 48.0682 37.186 46.5824 36.2614C44.5673 35.0053 43.4003 33.1626 42.9667 30.8098H42.1058C35.5058 30.8098 28.9058 30.8098 22.3058 30.8098C20.0612 30.8098 18.7029 29.458 18.6902 27.2327C18.6902 26.9713 18.6902 26.7035 18.6902 26.4485H2.24439V39.5834H63.7998V39.5707ZM63.7934 41.847H2.19975C2.19975 42.7906 2.19975 43.6769 2.19975 44.5696C2.19975 47.1392 3.46236 48.3953 6.05134 48.3953C24.0148 48.3953 41.9847 48.3953 59.9482 48.3953C60.2032 48.3953 60.4519 48.4017 60.707 48.3889C62.3458 48.2869 63.7041 46.9671 63.7806 45.3284C63.8316 44.187 63.7934 43.0393 63.7934 41.847ZM18.7029 18.7141C18.7029 16.4633 18.6902 14.3146 18.7029 12.1658C18.7157 10.2338 20.1186 8.83103 22.0444 8.80553C22.5737 8.79915 23.1093 8.80553 23.6386 8.80553C22.4971 8.08502 21.3493 7.47928 20.1696 6.9373C19.8763 6.8034 19.4618 6.78427 19.1429 6.86716C17.5742 7.27524 15.9992 7.69607 14.456 8.19341C13.0212 8.6525 11.58 8.86291 10.0751 8.82465C7.71569 8.76727 5.35627 8.8119 2.99685 8.8119H2.24439V24.2104C2.44207 24.2104 2.60149 24.2104 2.76091 24.2104C9.99859 24.2104 17.2426 24.2104 24.4803 24.2104C25.6282 24.2104 26.3742 23.5664 26.3934 22.5909C26.4125 21.5898 25.6473 20.9139 24.474 20.9139C22.0699 20.9139 19.6595 20.9139 17.2554 20.9139C17.0131 20.9139 16.7708 20.9139 16.5348 20.9139V18.7269H18.7029V18.7141ZM42.954 28.5972C43.7511 24.9564 45.9192 22.8204 49.4711 22.0553V20.9331H28.3192C28.3192 21.0159 28.3064 21.0669 28.3192 21.1052C29.365 23.458 27.5858 26.5887 24.3082 26.4102C23.1986 26.3464 22.0763 26.3975 20.9731 26.3975C20.7499 27.8895 20.9412 28.6291 22.7458 28.6164C29.2055 28.5654 35.6653 28.5972 42.125 28.5972H42.954ZM27.216 50.6142C26.336 53.5473 25.4687 56.4357 24.6015 59.3369H41.4108C40.5244 56.3911 39.6571 53.5027 38.7899 50.6142H27.216ZM49.5029 14.2763C49.5029 13.6578 49.5029 13.1158 49.5029 12.5675C49.5029 11.3177 49.1777 10.9989 47.9087 10.9989C39.434 10.9989 30.9655 10.9989 22.4908 10.9989C22.2867 10.9989 22.0763 10.9798 21.8722 11.0117C21.3366 11.0946 20.9667 11.4198 20.9284 11.949C20.8774 12.7141 20.9157 13.4857 20.9157 14.2699H49.5029V14.2763ZM50.5615 35.1966C53.5969 35.2157 56.0902 32.7481 56.1029 29.7258C56.1157 26.7163 53.6734 24.2359 50.6827 24.204C47.6409 24.1722 45.1348 26.6206 45.1093 29.6429C45.0838 32.678 47.5389 35.1838 50.5679 35.1966H50.5615ZM49.4711 16.5462H20.9603V18.6695H49.4711V16.5462ZM18.9006 61.6259C19.0855 61.9575 19.2067 62.2508 19.398 62.4867C20.1122 63.3921 21.056 63.7938 22.2102 63.7938C28.3702 63.7811 34.5302 63.7938 40.6902 63.7938C41.8125 63.7938 42.9348 63.8066 44.0571 63.7938C45.4537 63.7683 46.678 62.8757 47.0032 61.6323H18.9006V61.6259Z" fill="#0D57B7"/>
<path d="M31.8583 25.2624H29.7412V23.1455H31.8583V25.2624Z" fill="#0D57B7"/>
<path d="M36.2714 23.1455V25.2624H34.1543V23.1455H36.2714Z" fill="#0D57B7"/>
<path d="M38.554 23.1201H40.6583V25.2561H38.554V23.1201Z" fill="#0D57B7"/>
<path d="M49.4396 30.4336C50.7405 29.1201 51.9074 27.9341 53.1063 26.7227C53.6228 27.271 54.0883 27.762 54.5921 28.304C54.5155 28.3932 54.4135 28.5399 54.2923 28.661C53.017 29.9426 51.7416 31.2243 50.4535 32.4995C49.7712 33.1754 49.2419 33.169 48.5596 32.5122C47.89 31.8619 47.2205 31.2051 46.5254 30.5292C47.0865 29.9809 47.5839 29.4899 48.1387 28.9479C48.5468 29.4134 48.9486 29.8725 49.4396 30.4336Z" fill="#0D57B7"/>
</g>
<defs>
<clipPath id="clip0_1018_5443">
<rect width="66" height="66" fill="white"/>
</clipPath>
</defs>
</svg>
