<svg width="66" height="67" viewBox="0 0 66 67" fill="none" xmlns="http://www.w3.org/2000/svg">
<path d="M64.4655 13.9472C58.2638 13.4602 52.3273 11.941 46.8801 8.91373C42.635 6.55332 38.5143 3.96324 34.3909 1.3953C33.3352 0.736712 32.5558 0.769919 31.5277 1.43127C28.5982 3.31572 25.5692 5.04521 22.6286 6.91306C16.1864 11.0002 9.17763 13.3384 1.58297 13.9583C0.0435872 14.0828 -0.199619 14.4536 0.126498 16.0088C1.26514 21.4435 2.35681 26.8893 3.5452 32.313C7.08827 48.4899 16.4213 59.9101 31.6493 66.4572C32.0666 66.6371 32.4978 66.7838 32.857 66.9193C33.0809 66.8861 33.2218 66.8834 33.349 66.8419C33.6115 66.7561 33.8686 66.6592 34.1228 66.5541C47.5047 60.9339 56.7575 51.3318 60.9998 37.424C63.1749 30.2957 64.3439 22.8548 65.9469 15.5522C66.2039 14.3761 65.4991 14.0302 64.4655 13.9472ZM61.6134 25.4366C60.4471 30.8104 59.5959 36.2645 57.2937 41.3395C52.5125 51.8797 44.8266 59.4397 34.2693 64.1217C33.3462 64.5313 32.5751 64.523 31.6714 64.1107C17.7258 57.7627 9.0809 47.1063 5.76169 32.1442C4.59264 26.8672 3.53691 21.5625 2.46736 16.4571C6.41669 15.4719 10.2306 14.6861 13.9423 13.5571C19.442 11.8857 24.1099 8.54293 28.9796 5.61802C30.3089 4.8183 31.6576 3.43195 32.998 3.43471C34.3384 3.43748 35.6815 4.82937 37.0164 5.62632C41.6152 8.37413 45.9902 11.5868 51.1528 13.2278C55.1518 14.4979 59.2642 15.4083 63.4816 16.5179C62.9068 19.2685 62.2794 22.3567 61.6134 25.4366Z" fill="white"/>
<path d="M31.3594 45.9912V44.7266H34.5957V46.1185C32.9347 46.9458 34.3939 48.5342 33.5869 49.6217H32.299C31.7021 48.5646 32.8186 47.0621 31.3594 45.9912Z" fill="white"/>
<path d="M39.67 43.6386C39.7087 40.9212 39.471 41.3502 37.4287 41.2865C37.3679 41.2865 37.3098 41.2312 37.2048 41.1758V38.8652H35.4056V41.2395H30.5498V38.8652H28.7562V41.2699C28.4383 41.2865 28.1702 41.3059 27.8994 41.3114C26.3877 41.3308 26.302 41.4193 26.3047 42.9192C26.3075 45.8081 26.302 48.6998 26.3103 51.5887C26.313 52.8367 26.4761 53.0083 27.67 53.0083C31.2158 53.0138 34.7644 52.9917 38.3103 53.0249C39.2914 53.0332 39.6894 52.6818 39.6728 51.68C39.6341 48.9986 39.6286 46.3172 39.67 43.6386ZM37.9648 51.2567H28.0376V43.0686H37.9648V51.2567Z" fill="white"/>
<path d="M34.5957 44.7236V46.1155C32.9347 46.9429 34.3939 48.5313 33.5869 49.6188H32.299C31.7021 48.5617 32.8186 47.0591 31.3594 45.9882V44.7236H34.5957Z" fill="white"/>
<path d="M37.4702 37.1278H35.1321C34.9359 36.4665 34.5683 36.0708 34.1068 35.8079C33.3827 35.4011 32.4762 35.4011 31.7521 35.8079C31.2906 36.068 30.9258 36.4665 30.7268 37.1278H28.3887C28.7452 37.0752 28.9497 36.8843 29.1238 36.4416C29.7843 34.7646 31.2021 33.8404 32.9267 33.8708H32.9322C34.6568 33.8404 36.0745 34.7646 36.7351 36.4416C36.9092 36.8843 37.1137 37.0752 37.4702 37.1278Z" fill="white"/>
<path d="M19.0382 41.5273H17.2031V43.3564H19.0382V41.5273Z" fill="white"/>
<path d="M48.7513 41.4893H46.9688V43.3626H48.7513V41.4893Z" fill="white"/>
<path d="M19.0064 45.4629H17.2266V47.3335H19.0064V45.4629Z" fill="white"/>
<path d="M22.967 45.5234H21.1816V47.3996H22.967V45.5234Z" fill="white"/>
<path d="M44.7865 45.46H43.0039V47.3333H44.7865V45.46Z" fill="white"/>
<path d="M48.7541 45.4932H46.9355V47.3361H48.7541V45.4932Z" fill="white"/>
<path d="M19.0052 49.4336H17.2227V51.307H19.0052V49.4336Z" fill="white"/>
<path d="M48.7882 49.4834H46.9531V51.3402H48.7882V49.4834Z" fill="white"/>
<path d="M34.5957 44.7246V46.1165C32.9347 46.9439 34.3939 48.5322 33.5869 49.6198H32.299C31.7021 48.5627 32.8186 47.0601 31.3594 45.9892V44.7246H34.5957Z" fill="white"/>
<path d="M44.9268 33.6162L44.877 33.1264C44.8411 32.7777 44.8052 32.4318 44.7775 32.0831C44.573 29.5512 44.374 27.0164 44.1751 24.4817L43.9926 22.1739C43.8959 20.9535 43.7964 19.7305 43.708 18.5101C43.6168 17.2621 42.6909 16.3794 41.4583 16.3656C41.1626 16.3628 40.8669 16.36 40.5712 16.36H39.3856C39.2778 14.5005 38.4708 13.0256 36.9894 11.9685C36.0553 11.3044 34.9968 10.9668 33.8416 10.9668C33.6979 10.9668 33.5514 10.9723 33.4049 10.9834C30.995 11.155 28.4192 13.0948 28.2506 16.3628H26.8687C26.6504 16.3628 26.4348 16.3628 26.2165 16.3628C24.948 16.3739 24.0277 17.2428 23.9309 18.5267C23.8148 20.0514 23.6932 21.5734 23.5689 23.0981C23.4998 23.9421 23.4335 24.7889 23.3644 25.6328C23.2455 27.1244 23.1294 28.6131 23.0134 30.1046L22.9166 31.3554C22.8945 31.6238 22.8724 31.895 22.8476 32.1634C22.7923 32.7749 22.7342 33.4059 22.7204 34.0312C22.6596 36.4387 24.2626 38.4449 26.6532 38.8212C26.6642 38.824 26.7692 38.8489 26.7803 38.8544C26.7996 38.8627 26.8466 38.871 26.866 38.8793L27.0014 38.8932H40.737L40.7757 38.8876C40.889 38.8572 40.9996 38.8295 41.1129 38.7991C41.3699 38.7354 41.6352 38.669 41.8922 38.5666C43.5505 37.8998 44.5537 36.6518 44.8715 34.8531C44.8798 34.8005 44.8936 34.7479 44.9047 34.6926L44.9295 34.5764V33.6106L44.9268 33.6162ZM31.9153 13.7423C32.5288 13.33 33.1617 13.1224 33.8001 13.1224C34.3529 13.1224 34.9166 13.2802 35.4722 13.5901C36.5279 14.1823 37.0972 15.0871 37.2022 16.3545H30.4367C30.5168 15.2116 31.006 14.3566 31.918 13.7423H31.9153ZM42.0774 35.8991C41.591 36.4304 40.9001 36.7237 40.1345 36.7237C38.0286 36.7265 35.9226 36.7265 33.8167 36.7265C31.7107 36.7265 29.6048 36.7265 27.4989 36.7237C26.7306 36.7237 26.0396 36.4276 25.5532 35.8963C25.053 35.3484 24.8181 34.6096 24.8899 33.8154C25.0088 32.4816 25.1138 31.1257 25.2133 29.8168C25.263 29.1887 25.31 28.5605 25.3598 27.9324L25.871 21.543L26.0977 18.6955C26.106 18.6014 26.117 18.5655 26.1142 18.5599C26.1253 18.5572 26.1612 18.5489 26.2441 18.5489C26.5675 18.5489 26.8909 18.5489 27.2142 18.5489H28.2534V18.8754C28.2534 19.3347 28.2506 19.7803 28.2589 20.2258C28.2699 20.8429 28.7425 21.3243 29.334 21.3243C29.4749 21.3243 29.6159 21.2967 29.7513 21.2386C30.1879 21.0532 30.4256 20.6851 30.4284 20.1981C30.4284 19.7526 30.4284 18.5682 30.4284 18.5682H37.2133V19.9601C37.2133 20.0514 37.2133 20.1428 37.2133 20.2341C37.2354 20.8456 37.6942 21.3133 38.2994 21.3243C38.8936 21.3243 39.369 20.8429 39.38 20.2258C39.3883 19.8439 39.3856 19.462 39.3856 19.0802V18.5489H40.527C40.8144 18.5489 41.1046 18.5489 41.392 18.5489C41.4639 18.5489 41.4998 18.5572 41.5108 18.5572H41.5136C41.5191 18.5682 41.5274 18.6014 41.533 18.6734L42.2681 27.9628C42.4229 29.9247 42.5776 31.8867 42.7435 33.8486C42.8098 34.6345 42.5721 35.3678 42.0774 35.9074V35.8991Z" fill="white"/>
<path d="M36.856 24.3262C36.6349 24.3262 36.4221 24.3926 36.2369 24.5226C36.1236 24.6001 36.0296 24.697 35.9412 24.7855C35.0264 25.7015 32.7132 28.0176 32.7132 28.0176L31.5994 26.8969C31.3534 26.6506 31.0826 26.5261 30.7924 26.5261C30.7205 26.5261 30.6459 26.5344 30.5713 26.551C30.154 26.6395 29.8666 26.9024 29.7422 27.312C29.6565 27.5914 29.6427 28.0093 30.049 28.4216C30.5989 28.9778 31.1544 29.534 31.7072 30.0874L31.8177 30.1981C32.1217 30.5025 32.4147 30.6492 32.7132 30.6492C33.0144 30.6492 33.3101 30.4998 33.6197 30.1898C34.9075 28.9003 36.1954 27.6108 37.4806 26.3213C37.5579 26.2438 37.6464 26.1553 37.7238 26.0501C38.0416 25.6157 38.0029 25.0429 37.627 24.6555C37.4225 24.4452 37.1489 24.3289 36.856 24.3289V24.3262Z" fill="white"/>
</svg>
