<svg width="66" height="67" viewBox="0 0 66 67" fill="none" xmlns="http://www.w3.org/2000/svg">
<path d="M44.5797 0.921875C44.727 0.971434 44.873 1.03063 45.0232 1.07055C46.6458 1.49869 47.7767 2.8354 47.9186 4.51352C47.9475 4.85492 47.9475 5.19908 47.9489 5.54324C47.9502 13.5814 47.9489 21.6196 47.9489 29.6578C47.9489 29.9482 47.9489 30.2401 47.9489 30.6007C48.2726 30.6007 48.5191 30.6007 48.7657 30.6007C51.5853 30.6007 54.4035 30.6007 57.2232 30.6007C58.6474 30.6007 59.0276 30.9738 59.029 32.3752C59.029 37.1838 59.0373 41.9938 59.018 46.8024C59.0152 47.3214 59.1323 47.5609 59.6778 47.6807C60.8376 47.9367 61.9753 48.2988 63.1282 48.5906C63.7963 48.7599 64.2674 49.111 64.317 49.8255C64.3638 50.5083 63.9602 50.9199 63.3569 51.1773C61.9271 51.7872 60.5015 52.408 59.0014 53.0564C59.2025 53.2684 59.3651 53.4474 59.5359 53.6195C61.4629 55.5467 63.3941 57.4727 65.3198 59.4013C66.2316 60.314 66.2289 60.917 65.306 61.8435C63.85 63.3041 62.3913 64.7606 60.9312 66.2157C59.9918 67.1518 59.4133 67.1532 58.4849 66.2281C56.5716 64.3187 54.6598 62.4065 52.7465 60.4971C52.5716 60.3223 52.3897 60.1543 52.139 59.9148C51.6129 61.1276 51.1142 62.273 50.617 63.4197C50.4889 63.7129 50.3566 64.0048 50.2327 64.2994C49.9778 64.9092 49.5522 65.2837 48.8635 65.2204C48.2106 65.1612 47.8607 64.7482 47.6968 64.1342C47.1679 62.1463 46.6279 60.1599 46.0948 58.1734C45.8524 57.2675 45.5852 56.3672 45.3855 55.4531C45.2697 54.9245 45.0163 54.7937 44.4901 54.7965C38.1181 54.8158 31.7474 54.8089 25.3754 54.8089C23.7762 54.8089 23.4484 54.4757 23.4442 52.8733C23.4415 51.5917 23.4332 50.3087 23.4249 49.027C23.4249 48.9871 23.3919 48.9458 23.334 48.815C23.0847 48.815 22.7941 48.815 22.5048 48.815C16.4083 48.815 10.3117 48.8191 4.21517 48.8122C2.08014 48.8095 0.526392 47.7343 0.135199 45.8552C-0.0438678 44.9976 0.00847486 44.0794 0.0484206 43.1928C0.0745919 42.6174 0.675155 42.1865 1.25781 42.1741C1.86802 42.1617 2.43552 42.5954 2.51541 43.2204C2.58429 43.7628 2.5471 44.3175 2.5774 44.8654C2.62423 45.7424 3.08843 46.2352 3.96861 46.2379C10.3627 46.2503 16.7568 46.2435 23.1522 46.2407C23.2169 46.2407 23.2817 46.2132 23.3946 46.1856V39.6673C22.8629 39.6673 22.3216 39.6783 21.7803 39.6645C20.929 39.6425 20.3822 39.1373 20.3753 38.3884C20.3684 37.6353 20.9042 37.115 21.7541 37.0806C22.2789 37.0599 22.8037 37.0764 23.4098 37.0764C23.4222 36.8011 23.4428 36.5616 23.4442 36.3207C23.447 34.9922 23.4442 33.6638 23.447 32.3353C23.4511 31.0192 23.8685 30.5994 25.1688 30.5994C31.6097 30.5994 38.0492 30.5994 44.4901 30.5994H45.3414V11.8744C45.1017 11.862 44.8593 11.8386 44.6155 11.8386C30.8645 11.8372 17.1121 11.8413 3.36116 11.8234C2.73029 11.8234 2.55536 11.9914 2.55811 12.6246C2.58015 19.2435 2.57327 25.861 2.57051 32.4799C2.57051 32.7992 2.57327 33.1255 2.51541 33.4366C2.40109 34.0547 1.84047 34.4718 1.22475 34.4429C0.609038 34.414 0.0952535 33.9473 0.0236267 33.3265C-0.00805441 33.0553 0.00434254 32.7772 0.00434254 32.5033C0.00434254 23.5951 0.00434254 14.6868 0.00434254 5.77727C0.00158767 2.8354 0.610416 1.94609 3.32535 0.921875C17.0763 0.921875 30.8287 0.921875 44.5797 0.921875ZM26.0655 52.1864H44.4543C44.4102 51.9799 44.3841 51.8243 44.3441 51.6729C43.7849 49.5749 43.2174 47.4797 42.665 45.3803C42.3027 44.0023 43.0838 43.2327 44.4653 43.6003C47.0287 44.2817 49.5894 44.9728 52.1514 45.6556C53.555 46.0301 54.96 46.399 56.3857 46.7762V33.2425H26.0641V52.185L26.0655 52.1864ZM45.3813 9.24088C45.3813 7.91793 45.3813 6.64179 45.3813 5.36565C45.3813 3.91881 44.9929 3.53197 43.5493 3.53197C30.4912 3.53197 17.4331 3.53197 4.37496 3.53197C4.16834 3.53197 3.96035 3.51683 3.75649 3.54299C3.18072 3.61733 2.67244 3.92019 2.64903 4.49562C2.58291 6.06223 2.62699 7.63435 2.62699 9.24088H45.3813ZM59.6213 63.7253C60.7219 62.6254 61.7522 61.5957 62.8183 60.5288C61.7191 59.4385 60.5814 58.311 59.4464 57.1808C58.2618 56.001 57.0703 54.8309 55.905 53.6332C55.1295 52.8362 55.3223 51.8849 56.3237 51.4058C56.6529 51.2475 56.9931 51.1098 57.3279 50.9653C57.8706 50.7299 58.4146 50.4959 59.124 50.1889C54.5317 48.9609 50.1514 47.788 45.6554 46.5862C46.869 51.1085 48.0425 55.4779 49.2657 60.0332C49.6624 59.1232 49.9723 58.4129 50.2809 57.7026C50.9806 56.0919 51.8153 55.9226 53.044 57.145C53.6597 57.759 54.2754 58.373 54.8912 58.9883C56.4752 60.5728 58.0579 62.1587 59.6227 63.7253H59.6213Z" fill="#0D57B7"/>
<path d="M15.5151 39.6642C15.1955 39.6642 14.8746 39.6821 14.5564 39.6615C13.8167 39.6133 13.2864 39.0833 13.2699 38.4019C13.2547 37.7548 13.7451 37.1588 14.4407 37.1064C15.1666 37.0514 15.9049 37.0486 16.6308 37.1092C17.3402 37.1684 17.7906 37.7466 17.7686 38.4198C17.7466 39.0888 17.2548 39.5995 16.544 39.6573C16.2038 39.6849 15.8595 39.6615 15.5165 39.6629L15.5151 39.6642Z" fill="#0D57B7"/>
<path d="M6.20597 25.1224C6.20597 24.7576 6.17567 24.3901 6.21286 24.028C6.27622 23.4127 6.80378 22.9487 7.41536 22.9212C8.02144 22.8937 8.63853 23.3149 8.69087 23.9289C8.76112 24.7425 8.76112 25.5698 8.69776 26.3848C8.64955 27.007 8.05725 27.4366 7.44842 27.4269C6.80929 27.4173 6.26796 26.9368 6.20873 26.2843C6.17429 25.9002 6.20184 25.5093 6.20184 25.1211H6.20459L6.20597 25.1224Z" fill="#0D57B7"/>
<path d="M8.39868 39.665C8.07911 39.665 7.75817 39.6842 7.43998 39.6608C6.71958 39.6072 6.22921 39.1157 6.19891 38.4453C6.16723 37.7583 6.59561 37.1788 7.30637 37.1155C8.05294 37.0494 8.81467 37.0507 9.56124 37.1155C10.2637 37.176 10.7128 37.7776 10.6756 38.4453C10.6384 39.1129 10.1411 39.6085 9.42625 39.6595C9.08602 39.6843 8.74166 39.6636 8.39868 39.6636V39.665Z" fill="#0D57B7"/>
<path d="M41.7311 17.8709C41.7311 18.2357 41.7682 18.6033 41.7228 18.9626C41.6346 19.6701 41.0919 20.0997 40.3963 20.0639C39.7407 20.0308 39.2406 19.5655 39.2103 18.8841C39.1773 18.1792 39.1773 17.4703 39.2103 16.7654C39.2434 16.0909 39.7531 15.6242 40.4073 15.5981C41.1071 15.5691 41.6401 15.9973 41.7242 16.7104C41.7696 17.0917 41.7324 17.484 41.7324 17.8709H41.7297H41.7311Z" fill="#0D57B7"/>
<path d="M8.77416 18.0939C8.75487 18.4959 8.77002 18.8882 8.71217 19.2682C8.61162 19.9372 8.08406 20.3447 7.41187 20.3213C6.75621 20.2979 6.23967 19.8353 6.20799 19.1608C6.17355 18.4339 6.1708 17.7016 6.21212 16.9747C6.24793 16.3359 6.75621 15.8913 7.38432 15.8569C8.05513 15.8197 8.6006 16.2203 8.70528 16.8825C8.76865 17.2844 8.75349 17.6988 8.77278 18.0939H8.77416Z" fill="#0D57B7"/>
<path d="M39.2072 24.8917C39.2072 24.5269 39.1797 24.1594 39.2127 23.7973C39.2747 23.1475 39.8216 22.6671 40.4579 22.6602C41.0626 22.6547 41.6522 23.0911 41.7018 23.7106C41.7651 24.5021 41.7679 25.3075 41.7059 26.099C41.6549 26.7571 41.0544 27.1935 40.4111 27.1632C39.7706 27.1329 39.2596 26.6483 39.2072 25.9862C39.1797 25.6227 39.2017 25.2565 39.2017 24.8917C39.2017 24.8917 39.2045 24.8917 39.2058 24.8917H39.2072Z" fill="#0D57B7"/>
<path d="M6.19887 32.2473C6.19887 31.9059 6.17959 31.5618 6.203 31.2217C6.24984 30.5389 6.72643 30.0667 7.37796 30.0282C8.07908 29.9869 8.6576 30.4054 8.7127 31.1102C8.77193 31.8798 8.77055 32.6603 8.70719 33.4285C8.65209 34.103 8.09147 34.5119 7.42204 34.4912C6.765 34.4706 6.26223 34.0094 6.20714 33.339C6.17683 32.9769 6.20163 32.6108 6.20163 32.2459C6.20163 32.2459 6.20025 32.2459 6.19887 32.2459V32.2473Z" fill="#0D57B7"/>
<path d="M34.4378 18.0347C34.0507 18.0168 33.6596 18.0305 33.2766 17.9755C32.6582 17.8846 32.2174 17.3422 32.2188 16.7324C32.2188 16.0977 32.7009 15.5223 33.3469 15.4851C34.0976 15.4425 34.8538 15.4425 35.6045 15.4851C36.2505 15.5223 36.7285 16.1005 36.7271 16.7365C36.7257 17.3491 36.2877 17.8942 35.6651 17.9727C35.2615 18.0236 34.8455 17.9823 34.4351 17.9823C34.4351 18.0002 34.4351 18.0168 34.4351 18.0347H34.4378Z" fill="#0D57B7"/>
<path d="M13.212 17.9891C12.8249 17.9891 12.4324 18.0276 12.0508 17.9808C11.3828 17.901 10.9475 17.3627 10.9613 16.7074C10.975 16.0521 11.4378 15.518 12.1045 15.4822C12.8318 15.4437 13.5646 15.4437 14.2933 15.4808C14.96 15.5139 15.4255 16.0425 15.4421 16.695C15.46 17.3613 15.0385 17.8955 14.3718 17.9794C13.9902 18.0262 13.5977 17.9877 13.2106 17.9891H13.212Z" fill="#0D57B7"/>
<path d="M20.3392 15.4716C20.6822 15.4716 21.0252 15.4495 21.3654 15.4757C22.0252 15.5266 22.5183 16.0401 22.5514 16.6761C22.5844 17.2997 22.1244 17.9233 21.4797 17.9715C20.6863 18.0293 19.8819 18.028 19.0885 17.9674C18.4673 17.9206 18.0375 17.3424 18.043 16.7257C18.0485 16.0855 18.5237 15.5404 19.1739 15.4812C19.5582 15.4468 19.9494 15.4743 20.3365 15.4743C20.3365 15.4743 20.3365 15.4716 20.3365 15.4702L20.3392 15.4716Z" fill="#0D57B7"/>
<path d="M27.3623 17.9951C26.9973 17.9951 26.6295 18.0281 26.27 17.9882C25.562 17.9084 25.1253 17.3742 25.1515 16.6776C25.1763 16.021 25.6405 15.5116 26.3154 15.4786C27.0207 15.4442 27.7301 15.4456 28.4353 15.4772C29.1158 15.5075 29.5855 16.0045 29.6185 16.6584C29.6544 17.3577 29.226 17.9042 28.5221 17.9854C28.1405 18.0295 27.748 17.9937 27.3609 17.9937C27.3609 17.9937 27.3609 17.9951 27.3609 17.9965L27.3623 17.9951Z" fill="#0D57B7"/>
<path d="M2.55292 38.3793C2.55292 39.0787 1.98817 39.6541 1.29532 39.6624C0.573541 39.672 -0.00773818 39.0745 0.0101685 38.3422C0.0266978 37.6456 0.610732 37.077 1.2967 37.088C1.98679 37.0991 2.5543 37.6828 2.55292 38.378V38.3793Z" fill="#0D57B7"/>
<path d="M32.8712 7.67963C30.0764 7.67963 27.2815 7.67963 24.4867 7.67963C24.2346 7.67963 23.9798 7.68927 23.7319 7.64934C23.1423 7.55436 22.7208 7.05051 22.7002 6.45167C22.6781 5.83494 23.0404 5.32008 23.6299 5.17828C23.8724 5.12047 24.1286 5.10808 24.3793 5.10808C30.0612 5.10395 35.7431 5.10532 41.4237 5.10808C41.6289 5.10808 41.8383 5.11771 42.038 5.15626C42.7033 5.28428 43.1111 5.81704 43.0725 6.48471C43.0367 7.10557 42.5794 7.59015 41.9402 7.66311C41.713 7.68927 41.4829 7.68101 41.2543 7.68101C38.4595 7.68101 35.6646 7.68101 32.8698 7.68101L32.8712 7.67963Z" fill="#0D57B7"/>
<path d="M7.1655 6.37465C7.17927 7.06021 6.62967 7.63978 5.93682 7.66731C5.20953 7.69622 4.60622 7.14143 4.58831 6.42558C4.5704 5.74966 5.12964 5.16046 5.81836 5.13017C6.53876 5.09851 7.15035 5.66568 7.1655 6.37465Z" fill="#0D57B7"/>
<path d="M12.4567 6.40464C12.4526 7.11498 11.9057 7.66288 11.195 7.66839C10.4581 7.67389 9.8933 7.09708 9.91259 6.35921C9.93187 5.65437 10.4966 5.11611 11.206 5.12712C11.914 5.13813 12.4595 5.69567 12.4567 6.40464Z" fill="#0D57B7"/>
<path d="M17.7669 6.43066C17.749 7.13274 17.1842 7.67651 16.4762 7.66963C15.7448 7.66275 15.169 7.05703 15.209 6.33429C15.2476 5.63634 15.833 5.10496 16.5396 5.12974C17.2462 5.15452 17.7848 5.72582 17.7669 6.43066Z" fill="#0D57B7"/>
</svg>
