<svg width="66" height="70" viewBox="0 0 66 70" fill="none" xmlns="http://www.w3.org/2000/svg">
<path d="M41.2891 12.3351C39.5366 17.3292 36.4611 19.8752 32.1365 19.9517C28.9031 20.009 24.4963 18.2537 22.7501 12.69C14.6001 16.2496 9.1844 22.2171 6.9073 30.8729C4.04039 41.775 8.40921 52.318 15.5796 58.1112C15.5796 57.4184 15.5796 56.7894 15.5796 56.1603C15.5796 55.8224 15.5438 55.4824 15.5733 55.1487C15.626 54.5346 15.9293 54.1116 16.5886 54.0989C17.2501 54.084 17.5955 54.4942 17.6419 55.1062C17.7009 55.8819 17.6798 56.664 17.6903 57.4439C17.703 58.4831 17.7282 59.5223 17.7198 60.5615C17.7114 61.3967 17.2353 61.8345 16.4328 61.707C14.6802 61.4265 12.9318 61.1162 11.1855 60.7995C10.5368 60.6827 10.1639 60.2789 10.2692 59.5903C10.3767 58.889 10.8675 58.6701 11.5184 58.753C12.045 58.821 12.5716 58.9039 13.1846 58.8401C12.7696 58.43 12.3441 58.0326 11.9418 57.6075C-2.06417 42.8057 3.07773 18.5384 21.8569 10.8432C22.3161 10.6562 22.512 10.4479 22.5563 9.9145C23.0345 4.31467 27.338 0.578626 32.8527 0.935655C37.0741 1.2098 40.9268 4.93522 41.3165 9.19406C41.3839 9.93362 41.6704 10.2078 42.3297 10.4777C53.6478 15.1148 60.1673 23.505 61.0942 35.8543C62.1664 50.1461 52.2891 63.0352 38.3443 65.8851C36.2905 66.3037 34.1566 66.4674 32.0565 66.4801C21.9391 66.5396 11.8196 66.5078 1.70221 66.5056C1.41994 66.5056 1.13346 66.5056 0.855404 66.461C0.286656 66.3696 -0.00825027 65.9828 0.000175618 65.4303C0.00860151 64.8692 0.347744 64.5186 0.897533 64.423C1.1482 64.3805 1.41151 64.4038 1.6685 64.4038C12.045 64.4017 22.4215 64.4676 32.7958 64.3805C45.62 64.27 56.2683 55.1891 58.6823 42.4615C61.0921 29.7487 53.6204 16.63 41.5651 12.4052C41.4935 12.3797 41.4197 12.3669 41.287 12.3329L41.2891 12.3351ZM31.9806 17.8435C36.0525 17.8435 39.3407 14.5197 39.3386 10.4139C39.3343 6.31021 36.0377 2.97794 31.9785 2.97794C27.9194 2.97794 24.6248 6.31021 24.6248 10.416C24.6248 14.5304 27.9088 17.8456 31.9806 17.8435Z" fill="white"/>
<path d="M48.0134 39.0188C48.0134 41.7454 47.9902 44.4741 48.0282 47.2007C48.0387 47.9955 47.7817 48.4907 47.0845 48.8923C42.3491 51.6189 37.6306 54.371 32.9205 57.1422C32.2675 57.5269 31.7325 57.5481 31.0668 57.1571C26.3589 54.3859 21.6362 51.6359 16.9029 48.9072C16.2204 48.514 15.9255 48.0401 15.9297 47.2326C15.9571 41.7262 15.9529 36.2178 15.9318 30.7115C15.9297 29.9507 16.1699 29.4725 16.8439 29.0836C21.6004 26.3443 26.3441 23.5794 31.0732 20.7933C31.7409 20.4002 32.2739 20.4299 32.9269 20.8125C37.6159 23.5688 42.3133 26.306 47.0255 29.022C47.7354 29.43 48.0429 29.9188 48.0303 30.7582C47.9881 33.5103 48.0134 36.2646 48.0134 39.0188ZM30.8836 54.6133C30.9278 54.4284 30.9489 54.3795 30.9489 54.3306C30.9531 49.5809 30.9636 44.829 30.932 40.0792C30.932 39.8072 30.6477 39.4311 30.3928 39.2823C26.5127 36.9892 22.6136 34.7281 18.7187 32.4584C18.5102 32.3372 18.2932 32.2267 18.0046 32.0695C18.0046 37.0339 17.9962 41.8623 18.0278 46.6885C18.0278 46.935 18.3122 47.2708 18.5523 47.4132C20.9642 48.8477 23.3972 50.2524 25.8217 51.6657C27.4858 52.6347 29.1478 53.6038 30.8836 54.6133ZM33.0069 54.609C33.2555 54.4879 33.3945 54.4326 33.5209 54.3604C37.5084 52.0418 41.4897 49.7126 45.4856 47.4089C45.8943 47.1731 45.968 46.8883 45.9659 46.4654C45.9554 41.8686 45.9596 37.2719 45.9575 32.6751C45.9575 32.5094 45.9428 32.3415 45.9301 32.0674C44.9169 32.6539 44.0217 33.2022 43.0948 33.6952C42.6482 33.9332 42.5008 34.2286 42.505 34.7366C42.5303 37.6183 42.505 40.5021 42.5239 43.3839C42.5282 44.0831 42.2817 44.557 41.6624 44.8949C40.5565 45.5005 39.478 46.1593 38.3826 46.7884C37.1798 47.4812 36.4615 47.0604 36.4552 45.6514C36.4468 43.2882 36.4552 40.9251 36.451 38.5619C36.451 38.292 36.4257 38.0221 36.4068 37.614C35.2672 38.275 34.2434 38.853 33.2407 39.4672C33.1059 39.5501 33.0111 39.8093 33.0111 39.9857C32.9985 44.8162 33.0006 49.6446 33.0006 54.6069L33.0069 54.609ZM35.3282 35.8183C35.2419 35.7078 35.2187 35.6525 35.1787 35.6291C31.0626 33.2234 26.9445 30.8178 22.8221 28.4248C22.6726 28.3377 22.4071 28.2994 22.2702 28.3759C21.2254 28.954 20.1974 29.5682 19.159 30.1738C19.239 30.2907 19.2559 30.3481 19.2959 30.3715C23.414 32.775 27.5322 35.1786 31.6588 37.5652C31.8189 37.6587 32.1138 37.6672 32.2739 37.58C33.2892 37.0232 34.2834 36.4282 35.3303 35.8204L35.3282 35.8183ZM28.6086 24.6611C28.716 24.7674 28.7455 24.8141 28.7897 24.8396C32.8826 27.2283 36.9776 29.617 41.0768 31.9951C41.2369 32.0886 41.5044 32.1821 41.635 32.112C42.7093 31.5254 43.7626 30.9028 44.9253 30.2312C40.6281 27.732 36.4678 25.3072 32.2991 22.9015C32.139 22.808 31.8399 22.8037 31.6798 22.8909C30.6666 23.4477 29.6745 24.0406 28.6107 24.6611H28.6086ZM38.5406 44.2743C39.0862 43.9598 39.5412 43.7664 39.9098 43.4625C40.1457 43.2691 40.3964 42.9206 40.3985 42.6358C40.4343 39.9369 40.4301 37.2358 40.4027 34.5368C40.4006 34.2903 40.2089 33.9396 40.0025 33.8164C35.6316 31.2407 31.2459 28.6905 26.856 26.1466C26.6833 26.0467 26.3947 25.9809 26.2367 26.0595C25.6911 26.3294 25.1793 26.6673 24.6063 27.0094C24.8822 27.1816 25.0739 27.3112 25.274 27.426C29.3459 29.7998 33.4092 32.1906 37.5 34.5283C38.2752 34.9725 38.5722 35.5059 38.5554 36.3942C38.509 38.9614 38.5385 41.5307 38.5385 44.2679L38.5406 44.2743Z" fill="white"/>
<path d="M62.0635 64.2513C61.3157 63.6201 60.7385 63.1484 60.1803 62.6574C59.6221 62.1687 59.5336 61.563 59.9212 61.0912C60.3193 60.6045 60.9007 60.5684 61.4884 61.0508C62.845 62.1644 64.1952 63.2865 65.5265 64.432C66.15 64.9675 66.1627 65.6369 65.5476 66.1661C64.1784 67.3456 62.7902 68.5038 61.3873 69.6407C60.907 70.0296 60.3741 70.0063 59.9338 69.5302C59.5378 69.101 59.6052 68.4528 60.1024 68.0129C60.6732 67.5049 61.2736 67.031 62.0256 66.4084C61.5558 66.3829 61.2883 66.3552 61.0229 66.3552C57.9348 66.3531 54.8488 66.3552 51.7607 66.3531C51.529 66.3531 51.2952 66.3637 51.0677 66.334C50.4821 66.2596 50.1156 65.9387 50.1114 65.3181C50.1071 64.6572 50.4968 64.3278 51.114 64.2619C51.4195 64.2301 51.7312 64.2513 52.0388 64.2513C55.3017 64.2513 58.5667 64.2513 62.0593 64.2513H62.0635Z" fill="white"/>
<path d="M30.0652 11.9764C32.001 10.2593 33.8716 8.60165 35.7442 6.94189C35.8601 6.83988 35.9696 6.72725 36.0918 6.63374C36.5868 6.25546 37.0903 6.22146 37.5516 6.66987C37.9708 7.0779 37.9434 7.73246 37.4568 8.18937C36.6648 8.93105 35.8411 9.63661 35.0301 10.357C33.6588 11.5748 32.2917 12.7967 30.9183 14.0102C30.1242 14.7115 29.665 14.6796 28.9635 13.8848C28.142 12.954 27.3183 12.0274 26.5116 11.0838C25.9976 10.4824 26.0018 9.85125 26.4905 9.43897C26.9581 9.04368 27.5353 9.12444 28.0451 9.68974C28.7023 10.4165 29.3448 11.1582 30.0673 11.9785L30.0652 11.9764Z" fill="white"/>
</svg>
