<svg width="67" height="61" viewBox="0 0 67 61" fill="none" xmlns="http://www.w3.org/2000/svg">
<path d="M35.3371 60.9223C33.4236 60.8897 32.063 59.9789 31.2895 58.2101C31.245 58.1062 31.2227 58.0858 31.2187 58.0837C31.2187 58.0837 31.2025 58.0776 31.1458 58.0776H31.1134C30.8137 58.0878 30.4897 58.0919 30.1232 58.0919C29.7871 58.0919 29.451 58.0878 29.1129 58.0858H28.8841C27.0415 58.0715 25.7963 56.8244 25.7882 54.9802C25.7841 53.7657 25.7841 52.5573 25.7882 51.3469C25.7882 50.3056 26.177 49.9164 27.2217 49.9164H55.1131C55.1131 49.0748 55.1091 45.8408 55.107 44.2616C55.105 42.3277 55.1009 40.398 55.0989 38.4682C55.0989 37.268 55.4674 36.8828 56.6135 36.8828L57.1784 36.8889C58.0936 36.8991 59.0391 36.9113 59.9766 36.9684C60.7744 37.0153 61.5195 37.3861 62.2525 38.1014C63.6192 39.4443 64.7551 40.5671 65.893 41.7796C66.2048 42.1097 66.4296 42.4948 66.6483 42.8677C66.7414 43.0267 66.8366 43.1897 66.9358 43.3446L67.0026 43.4465V55.834L66.9722 55.9094C66.3769 57.3624 65.3139 58.1 63.8095 58.1C63.6658 58.1 63.518 58.0939 63.3681 58.0797C63.3398 58.0776 63.3114 58.0756 63.2831 58.0756C63.1515 58.0756 63.0988 58.0756 62.9632 58.3629C62.1877 60.0359 60.8149 60.9203 58.9926 60.9203H58.9217C57.0873 60.8959 55.7104 59.9768 54.939 58.259C54.8559 58.0776 54.8479 58.0776 54.6859 58.0776C51.9301 58.0837 49.1744 58.0858 46.4167 58.0858C44.155 58.0858 41.8933 58.0858 39.6316 58.0797C39.5223 58.0797 39.4501 58.1245 39.415 58.2142C38.7387 59.8872 37.208 60.9244 35.418 60.9244H35.3391L35.3371 60.9223ZM35.3209 54.4341C34.1769 54.4524 33.29 55.3572 33.3062 56.4963C33.3204 57.6966 34.1809 58.5667 35.3492 58.5667H35.3998C36.5479 58.5422 37.4125 57.6477 37.4104 56.4841C37.4084 55.3531 36.4831 54.4341 35.3512 54.4341H35.3209ZM58.9703 54.4341C57.8891 54.4341 56.9314 55.3226 56.9233 56.3353C56.9091 57.668 57.6724 58.5219 58.9156 58.5646H58.9764C60.1184 58.5646 60.9991 57.7027 61.0194 56.5574C61.0417 55.3715 60.1771 54.4606 59.0108 54.4361H58.9723L58.9703 54.4341ZM45.8315 55.7199C48.7411 55.7199 51.6507 55.7199 54.5583 55.726C54.5765 55.726 54.617 55.726 54.6454 55.726C54.6494 55.7097 54.6555 55.6873 54.6616 55.6527C55.026 53.8941 56.1073 52.7203 57.7878 52.2578C58.2272 52.1355 58.6605 52.0744 59.0776 52.0744C60.2844 52.0744 61.3656 52.5838 62.2869 53.5864C62.8052 54.1508 63.1333 54.8335 63.3094 55.7199H63.518C63.605 55.7199 63.6921 55.7199 63.7792 55.7199C64.4494 55.7179 64.6417 55.5263 64.6417 54.8681C64.6437 53.3194 64.6417 51.7728 64.6417 50.2261C64.6417 50.2261 64.6417 47.8969 64.6417 47.8929H57.4578V50.6602C57.4578 51.9175 57.0974 52.2802 55.8542 52.2802H36.718C38.2042 52.7529 39.3056 54.0021 39.662 55.724C39.6843 55.724 39.7106 55.724 39.7369 55.724C41.7657 55.724 43.7946 55.722 45.8234 55.722L45.8315 55.7199ZM28.1349 52.7917C28.1329 53.5864 28.1309 54.3342 28.143 55.0841C28.1471 55.4489 28.3678 55.6934 28.7019 55.7077C29.0035 55.7199 29.3275 55.724 29.7203 55.724C29.9856 55.724 30.2528 55.722 30.5201 55.7199C30.6861 55.7199 30.8522 55.7179 31.0182 55.7159C31.3827 54.0184 32.5125 52.757 34.0048 52.2822H28.139V52.7937L28.1349 52.7917ZM64.6458 45.4557C64.6458 45.2295 64.6458 45.0155 64.6518 44.8016C64.664 44.2718 64.4878 43.8275 64.1132 43.4444C63.7792 43.1041 63.4451 42.7597 63.109 42.4153C62.2747 41.5595 61.4243 40.6853 60.5679 39.8498C60.3553 39.6419 60.0009 39.3872 59.6972 39.3546C59.3996 39.3241 59.0695 39.3098 58.6585 39.3098C58.4054 39.3098 58.1503 39.3159 57.8931 39.32C57.7615 39.322 57.6299 39.3261 57.4983 39.3281V45.4557H64.6437H64.6458Z" fill="#0D57B7"/>
<path d="M26.9255 49.2455C26.3485 49.2332 25.9334 48.8929 25.818 48.3346C25.7836 48.1655 25.7856 48.0045 25.7876 47.8618V47.7681V39.399C25.5791 39.4968 25.3624 39.5926 25.1437 39.6822C25.1336 39.6945 25.1235 39.7067 25.1113 39.7169C25.0668 39.7658 25.002 39.8391 24.9878 39.8677C24.7529 40.8397 24.5282 41.8504 24.3196 42.8673C24.2285 43.3278 23.9592 43.554 23.4976 43.554C22.7261 43.5479 21.9709 43.5458 21.2177 43.5458C20.4645 43.5458 19.7092 43.5479 18.956 43.554C18.4822 43.554 18.2068 43.3319 18.1117 42.8734C18.0104 42.3639 17.893 41.8484 17.7816 41.3491C17.6723 40.8621 17.563 40.3771 17.4637 39.8962C17.4475 39.8188 17.4003 39.7712 17.322 39.7536C15.2547 39.2971 13.3534 38.5024 11.6668 37.3959C11.602 37.3531 11.5615 37.3388 11.5453 37.3388C11.5392 37.3388 11.4987 37.3429 11.3894 37.4142C10.7313 37.8503 10.0672 38.2721 9.42536 38.6796C9.16821 38.8427 8.91511 39.0037 8.66809 39.1606L8.39474 39.3358L4.1913 35.1176L6.15533 32.01C6.03587 31.7777 5.91438 31.5495 5.79492 31.3233C5.41629 30.6101 5.0579 29.9336 4.76431 29.2061C4.50311 28.5601 4.30468 27.8876 4.11233 27.2376C3.99692 26.8484 3.88353 26.4632 3.76002 26.0924C3.73572 26.0679 3.677 26.0312 3.63043 26.019C2.79217 25.8112 1.93164 25.6155 1.09946 25.426L0 25.1733V19.2944L1.18247 19.0193C1.95796 18.8379 2.7618 18.6504 3.55754 18.4833C3.76204 18.4426 3.76609 18.4222 3.79444 18.2694C3.91593 17.599 4.05361 17.0997 4.23787 16.6555C4.68534 15.5897 5.14902 14.5484 5.63699 13.446C5.79492 13.0914 5.94881 12.743 6.10674 12.3884C5.56612 11.5285 4.16902 9.3134 4.16902 9.3134L8.334 5.09726L9.20465 5.64949C9.9356 6.1141 10.6929 6.59298 11.44 7.08408C11.5149 7.13503 11.5413 7.1391 11.5453 7.1391C11.5453 7.1391 11.5696 7.13503 11.6303 7.09427C13.3615 5.96331 15.279 5.16451 17.3342 4.71823C17.4057 4.70193 17.4502 4.65167 17.4678 4.56744C17.6419 3.72177 17.8383 2.86183 18.0287 2.03042L18.2757 0.921875H20.5981C21.4849 0.921875 22.5358 0.921875 23.5887 0.936139C23.9309 0.936139 24.2346 1.32331 24.2994 1.59841C24.5646 2.67232 24.759 3.54856 24.9068 4.35144C24.9635 4.64487 25.0222 4.70805 25.2996 4.76714C27.2131 5.18081 29.0941 5.97757 30.8921 7.13503C31.8842 6.50536 32.8622 5.8818 33.8199 5.27251L34.0933 5.09726L34.3221 5.32753C35.1704 6.17728 36.0067 7.0148 36.8449 7.85843L38.2765 9.29506L37.584 10.3934C37.177 11.0394 36.7559 11.7057 36.3306 12.3619C36.2274 12.5188 36.2314 12.527 36.3064 12.639C37.4119 14.3304 38.2015 16.2418 38.6571 18.3203C38.6747 18.4005 38.7219 18.448 38.7989 18.463C39.3111 18.5669 39.8315 18.6851 40.3336 18.7992L40.3114 19.003L40.3559 18.8033C40.8155 18.9072 41.2914 19.0172 41.7591 19.113C42.2268 19.2068 42.4516 19.4839 42.4455 19.9628C42.4313 21.4687 42.4313 22.995 42.4455 24.5009C42.4455 24.9838 42.2207 25.261 41.7611 25.3527C41.2387 25.4607 40.7042 25.5809 40.1879 25.6991L40.121 25.5055L40.1656 25.7052C39.6958 25.8112 39.2281 25.9171 38.7584 26.017C38.7543 26.017 38.7503 26.017 38.7462 26.019C38.6551 26.5611 38.5296 27.1112 38.3696 27.6574C38.2663 28.0079 38.1448 28.3604 38.0092 28.7109H41.6092C42.7715 28.7109 43.9357 28.715 45.0979 28.7211C46.2683 28.7252 47.4325 28.7313 48.5968 28.7313C50.3968 28.7313 51.8708 28.719 53.2396 28.6926H53.3267C54.5112 28.6926 55.5964 29.1531 56.3841 29.9906C57.1454 30.7996 57.5301 31.8572 57.4694 32.9719C57.4511 33.3387 57.4552 33.7218 57.4613 34.0906C57.4653 34.3576 57.4673 34.6245 57.4633 34.8894C57.4491 35.6882 57.0057 36.165 56.2808 36.165H56.2585C55.5438 36.1487 55.1307 35.6841 55.1206 34.8914C55.1166 34.5246 55.1186 34.1578 55.1206 33.7931V33.7483C55.1206 33.4039 55.1206 33.0615 55.1206 32.7171C55.1085 31.6779 54.5253 31.0829 53.519 31.0829C47.884 31.0788 42.243 31.0747 36.608 31.0747H34.6865C33.0485 31.0788 31.4064 31.0788 29.7663 31.0788C28.7397 31.0808 28.1485 31.6881 28.1465 32.7396V47.8313C28.1505 47.9882 28.1526 48.1675 28.11 48.3489C27.9906 48.9092 27.5674 49.2455 26.9782 49.2455H26.9357H26.9255ZM21.2116 41.182C21.568 41.182 21.9223 41.1861 22.2787 41.1922C22.2787 41.1922 22.2787 41.1841 22.2807 41.18C22.3374 40.8804 22.4103 40.5829 22.4791 40.2936C22.5804 39.8779 22.6836 39.4499 22.7342 39.0363C22.7747 38.7061 22.8962 37.7076 23.9491 37.5426C24.5869 37.296 25.2045 36.9944 25.7836 36.648V32.8802C25.7836 31.7023 26.1622 30.6773 26.8628 29.9376H12.6934V14.9132H29.254V28.7659C29.4747 28.7354 29.6995 28.7211 29.9263 28.7211C31.7344 28.717 33.5466 28.717 35.3547 28.717C35.377 28.6701 35.4316 28.554 35.4316 28.554C35.8508 27.6472 36.1504 26.6996 36.3246 25.7398L36.3347 25.6828L36.3468 25.6563C36.357 25.6216 36.3711 25.5768 36.3772 25.532C36.4501 25.2528 36.4906 24.9879 36.5311 24.7291L36.5351 24.7067C36.604 24.2665 36.8348 24.02 37.262 23.9323C37.746 23.8345 38.236 23.7224 38.7098 23.6124C39.1593 23.5085 39.6189 23.4025 40.0765 23.3088C40.0805 23.3088 40.0826 23.3088 40.0846 23.3088V23.3027C40.0684 22.5793 40.0704 21.8722 40.0886 21.2017C40.0886 21.1895 40.0886 21.1793 40.0886 21.1712C40.0805 21.1712 40.0704 21.1671 40.0583 21.165C39.6189 21.0754 39.1836 20.9735 38.7604 20.8777C38.2765 20.7656 37.7804 20.6515 37.2863 20.5537C36.7133 20.4416 36.5797 20.0647 36.5291 19.7488C36.1525 17.3565 35.2393 15.1394 33.8179 13.1546C33.5202 12.7389 33.5101 12.3843 33.7855 11.9706C34.2147 11.3308 34.6197 10.6828 35.0105 10.0551L35.2413 9.68835C34.723 9.16464 34.2228 8.66131 33.7126 8.1478L33.3907 8.35157C32.7407 8.7632 32.0685 9.18909 31.4023 9.62925C31.2687 9.71688 31.0865 9.81673 30.8617 9.81673C30.6754 9.81673 30.4993 9.75152 30.3089 9.61295C28.3085 8.15595 26.0711 7.22469 23.6596 6.84974C23.2303 6.78249 22.9792 6.54 22.8942 6.11207C22.7099 5.20322 22.4994 4.26789 22.2685 3.33255C22.2604 3.32236 22.2483 3.31014 22.2361 3.30199C21.896 3.28976 21.5538 3.28365 21.2157 3.28365C20.8775 3.28365 20.5293 3.28976 20.1911 3.30402C20.179 3.31218 20.1648 3.3244 20.1567 3.33459C19.9238 4.27604 19.7295 5.15839 19.5634 6.01222C19.4662 6.52166 19.1929 6.78657 18.6786 6.86808C16.3157 7.2471 14.1249 8.16206 12.1629 9.5885C11.9543 9.73929 11.764 9.81061 11.5655 9.81061C11.3671 9.81061 11.193 9.74744 10.9824 9.6048C10.377 9.20336 9.75539 8.81007 9.15606 8.42901L8.67214 8.1213C8.15987 8.63686 7.66785 9.13407 7.15963 9.64963C7.24872 9.79227 7.33781 9.93492 7.42892 10.0776C7.82375 10.7072 8.22466 11.3451 8.63974 11.9686C8.91309 12.3782 8.90296 12.743 8.60937 13.1525C7.17987 15.1434 6.26872 17.3626 5.90021 19.7488C5.83137 20.2073 5.56815 20.4783 5.0984 20.5741C4.23179 20.7555 3.30444 20.9531 2.38317 21.1875C2.37507 21.1956 2.36494 21.2078 2.35684 21.218C2.34065 21.6276 2.34267 22.0494 2.34267 22.457C2.34267 22.7402 2.34267 23.0215 2.34065 23.3006C2.34065 23.3047 2.34065 23.3088 2.34065 23.3129H2.3447C2.83267 23.4107 3.32267 23.5207 3.79444 23.6287C4.22572 23.7265 4.67117 23.8264 5.1146 23.9181C5.57017 24.0077 5.82327 24.2686 5.89009 24.7108C6.26062 27.1214 7.18797 29.3671 8.64379 31.3844C8.9799 31.8511 8.82197 32.2179 8.64581 32.4869C8.0566 33.3896 7.57876 34.1477 7.14343 34.867C7.14343 34.8751 7.1414 34.8853 7.13938 34.8955C7.53219 35.3173 7.93512 35.7269 8.36235 36.161L8.60127 36.4055L9.0204 36.1365C9.71895 35.6882 10.377 35.2644 11.0614 34.8507C11.2031 34.7651 11.3955 34.7162 11.5898 34.7162C11.7134 34.7162 11.8936 34.7386 12.0393 34.8446C14.0905 36.3057 16.3623 37.2532 18.7859 37.6567C19.0876 37.7015 19.4217 38.0194 19.4966 38.3393C19.7112 39.1789 19.9218 40.1081 20.1425 41.1759C20.1425 41.1841 20.1466 41.1922 20.1466 41.2004C20.4989 41.1943 20.8512 41.1902 21.2035 41.1902L21.2116 41.182ZM26.8121 27.5107V17.2974H24.5181V20.407H17.3625V17.3014H15.0765V27.5107H26.8121ZM22.0863 18.0126V17.3096H19.8003V18.0126H22.0863Z" fill="#0D57B7"/>
<path d="M32.3706 36.4521C32.3059 36.448 32.2411 36.448 32.1763 36.448C32.0143 36.448 31.828 36.444 31.6417 36.4073C31.0262 36.283 30.6719 35.8123 30.7144 35.1765C30.7569 34.5305 31.176 34.1128 31.8078 34.0904C32.0183 34.0822 32.2289 34.0781 32.4415 34.0781C32.6258 34.0781 32.808 34.0822 32.9923 34.0883C33.6604 34.1148 34.0937 34.5387 34.1201 35.1948C34.1484 35.8754 33.7313 36.3604 33.0591 36.4317C32.9761 36.4399 32.8849 36.444 32.7817 36.444C32.7412 36.444 32.6987 36.444 32.6582 36.444L32.5913 36.448L32.3787 36.4542H32.3706V36.4521Z" fill="#0D57B7"/>
<path d="M36.4439 36.4478C35.796 36.4478 35.2695 35.918 35.2695 35.2659C35.2695 34.6138 35.796 34.084 36.4439 34.084H39.7807C40.5643 34.084 41.6111 34.084 42.8098 34.084H52.4194C53.0674 34.084 53.5938 34.6158 53.5938 35.2679C53.5938 35.92 53.0674 36.4498 52.4194 36.4498H36.4419L36.4439 36.4478Z" fill="#0D57B7"/>
<path d="M30.8248 41.3287C30.1768 41.3287 29.6504 40.7988 29.6504 40.1467C29.6504 39.4947 30.1768 38.9648 30.8248 38.9648H32.888C33.4286 38.9648 34.1515 38.9648 34.9776 38.9648H41.3678C42.0157 38.9648 42.5422 39.4967 42.5422 40.1488C42.5422 40.8009 42.0157 41.3307 41.3678 41.3307H30.8227L30.8248 41.3287Z" fill="#0D57B7"/>
<path d="M47.899 41.3287C47.2511 41.3287 46.7246 40.7988 46.7246 40.1467C46.7246 39.4947 47.2511 38.9648 47.899 38.9648H48.5469C48.8162 38.9648 49.1766 38.9648 49.5917 38.9648H52.392C53.044 38.9648 53.5744 39.4967 53.5744 40.1488C53.5744 40.8009 53.048 41.3307 52.4001 41.3307H47.899V41.3287Z" fill="#0D57B7"/>
<path d="M30.8248 46.8365C30.1768 46.8365 29.6504 46.3066 29.6504 45.6546C29.6504 45.0025 30.1768 44.4727 30.8248 44.4727H35.4797C36.5164 44.4727 37.8993 44.4727 39.4827 44.4727H52.4231C53.071 44.4727 53.5975 45.0045 53.5975 45.6566C53.5975 46.3087 53.071 46.8385 52.4231 46.8385H30.8268L30.8248 46.8365Z" fill="#0D57B7"/>
</svg>
