<svg width="66" height="67" viewBox="0 0 66 67" fill="none" xmlns="http://www.w3.org/2000/svg">
<path d="M6.53078 0.921875C22.4425 0.921875 38.3543 0.921875 54.2647 0.921875C54.4029 0.921875 54.6251 0.951578 54.7581 0.986447C57.9363 1.81684 59.4008 3.71912 59.4008 7.02519C59.4008 13.3829 59.3943 19.7394 59.4176 26.0971C59.4188 26.4884 59.557 26.8668 59.8037 27.1703C61.2462 28.9434 62.3026 30.9141 62.5093 33.1948C62.6965 35.2624 62.6358 37.3532 62.681 39.4337C62.6888 39.7721 62.681 40.1091 62.681 40.5082C63.0129 40.5082 63.266 40.5069 63.5192 40.5082C65.1076 40.5198 65.9871 41.3967 65.9884 42.9877C65.991 48.4208 66.009 53.8551 65.9819 59.2882C65.9613 63.4634 62.5583 66.8805 58.3922 66.9051C53.1954 66.9348 47.9974 66.9167 42.7994 66.9102C41.4615 66.909 40.201 66.5629 39.0607 65.8732C36.5476 64.3545 35.26 62.1048 35.1929 59.1694C35.1683 58.104 35.189 57.0372 35.189 55.9253C34.8713 55.9253 34.6375 55.9253 34.4051 55.9253C31.4632 55.9253 28.52 55.9253 25.5781 55.9253C18.9841 55.9253 12.3913 55.9292 5.79724 55.9227C3.17822 55.9202 1.11709 54.5241 0.309944 52.2305C0.309944 52.2267 0.307361 52.2241 0.30607 52.2202C0.0955661 51.6081 0 50.961 0 50.3115C0 35.7415 0 21.1703 0 6.60031C0 5.67693 0.185966 4.75743 0.588894 3.92575C0.900129 3.28262 1.31855 2.70664 1.93844 2.28046C2.11408 2.15907 2.29746 2.048 2.48601 1.9434C3.72062 1.25765 5.11924 0.921875 6.53078 0.921875ZM2.19544 11.9481C2.19544 12.231 2.19544 12.4815 2.19544 12.732C2.19544 25.1453 2.19544 37.5598 2.19544 49.9731C2.19544 52.3984 3.51141 53.7221 5.93026 53.7221C15.4443 53.7234 24.9595 53.7221 34.4735 53.7221H35.1916C35.1916 53.3876 35.1916 53.1526 35.1916 52.9176C35.1916 49.5676 35.1864 46.2163 35.1941 42.8663C35.198 41.4406 36.1046 40.534 37.5252 40.5056C37.8377 40.4991 38.1489 40.5056 38.5054 40.5056C38.5054 39.0747 38.4783 37.7458 38.5131 36.4182C38.5454 35.1759 38.5002 33.9077 38.7378 32.6989C40.3483 24.5009 49.4025 20.4174 56.6707 24.568C56.8127 24.6494 56.9638 24.7178 57.1627 24.8186V11.9468H2.19544V11.9481ZM63.7671 51.5189C62.6862 51.5189 61.6789 51.5319 60.6703 51.5151C59.876 51.5009 59.4214 51.0954 59.4098 50.4393C59.3969 49.751 59.8579 49.3403 60.6883 49.3158C61.1171 49.3028 61.5471 49.3132 61.9772 49.3132C62.5687 49.3132 63.1601 49.3132 63.7619 49.3132V47.1087C63.4959 47.1087 63.266 47.1087 63.0349 47.1087C62.1761 47.1061 61.316 47.1242 60.4585 47.0919C59.8411 47.0687 59.4408 46.6515 59.4111 46.0846C59.3788 45.4867 59.7585 45.0011 60.3874 44.9365C60.9195 44.8823 61.4593 44.9107 61.9966 44.9081C62.5854 44.9042 63.1756 44.9081 63.7568 44.9081V42.7656H37.4335V44.9081C37.7318 44.9081 37.9862 44.9081 38.2419 44.9081C39.0581 44.9094 39.8756 44.8848 40.6892 44.9223C41.3724 44.9546 41.7869 45.4156 41.7779 46.0355C41.7675 46.6606 41.3491 47.0635 40.6517 47.1022C40.3728 47.1177 40.0938 47.1087 39.8149 47.1087C39.0271 47.1087 38.2381 47.1087 37.4464 47.1087V49.3132C37.7344 49.3132 37.9694 49.3132 38.2032 49.3132C38.9768 49.3132 39.749 49.3003 40.5226 49.3183C41.3233 49.3364 41.7688 49.7329 41.7792 50.3954C41.7895 51.085 41.331 51.4931 40.4994 51.5177C40.0486 51.5306 39.5979 51.5202 39.1472 51.5215C38.5777 51.5215 38.0082 51.5215 37.4322 51.5215V53.726C37.7241 53.726 37.9772 53.726 38.229 53.726C39.0878 53.7312 39.9479 53.7157 40.8054 53.7492C41.3427 53.7712 41.6746 54.1044 41.765 54.63C41.8554 55.1543 41.6487 55.5766 41.1631 55.791C40.9191 55.8995 40.622 55.9176 40.347 55.9214C39.3861 55.9356 38.4253 55.9266 37.4412 55.9266V58.1285C38.5364 58.1285 39.585 58.1169 40.6324 58.1324C41.3065 58.1427 41.7275 58.5198 41.7779 59.1087C41.8373 59.8048 41.3698 60.3033 40.5898 60.3188C39.585 60.3394 38.5803 60.3239 37.5471 60.3239C37.5717 60.4712 37.5794 60.5551 37.5988 60.6365C38.1967 63.023 40.396 64.7084 42.9815 64.7148C48.0271 64.7277 53.074 64.7213 58.1197 64.7148C58.5458 64.7148 58.9785 64.6696 59.3982 64.5921C61.5265 64.1957 63.4494 62.252 63.6018 60.3265C62.6565 60.3265 61.7124 60.3317 60.7697 60.3252C59.8993 60.3188 59.4098 59.9094 59.4137 59.2081C59.4188 58.503 59.8838 58.1337 60.7878 58.1298C61.7693 58.1259 62.7508 58.1298 63.7568 58.1298V55.9292C63.3293 55.9292 62.9458 55.9305 62.5609 55.9292C61.8519 55.9253 61.1416 55.9537 60.4365 55.9047C59.796 55.8595 59.4034 55.3907 59.4137 54.7966C59.4227 54.1987 59.8308 53.7867 60.4804 53.7376C60.7374 53.7183 60.9957 53.7273 61.2527 53.7273C62.0844 53.7273 62.9161 53.7273 63.771 53.7273V51.5215L63.7671 51.5189ZM2.20835 9.67521H57.2053C57.2053 8.74667 57.2053 7.85042 57.2053 6.95545C57.204 4.40358 55.9165 3.1186 53.3633 3.1186C37.5807 3.1186 21.7981 3.1186 6.0155 3.1186C5.80112 3.1186 5.58545 3.11344 5.37107 3.12377C3.70641 3.20384 2.32716 4.47719 2.22256 6.1341C2.15024 7.28606 2.20835 8.44706 2.20835 9.67521ZM60.5501 40.472C60.4778 38.0609 60.6018 35.664 60.2957 33.3226C59.7081 28.831 55.6543 25.3158 51.1821 25.1453C46.2966 24.9593 42.0736 28.0226 41.003 32.6098C40.4064 35.1668 40.7848 37.782 40.7318 40.3713C40.7318 40.4036 40.7796 40.4372 40.8067 40.472H60.5501Z" fill="white"/>
<path d="M8.84352 27.3006H17.602C17.602 26.3772 17.602 25.4616 17.602 24.5459C17.6033 23.4289 17.9494 22.9291 18.7127 22.9381C19.4668 22.9471 19.8052 23.4534 19.8052 24.5756C19.8052 25.4344 19.8194 26.2933 19.8013 27.1521C19.7716 28.6282 18.8792 29.518 17.4148 29.5218C14.602 29.5309 11.7893 29.5309 8.97524 29.5218C7.51463 29.5167 6.59771 28.6062 6.59126 27.1482C6.58093 24.3354 6.58222 21.5227 6.59126 18.7087C6.59642 17.2338 7.47331 16.3428 8.95329 16.3195C10.2848 16.2988 11.6162 16.3066 12.9477 16.3182C13.8052 16.326 14.3166 16.7689 14.2947 17.4495C14.2727 18.1094 13.7845 18.5111 12.949 18.5188C11.5981 18.5304 10.2486 18.5214 8.84223 18.5214V27.2993L8.84352 27.3006Z" fill="white"/>
<path d="M8.82604 37.2268V45.9698H17.5626C17.5755 45.7722 17.5988 45.5475 17.6013 45.3228C17.6117 44.4214 17.5884 43.5186 17.631 42.6185C17.6582 42.0387 18.0869 41.659 18.6332 41.6396C19.1988 41.6189 19.6973 41.8837 19.718 42.4274C19.7709 43.857 19.7994 45.3021 19.6444 46.7201C19.5475 47.6099 18.5944 48.2065 17.6272 48.2117C14.6853 48.2285 11.7434 48.2324 8.80151 48.2117C7.56302 48.2027 6.61769 47.2961 6.60478 46.0563C6.57249 43.0938 6.5712 40.1299 6.60478 37.1661C6.61898 35.9186 7.5359 35.061 8.81184 35.0326C10.2285 35.0016 11.6465 35.012 13.0632 35.0288C13.8303 35.0378 14.3082 35.4911 14.2966 36.1342C14.2849 36.7748 13.8032 37.2087 13.0297 37.2203C11.87 37.2384 10.7102 37.2255 9.55054 37.2255C9.32066 37.2255 9.09079 37.2255 8.82475 37.2255L8.82604 37.2268Z" fill="white"/>
<path d="M31.3476 22.931C33.5572 22.931 35.7669 22.931 37.9765 22.931C38.1909 22.931 38.4079 22.9232 38.6197 22.9491C39.1827 23.0188 39.5146 23.3507 39.5714 23.9099C39.6283 24.4704 39.3661 24.8707 38.8302 25.0425C38.5912 25.1187 38.3239 25.1264 38.0695 25.1277C33.5857 25.1329 29.1031 25.1316 24.6192 25.1303C24.4901 25.1303 24.3609 25.1355 24.2331 25.1251C23.5409 25.0657 23.0669 24.5814 23.0992 23.9706C23.1302 23.3714 23.5861 22.9413 24.2692 22.9374C26.6287 22.9258 28.9881 22.9323 31.3489 22.9323V22.9297L31.3476 22.931Z" fill="white"/>
<path d="M13.084 22.437C14.511 20.7245 15.8541 19.1141 17.1972 17.5024C17.4038 17.2557 17.6014 17.0013 17.8184 16.7637C18.273 16.2691 18.8993 16.1916 19.3681 16.5622C19.8614 16.9522 19.9428 17.6199 19.4998 18.1636C18.4034 19.5106 17.2825 20.8382 16.1705 22.1735C15.539 22.9316 14.9114 23.6922 14.276 24.4477C13.5489 25.313 12.9742 25.3427 12.189 24.5601C11.5666 23.9389 10.9376 23.3242 10.3255 22.6927C9.80376 22.1541 9.78568 21.4916 10.2558 21.0435C10.7 20.6199 11.3457 20.6535 11.8675 21.1352C12.0715 21.3238 12.2678 21.5226 12.4589 21.7267C12.6488 21.9307 12.827 22.1451 13.0827 22.437H13.084Z" fill="white"/>
<path d="M13.0902 41.1298C14.547 39.3812 15.9172 37.7372 17.2887 36.0919C17.4669 35.8775 17.6387 35.6567 17.8285 35.4539C18.2831 34.967 18.9185 34.8973 19.3782 35.2731C19.8703 35.6748 19.9387 36.3256 19.4932 36.8771C18.6847 37.8779 17.8492 38.8568 17.0265 39.8461C16.0928 40.967 15.1656 42.0919 14.2254 43.2064C13.55 44.0071 12.9624 44.0265 12.2263 43.2968C11.6025 42.6769 10.9774 42.0583 10.3627 41.4294C9.82419 40.8792 9.77641 40.2451 10.222 39.7789C10.6778 39.2998 11.3571 39.3347 11.9215 39.89C12.3025 40.2658 12.6576 40.6687 13.0902 41.1311V41.1298Z" fill="white"/>
<path d="M28.6143 19.615C27.2195 19.615 25.8248 19.6189 24.43 19.6137C23.6177 19.6111 23.1089 19.194 23.096 18.538C23.0818 17.8638 23.6113 17.4222 24.4559 17.4209C27.2247 17.417 29.9922 17.417 32.7611 17.4209C33.5863 17.4209 34.0719 17.8277 34.0835 18.4992C34.0951 19.194 33.5979 19.6111 32.7352 19.6137C31.3624 19.6189 29.9884 19.6137 28.6156 19.6137L28.6143 19.615Z" fill="white"/>
<path d="M28.5748 38.31C27.1801 38.31 25.7853 38.3152 24.3906 38.3074C23.5951 38.3035 23.0811 37.8528 23.094 37.1968C23.1069 36.5627 23.6093 36.1184 24.3648 36.1171C27.1762 36.1107 29.9864 36.1107 32.7978 36.1171C33.6037 36.1184 34.0931 36.5601 34.0815 37.2355C34.0699 37.9084 33.5895 38.3061 32.7591 38.3087C31.3643 38.3139 29.9696 38.31 28.5748 38.31Z" fill="white"/>
<path d="M28.0571 41.6292C29.2801 41.6292 30.5031 41.6227 31.7248 41.6318C32.5048 41.6369 32.9788 42.0476 32.9904 42.6959C33.0033 43.3584 32.4971 43.8208 31.7041 43.8233C29.2582 43.8324 26.8135 43.8324 24.3675 43.8233C23.6094 43.8208 23.1109 43.3739 23.0942 42.7411C23.0774 42.0838 23.5849 41.6369 24.3869 41.6318C25.6099 41.624 26.8329 41.6292 28.0545 41.6292H28.0571Z" fill="white"/>
<path d="M49.4949 55.9992C49.4949 55.87 49.4781 55.7396 49.4962 55.6143C49.5905 54.9647 49.38 54.5708 48.7614 54.2092C47.4984 53.4705 47.0102 51.895 47.4532 50.4964C47.8974 49.0939 49.2354 48.1731 50.7528 48.2247C52.1953 48.2751 53.4274 49.2953 53.7928 50.7443C54.1467 52.1481 53.5178 53.6591 52.2147 54.3539C51.7847 54.5837 51.6452 54.8304 51.68 55.2927C51.7214 55.8468 51.702 56.4072 51.6852 56.9639C51.6645 57.6264 51.2203 58.0951 50.6262 58.1158C50.0128 58.1378 49.5298 57.6509 49.4988 56.9639C49.4846 56.6436 49.4962 56.3207 49.4962 55.9992H49.4949ZM51.6839 51.5773C51.7175 50.9755 51.2397 50.4486 50.6391 50.4227C50.0412 50.3969 49.5156 50.889 49.5001 51.4869C49.4846 52.0603 49.9444 52.5652 50.5178 52.6066C51.1209 52.6492 51.6516 52.1804 51.6852 51.5773H51.6839Z" fill="white"/>
<path d="M37.9317 7.51098C33.0811 7.51098 28.2304 7.51098 23.3798 7.51098C22.5895 7.51098 22.1633 7.23849 22.0406 6.67801C21.9011 6.04133 22.2782 5.46018 22.9278 5.34137C23.137 5.30263 23.3553 5.31554 23.5697 5.31554C33.1418 5.31554 42.7139 5.31554 52.286 5.31554C52.4151 5.31554 52.5443 5.31167 52.6721 5.31683C53.425 5.34783 53.8964 5.79208 53.8796 6.452C53.8628 7.08868 53.4108 7.50581 52.676 7.5084C50.6368 7.51873 48.5976 7.51227 46.5598 7.51227C43.6837 7.51227 40.8077 7.51227 37.9317 7.51227V7.51098Z" fill="white"/>
<path d="M12.6298 7.50663C11.5282 7.5105 10.9974 7.15278 11 6.41408C11.0026 5.67667 11.5424 5.31248 12.6363 5.31378C12.8506 5.31378 13.0676 5.30086 13.2781 5.32669C13.8864 5.40159 14.3151 5.88588 14.2957 6.45411C14.2751 7.03396 13.8334 7.46401 13.2084 7.50405C13.0159 7.51696 12.8222 7.50534 12.6298 7.50534V7.50663Z" fill="white"/>
<path d="M7.14811 7.50706C6.95568 7.50706 6.76197 7.51868 6.56954 7.50448C5.93416 7.45799 5.52607 7.03698 5.51961 6.43388C5.51315 5.83982 5.91479 5.38524 6.54113 5.32712C6.90273 5.29354 7.2695 5.30129 7.63239 5.31808C8.34397 5.35166 8.78823 5.79462 8.78048 6.43646C8.77144 7.08605 8.33493 7.48252 7.59752 7.50835C7.44772 7.51352 7.29791 7.50835 7.14811 7.50835C7.14811 7.50706 7.14811 7.50577 7.14811 7.50448V7.50706Z" fill="white"/>
<path d="M18.1454 7.50727C17.953 7.50727 17.7593 7.51889 17.5669 7.50469C16.9444 7.45949 16.5118 7.01911 16.504 6.43409C16.4963 5.88264 16.8966 5.40481 17.4765 5.33637C17.8574 5.29117 18.2475 5.30279 18.6323 5.31958C19.3348 5.35057 19.8023 5.81291 19.792 6.43667C19.7817 7.06172 19.3103 7.48531 18.5961 7.50985C18.4463 7.51502 18.2965 7.50985 18.1467 7.50985C18.1467 7.50856 18.1467 7.50727 18.1467 7.50598L18.1454 7.50727Z" fill="white"/>
</svg>
