<svg width="65" height="66" viewBox="0 0 65 66" fill="none" xmlns="http://www.w3.org/2000/svg">
<path d="M0.00127194 51.4756C0.00127194 38.7309 0.00127194 25.9862 0.00127194 13.2428C0.041974 13.1486 0.0941236 13.057 0.122106 12.959C0.689392 10.9761 1.98041 9.82687 4.04223 9.63597C4.8321 9.56343 5.63343 9.62452 6.49071 9.62452C6.49071 8.18129 6.48308 6.85387 6.49326 5.52519C6.50343 4.05269 6.95752 2.75073 8.18748 1.87512C8.77258 1.45895 9.49631 1.23368 10.1564 0.921875C25.0509 0.921875 39.9466 0.921875 54.841 0.921875C54.9351 0.962601 55.0267 1.01351 55.1246 1.04023C57.0822 1.59258 58.2536 2.86145 58.4431 4.89393C58.5576 6.13226 58.494 7.38713 58.508 8.63564C58.5118 8.94236 58.508 9.24907 58.508 9.51888C59.6248 9.58761 60.6563 9.54179 61.6421 9.73524C63.6759 10.1349 64.9898 11.9255 64.9936 14.154C65.0025 18.8948 64.9962 23.6343 64.9962 28.375C64.9962 35.7184 64.9936 43.0618 65 50.4053C65 51.4947 64.7787 52.5026 64.1084 53.3834C63.1277 54.67 61.782 55.1295 60.2188 55.1282C53.5347 55.1231 46.8519 55.1257 40.1679 55.1257H39.3729C40.234 57.9943 41.0544 60.7446 41.9028 63.4872C41.9461 63.6285 42.2335 63.7685 42.4154 63.7774C43.0628 63.813 43.7128 63.7914 44.3793 63.7914V65.9206H20.6169V63.7914C21.291 63.7914 21.9232 63.7685 22.5541 63.8003C22.9204 63.8181 23.0679 63.6845 23.1671 63.3396C23.5983 61.8365 24.0575 60.3424 24.5065 58.8457C24.869 57.6354 25.2315 56.4238 25.6194 55.1257H24.7927C18.1302 55.1257 11.4678 55.1231 4.80539 55.1282C3.49021 55.1282 2.21954 54.8877 1.34826 53.8606C0.768252 53.1772 0.440092 52.2774 0 51.4756H0.00127194ZM56.3406 44.2365V43.3368C56.3406 30.783 56.3406 18.2292 56.3406 5.67664C56.3406 3.93051 55.5088 3.08672 53.7904 3.08672C39.5943 3.08672 25.3981 3.08672 11.2007 3.08672C10.9476 3.08672 10.6894 3.08417 10.4426 3.13253C9.27627 3.36162 8.65937 4.24868 8.65937 5.68555C8.65937 18.2597 8.65937 30.8351 8.65937 43.4093C8.65937 43.6766 8.65937 43.9438 8.65937 44.2136H6.46655V11.7524C5.85474 11.7524 5.30781 11.7512 4.76215 11.7524C2.98779 11.7588 2.16484 12.5835 2.16484 14.3615C2.16484 24.8191 2.16484 35.2768 2.16484 45.7345C2.16484 45.9572 2.16484 46.1787 2.16484 46.3937H62.8364C62.8364 46.143 62.8364 45.9343 62.8364 45.7256C62.8364 35.2679 62.8364 24.8102 62.8364 14.3526C62.8364 14.1616 62.8441 13.9695 62.8237 13.7811C62.7207 12.8546 62.2577 12.1101 61.3546 11.9141C60.449 11.7168 59.49 11.7652 58.4877 11.7028V44.2378H56.3432L56.3406 44.2365ZM2.16357 48.6515C2.16357 49.2102 2.16357 49.7346 2.16357 50.2589C2.16357 52.1692 2.94836 52.9557 4.86009 52.9557C23.2829 52.9557 41.7057 52.9557 60.1272 52.9545C60.4007 52.9545 60.6779 52.9455 60.9489 52.9074C61.9601 52.7648 62.7156 52.0407 62.8021 51.0302C62.8682 50.2564 62.8148 49.4724 62.8148 48.6515H2.16357ZM39.6489 63.771C39.6324 63.6399 39.6337 63.5534 39.6108 63.4758C38.8171 60.8248 38.0107 58.1788 37.2386 55.5215C37.1203 55.1168 36.8825 55.1257 36.5785 55.1257C33.8718 55.1282 31.1638 55.1384 28.4571 55.1155C28.0132 55.1117 27.8326 55.2529 27.7118 55.6691C27.072 57.881 26.4042 60.0841 25.7466 62.2909C25.6042 62.7707 25.463 63.2505 25.3091 63.771H39.6489Z" fill="#0D57B7"/>
<path d="M23.5917 32.9312C24.0597 35.0312 24.5049 37.028 24.9514 39.0249C25.0849 39.623 25.2325 40.2187 25.3508 40.8194C25.4818 41.4888 25.1867 42.0221 24.5291 42.1824C23.0524 42.5439 21.568 42.8786 20.0798 43.1866C19.4044 43.3266 18.9313 42.9804 18.7545 42.227C18.3284 40.4172 17.9328 38.5998 17.5258 36.7849C17.363 36.0633 17.1569 35.3481 17.0539 34.6188C16.989 34.1581 16.7448 34.0423 16.362 33.9647C13.3818 33.3614 11.2297 31.0171 10.9206 28.0492C10.5505 24.4997 12.7967 21.4465 16.3963 20.6104C17.0755 20.4525 17.7496 20.2527 18.4378 20.1611C20.7107 19.8582 22.667 18.8833 24.5622 17.6234C27.8883 15.4127 31.2984 13.3268 34.6919 11.2179C35.1562 10.929 35.2617 10.6516 35.1155 10.1514C34.753 8.91181 34.6855 7.68621 35.5365 6.5866C36.3607 5.52264 37.4685 5.06574 38.7774 5.28846C40.0837 5.50991 41.0631 6.26971 41.3976 7.57676C41.9954 9.90959 42.5003 12.2653 43.0269 14.616C44.4947 21.1729 45.9511 27.7336 47.4177 34.2918C47.8832 36.3751 47.0768 38.0322 45.2719 38.6494C43.5611 39.2349 41.6558 38.3147 41.044 36.608C41.0224 36.5482 40.9982 36.4859 40.9969 36.4235C40.9766 34.9625 40.1294 34.6341 38.8003 34.4941C34.2187 34.0143 29.6537 33.3792 25.0786 32.8282C24.6143 32.7722 24.1297 32.8892 23.5917 32.93V32.9312ZM40.0875 32.4985C38.6336 25.9811 37.2053 19.5769 35.768 13.1333C35.6217 13.2046 35.5059 13.2491 35.4016 13.314C31.4866 15.783 27.5767 18.2622 23.6489 20.7122C23.2419 20.9654 23.322 21.2378 23.3958 21.5649C24.0254 24.3902 24.6715 27.2118 25.2744 30.0435C25.3902 30.587 25.6408 30.7295 26.1572 30.7868C28.3831 31.0311 30.6039 31.3277 32.8272 31.6026C35.1969 31.8966 37.5652 32.1867 40.0862 32.4973L40.0875 32.4985ZM21.2208 21.7201C19.4451 22.1529 17.7229 22.4838 16.0592 23.0005C14.0343 23.6292 12.8107 25.8055 13.1045 27.9729C13.392 30.097 15.2236 31.9716 17.3375 31.8762C19.3116 31.7871 21.2666 31.2818 23.2788 30.9509C22.5754 27.796 21.9102 24.814 21.2208 21.7201ZM37.045 8.77436C37.0628 8.87617 37.0959 9.10653 37.1455 9.33179C38.5115 15.4572 39.8801 21.5827 41.2488 27.7081C41.8389 30.3477 42.4177 32.9898 43.0269 35.6255C43.2063 36.4006 43.7837 36.7582 44.4744 36.6208C45.132 36.4897 45.4856 35.8864 45.3597 35.105C45.3355 34.9586 45.3088 34.8136 45.277 34.6685C43.64 27.3263 42.003 19.9829 40.3648 12.6408C40.0468 11.2179 39.7453 9.79123 39.393 8.376C39.2187 7.67348 38.6413 7.31458 38.0257 7.42022C37.4469 7.52076 37.0475 8.01838 37.045 8.77308V8.77436ZM23.018 40.3078C22.4902 37.9673 21.9827 35.721 21.4713 33.4581C20.6319 33.6516 19.8992 33.8196 19.1221 33.999C19.6347 36.2962 20.1333 38.5336 20.6459 40.8334C21.4395 40.6577 22.19 40.491 23.0168 40.3078H23.018Z" fill="#0D57B7"/>
<path d="M52.1832 18.5029C52.3485 19.2411 52.4922 19.8774 52.6563 20.608C50.8044 21.0241 48.9664 21.4365 47.0674 21.8628C46.9033 21.1412 46.752 20.4731 46.5879 19.7502C48.4551 19.334 50.2791 18.9267 52.1832 18.5029Z" fill="#0D57B7"/>
<path d="M48.2656 31.1565C48.6129 30.4642 48.9118 29.8673 49.2348 29.2246C50.6836 29.9488 52.0878 30.6513 53.5556 31.3856C53.2376 32.0309 52.9349 32.643 52.5991 33.3239C51.1542 32.601 49.7373 31.8922 48.2656 31.1565Z" fill="#0D57B7"/>
<path d="M46.9292 6.73369C47.4049 7.20459 47.8819 7.67548 48.3169 8.10438C47.2408 9.17216 46.175 10.2298 45.0951 11.3001C44.6766 10.8801 44.1907 10.3939 43.7227 9.92432C44.7898 8.8629 45.8468 7.81039 46.9292 6.73242V6.73369Z" fill="#0D57B7"/>
<path d="M15.2051 7.38746V5.27734H17.2961V7.38746H15.2051Z" fill="#0D57B7"/>
<path d="M10.8613 7.3797V5.28613H12.9448V7.3797H10.8613Z" fill="#0D57B7"/>
<path d="M19.5371 7.37313V5.29102H21.6218V7.37313H19.5371Z" fill="#0D57B7"/>
</svg>
