<svg width="66" height="64" viewBox="0 0 66 64" fill="none" xmlns="http://www.w3.org/2000/svg">
<path d="M0.00137738 61.344V4.55279C0.00137738 2.93221 1.02339 1.46674 2.57433 0.937435C2.58672 0.933353 2.6005 0.929271 2.61289 0.923828H63.3664C65.3719 1.60826 66.0055 3.04242 66.0014 5.06985C65.9614 23.5045 65.978 41.9391 65.9766 60.3738C65.9766 62.3345 64.3678 63.9238 62.383 63.9238C42.7815 63.9252 23.1813 63.9252 3.57981 63.9211C3.26164 63.9211 2.93658 63.9048 2.62529 63.8422C1.21898 63.5605 0.475197 62.5876 0 61.344H0.00137738ZM63.7797 11.8338H2.20106C2.20106 12.1278 2.20106 12.374 2.20106 12.6203C2.20106 28.4343 2.20106 44.2482 2.20106 60.0622C2.20106 61.4868 2.4724 61.7522 3.92692 61.7522C23.3025 61.7522 42.6796 61.7522 62.0552 61.7522C63.5069 61.7522 63.7797 61.4855 63.7797 60.0595C63.7797 44.2455 63.7797 28.4316 63.7797 12.6176V11.8338ZM2.20243 9.57374H63.7783C63.7783 7.95588 63.7783 6.37612 63.7783 4.79772C63.7783 3.36355 63.5083 3.09549 62.0648 3.09549C42.6919 3.09549 23.3177 3.09549 3.94482 3.09549C3.73821 3.09549 3.53161 3.08597 3.32638 3.09957C2.63769 3.14312 2.21483 3.53772 2.20794 4.22214C2.19004 5.98424 2.20106 7.74769 2.20106 9.57238L2.20243 9.57374Z" fill="white"/>
<path d="M33.0591 16.1309C41.3055 16.1309 49.5533 16.1309 57.7996 16.1309C59.0613 16.1309 59.3809 16.4452 59.3809 17.6929C59.3809 23.1697 59.3809 28.6451 59.3809 34.1219C59.3809 35.367 59.0599 35.6826 57.7983 35.6826C41.2587 35.6826 24.7191 35.6826 8.17947 35.6826C6.91778 35.6826 6.59961 35.367 6.59961 34.1192C6.59961 28.6424 6.59961 23.167 6.59961 17.6902C6.59961 16.4425 6.91641 16.1309 8.18084 16.1309C16.4741 16.1309 24.7659 16.1309 33.0591 16.1309ZM8.84887 18.3311V33.5096C10.9797 33.5096 13.0623 33.4878 15.1435 33.5246C15.711 33.5341 16.0471 33.3708 16.3721 32.9068C18.6076 29.7051 20.8775 26.5279 23.1309 23.3384C23.4891 22.8323 23.9229 22.4662 24.5634 22.7438C24.8541 22.869 25.1089 23.1479 25.2989 23.4133C26.7934 25.4924 28.2672 27.5852 29.7837 29.7228C29.96 29.5078 30.1074 29.3391 30.2424 29.1622C31.1652 27.9525 32.0826 26.7374 33.0082 25.5292C33.7506 24.559 34.4406 24.5685 35.1954 25.5523C35.7202 26.2367 36.2395 26.9279 36.7629 27.6137C37.475 28.5472 38.1899 29.4806 38.9392 30.4617C39.9446 29.4616 40.8937 28.5131 41.8468 27.5716C42.6471 26.781 43.1319 26.7823 43.9363 27.5743C45.8178 29.4275 47.6897 31.289 49.5822 33.1313C49.7723 33.3164 50.0753 33.4906 50.3273 33.4933C52.5022 33.5205 54.6785 33.5096 56.8548 33.5055C56.9594 33.5055 57.0641 33.4606 57.1454 33.4416V18.3325H8.84887V18.3311ZM24.1929 25.6298C22.3059 28.2954 20.4933 30.8549 18.6131 33.5096C21.3954 33.5096 24.0235 33.5137 26.6529 33.5001C26.8058 33.5001 27.0055 33.3939 27.1047 33.2742C27.4945 32.802 27.8678 32.3136 28.2135 31.8087C28.2906 31.6958 28.3016 31.4468 28.2259 31.3393C26.9174 29.4629 25.5896 27.6001 24.1929 25.6298ZM34.0894 27.7158C32.5963 29.6847 31.1831 31.5489 29.7231 33.4742H38.4612C36.9833 31.5284 35.5659 29.6602 34.0894 27.7158ZM46.5519 33.5096C45.2985 32.27 44.0355 31.0223 42.8468 29.848C42.0631 30.6236 41.2132 31.4645 40.3441 32.3258C40.4777 32.5054 40.6251 32.7694 40.8372 32.9681C41.0658 33.1817 41.3496 33.4783 41.6168 33.4865C43.2848 33.5341 44.9542 33.511 46.5519 33.511V33.5096Z" fill="white"/>
<path d="M14.2962 53.0614C12.1888 53.0614 10.0814 53.0654 7.97401 53.06C6.9878 53.0573 6.60213 52.6776 6.60076 51.7034C6.59662 48.9875 6.59662 46.2729 6.60076 43.5569C6.60213 42.5813 6.98504 42.2017 7.97263 42.2003C12.1874 42.1962 16.4022 42.1962 20.617 42.2003C21.6046 42.2003 21.9902 42.5813 21.9916 43.5556C21.9971 46.2715 21.9971 48.9861 21.9916 51.702C21.9902 52.6763 21.6032 53.0573 20.6184 53.06C18.511 53.0654 16.4036 53.0614 14.2962 53.0614ZM19.7451 50.5386V44.406H8.83487V50.5182C9.05938 50.3577 9.22191 50.2502 9.3748 50.1291C10.664 49.114 11.9519 48.0976 13.2397 47.0811C14.1653 46.3504 14.4229 46.3464 15.332 47.0607C16.7782 48.1983 18.2217 49.3385 19.7437 50.5386H19.7451ZM12.0125 50.8298H16.5813C15.865 50.2611 15.2535 49.7562 14.6171 49.2854C14.489 49.1902 14.2011 49.133 14.0992 49.2065C13.4133 49.7045 12.7577 50.2434 12.0139 50.8298H12.0125Z" fill="white"/>
<path d="M32.9951 42.2007C35.1024 42.2007 37.2098 42.1966 39.3172 42.202C40.3007 42.2048 40.6836 42.5858 40.685 43.5641C40.6891 46.28 40.6905 48.9946 40.685 51.7106C40.6836 52.6807 40.2938 53.0604 39.3048 53.0617C35.0901 53.0658 30.8753 53.0658 26.6605 53.0617C25.6784 53.0617 25.2955 52.6767 25.2941 51.6983C25.29 48.9824 25.29 46.2678 25.2941 43.5519C25.2955 42.5803 25.6812 42.2048 26.6729 42.202C28.7803 42.1966 30.8877 42.2007 32.9951 42.2007ZM38.4605 44.4213H27.5475V50.5404C29.1274 49.2926 30.6246 48.1061 32.1273 46.925C32.7912 46.4039 33.1796 46.3984 33.8449 46.9182C35.0845 47.8857 36.3145 48.8654 37.5487 49.8396C37.8242 50.0573 38.1038 50.2723 38.4591 50.5499V44.4213H38.4605ZM30.6935 50.8438H35.287C34.5542 50.2614 33.9317 49.7416 33.276 49.2668C33.1479 49.1742 32.8339 49.177 32.7044 49.2708C32.0488 49.7444 31.4262 50.2628 30.6935 50.8452V50.8438Z" fill="white"/>
<path d="M51.7518 42.2007C53.8358 42.2007 55.9211 42.1966 58.0051 42.202C58.9913 42.2048 59.377 42.5844 59.3783 43.5587C59.3825 46.2746 59.3838 48.9892 59.3783 51.7051C59.377 52.678 58.9899 53.0604 58.0037 53.0617C53.7889 53.0658 49.5741 53.0658 45.3593 53.0617C44.3745 53.0617 43.9889 52.6794 43.9875 51.7038C43.9833 48.9878 43.9833 46.2732 43.9875 43.5573C43.9889 42.5817 44.3731 42.2048 45.3607 42.202C47.4915 42.1966 49.621 42.2007 51.7518 42.2007ZM57.1539 44.4213H46.2409V50.5404C47.8207 49.2926 49.3179 48.1047 50.8207 46.925C51.4846 46.4039 51.873 46.3998 52.5383 46.9182C53.7779 47.8857 55.0079 48.8654 56.242 49.8396C56.5175 50.0573 56.7971 50.2723 57.1525 50.5499V44.4213H57.1539ZM54.0176 50.871C53.2449 50.2573 52.614 49.7457 51.968 49.2532C51.862 49.1715 51.6292 49.0994 51.5562 49.1538C50.8468 49.6777 50.1595 50.2301 49.3427 50.871H54.0176Z" fill="white"/>
<path d="M14.2526 57.4064C12.878 57.4064 11.5034 57.4118 10.1301 57.405C9.30645 57.4009 8.82023 57.0023 8.80508 56.345C8.78855 55.6647 9.29543 55.2388 10.1494 55.2374C12.9207 55.2334 15.692 55.2334 18.4633 55.2374C19.2814 55.2388 19.7732 55.6429 19.7897 56.2961C19.8062 56.9723 19.2952 57.4023 18.444 57.405C17.0473 57.4105 15.6493 57.4064 14.2526 57.4064Z" fill="white"/>
<path d="M32.9208 57.4058C31.5462 57.4058 30.1715 57.4113 28.7983 57.4031C27.9884 57.3977 27.498 56.9786 27.498 56.3186C27.498 55.6573 27.9856 55.2369 28.7983 55.2355C31.593 55.2301 34.3877 55.2301 37.181 55.2355C37.9896 55.2369 38.4827 55.6601 38.4827 56.3186C38.4827 56.9745 37.9882 57.399 37.1824 57.4031C35.7623 57.4113 34.3423 57.4058 32.9222 57.4058H32.9208Z" fill="white"/>
<path d="M51.6762 57.4062C50.3015 57.4062 48.9269 57.4102 47.5537 57.4048C46.6914 57.4021 46.1873 56.9898 46.1914 56.3122C46.1969 55.6345 46.6969 55.2359 47.5674 55.2345C50.3167 55.2304 53.0646 55.2304 55.8138 55.2345C56.6774 55.2345 57.1816 55.6482 57.1761 56.3258C57.1719 57.0007 56.6678 57.4007 55.7987 57.4048C54.424 57.4089 53.0494 57.4048 51.6762 57.4048V57.4062Z" fill="white"/>
<path d="M29.6849 38.9209C29.696 39.5074 29.2042 40.0108 28.6092 40.0217C28.0142 40.0326 27.5073 39.5482 27.4963 38.959C27.4853 38.3685 27.9715 37.8704 28.5706 37.8596C29.167 37.8487 29.6725 38.3317 29.6836 38.9209H29.6849Z" fill="white"/>
<path d="M34.0843 38.9089C34.1035 39.4954 33.6173 40.0043 33.0223 40.022C32.4273 40.0397 31.9149 39.5621 31.897 38.9729C31.8791 38.3837 32.3598 37.8789 32.9576 37.8599C33.5526 37.8422 34.065 38.3184 34.0843 38.9076V38.9089Z" fill="white"/>
<path d="M37.3844 37.8598C37.9808 37.857 38.4795 38.3469 38.4822 38.9361C38.485 39.5239 37.9864 40.0192 37.3913 40.0205C36.7949 40.0219 36.2963 39.532 36.2949 38.9429C36.2935 38.3523 36.7867 37.8611 37.3844 37.8584V37.8598Z" fill="white"/>
<path d="M6.59356 6.36204C6.58943 6.94985 6.0853 7.4397 5.49165 7.43562C4.89525 7.43018 4.40214 6.93489 4.40628 6.34571C4.41041 5.75381 4.9104 5.26804 5.50818 5.27348C6.10459 5.27756 6.59907 5.77286 6.59494 6.36204H6.59356Z" fill="white"/>
<path d="M10.992 6.36478C10.9851 6.9526 10.481 7.44245 9.88735 7.43565C9.29095 7.42884 8.79922 6.93219 8.80473 6.34301C8.81162 5.75247 9.31161 5.2667 9.90939 5.27351C10.5058 5.28031 10.9989 5.7756 10.9934 6.36478H10.992Z" fill="white"/>
<path d="M15.3898 6.40728C15.3595 6.99373 14.832 7.46589 14.2425 7.43596C13.6488 7.40602 13.1722 6.88624 13.2025 6.30114C13.2328 5.71196 13.7549 5.24389 14.3499 5.27382C14.9449 5.30376 15.4215 5.82218 15.3898 6.40728Z" fill="white"/>
<path d="M40.68 23.7656C40.6621 24.3534 40.1456 24.8337 39.5533 24.8147C38.9569 24.7956 38.4735 24.2894 38.4927 23.7016C38.5107 23.1111 39.0217 22.6348 39.6181 22.6539C40.2145 22.6716 40.6979 23.1791 40.68 23.7669V23.7656Z" fill="white"/>
</svg>
