<svg width="66" height="58" viewBox="0 0 66 58" fill="none" xmlns="http://www.w3.org/2000/svg">
<path d="M0 12.382C0 11.4259 0.120061 10.4724 0.35631 9.54577C1.65116 4.49799 6.16571 0.954052 11.4045 0.941253C20.382 0.918215 29.3582 0.904137 38.3356 0.96813C39.6576 0.977089 40.9873 1.38921 42.2912 1.70405C42.9948 1.87427 43.2452 2.46301 43.018 3.02871C42.8102 3.54577 42.2834 3.66864 41.6057 3.52274C40.3973 3.26165 39.1722 2.90712 37.9535 2.89944C29.2136 2.84697 20.4723 2.86105 11.7311 2.87513C7.13524 2.88153 3.38236 5.70618 2.28761 9.99245C2.07848 10.809 1.98423 11.6729 1.9752 12.5163C1.94034 15.8798 1.94034 19.2433 1.96616 22.6068C1.99327 26.1456 3.47919 28.9267 6.49362 30.8593C7.36762 31.4199 7.78589 32.1648 7.76137 33.2015C7.73038 34.585 7.75362 35.9686 7.75362 37.3534C7.75362 37.5581 7.75362 37.7629 7.75362 38.1046C8.01052 37.8717 8.16673 37.7412 8.31132 37.5978C9.72494 36.1989 11.1683 34.8282 12.5367 33.3871C13.3061 32.5769 14.1685 32.1814 15.2762 32.2761C15.5305 32.2979 15.7874 32.28 16.1579 32.28C16.1579 31.9344 16.1553 31.6273 16.1579 31.3188C16.1773 29.4285 16.0611 27.5343 16.6007 25.6772C18.004 20.8495 22.4011 17.4489 27.463 17.4182C33.9269 17.3773 40.3922 17.4054 46.8561 17.4029C47.1091 17.4029 47.3621 17.4029 47.703 17.4029C47.703 16.9728 47.7094 16.5978 47.703 16.2215C47.6642 14.4144 47.7146 12.5995 47.5532 10.8039C47.3905 8.99927 46.514 7.4532 45.3392 6.06967C45.1197 5.81113 44.8912 5.43101 44.9196 5.13025C44.9467 4.83716 45.2424 4.47112 45.5212 4.32265C45.9614 4.08844 46.3797 4.30473 46.7141 4.67717C48.1587 6.2898 49.2212 8.13153 49.4574 10.274C49.6833 12.318 49.6252 14.3926 49.6898 16.4532C49.6988 16.745 49.6898 17.0368 49.6898 17.4029C50.6838 17.4029 51.6017 17.4003 52.5196 17.4029C54.1708 17.4093 55.8193 17.3414 57.446 17.7779C62.4201 19.1128 65.9355 23.5603 65.9742 28.6682C66.0013 32.2237 66.0194 35.7791 65.969 39.3346C65.9122 43.3649 64.1694 46.5389 60.8012 48.8056C60.4075 49.0705 60.2861 49.3457 60.29 49.7936C60.3107 51.8158 60.29 53.838 60.3029 55.8615C60.3081 56.7241 60.0421 57.4191 59.2017 57.7761C58.3497 58.1371 57.6616 57.8043 57.0548 57.2028C55.037 55.1998 53.0089 53.2058 51.004 51.1874C50.6567 50.838 50.3017 50.71 49.8176 50.7113C42.5804 50.7241 35.3431 50.7113 28.1046 50.7241C25.258 50.7292 22.6864 49.9613 20.4504 48.1861C20.2167 48.0006 19.9779 47.8086 19.7933 47.5782C19.4705 47.1763 19.4899 46.7399 19.8307 46.3572C20.1728 45.9745 20.6002 45.9195 21.0533 46.1665C21.1837 46.2369 21.2973 46.3406 21.4109 46.4366C23.2699 48.0044 25.4155 48.7544 27.8593 48.7493C35.1611 48.7339 42.4629 48.7557 49.7647 48.7313C50.8271 48.7275 51.6534 49.0436 52.3957 49.8052C54.1566 51.6123 55.9691 53.367 57.7623 55.1422C57.9056 55.2843 58.0605 55.4148 58.2942 55.626C58.3096 55.3022 58.3264 55.0974 58.3264 54.8926C58.329 53.0829 58.3355 51.2732 58.3264 49.4634C58.3213 48.5291 58.7176 47.8342 59.5012 47.3299C62.5867 45.3448 64.03 42.4971 64.0209 38.8815C64.0132 35.5385 64.0403 32.1968 64.0132 28.8538C63.977 24.2604 60.8929 20.5091 56.3964 19.5556C55.7367 19.4161 55.0615 19.3572 54.3877 19.3572C45.5122 19.3457 36.638 19.3444 27.7625 19.3521C22.3907 19.3559 18.1886 23.4796 18.1499 28.7975C18.1241 32.3094 18.0931 35.8239 18.1744 39.3346C18.2015 40.4814 18.5294 41.6307 18.8109 42.757C19.0019 43.5249 18.9103 44.0343 18.3319 44.2646C17.7432 44.4988 17.2707 44.2275 16.9635 43.4826C16.3709 42.0415 16.154 40.5351 16.1553 38.989C16.1566 37.4391 16.1553 35.8892 16.1553 34.3099C15.2168 34.1947 14.4512 34.1831 13.7347 34.9523C12.192 36.6085 10.5499 38.1763 8.91937 39.7518C7.8272 40.8077 6.20574 40.4186 5.85201 39.0428C5.7952 38.8201 5.7965 38.5795 5.7965 38.3465C5.79262 36.6648 5.78488 34.9831 5.80166 33.3013C5.80553 32.9212 5.69322 32.6831 5.36144 32.4681C2.39347 30.5381 0.637744 27.8337 0.111024 24.35C0.111024 24.3487 0.111024 24.3474 0.111024 24.3461C0.0503482 23.9622 0 23.5756 0 23.1866V12.3832V12.382Z" fill="#0D57B7"/>
<path d="M39.9104 29.6616C39.3411 26.4965 36.4041 24.0865 33.1315 24.0622C29.753 24.0366 26.8495 26.3595 26.2079 29.6283C26.2828 29.6782 26.3641 29.7448 26.4558 29.7909C27.6564 30.4052 28.2606 31.3945 28.289 32.7179C28.3135 33.8672 28.3238 35.0178 28.2851 36.1659C28.2219 38.0626 26.8315 39.4103 25.0099 39.3937C23.2103 39.377 21.847 37.973 21.8134 36.0788C21.7941 34.9935 21.7992 33.9082 21.8134 32.8229C21.8302 31.3638 22.5002 30.3233 23.839 29.6821C24.052 29.5797 24.2379 29.27 24.2973 29.0229C25.1739 25.4355 27.952 22.8386 31.59 22.2384C36.1949 21.4781 40.6023 24.3079 41.7474 28.7887C41.883 29.3186 42.0999 29.6334 42.6214 29.892C43.7239 30.4398 44.27 31.4227 44.3049 32.6398C44.3384 33.8301 44.3475 35.0242 44.3036 36.2145C44.2519 37.6185 43.5509 38.6078 42.2419 39.1915C41.9876 39.3054 41.7397 39.5588 41.6171 39.8096C41.0581 40.9589 40.2499 41.8536 39.1177 42.473C38.897 42.5933 38.6852 42.8122 38.5768 43.0374C38.0191 44.1906 37.0599 44.7563 35.8309 44.8702C34.5051 44.9944 33.36 44.5861 32.5789 43.4611C31.8676 42.4359 32.0806 41.0972 33.0462 40.2269C34.354 39.0494 36.5732 39.0545 37.881 40.2435C38.0217 40.3715 38.1327 40.5302 38.3431 40.7734C38.8531 40.2384 39.3114 39.7584 39.82 39.226C39.5657 39.0532 39.4108 38.9521 39.2597 38.8446C38.4103 38.2367 37.8874 37.4329 37.8642 36.3796C37.8358 35.0818 37.8164 33.7828 37.8629 32.4863C37.9107 31.1398 38.6827 30.2478 39.9091 29.6616H39.9104ZM39.8136 34.3766C39.8136 34.9513 39.8045 35.5259 39.8161 36.0993C39.8329 36.8864 40.3519 37.4432 41.0594 37.4521C41.7436 37.4598 42.3 36.9466 42.3219 36.1876C42.3555 35.0191 42.3568 33.8467 42.3219 32.6782C42.2987 31.9065 41.7668 31.4304 41.0503 31.4393C40.3416 31.4483 39.8394 31.9577 39.8174 32.7179C39.8006 33.2708 39.8148 33.8237 39.8136 34.3779V34.3766ZM26.3073 34.4726C26.3073 33.8775 26.3241 33.281 26.3035 32.6859C26.2776 31.9295 25.7613 31.4329 25.0461 31.438C24.3554 31.4432 23.8338 31.9193 23.817 32.645C23.7899 33.8352 23.7899 35.0268 23.817 36.2171C23.8325 36.9312 24.3683 37.4368 25.037 37.4496C25.7238 37.4624 26.2751 36.9312 26.3035 36.194C26.3254 35.6206 26.3073 35.046 26.3086 34.4713L26.3073 34.4726ZM35.5172 41.3032C34.8007 41.2853 34.1707 41.6488 34.1487 42.0916C34.1255 42.5588 34.7981 42.9773 35.5249 42.9491C36.2272 42.921 36.7901 42.5281 36.7617 42.0852C36.7346 41.6654 36.1846 41.3199 35.5172 41.3032Z" fill="#0D57B7"/>
<path d="M50.7855 27.6427C49.5617 27.6427 48.3378 27.6465 47.114 27.6414C46.3317 27.6375 45.8734 27.26 45.885 26.6482C45.8966 26.0646 46.3407 25.7024 47.0895 25.7011C49.5591 25.696 52.0287 25.696 54.4984 25.7011C55.2639 25.7024 55.6783 26.0479 55.6848 26.6546C55.6913 27.2817 55.2575 27.6375 54.4584 27.6401C53.2345 27.6452 52.0107 27.6414 50.7868 27.6414L50.7855 27.6427Z" fill="#0D57B7"/>
<path d="M49.8894 32.0039C48.9263 32.0039 47.962 32.0116 46.9989 32.0013C46.316 31.9937 45.8822 31.6046 45.8848 31.0363C45.8874 30.4655 46.3224 30.0713 47.0015 30.0687C48.9289 30.0611 50.8563 30.0598 52.7838 30.0687C53.4783 30.0713 53.8863 30.4476 53.8863 31.0402C53.8863 31.6353 53.4886 31.9937 52.7812 32.0013C51.8181 32.0129 50.8538 32.0039 49.8907 32.0039H49.8894Z" fill="#0D57B7"/>
<path d="M15.5979 13.7331C15.585 14.547 14.9305 15.1627 14.0991 15.1422C13.309 15.1243 12.6803 14.4895 12.6777 13.71C12.6752 12.9037 13.331 12.2625 14.1533 12.2676C14.9783 12.2727 15.6108 12.9152 15.5979 13.7331Z" fill="#0D57B7"/>
<path d="M9.67742 12.2689C10.5011 12.2599 11.1595 12.896 11.1595 13.7036C11.1595 14.4881 10.5385 15.1204 9.74584 15.1422C8.91445 15.1652 8.25735 14.5534 8.24056 13.7394C8.22378 12.9203 8.85249 12.2765 9.67742 12.2676V12.2689Z" fill="#0D57B7"/>
<path d="M20.0207 13.727C20.0104 14.5474 19.3674 15.1592 18.5322 15.1438C17.7072 15.1285 17.0953 14.4834 17.1199 13.6553C17.1418 12.8657 17.7692 12.268 18.5735 12.2705C19.4036 12.2731 20.031 12.9053 20.0207 13.7283V13.727Z" fill="#0D57B7"/>
</svg>
