<svg width="68" height="68" viewBox="0 0 68 68" fill="none" xmlns="http://www.w3.org/2000/svg">
<g clip-path="url(#clip0_1277_1495)">
<path d="M55.8457 28.8305C55.8457 28.289 55.7822 27.7475 55.714 27.2083C55.6529 26.6995 55.34 26.4264 54.8201 26.5057C54.2862 26.5874 54.138 26.9679 54.185 27.4604C54.2321 27.9318 54.3003 28.4057 54.3003 28.8795C54.3073 35.2701 54.305 41.6584 54.305 48.049V48.7468H4.44115V33.2208L2.82984 32.3222C2.81807 38.7245 2.81807 45.1244 2.83219 51.5267C2.83219 52.1779 2.87923 52.8478 3.03213 53.4779C3.77781 56.5682 6.39356 58.5241 9.78321 58.5335C14.3043 58.5475 18.8254 58.5381 23.3442 58.5381H24.151C24.158 58.6899 24.1792 58.7622 24.1628 58.8206C23.4947 61.22 22.8314 63.6194 22.1351 66.0094C22.0833 66.1845 21.7799 66.3829 21.5752 66.4039C21.0107 66.4646 20.4203 66.3619 19.8722 66.4739C19.597 66.5299 19.2441 66.8894 19.1994 67.1578C19.1594 67.3818 19.4746 67.7226 19.7122 67.9163C19.8557 68.0307 20.1497 67.977 20.3779 67.977C26.8161 67.9793 33.2544 67.977 39.6926 67.977C39.8525 67.977 40.0642 68.0377 40.163 67.9607C40.4335 67.7413 40.7958 67.4985 40.8711 67.2044C40.9793 66.782 40.6429 66.4949 40.1936 66.4459C39.9231 66.4179 39.6479 66.4249 39.3727 66.4249C38.0272 66.4225 38.0224 66.4249 37.6696 65.1622C37.0604 62.9868 36.4582 60.8092 35.8278 58.5381H36.7099C40.7746 58.5381 44.837 58.5498 48.9018 58.5335C53.0536 58.5171 55.8481 55.7256 55.8528 51.6014C55.8575 44.0111 55.8552 36.4208 55.8457 28.8305ZM36.3805 66.3665H23.6923C24.3486 64.0068 25.0119 61.7545 25.5835 59.4788C25.7741 58.7202 26.0846 58.4938 26.8702 58.5171C29.1026 58.5778 31.3372 58.5498 33.5719 58.5288C34.0424 58.5241 34.2423 58.6572 34.367 59.1263C35.0068 61.5234 35.6937 63.9088 36.3805 66.3665ZM48.8289 57C35.8231 56.93 22.8149 56.937 9.80908 56.9977C6.89459 57.0117 3.73782 54.8177 4.49761 50.3783H54.2156C54.9425 54.813 51.8022 57.0164 48.8289 57ZM26.7056 21.9053C26.4774 21.9077 26.2492 21.9053 26.0211 21.9053H24.1204V23.4762C24.9908 23.4738 25.8611 23.4762 26.7315 23.4738C27.2537 23.4738 27.6606 23.2731 27.6677 22.7106C27.6747 22.1154 27.2607 21.9007 26.7056 21.9053Z" fill="white"/>
<path d="M59.941 0C60.3974 0.35244 60.4515 0.795909 60.3009 1.32807C59.9387 2.61179 59.6117 3.90485 59.2636 5.19091C59.0825 5.85611 58.7155 6.14087 58.2168 5.96815C57.6334 5.76742 57.6052 5.31695 57.7464 4.80346C58.1063 3.47306 58.4473 2.13798 58.8237 0.812247C58.906 0.52516 59.1083 0.270749 59.2565 0C59.4847 0 59.7129 0 59.941 0Z" fill="white"/>
<path d="M63.4601 22.2129C61.9194 20.0772 60.3669 17.9509 58.7979 15.8363C58.5415 15.4932 58.5227 15.2644 58.7555 14.8933C59.8164 13.2105 59.7505 11.1472 58.5791 9.59736C57.33 7.95186 55.6387 7.35435 53.6275 7.79081C53.1147 7.90285 52.903 7.77214 52.6349 7.3987C51.1365 5.31673 49.6216 3.24643 48.0997 1.18081C47.3163 0.118817 46.1049 -0.203281 45.0229 0.324212C43.9408 0.851706 43.4845 2.00472 43.8302 3.26511C43.8914 3.49384 43.9196 3.76226 43.8679 3.98866C43.1669 7.01358 42.0707 9.87978 40.2195 12.4099C38.5 14.7603 36.6722 17.0009 34.1482 18.5951C32.8239 19.433 31.5842 20.4063 30.3187 21.3329C29.119 22.2129 28.8861 23.4732 29.6601 24.7383C29.7283 24.848 29.78 24.967 29.8318 25.0674C28.3592 26.895 28.1711 28.7225 29.2672 30.3377C30.4222 32.0368 32.1699 32.4757 34.7175 31.6774C35.2726 32.4733 36.0301 33.0218 37.058 32.8701C37.5661 32.7954 37.7849 32.9658 38.046 33.3276C39.8431 35.811 41.6332 38.2991 43.4751 40.7498C45.244 43.1025 48.6219 43.1562 50.4519 40.9062C51.7198 39.3494 51.7692 37.2651 50.546 35.5496C49.4828 34.0581 48.389 32.5853 47.3234 31.1219C48.4831 29.5184 48.5607 28.7108 47.7797 26.6265C47.8315 26.5915 47.8809 26.5448 47.9397 26.5215C51.4046 25.1071 55.0107 24.6426 58.732 24.9344C59.2377 24.9717 59.6682 25.0837 60.0681 25.4689C60.3527 25.7419 60.8208 25.903 61.2301 25.966C62.2205 26.1177 63.0367 25.7419 63.5636 24.89C64.1211 23.9914 64.0764 23.0695 63.4601 22.2129ZM57.2901 10.4866C58.0781 11.5416 58.0992 12.69 57.4947 14.0274C56.3209 12.4239 55.2106 10.9091 54.0251 9.28927C55.4412 9.09321 56.5162 9.45265 57.2901 10.4866ZM30.6621 29.5931C29.9141 28.6291 29.9635 27.3851 30.8456 26.3651C31.803 27.6769 32.751 28.9746 33.706 30.2817C32.5934 30.8208 31.3819 30.5221 30.6621 29.5931ZM37.3379 31.1826C36.9004 31.4907 36.4582 31.381 36.1406 30.9492C34.4093 28.5895 32.6827 26.2274 30.9656 23.8584C30.6457 23.4196 30.7162 22.9808 31.1514 22.6657C33.0215 21.3026 34.9057 19.9558 36.8275 18.5718C38.914 21.4286 40.9675 24.2388 43.0493 27.0933C41.1063 28.4868 39.2315 29.8475 37.3379 31.1826ZM49.1676 36.3105C50.2285 37.7716 50.0168 39.4988 48.6736 40.4581C47.3469 41.408 45.625 41.0533 44.5571 39.5945C42.7059 37.0714 40.8617 34.5389 38.9704 31.9505C40.5323 30.8278 42.026 29.7518 43.5621 28.6478C43.9337 29.152 44.2795 29.6211 44.6253 30.0949C46.1402 32.1652 47.6598 34.2332 49.1676 36.3105ZM44.8958 27.8006C45.3522 27.5975 45.7544 27.4178 46.1449 27.2451C46.8859 28.1413 46.9423 28.8252 46.326 29.7588C45.8391 29.089 45.3851 28.4728 44.8958 27.8006ZM51.12 23.9214C48.8524 24.5679 46.6342 25.3895 44.3125 26.1621C42.273 23.3682 40.1607 20.4763 38.0013 17.5191C41.3274 14.039 43.9996 10.1739 45.1475 5.24904C49.5957 11.3386 53.9427 17.2904 58.3674 23.3449C55.8269 23.2002 53.4299 23.2632 51.12 23.9214ZM62.004 24.2528C61.79 24.4092 61.3454 24.3182 61.0255 24.2411C60.8655 24.2015 60.7526 23.9541 60.6327 23.7883C55.6387 16.9566 50.6472 10.1249 45.6603 3.28845C45.4792 3.04104 45.3451 2.75862 45.1452 2.41785C45.3545 2.16577 45.4933 1.84601 45.7191 1.76898C45.9732 1.67796 46.326 1.74798 46.5942 1.85534C46.7777 1.93003 46.8953 2.18211 47.0294 2.36417C51.995 9.1609 56.9584 15.9576 61.9217 22.7544C62.0558 22.9364 62.2722 23.1325 62.2699 23.3215C62.2651 23.646 62.2157 24.0964 62.004 24.2528Z" fill="white"/>
<path d="M61.9453 8.802C61.79 8.65262 61.4584 8.47757 61.3972 8.23249C61.3361 7.98742 61.4513 7.53462 61.6418 7.41558C63.0085 6.56599 64.3987 5.75374 65.8219 5.00218C66.0312 4.89015 66.5581 5.06987 66.7322 5.27993C66.8757 5.45498 66.8334 6.0595 66.6757 6.15986C65.2385 7.05847 63.7566 7.89172 62.2864 8.73898C62.2323 8.77166 62.1546 8.76466 61.9453 8.802Z" fill="white"/>
<path d="M62.6133 11.6961C63.4107 11.9038 64.027 12.0649 64.6456 12.2236C65.5489 12.457 66.4569 12.681 67.3578 12.9284C67.8048 13.0522 68.0823 13.3602 67.9812 13.8364C67.873 14.3405 67.4872 14.5459 66.9932 14.4222C65.4901 14.0488 63.9917 13.6613 62.498 13.2505C62.0675 13.1315 61.8417 12.7557 62.004 12.3473C62.1169 12.0672 62.4415 11.8688 62.6156 11.6914L62.6133 11.6961Z" fill="white"/>
<path d="M37.338 54.4302C36.9052 54.4302 36.47 54.4465 36.0395 54.4255C35.562 54.4022 35.2633 54.1501 35.2727 53.6553C35.2797 53.1651 35.5832 52.9061 36.0583 52.8944C36.924 52.8757 37.7896 52.8804 38.6576 52.8921C39.1422 52.8967 39.4527 53.1698 39.4645 53.639C39.4786 54.1501 39.1516 54.4185 38.6388 54.4325C38.206 54.4442 37.7732 54.4349 37.3403 54.4349C37.3403 54.4349 37.3403 54.4325 37.3403 54.4302H37.338Z" fill="white"/>
<path d="M48.2479 54.4299C47.8151 54.4299 47.3823 54.4439 46.9494 54.4252C46.4649 54.4065 46.1685 54.1265 46.1755 53.655C46.1826 53.1835 46.4813 52.9011 46.9636 52.8941C47.8292 52.8778 48.6948 52.8778 49.5628 52.8941C50.038 52.9011 50.3485 53.1485 50.365 53.6386C50.3814 54.1731 50.0521 54.4136 49.5487 54.4346C49.1159 54.4509 48.6831 54.4392 48.2503 54.4392V54.4346L48.2479 54.4299Z" fill="white"/>
<path d="M42.8258 52.8898C43.2586 52.8898 43.6915 52.8758 44.1243 52.8945C44.6018 52.9155 44.9005 53.1699 44.9099 53.6554C44.9194 54.1432 44.6253 54.4163 44.1431 54.4256C43.2563 54.4443 42.3671 54.4466 41.4803 54.4256C40.9981 54.4139 40.7135 54.1292 40.7299 53.6414C40.7464 53.1536 41.0522 52.9108 41.5274 52.8945C41.9602 52.8781 42.393 52.8921 42.8258 52.8921V52.8898Z" fill="white"/>
<path d="M22.7326 21.9049C22.7326 20.236 22.7326 18.5672 22.7349 16.9007C22.7349 15.9624 22.3374 15.2762 21.5141 14.8071C18.5478 13.1195 15.5863 11.4274 12.6318 9.71884C11.7615 9.21469 10.9523 9.22869 10.0843 9.73285C7.16041 11.4297 4.22475 13.1102 1.27968 14.7767C0.404629 15.2715 -0.00937446 15.9741 3.46974e-05 16.9684C0.0165007 18.6442 0.00473928 20.3201 0.00473928 21.9959C0.00473928 23.6717 0.0117961 25.4083 0.00238699 27.1121C-0.00466988 28.0691 0.402276 28.7576 1.2444 29.2361C1.41376 29.3318 1.58548 29.4298 1.75484 29.5255C3.94718 30.7719 6.13481 32.023 8.31773 33.281C8.91992 33.6288 9.52211 33.9765 10.1243 34.3243C10.9641 34.8098 11.7568 34.8191 12.5942 34.336C15.177 32.8469 17.7645 31.3671 20.3544 29.8896C20.7402 29.6679 21.1283 29.4462 21.5141 29.2268C21.9281 28.991 22.2315 28.7039 22.4338 28.3562C22.6361 28.0084 22.7349 27.6023 22.7349 27.1331C22.7326 25.9895 22.7326 24.8458 22.7326 23.7021C22.7326 23.1022 22.7302 22.5047 22.7326 21.9049ZM8.87993 11.9595C9.54563 11.5767 10.2019 11.173 10.8841 10.8252C11.1099 10.7131 11.4722 10.6338 11.6674 10.7388C12.9023 11.3924 14.1091 12.0996 15.377 12.8208C15.217 12.9235 15.1159 13.0005 15.0053 13.0635C12.8671 14.2889 10.7265 15.5119 8.5906 16.742C7.85904 17.1621 7.12983 17.5822 6.40062 18.0047C6.15363 18.1471 5.97485 18.1564 5.73962 18.0304C5.7208 18.0234 5.70199 18.0117 5.68082 18C4.48585 17.2975 3.27913 16.6159 2.01595 15.8924C4.34471 14.5573 6.61232 13.2573 8.87993 11.9595ZM10.6959 31.9506V32.8562C10.6959 32.9099 10.6747 32.9659 10.6512 33.0756C10.5007 32.9963 10.376 32.9332 10.2537 32.8632C9.58797 32.4828 8.91992 32.1 8.25422 31.7172C6.52999 30.7299 4.80576 29.7426 3.07918 28.76C2.6887 28.5359 2.29822 28.3118 1.90774 28.0901C1.51961 27.8684 1.33378 27.5789 1.33378 27.1331C1.33614 25.6814 1.33849 24.2296 1.33614 22.7778C1.33849 20.9666 1.33849 19.1554 1.33849 17.3442C1.33849 17.2741 1.3479 17.2018 1.3526 17.0921C1.45375 17.1294 1.53843 17.1458 1.609 17.1854C2.58285 17.7409 3.54964 18.3035 4.52584 18.8543C4.71873 18.9663 4.91397 19.076 5.10921 19.1857C5.33503 19.3118 5.4103 19.4588 5.4056 19.7085C5.40324 19.8509 5.40089 19.9933 5.40089 20.138C5.39384 20.9503 5.39854 21.7625 5.40089 22.5748C5.40324 23.0999 5.64083 23.3987 6.04777 23.408C6.46413 23.4173 6.72994 23.0929 6.73229 22.5561C6.73699 21.8068 6.73699 21.0576 6.73935 20.3061C6.73935 20.2781 6.74875 20.25 6.75816 20.1964C6.80991 20.208 6.86872 20.2057 6.91342 20.2314C8.09191 20.9036 9.27512 21.5734 10.4442 22.262C10.5406 22.318 10.6324 22.4464 10.67 22.5654C10.6818 22.6028 10.6888 22.6354 10.6888 22.6681C10.6912 23.1653 10.6912 23.6647 10.6935 24.1619C10.6959 24.8504 10.6959 25.539 10.6959 26.2275C10.6983 26.762 10.6983 27.2942 10.6983 27.8287C10.6983 29.2034 10.6983 30.5758 10.6959 31.9506ZM21.4035 27.0865C21.4035 27.5253 21.2671 27.8427 20.8696 28.0668C18.035 29.6842 15.2052 31.3087 12.3731 32.9309C12.2884 32.9776 12.1943 33.0079 12.0367 33.0756V31.8456C12.0367 30.3915 12.0391 28.9373 12.0367 27.4832C12.0367 26.9511 12.0367 26.4166 12.0367 25.8821C12.0367 25.1959 12.0367 24.5073 12.032 23.8188C12.032 23.4967 12.032 23.1746 12.0296 22.8525C12.0273 22.5117 12.1379 22.332 12.4342 22.1663C12.4978 22.1313 12.5589 22.0963 12.6224 22.0589C14.4549 21.0226 16.2802 19.9723 18.108 18.922C18.4467 18.7282 18.7878 18.5322 19.1265 18.3385C19.2535 18.2638 19.39 18.1984 19.4982 18.1027C19.524 18.0794 19.5452 18.056 19.5664 18.0327C19.771 17.811 19.8016 17.5449 19.6393 17.2671C19.4676 16.973 19.1924 16.8937 18.8748 16.9847C18.7501 17.0197 18.6349 17.0944 18.5196 17.1621C18.4538 17.1994 18.3902 17.2368 18.3244 17.2741C17.7692 17.5916 17.2141 17.909 16.659 18.2264C15.01 19.1694 13.361 20.1123 11.7191 21.0623C11.4698 21.207 11.2934 21.2187 11.0393 21.0693C9.95963 20.4274 8.86346 19.8159 7.77435 19.1904C7.6638 19.1274 7.55794 19.0527 7.40504 18.9546C7.565 18.8636 7.72496 18.7703 7.88491 18.6792C8.89169 18.1027 9.87495 17.5379 10.8559 16.973C11.3922 16.665 11.9285 16.3592 12.4648 16.0511C13.7609 15.3089 15.057 14.5666 16.3485 13.8151C16.6213 13.6564 16.8213 13.6354 17.1059 13.8034C18.3244 14.527 19.5546 15.2319 20.7943 15.9204C21.2153 16.1561 21.4082 16.4619 21.4059 16.945C21.4035 17.9417 21.4012 18.9383 21.4012 19.9349C21.3988 22.318 21.4012 24.7034 21.4059 27.0865H21.4035Z" fill="white"/>
</g>
<defs>
<clipPath id="clip0_1277_1495">
<rect width="68" height="68" fill="white"/>
</clipPath>
</defs>
</svg>
