<svg width="71" height="71" viewBox="0 0 71 71" fill="none" xmlns="http://www.w3.org/2000/svg">
<path d="M1.84416 70.9973C1.34023 70.9973 0.860427 70.8097 0.530731 70.4799L0.514648 70.4638C0.187632 70.134 0 69.6542 0 69.1502V47.4316C0 46.0885 1.08022 44.9946 2.40973 44.9946H2.45262C5.00442 45.0134 7.70632 45.0215 11.2043 45.0215C12.8528 45.0215 14.4986 45.0215 16.1471 45.0188C17.7929 45.0188 19.4414 45.0161 21.0872 45.0161H22.5051V38.4424C22.5051 33.8633 22.5051 29.2842 22.5051 24.7024C22.5051 23.1233 23.1163 22.5067 24.679 22.5067C27.6275 22.5067 30.5733 22.5067 33.5218 22.5067H45.0103V15.815C45.0103 11.2735 45.0103 6.73189 45.0103 2.19301C45.0103 0.613923 45.6214 0 47.1868 0C50.859 0 54.5339 0 58.2062 0C61.8784 0 65.2987 0 68.8422 0C70.3621 0 70.9839 0.624613 70.9839 2.15813V16.2091C70.9839 33.4558 70.9839 51.2869 71 68.8258C71 69.9035 70.6113 70.5603 69.7 71H1.84416V70.9973ZM3.50604 67.496H22.4542V48.5442H3.50604V67.496ZM26.0139 67.496H44.962V26.0348H26.0139V67.496ZM48.519 67.496H67.4672V3.52276H48.519V67.496Z" fill="#0D57B7"/>
</svg>
