<svg width="64" height="69" viewBox="0 0 64 69" fill="none" xmlns="http://www.w3.org/2000/svg">
<path d="M23.027 33.4298C23.2028 33.6838 23.2443 33.779 23.3151 33.8401C27.7403 37.7427 32.0703 41.7624 37.0328 45.0007C39.6459 46.7054 42.3616 48.2367 45.4558 48.8497C50.9165 49.934 55.3222 47.9899 58.7193 43.7601C64.6635 36.3603 61.8281 25.0409 53.2024 21.6927C51.8323 21.1603 50.2889 21.0674 48.826 20.7793C48.1862 20.6523 47.8834 20.8624 47.6953 21.5633C47.0603 23.9469 44.9161 25.5025 42.4764 25.4757C40.1392 25.4488 38.0243 23.8174 37.3991 21.5559C36.6445 18.828 38.1074 15.9926 40.7547 15.05C43.4508 14.0902 46.3717 15.3626 47.4999 18.0173C47.6807 18.4422 47.8321 18.6961 48.3767 18.6913C56.1354 18.6278 62.0162 24.2912 63.5889 31.3075C65.5134 39.8942 60.0136 48.7764 51.4636 50.8596C48.3034 51.6288 45.2409 51.2063 42.2468 50.0633C38.1122 48.4857 34.5003 46.0289 31.1032 43.2595C28.1018 40.8149 25.2103 38.2359 22.2699 35.7156C22.0818 35.5544 21.8865 35.4031 21.5421 35.3469C21.7399 36.1284 21.9402 36.9123 22.1307 37.6938C22.3236 38.4802 22.0525 39.0541 21.4273 39.2104C20.8437 39.3569 20.3357 38.9979 20.1354 38.2506C19.625 36.3457 19.1195 34.4384 18.6359 32.5237C18.3746 31.4907 18.8386 30.9339 19.9205 31.0242C21.9133 31.1927 23.9037 31.4126 25.8965 31.6079C26.5803 31.6763 26.9735 32.0304 26.9466 32.7337C26.9222 33.354 26.3898 33.7301 25.6401 33.6715C24.8317 33.608 24.0258 33.5177 23.027 33.42V33.4298Z" fill="white"/>
<path d="M42.4911 33.6491C42.3177 32.9237 42.137 32.2008 41.9685 31.4731C41.7731 30.633 42.01 30.1714 42.7011 30.0054C43.341 29.8515 43.7757 30.1568 43.9857 30.9505C44.4668 32.7821 44.9431 34.6162 45.3997 36.4527C45.6562 37.4857 45.197 38.0523 44.1274 37.9644C42.1077 37.7959 40.0929 37.5712 38.0732 37.3783C37.4041 37.3148 37.0719 36.9485 37.0915 36.2891C37.111 35.6419 37.5555 35.2658 38.2662 35.3122C39.1234 35.3684 39.9757 35.4661 40.9428 35.5564C40.8475 35.3586 40.8304 35.2535 40.7669 35.1974C36.2685 31.2215 31.8628 27.1285 26.7953 23.856C24.2408 22.2075 21.5837 20.7349 18.5701 20.1439C13.0728 19.062 8.6622 21.0377 5.26515 25.3066C-0.549655 32.6111 2.18313 43.7865 10.6257 47.2153C12.0788 47.8063 13.737 47.8991 15.3 48.2215C15.8959 48.3436 16.1523 48.1336 16.3184 47.5035C16.9582 45.0784 19.1 43.4934 21.5666 43.5203C23.9038 43.5472 26.0187 45.1785 26.6439 47.4375C27.3985 50.163 25.9357 53.0008 23.2884 53.9435C20.5898 54.9057 17.6738 53.6358 16.5431 50.9812C16.3624 50.5587 16.2158 50.2998 15.6688 50.3047C7.93688 50.3633 1.9902 44.7414 0.441865 37.6176C-1.43128 29.0016 4.03674 20.2319 12.5623 18.1389C16.0351 17.2866 19.3565 17.8825 22.585 19.2428C27.0249 21.1159 30.8542 23.9487 34.5248 27.0063C36.9718 29.0455 39.3456 31.1751 41.7536 33.2632C41.9441 33.4268 42.1419 33.5807 42.3373 33.7395C42.391 33.7102 42.4423 33.6809 42.496 33.6516L42.4911 33.6491Z" fill="white"/>
<path d="M16.8068 63.5894C16.8117 64.5004 16.0571 65.0327 15.3708 64.7055C14.665 64.3685 13.9934 63.9534 13.3511 63.5064C12.8871 63.1841 12.787 62.6809 13.0825 62.1827C13.3976 61.6527 13.9104 61.5209 14.4404 61.7895C15.0924 62.1192 15.7249 62.5002 16.3208 62.9227C16.5724 63.101 16.7042 63.4454 16.8044 63.5894H16.8068Z" fill="white"/>
<path d="M51.1118 6.1335C51.1338 7.03466 50.3279 7.57198 49.6099 7.21542C48.931 6.8784 48.2814 6.47543 47.6611 6.04072C47.1995 5.71836 47.0798 5.22256 47.3778 4.71947C47.6635 4.23592 48.1275 4.01373 48.6501 4.27993C49.3706 4.6487 50.0641 5.07354 50.7333 5.53023C50.9433 5.67432 51.0312 5.99673 51.1118 6.12861V6.1335Z" fill="white"/>
<path d="M8.94298 57.6719C9.30687 57.8624 9.58527 57.9576 9.80018 58.1335C10.2886 58.5291 10.7575 58.9516 11.2166 59.3814C11.7173 59.8527 11.7857 60.4852 11.3681 60.9101C10.9089 61.3766 10.3814 61.3815 9.8881 60.9786C9.34106 60.5317 8.76959 60.0895 8.33 59.5474C8.11265 59.2812 8.0345 58.7562 8.13707 58.4241C8.22987 58.1237 8.65725 57.9258 8.94543 57.6743L8.94298 57.6719Z" fill="white"/>
<path d="M42.4399 1.5127C43.4387 1.92542 44.3423 2.21605 45.1434 2.6825C45.3876 2.82415 45.539 3.56412 45.3851 3.83276C45.2069 4.14535 44.6134 4.45308 44.2642 4.39202C43.5047 4.26014 42.7354 3.97433 42.0736 3.58115C41.7707 3.40042 41.5339 2.79232 41.5851 2.42112C41.6315 2.09386 42.12 1.83018 42.4399 1.5127Z" fill="white"/>
<path d="M20.9927 3.51435C20.8608 3.65844 20.6459 4.02973 20.3236 4.2129C19.7594 4.53282 19.1342 4.75253 18.5261 4.98454C17.8789 5.2312 17.3099 5.01391 17.095 4.44245C16.8581 3.81237 17.1243 3.3605 17.686 3.09186C18.299 2.7988 18.9218 2.52039 19.5616 2.29816C20.3284 2.0344 20.9927 2.50085 20.9927 3.51435Z" fill="white"/>
<path d="M55.051 11.3222C54.6896 11.1195 54.4185 11.0121 54.2036 10.8387C53.7371 10.4601 53.2927 10.0499 52.8482 9.64202C52.3549 9.19266 52.223 8.67242 52.6455 8.11316C52.9996 7.64671 53.6541 7.61251 54.1816 8.04722C54.7262 8.49658 55.3001 8.93864 55.7348 9.4808C55.9449 9.74211 55.9986 10.2819 55.8814 10.6091C55.7763 10.9046 55.3441 11.0853 55.0486 11.3222H55.051Z" fill="white"/>
<path d="M58.9903 55.53C58.182 55.5495 57.5763 54.8144 57.8987 54.2063C58.3114 53.4273 58.8242 52.6776 59.4201 52.0328C59.6228 51.813 60.2969 51.8008 60.5997 51.9718C60.8683 52.1232 61.1492 52.7801 61.032 52.9999C60.5753 53.84 59.9721 54.5995 59.3933 55.3688C59.3029 55.4909 59.066 55.5031 58.9879 55.53H58.9903Z" fill="white"/>
<path d="M57.3125 57.628C57.1098 57.9919 57.0146 58.2728 56.8314 58.473C56.387 58.9566 55.9132 59.4182 55.4272 59.8602C54.951 60.29 54.4064 60.3364 53.9448 59.8724C53.4832 59.4084 53.5223 58.8613 53.9643 58.3924C54.4528 57.8747 54.9412 57.3423 55.5078 56.9271C55.7715 56.7342 56.2746 56.6781 56.5799 56.7953C56.8803 56.9101 57.0634 57.3253 57.3125 57.6257V57.628Z" fill="white"/>
<path d="M43.9857 66.9499C43.6511 66.63 43.2017 66.3955 43.1382 66.0853C43.0674 65.7263 43.2188 65.1085 43.485 64.94C44.1835 64.5004 44.9748 64.1634 45.7758 63.9607C46.0859 63.8801 46.6843 64.1756 46.8454 64.4662C47.0042 64.7544 46.9138 65.4773 46.6843 65.6239C45.8832 66.1367 44.9772 66.481 43.9857 66.9499Z" fill="white"/>
<path d="M22.5287 66.0629C22.5482 66.9079 21.9792 67.4598 21.3466 67.2937C20.5676 67.0886 19.8032 66.798 19.0632 66.4732C18.5357 66.2412 18.3892 65.743 18.5846 65.2106C18.7799 64.6685 19.2317 64.4168 19.7739 64.5731C20.5261 64.7905 21.2709 65.0567 21.9743 65.3962C22.2551 65.5329 22.4139 65.9188 22.5262 66.0629H22.5287Z" fill="white"/>
<path d="M40.2734 65.8887C40.503 66.1475 40.8937 66.4234 41.0476 66.7971C41.2478 67.2855 40.9865 67.7788 40.481 67.9327C39.6848 68.1745 38.857 68.4016 38.0364 68.4358C37.7116 68.4504 37.1596 67.9767 37.0864 67.6446C37.0156 67.3124 37.3257 66.6603 37.6285 66.5333C38.3905 66.2183 39.2428 66.1231 40.2734 65.8887Z" fill="white"/>
<path d="M36.9962 0.324613C37.3747 0.392994 38.0488 0.488315 38.7082 0.647056C39.3456 0.800912 39.6118 1.26489 39.4701 1.89497C39.3333 2.50551 38.8718 2.73506 38.2857 2.66912C37.6629 2.5983 37.045 2.48114 36.4272 2.37124C35.7849 2.25646 35.3624 1.90723 35.3941 1.21121C35.4234 0.583574 35.9387 0.246464 36.9986 0.324613H36.9962Z" fill="white"/>
<path d="M27.037 1.83706C26.8685 1.9958 26.6145 2.39872 26.2579 2.53059C25.6034 2.77481 24.8928 2.88964 24.1968 3.00686C23.5691 3.11188 23.1027 2.85049 22.9659 2.20088C22.8389 1.59522 23.1246 1.16053 23.7059 0.99935C24.4117 0.803977 25.1297 0.642755 25.8525 0.532858C26.5168 0.432729 27.0565 0.948107 27.0346 1.83706H27.037Z" fill="white"/>
<path d="M15.4051 6.06723C15.3904 6.87803 13.0068 8.47274 12.2547 8.17479C11.5367 7.8915 11.3413 6.94881 11.9543 6.44572C12.5575 5.94996 13.2169 5.50314 13.9056 5.13926C14.6162 4.76316 15.4173 5.30283 15.4051 6.06723Z" fill="white"/>
<path d="M60.1967 15.073C60.0331 15.261 59.8377 15.6714 59.5349 15.7788C59.2247 15.8863 58.6826 15.8252 58.4677 15.6127C57.8987 15.0461 57.3663 14.4014 56.995 13.6956C56.8339 13.3903 56.9706 12.7285 57.2197 12.4721C57.4346 12.2523 58.1893 12.1962 58.3846 12.3891C59.044 13.0412 59.5642 13.8348 60.1259 14.5846C60.1796 14.6578 60.1577 14.7873 60.1943 15.0755L60.1967 15.073Z" fill="white"/>
<path d="M4.09529 17.2474C3.24053 17.2474 2.6886 16.4659 3.05004 15.8163C3.453 15.0885 3.92922 14.3755 4.50069 13.7796C4.72049 13.55 5.38964 13.4914 5.67293 13.6575C5.95867 13.826 6.25905 14.4976 6.13695 14.732C5.70957 15.5575 5.11856 16.2999 4.55442 17.0497C4.44941 17.1913 4.18565 17.2108 4.09529 17.2474Z" fill="white"/>
<path d="M6.18809 56.8049C5.3895 56.8098 3.68975 54.6168 3.89978 53.8499C4.10981 53.0782 5.08911 52.8218 5.65081 53.4372C6.16123 53.9941 6.63257 54.5997 7.04285 55.2346C7.49953 55.9404 7.00133 56.8 6.18809 56.8049Z" fill="white"/>
<path d="M49.4414 63.9733C49.3022 63.8537 48.8748 63.6657 48.782 63.3702C48.677 63.0405 48.738 62.4592 48.9651 62.2589C49.583 61.7094 50.2961 61.2308 51.041 60.8693C51.3194 60.735 51.8982 60.889 52.1424 61.121C52.3598 61.3285 52.4086 61.8414 52.3451 62.1857C52.2572 62.6668 50.2009 63.971 49.4414 63.9758V63.9733Z" fill="white"/>
<path d="M27.1858 68.6934C26.7413 68.6128 26.0404 68.5126 25.3542 68.3588C24.7168 68.2147 24.4359 67.7653 24.5629 67.1279C24.685 66.5149 25.1368 66.2634 25.7254 66.3269C26.3994 66.4026 27.071 66.5174 27.7353 66.6567C28.3483 66.7861 28.7244 67.1866 28.6291 67.8337C28.5339 68.476 28.0821 68.7496 27.1858 68.6934Z" fill="white"/>
<path d="M10.4816 9.71283C10.357 10.0401 10.3301 10.3062 10.1836 10.4625C9.6439 11.0389 9.08952 11.6055 8.49363 12.1208C8.0516 12.5018 7.53875 12.4284 7.14311 12.0157C6.74748 11.603 6.71085 11.0829 7.08939 10.6555C7.59247 10.084 8.12731 9.52231 8.73297 9.06807C8.99184 8.87269 9.50225 8.84089 9.81973 8.95323C10.0981 9.05092 10.2715 9.4564 10.4791 9.71283H10.4816Z" fill="white"/>
<path d="M31.1105 2.0909C30.7686 2.0909 30.4243 2.11288 30.0848 2.08601C29.5378 2.04449 29.2105 1.72697 29.1543 1.18725C29.0933 0.608457 29.3692 0.14682 29.9309 0.0808815C30.7637 -0.0168053 31.6136 -0.0167337 32.4537 0.0321096C32.9959 0.0638578 33.2792 0.483863 33.2792 1.02114C33.2792 1.60482 32.9324 1.9638 32.3756 2.04439C31.9628 2.10301 31.5354 2.05668 31.1129 2.05668C31.1129 2.06889 31.1129 2.08107 31.1129 2.09329L31.1105 2.0909Z" fill="white"/>
<path d="M32.908 66.904C33.2499 66.904 33.5942 66.882 33.9361 66.9089C34.5198 66.9528 34.8544 67.285 34.8886 67.8687C34.9228 68.4572 34.6126 68.8773 34.0509 68.9334C33.2425 69.014 32.4195 69.0164 31.6063 68.97C31.0617 68.9383 30.7735 68.533 30.7613 67.9957C30.7491 67.412 31.0886 67.0432 31.6454 66.9578C32.0557 66.8943 32.4855 66.9455 32.908 66.9455C32.908 66.9308 32.908 66.9186 32.908 66.904Z" fill="white"/>
</svg>
