<svg width="68" height="67" viewBox="0 0 68 67" fill="none" xmlns="http://www.w3.org/2000/svg">
<path d="M0 67V31.505C0.275531 31.505 0.507841 31.505 0.740152 31.505C3.46845 31.505 6.19674 31.4915 8.92504 31.5158C9.4653 31.5213 9.84888 31.3781 10.2406 30.9864C20.3947 20.7999 30.565 10.6295 40.7299 0.451093C40.8839 0.29712 41.0082 0.116155 41.1054 0C42.5344 1.43168 43.8985 2.80126 45.3113 4.21944C45.1546 4.38692 44.9088 4.62726 44.6873 4.88658C43.9445 5.74559 43.9742 6.8072 44.7576 7.59327C45.5328 8.37124 46.6214 8.41447 47.4588 7.66621C47.6993 7.45281 47.8694 7.15841 48.0207 6.96662C49.5064 8.45503 50.8868 9.83534 52.2968 11.2454C52.1564 11.394 51.9079 11.6345 51.6836 11.8938C50.9516 12.742 50.9867 13.8279 51.7647 14.6005C52.5346 15.3677 53.634 15.4027 54.4714 14.6599C54.7145 14.4438 54.9009 14.1682 55.0819 13.9575C56.4838 15.3676 57.8129 16.7047 59.1824 18.0824C59.0095 18.2634 58.7637 18.5065 58.5395 18.7659C57.8075 19.6087 57.8453 20.6946 58.6286 21.4726C59.3931 22.2316 60.4412 22.2774 61.284 21.5724C61.5487 21.3509 61.7891 21.0998 61.9863 20.9161C63.364 22.2883 64.7173 23.6363 66.0815 24.995C64.0231 27.048 61.8837 29.1819 59.747 31.3133C59.7794 31.3781 59.8118 31.4402 59.8442 31.505H67.0648V37.3993C66.6731 37.4128 66.2787 37.3938 65.8924 37.4424C64.7795 37.5802 64.1068 38.3906 64.1501 39.5009C64.1906 40.5679 64.9172 41.2945 66.0248 41.3567C66.3678 41.3756 66.7163 41.3405 67.0621 41.327V47.3508C66.7352 47.3481 66.411 47.3347 66.0842 47.3428C64.9361 47.3725 64.1582 48.1476 64.1447 49.2714C64.1312 50.4005 64.8821 51.2082 66.0194 51.2731C66.3651 51.292 66.7136 51.2784 67.0621 51.2811V57.043C66.7568 57.043 66.4543 57.0376 66.149 57.043C64.9551 57.0673 64.1582 57.8398 64.1447 58.9798C64.1312 60.1575 64.9226 60.9518 66.149 60.9788C66.4516 60.9842 66.7568 60.9734 67.0621 60.9707V66.9946H57.1078V65.0362H65.0658V62.8589C63.2424 62.1917 62.1187 60.9275 62.1619 58.915C62.2024 57.0187 63.2857 55.8194 65.0658 55.1765V53.1451C63.2397 52.4752 62.116 51.2109 62.1619 49.193C62.2078 47.2967 63.2911 46.1002 65.0712 45.4627V43.2664C64.6741 43.0665 64.2635 42.9099 63.9124 42.6695C62.659 41.8132 62.0512 40.603 62.17 39.0876C62.2916 37.5425 63.0966 36.4241 64.5147 35.8082C64.9659 35.611 65.1604 35.403 65.109 34.9087C65.0604 34.4603 65.0982 34.0011 65.0982 33.477H23.7362V31.5321H27.7017V28.1338H29.6709V31.4996C29.9842 31.4996 30.2193 31.4996 30.4516 31.4996C39.0524 31.4996 47.6506 31.4942 56.2515 31.5104C56.7323 31.5104 57.0538 31.3646 57.3861 31.0297C59.3796 29.0118 61.3948 27.0156 63.4396 24.9734C62.9021 24.5142 62.3942 24.0819 61.827 23.5984C60.2089 24.3466 58.526 24.2359 57.1375 22.7745C55.8328 21.4023 55.7518 19.7869 56.5622 18.0824C56.4838 17.9932 56.4001 17.8987 56.3163 17.7988C55.6869 17.0478 55.1251 16.5859 53.9365 17.0073C52.5129 17.5151 51.1272 16.9451 50.1277 15.7538C49.1147 14.5464 48.9283 13.1633 49.5091 11.7073C49.6604 11.3291 49.6631 11.0915 49.3443 10.8105C48.9364 10.4513 48.5826 10.0298 48.1909 9.61923C46.3567 10.489 44.6522 10.3675 43.2556 8.88179C41.959 7.50413 41.8969 5.88606 42.6641 4.2842C42.1589 3.77366 41.6889 3.29822 41.2594 2.86062C31.7374 12.3664 22.1964 21.8912 12.5961 31.4754H21.6967V33.4392H2.00435V65.0145H51.2136V66.9946H0V67Z" fill="#0D57B7"/>
<path d="M53.1748 66.9998V65.0791H55.1386V66.9998H53.1748Z" fill="#0D57B7"/>
<path d="M37.5397 41.9619C37.9152 42.3374 38.342 42.7669 38.7175 43.1424C33.6472 48.2127 28.5795 53.2749 23.5119 58.3425C23.1635 57.9833 22.7313 57.5376 22.3531 57.1459C27.3721 52.127 32.4397 47.0619 37.537 41.9619H37.5397Z" fill="#0D57B7"/>
<path d="M39.2983 54.961C39.2983 57.2246 37.5668 59.0075 35.3652 59.0021C33.1772 58.9967 31.4267 57.1815 31.4456 54.9367C31.4619 52.8351 33.2258 51.136 35.3895 51.1387C37.5668 51.1414 39.2956 52.8324 39.2983 54.961ZM37.3425 55.0906C37.3479 53.9993 36.443 53.0917 35.3517 53.0863C34.3252 53.0836 33.4203 53.9643 33.3987 54.9854C33.3771 56.047 34.309 57.0167 35.3679 57.0356C36.4133 57.0545 37.3344 56.1442 37.3398 55.088L37.3425 55.0906Z" fill="#0D57B7"/>
<path d="M21.7426 45.4219C21.7426 43.1663 23.4876 41.3916 25.6892 41.4024C27.8637 41.4132 29.5844 43.1744 29.5979 45.4002C29.6088 47.5289 27.8151 49.2901 25.6487 49.2712C23.4903 49.2523 21.7453 47.5289 21.7453 45.4219H21.7426ZM27.6368 45.3625C27.6368 44.2901 26.7049 43.3554 25.6325 43.3554C24.6195 43.3554 23.7064 44.2603 23.6956 45.276C23.6821 46.3484 24.606 47.3047 25.6676 47.3209C26.6995 47.3372 27.6368 46.4079 27.6368 45.3625Z" fill="#0D57B7"/>
<path d="M57.0592 57.0186H55.1737V41.3809H57.0592V57.0186Z" fill="#0D57B7"/>
<path d="M52.1861 25.0144C51.8133 25.371 51.3784 25.7897 51.0002 26.1516C47.3508 22.5022 43.6608 18.8149 39.952 15.1061C40.322 14.7603 40.7678 14.3444 41.154 13.9824C44.8035 17.6319 48.4799 21.3083 52.1861 25.0144Z" fill="#0D57B7"/>
<path d="M15.8106 49.218H4.08704V47.3271H15.8133V49.218H15.8106Z" fill="#0D57B7"/>
<path d="M4.09515 59.0316V57.1514H15.7998V59.0316H4.09515Z" fill="#0D57B7"/>
<path d="M4.07892 45.2567V43.4062H15.7944V45.2567H4.07892Z" fill="#0D57B7"/>
<path d="M51.246 41.3438H53.1018V51.0845H51.246V41.3438Z" fill="#0D57B7"/>
<path d="M37.1372 17.966C37.537 17.5689 37.9638 17.1447 38.3339 16.7773C40.6165 19.0599 42.899 21.3479 45.1789 23.6251C44.8359 23.9763 44.4037 24.4248 44.0066 24.8327C41.7294 22.5555 39.4522 20.281 37.1399 17.966H37.1372Z" fill="#0D57B7"/>
<path d="M4.08704 53.1469V51.2588H11.8829V53.1469H4.08704Z" fill="#0D57B7"/>
<path d="M53.1451 57.0162H51.2488V53.1777H53.1451V57.0162Z" fill="#0D57B7"/>
<path d="M15.8106 39.458V41.3409H11.964V39.458H15.8106Z" fill="#0D57B7"/>
<path d="M45.5436 26.3321C45.9569 25.8918 46.3594 25.4677 46.7079 25.0977C47.6209 26.008 48.5205 26.9048 49.4335 27.8178C49.0715 28.1798 48.6366 28.6174 48.2341 29.0199C47.3184 28.1042 46.4162 27.2047 45.5436 26.3349V26.3321Z" fill="#0D57B7"/>
<path d="M15.816 53.1443H13.9089V51.2588H15.816V53.1443Z" fill="#0D57B7"/>
<path d="M36.3188 25.4648C35.946 25.1217 35.4868 24.7004 35.014 24.2654C35.4787 23.8089 35.9082 23.3848 36.3782 22.9229C36.7861 23.3875 37.1967 23.8522 37.6424 24.36C37.2642 24.6761 36.7888 25.0731 36.3188 25.4648Z" fill="#0D57B7"/>
<path d="M45.368 44.3262H47.2265V46.2333H45.368V44.3262Z" fill="#0D57B7"/>
<path d="M47.2482 48.2773V50.1655H45.3654V48.2773H47.2482Z" fill="#0D57B7"/>
<path d="M45.3303 42.2862V40.4277H47.2347V42.2862H45.3303Z" fill="#0D57B7"/>
<path d="M8.02008 39.4551H9.91638V41.3352H8.02008V39.4551Z" fill="#0D57B7"/>
<path d="M47.2319 54.1014H45.3599V52.2051H47.2319V54.1014Z" fill="#0D57B7"/>
<path d="M5.96986 41.346H4.10327V39.4551H5.96986V41.346Z" fill="#0D57B7"/>
<path d="M47.2563 36.4971V38.3557H45.3546V36.4971H47.2563Z" fill="#0D57B7"/>
<path d="M47.2454 58.0453H45.368V56.1436H47.2454V58.0453Z" fill="#0D57B7"/>
<path d="M45.3654 60.0498H47.2238V61.9568H45.3654V60.0498Z" fill="#0D57B7"/>
<path d="M32.2885 21.4538C32.7044 21.0513 33.1556 20.6137 33.6283 20.1572C34.0443 20.5921 34.4792 21.0459 34.9411 21.5267C34.4981 21.9346 34.0362 22.3614 33.5635 22.799C33.1691 22.3803 32.7369 21.9266 32.2912 21.4566L32.2885 21.4538Z" fill="#0D57B7"/>
<path d="M32.1939 18.7229C31.732 19.1713 31.2971 19.5927 30.8189 20.0573C30.4299 19.59 30.0329 19.1145 29.6115 18.6067C29.9491 18.2987 30.4218 17.8693 30.8621 17.4668C31.2619 17.845 31.7158 18.2745 32.1912 18.7229H32.1939Z" fill="#0D57B7"/>
<path d="M39.1767 28.3533C38.758 27.9292 38.3339 27.5025 37.899 27.0622C38.3015 26.6975 38.7607 26.2814 39.2496 25.833C39.5765 26.1869 39.9979 26.6435 40.4274 27.1081C40.033 27.4998 39.5954 27.9346 39.1767 28.3533Z" fill="#0D57B7"/>
</svg>
