<svg width="75" height="70" viewBox="0 0 75 70" fill="none" xmlns="http://www.w3.org/2000/svg">
<path d="M74.2975 58.995C73.464 61.6567 71.2909 61.5417 69.0633 61.4152C68.6695 64.3528 67.2898 66.6295 64.7085 68.0753C63.0529 69.0009 61.2679 69.2998 59.3852 69.0095C56.3038 68.5352 52.9235 66.0832 52.3486 61.4986H32.8803C32.6561 62.2948 32.4692 63.114 32.1876 63.8987C31.8599 64.8243 31.2936 65.1462 30.6325 64.8933C29.9714 64.6374 29.8133 64.0281 30.1697 63.117C31.5724 59.5182 29.6092 55.6693 25.9127 54.761C23.3229 54.1257 20.6095 55.2353 19.201 57.5119C17.7954 59.7827 18.0139 62.7317 19.7385 64.7438C21.5207 66.822 24.3491 67.5061 26.8469 66.4569C27.0481 66.3736 27.2378 66.2702 27.4362 66.1782C28.1059 65.8706 28.7009 66.0229 28.9998 66.5748C29.316 67.1583 29.0947 67.7504 28.3991 68.127C27.1171 68.8197 25.7403 69.1618 24.2887 69.1187C20.1869 68.998 16.8814 66.0861 16.2116 62.0361C16.1829 61.8694 16.1426 61.7056 16.0967 61.4958H15.1194C15.1194 62.0448 15.128 62.5707 15.1194 63.0967C15.0992 63.9619 14.7313 64.3528 13.892 64.3615C12.4893 64.3758 11.0866 64.3758 9.68386 64.3615C8.95376 64.3528 8.48236 63.9131 8.48236 63.2836C8.48236 62.6569 8.95089 62.2085 9.67811 62.1941C10.7388 62.1769 11.7965 62.1885 12.9003 62.1885V61.5188C12.8198 61.4929 12.7537 61.4555 12.6847 61.4527C11.8627 61.4469 11.0406 61.4555 10.2185 61.4382C8.7928 61.4095 7.97647 60.5875 7.97072 59.1647C7.96209 56.891 7.96497 54.6202 7.97072 52.3465C7.97072 51.97 7.9506 51.7113 7.51369 51.5072C7.2205 51.3692 6.94743 50.8834 6.93593 50.5443C6.92731 50.2396 7.2205 49.771 7.49932 49.6474C7.9391 49.4519 7.97934 49.199 7.97072 48.8139C7.95635 48.0205 7.96497 47.2272 7.96497 46.3591C7.66028 46.3419 7.40446 46.3131 7.14864 46.3131C5.35789 46.3102 3.57001 46.3131 1.77925 46.3131C1.58667 46.3131 1.39121 46.3218 1.19863 46.3075C0.451281 46.2615 0 45.8475 0 45.2181C0 44.5857 0.448407 44.1545 1.2015 44.143C2.72493 44.1228 4.24837 44.1344 5.7718 44.1344C6.47028 44.1344 7.16588 44.1344 7.91323 44.1344V33.6111C6.97905 33.6111 6.02187 33.6111 5.06757 33.6111C4.7054 33.6111 4.34035 33.6255 3.98105 33.6025C3.34868 33.5594 2.91752 33.1254 2.90315 32.5477C2.88877 31.9469 3.33718 31.4582 4.00404 31.4438C5.21129 31.4179 6.42141 31.4353 7.63154 31.4324C7.72639 31.4324 7.82125 31.4152 7.91036 31.4037C8.51973 29.518 9.25845 28.9892 11.2619 28.9892C19.9685 28.9892 28.6722 28.9892 37.3787 28.9892H38.2727C38.0715 27.871 37.8386 26.8218 37.6978 25.7583C36.7234 18.5119 40.5636 11.0039 47.0396 7.53166C47.603 7.22985 47.8732 6.92231 47.8099 6.2612C47.7438 5.56559 47.8358 4.85847 47.7869 4.15999C47.6806 2.59919 48.2468 1.4869 49.776 0.958008H62.113C63.6192 1.51852 64.194 2.62796 64.0474 4.18876C64.0014 4.69178 64.102 5.21206 64.0273 5.70933C63.8721 6.73549 64.2142 7.39952 65.2144 7.75594C65.591 7.89104 65.9474 8.13824 66.2579 8.40268C67.3961 9.37136 68.5401 10.3371 69.6267 11.3633C70.1239 11.8318 70.0549 12.4987 69.6123 12.9126C69.1754 13.3208 68.543 13.2891 68.0515 12.8292C67.9624 12.7459 67.8848 12.6539 67.8014 12.5676C64.1739 8.81652 59.7646 7.05739 54.5475 7.46555C44.3377 8.26464 37.4103 18.5091 40.4227 28.3022C40.5866 28.8339 40.8079 29.0064 41.3713 29.0035C45.8438 28.9776 50.3164 29.0178 54.789 28.9747C56.4274 28.9575 57.7324 29.4692 58.8017 30.7339C59.9083 32.0446 61.104 33.2777 62.2653 34.5425C63.0615 35.4134 63.8606 36.2815 64.6712 37.164C64.8379 37.072 64.973 37.0144 65.0851 36.9339C69.4283 33.8296 71.7853 29.6071 72.1073 24.2838C72.274 21.5301 71.6703 18.9114 70.4717 16.425C70.1297 15.7208 70.3251 15.0914 70.9058 14.8183C71.5065 14.5366 72.0871 14.7751 72.4263 15.5024C72.7425 16.1779 73.0874 16.8591 73.28 17.5748C73.6738 19.035 73.9727 20.524 74.309 21.9985V25.0454C74.2659 25.2265 74.2056 25.4076 74.1826 25.5916C73.5186 30.9811 70.9834 35.2783 66.6286 38.512C66.4993 38.6098 66.3815 38.7218 66.232 38.8511C66.3958 39.0437 66.5309 39.2105 66.6746 39.3686C68.6436 41.5273 70.6011 43.6945 72.5959 45.8331C73.3461 46.6379 74.0159 47.4687 74.309 48.5494V58.9979L74.2975 58.995ZM41.4518 54.1948V31.1938C41.2477 31.1823 41.0838 31.1621 40.92 31.1621C30.9573 31.1621 20.9946 31.165 11.032 31.1506C10.322 31.1506 10.1265 31.4295 10.1294 32.105C10.1524 35.8762 10.1409 39.6474 10.1409 43.4186C10.1409 43.6284 10.161 43.8412 10.1783 44.1286C11.5666 44.1286 12.9147 44.1286 14.2657 44.1286C15.3867 44.1286 15.9156 44.4649 15.9357 45.1835C15.9587 45.9309 15.401 46.3045 14.2513 46.3045C12.9061 46.3045 11.558 46.3045 10.1811 46.3045V49.4779C10.5519 49.4779 10.8854 49.4779 11.2188 49.4779C12.4289 49.4807 13.6362 49.4606 14.8463 49.4979C15.516 49.5181 15.9644 50.0269 15.9386 50.6133C15.9127 51.1767 15.4758 51.5962 14.8348 51.6422C14.5215 51.6652 14.2053 51.6537 13.892 51.6537C12.6646 51.6537 11.4372 51.6537 10.2041 51.6537V54.1919C13.0642 54.1919 15.8667 54.1919 18.6692 54.1919C18.79 54.1919 18.9222 54.2235 19.0285 54.1833C19.27 54.0971 19.5229 54.005 19.7328 53.8613C22.6244 51.9039 26.3065 51.9096 29.2097 53.8728C29.4195 54.0166 29.6782 54.1746 29.9168 54.1746C33.7369 54.1947 37.5569 54.189 41.4546 54.189L41.4518 54.1948ZM72.0843 52.654C70.6097 52.4758 70.2303 52.2718 70.2274 51.5733C70.2216 50.2655 71.2794 50.4581 72.0526 50.3805C72.3142 49.1588 72.0009 48.2074 71.107 47.4428C70.8713 47.2387 70.7132 46.934 70.4602 46.7615C70.1642 46.5603 69.8077 46.3333 69.4743 46.3275C67.3214 46.2902 65.1713 46.3075 63.0184 46.3075C62.0037 46.3075 60.9862 46.3361 59.9715 46.2872C59.0805 46.2441 58.6148 45.425 59.0086 44.6978C59.2788 44.1947 59.7473 44.1314 60.2503 44.1314C62.547 44.1314 64.8465 44.1314 67.1432 44.1314C67.3904 44.1314 67.6376 44.1114 68.0112 44.0941C67.7525 43.7952 67.6002 43.6112 67.4392 43.4359C64.3895 40.0987 61.3455 36.7529 58.2843 33.4272C55.8583 30.7885 56.7321 31.1996 53.1621 31.1651C52.3026 31.1564 51.4432 31.1651 50.5895 31.1651V44.1344C52.1675 44.1344 53.6881 44.1315 55.2086 44.1344C56.1802 44.1373 56.6976 44.531 56.6861 45.2324C56.6746 45.9308 56.1601 46.3046 55.1742 46.3075C53.7714 46.3132 52.3687 46.3132 50.966 46.3075C49.1897 46.2988 48.3561 45.4594 48.3532 43.6773C48.3532 39.8083 48.3532 35.9394 48.3532 32.0705V31.2139H43.7283V54.1458C43.8461 54.1688 43.9151 54.1919 43.9841 54.1919C47.7093 54.1919 51.4317 54.2005 55.1569 54.1833C55.4185 54.1833 55.7117 54.0395 55.9387 53.8872C58.8994 51.8981 62.5154 51.9039 65.4789 53.8901C65.7376 54.0654 66.0911 54.1746 66.4044 54.1803C67.856 54.212 69.3076 54.1948 70.7563 54.1948C71.2047 54.1948 71.6502 54.1948 72.0871 54.1948V52.654H72.0843ZM60.7218 54.5857C57.307 54.5656 54.5389 57.3163 54.5303 60.7369C54.5217 64.1545 57.2725 66.9341 60.6758 66.9514C64.0561 66.9686 66.873 64.1718 66.8873 60.7829C66.9017 57.3796 64.1423 54.6058 60.7218 54.5857ZM61.8571 6.18077C61.8571 5.33857 61.8284 4.61417 61.8658 3.89557C61.8945 3.33793 61.7192 3.12239 61.1299 3.13963C59.8508 3.17988 58.5688 3.15114 57.2868 3.15114C55.0879 3.15114 52.8861 3.13966 50.6872 3.16841C50.4486 3.17128 50.0175 3.39831 50.006 3.54778C49.9399 4.3986 49.9744 5.25803 49.9744 6.18934C53.9727 4.88148 57.8675 4.90167 61.8543 6.18077H61.8571ZM41.4748 56.4225H31.7075C32.0697 57.3768 32.4175 58.2908 32.7653 59.2077H41.4748V56.4225ZM53.4495 56.4195H43.734V59.225H52.3889C52.7482 58.2707 53.0873 57.3738 53.4466 56.4195H53.4495ZM17.209 56.4225H10.1783V59.2278H16.1513C16.5048 58.285 16.8497 57.3681 17.209 56.4225ZM67.9681 56.411C68.2757 57.2963 68.5602 58.1585 68.8851 59.0007C68.9339 59.1243 69.161 59.2479 69.3133 59.2536C69.94 59.2824 70.5666 59.2795 71.1932 59.2594C71.7163 59.2421 72.0814 58.9749 72.1073 58.4288C72.1418 57.7619 72.1159 57.0951 72.1159 56.411H67.9681Z" fill="white"/>
<path d="M23.7943 17.7244C26.8383 17.7244 29.8852 17.7244 32.9292 17.7244C33.2166 17.7244 33.5184 17.7187 33.7944 17.7877C34.2974 17.9171 34.5589 18.2763 34.5618 18.7966C34.5676 19.3168 34.3175 19.682 33.8173 19.8228C33.5673 19.8918 33.2913 19.8947 33.0269 19.8947C26.8642 19.8975 20.7014 19.8975 14.5387 19.8947C14.2743 19.8947 14.0012 19.8947 13.7483 19.8286C13.2079 19.6877 12.8716 19.2566 12.9952 18.7564C13.0872 18.3856 13.4695 18.0348 13.8086 17.7905C14.007 17.6468 14.3691 17.7216 14.6595 17.7216C17.7034 17.7187 20.7503 17.7216 23.7943 17.7216V17.7244Z" fill="white"/>
<path d="M27.9622 14.2864C24.9929 14.2864 22.0208 14.2865 19.0515 14.2836C18.7899 14.2836 18.514 14.2836 18.2668 14.206C17.7408 14.0422 17.4878 13.6542 17.5281 13.1023C17.5712 12.5475 17.896 12.2227 18.4335 12.1336C18.6692 12.0934 18.9164 12.1134 19.1579 12.1134C25.0274 12.1134 30.894 12.1134 36.7636 12.1134C36.982 12.1134 37.2005 12.1019 37.4161 12.1249C38.0398 12.191 38.3876 12.5763 38.4077 13.1742C38.4279 13.7462 38.0829 14.1255 37.5253 14.2549C37.2953 14.3095 37.0453 14.2894 36.8038 14.2894C33.8576 14.2894 30.9113 14.2894 27.965 14.2894L27.9622 14.2864Z" fill="white"/>
<path d="M24.4411 64.2436C22.5037 64.235 20.94 62.6598 20.9573 60.734C20.9745 58.8024 22.5526 57.2444 24.4842 57.2559C26.4043 57.2645 27.991 58.8627 27.9766 60.7771C27.9622 62.7029 26.3813 64.2522 24.4439 64.2436H24.4411ZM25.7892 60.7225C25.7662 59.9981 25.1367 59.406 24.4095 59.4347C23.6765 59.4635 23.1045 60.0901 23.1447 60.8231C23.1821 61.5417 23.7512 62.0705 24.4756 62.0618C25.2143 62.0532 25.8122 61.4439 25.7892 60.7195V60.7225Z" fill="white"/>
<path d="M29.9542 24.9069C28.4337 24.9069 26.9102 24.9126 25.3897 24.9069C24.5935 24.904 24.1105 24.4987 24.0904 23.8577C24.0703 23.1851 24.5705 22.7396 25.3983 22.7367C28.4653 22.731 31.5323 22.731 34.5992 22.7367C35.4328 22.7367 35.9445 23.1707 35.9416 23.8347C35.9387 24.4987 35.4357 24.9068 34.5906 24.9097C33.0442 24.9154 31.5006 24.9097 29.9542 24.9097V24.9069Z" fill="white"/>
<path d="M18.3962 24.9069C17.623 24.9069 16.8498 24.9213 16.0766 24.9011C15.3781 24.8839 14.9469 24.4758 14.9297 23.8578C14.9124 23.211 15.3551 22.7483 16.0794 22.7368C17.6259 22.7166 19.1723 22.7166 20.7159 22.7368C21.446 22.7454 21.9087 23.1966 21.9087 23.8232C21.9087 24.4527 21.4431 24.8868 20.713 24.9011C19.9398 24.9155 19.1666 24.9039 18.3933 24.9039L18.3962 24.9069Z" fill="white"/>
<path d="M3.10724 39.889C2.45763 39.889 1.80801 39.9062 1.1584 39.8861C0.465664 39.8631 0.0230062 39.4463 0.00288538 38.8513C-0.0172354 38.2505 0.405302 37.7591 1.08654 37.739C2.40876 37.7016 3.73386 37.7016 5.05896 37.739C5.75169 37.7591 6.15123 38.2275 6.13111 38.8513C6.11099 39.4779 5.70857 39.8631 4.9871 39.8861C4.36335 39.9091 3.73673 39.8918 3.11011 39.8918L3.10724 39.889Z" fill="white"/>
<path d="M2.54101 51.642C2.03512 51.642 1.52635 51.6707 1.02333 51.6362C0.408208 51.5931 0.0575312 51.2224 0.0086664 50.6159C-0.037324 50.0439 0.385213 49.5408 1.01471 49.515C2.02362 49.469 3.03829 49.469 4.05008 49.515C4.68819 49.5437 5.08774 50.0295 5.07049 50.6101C5.05324 51.1821 4.63358 51.6075 3.98684 51.6477C3.50681 51.6794 3.02391 51.6535 2.54101 51.6535C2.54101 51.6535 2.54101 51.6506 2.54101 51.6477V51.642Z" fill="white"/>
<path d="M57.0196 22.4779C57.8273 22.4779 58.5459 22.4721 59.2673 22.4779C60.2015 22.4894 60.6787 22.8544 60.6902 23.5558C60.7017 24.2744 60.2389 24.6452 59.3047 24.6509C58.2412 24.6567 57.1776 24.6624 56.1141 24.6509C55.2173 24.6395 54.8494 24.2629 54.8465 23.3575C54.8408 20.8682 54.8379 18.379 54.8465 15.8898C54.8465 15.1108 55.2892 14.6164 55.9359 14.6221C56.574 14.6307 57.0138 15.131 57.0167 15.91C57.0282 18.0572 57.0196 20.2071 57.0196 22.4779Z" fill="white"/>
<path d="M54.8493 10.9926C54.8493 10.7281 54.8263 10.4579 54.855 10.1963C54.9183 9.62146 55.246 9.26513 55.8323 9.21627C56.4589 9.16453 56.8901 9.49215 56.9735 10.0871C57.0568 10.6793 57.0539 11.2972 56.9821 11.8922C56.9102 12.493 56.4819 12.8466 55.8726 12.8121C55.2747 12.7776 54.901 12.4125 54.8522 11.7888C54.832 11.5243 54.8493 11.257 54.8522 10.9926H54.8493Z" fill="white"/>
<path d="M68.4712 24.6345C68.1809 24.6345 67.8906 24.6633 67.606 24.6288C67.0512 24.5569 66.7437 24.2063 66.7063 23.663C66.6689 23.1226 66.9075 22.6542 67.4508 22.5823C68.132 22.4903 68.8449 22.4932 69.529 22.5766C70.0751 22.6427 70.3252 23.1054 70.2964 23.6429C70.2677 24.1805 69.9687 24.5512 69.4111 24.626C69.1036 24.6662 68.7874 24.6345 68.4741 24.6345C68.4741 24.6345 68.4741 24.6346 68.4741 24.6375L68.4712 24.6345Z" fill="white"/>
<path d="M43.3 24.6287C43.0097 24.6287 42.7165 24.6603 42.432 24.6229C41.8743 24.5453 41.5725 24.1631 41.5409 23.6371C41.5064 23.1053 41.7766 22.6397 42.317 22.5707C43.0011 22.4873 43.7139 22.4845 44.3981 22.5764C44.9356 22.6483 45.1799 23.111 45.1425 23.6572C45.1023 24.209 44.789 24.5511 44.24 24.6229C43.9324 24.6632 43.6133 24.6316 43.3 24.6316C43.3 24.6316 43.3 24.6315 43.3 24.6287Z" fill="white"/>
<path d="M24.6624 41.7457C23.6535 40.6649 22.5439 39.4231 21.3769 38.2389C19.934 36.7758 19.9167 36.655 21.3798 35.1805C22.6014 33.9502 24.0559 33.5537 25.6885 34.0739C26.2864 34.2637 26.8699 34.6488 27.3356 35.077C28.8274 36.4539 30.2675 37.8825 31.7104 39.311C33.2051 40.7913 33.2022 42.7114 31.7133 44.1803C30.2847 45.5887 28.8504 46.9886 27.3988 48.3741C25.5649 50.1275 23.1246 50.0785 21.331 48.2705C19.9196 46.8506 19.9426 46.704 21.3654 45.2639C22.5325 44.0797 23.6391 42.8379 24.6595 41.7428L24.6624 41.7457ZM23.1591 46.957C23.8604 47.6238 24.8895 47.7244 25.6914 46.977C27.2666 45.5111 28.7958 43.9964 30.325 42.4816C30.7619 42.0475 30.7877 41.4927 30.348 41.0529C28.7872 39.5008 27.2292 37.9458 25.6081 36.4626C24.8004 35.7239 23.6621 35.9164 23.1993 36.5172C24.4842 37.917 25.7288 39.3024 27.0079 40.6534C27.8328 41.5243 27.8328 41.9699 26.9964 42.8466C25.7115 44.189 24.4583 45.5658 23.1619 46.957H23.1591Z" fill="white"/>
<path d="M14.8347 42.4474C14.2081 42.4474 13.5786 42.4675 12.9549 42.4416C12.2794 42.4158 11.8396 41.9701 11.8396 41.3608C11.8396 40.7485 12.2736 40.2944 12.9549 40.2829C14.234 40.2599 15.5102 40.2599 16.7893 40.2829C17.4303 40.2944 17.8471 40.7343 17.8643 41.3206C17.8845 41.9386 17.4591 42.4071 16.7922 42.4387C16.1426 42.4674 15.4901 42.4444 14.8405 42.4444L14.8347 42.4474Z" fill="white"/>
<path d="M60.7131 64.2436C58.7729 64.2493 57.1977 62.6999 57.1862 60.7741C57.1747 58.8597 58.7585 57.2616 60.6757 57.2559C62.616 57.2473 64.1768 58.7965 64.1854 60.7368C64.194 62.6914 62.662 64.2378 60.7131 64.2436ZM62.0037 60.7568C62.0037 60.0152 61.4116 59.4232 60.6786 59.4347C59.9543 59.4462 59.3478 60.0728 59.3679 60.7885C59.388 61.487 59.9686 62.0532 60.6757 62.0618C61.4317 62.0733 62.0037 61.5128 62.0037 60.7568Z" fill="white"/>
</svg>
