<svg width="72" height="69" viewBox="0 0 72 69" fill="none" xmlns="http://www.w3.org/2000/svg">
<path d="M0.0375464 2.95876C0.498545 1.49673 1.33624 0.406101 2.92735 0.0847198C3.26453 0.0162286 3.61489 0.0030418 3.95998 0.0030418C25.1606 0.000407524 46.3639 -0.00222675 67.5646 0.0030418C69.9828 0.0030418 71.4396 1.47035 71.4396 3.90969C71.4396 19.8997 71.4396 35.8871 71.4396 51.8772C71.4396 52.1011 71.458 52.3303 71.408 52.5437C71.2657 53.1417 70.8759 53.5105 70.2515 53.4999C69.6298 53.492 69.24 53.1205 69.1188 52.5147C69.0661 52.2512 69.0925 51.9721 69.0925 51.6981C69.0925 38.7823 69.0925 25.8664 69.0925 12.9532C69.0925 12.6318 69.0925 12.3105 69.0925 11.9311H2.40313C2.40313 12.1656 2.40313 12.4237 2.40313 12.6845C2.40313 27.7315 2.40313 42.7784 2.40313 57.8254C2.40313 59.1373 2.76402 59.4955 4.08116 59.4955C11.6205 59.4955 19.1571 59.4955 26.6964 59.4955C26.9203 59.4955 27.1442 59.485 27.3655 59.5008C28.0794 59.5482 28.572 60.0197 28.5799 60.6572C28.5878 61.2947 28.1031 61.7848 27.3919 61.8401C27.1706 61.8585 26.9467 61.8454 26.7228 61.8454C19.3336 61.8454 11.9445 61.8454 4.5527 61.8454C1.85783 61.8454 1.05965 61.3238 0.0349121 58.8871V2.96133L0.0375464 2.95876ZM69.0925 9.48116C69.0925 7.7162 69.0925 5.9881 69.0925 4.26265C69.0925 2.63466 68.8132 2.35022 67.209 2.35022C46.2348 2.35022 25.2581 2.35022 4.284 2.35022C4.01267 2.35022 3.73344 2.32653 3.46737 2.36604C2.89047 2.45034 2.45054 2.80065 2.43737 3.37229C2.39522 5.39541 2.42157 7.42116 2.42157 9.48116H69.0925Z" fill="#0D57B7"/>
<path d="M65.9525 68.9999C64.4193 68.6232 63.3182 67.6222 62.2592 66.5237C60.7471 64.9537 59.1877 63.4259 57.6387 61.8901C56.0055 60.27 55.5682 58.4128 56.4454 56.2553C56.5244 56.0578 56.4375 55.6732 56.2847 55.5204C55.6893 54.925 55.0387 54.3903 54.3459 53.7792C48.5109 58.7263 41.6592 60.6098 33.9618 58.7948C28.4088 57.4856 24.0043 54.3666 20.7351 49.6907C14.2443 40.4102 15.7616 27.6998 24.244 20.0604C32.7264 12.4237 45.5131 12.3709 54.2062 19.8865C63.0363 27.5233 65.0858 42.0672 56.2136 51.9457C56.7826 52.5674 57.3568 53.1732 57.91 53.8028C58.1761 54.1058 58.4079 54.1559 58.8031 53.9873C60.8235 53.1311 62.6412 53.513 64.1928 55.0383C66.1211 56.9297 68.0336 58.8395 69.925 60.7678C72.6962 63.5891 71.5213 67.8224 67.6937 68.863C67.6937 68.863 67.6937 68.863 67.6911 68.863C67.4382 68.9341 67.1853 68.9974 66.9219 68.9974H65.9525V68.9999ZM39.3147 16.6279C28.1454 16.6279 19.0676 25.7083 19.0676 36.875C19.0676 48.0391 28.1533 57.1168 39.3226 57.1142C50.4919 57.1142 59.5696 48.0337 59.567 36.867C59.567 25.6977 50.4866 16.6279 39.312 16.6279H39.3147ZM66.3582 66.6582C67.7122 66.5923 68.4708 66.1339 68.8765 65.2119C69.3085 64.2319 69.1321 63.3047 68.3786 62.5434C66.4082 60.5519 64.4351 58.5656 62.4357 56.6057C61.44 55.631 59.9727 55.6627 59.0349 56.6163C58.0997 57.5672 58.0997 59.0135 59.0876 60.0172C61.0343 61.9955 62.9889 63.9685 64.9883 65.8915C65.4204 66.3078 66.0684 66.5027 66.3582 66.6607V66.6582Z" fill="#0D57B7"/>
<path d="M7.19503 22.5212C7.19503 21.8047 7.18185 21.0856 7.19766 20.3691C7.21873 19.4945 7.65866 19.052 8.53851 19.0441C10.0216 19.0283 11.5073 19.0283 12.9904 19.0441C13.8281 19.0546 14.2865 19.4997 14.297 20.3269C14.3181 21.8363 14.3181 23.3432 14.297 24.8526C14.2865 25.6824 13.8308 26.1303 12.9957 26.1408C11.5126 26.1592 10.0269 26.1566 8.54377 26.1408C7.66129 26.1329 7.21873 25.6903 7.19766 24.8184C7.17922 24.0518 7.19503 23.2852 7.19503 22.5187V22.5212ZM11.9183 23.7594V21.428H9.58695V23.7594H11.9183Z" fill="#0D57B7"/>
<path d="M14.3049 36.8896C14.3049 37.6325 14.3207 38.3727 14.3022 39.1155C14.2811 39.9532 13.8439 40.409 13.0167 40.4196C11.5073 40.4406 9.99781 40.438 8.49101 40.4196C7.66121 40.409 7.21338 39.9532 7.20548 39.1155C7.18704 37.6061 7.18704 36.0994 7.20548 34.5899C7.21602 33.7944 7.66385 33.3359 8.45149 33.3254C9.98464 33.3017 11.5204 33.3043 13.0536 33.3254C13.8386 33.3359 14.2811 33.7944 14.3022 34.5899C14.3259 35.3565 14.3075 36.1231 14.3075 36.8896H14.3049ZM9.57369 38.0276H11.9077V35.7173H9.57369V38.0276Z" fill="#0D57B7"/>
<path d="M10.7644 47.5959C11.4809 47.5959 12.2001 47.5854 12.9166 47.5959C13.8465 47.6117 14.2917 48.0385 14.3022 48.9552C14.318 50.4146 14.3154 51.8741 14.3022 53.3334C14.2943 54.2554 13.8518 54.6927 12.9245 54.7006C11.4651 54.7138 10.0057 54.7138 8.54632 54.7006C7.66384 54.6927 7.21075 54.2501 7.20021 53.3808C7.1844 51.8977 7.1844 50.412 7.20021 48.9289C7.21075 48.0543 7.65857 47.6171 8.53842 47.5986C9.28129 47.5828 10.0215 47.5959 10.7644 47.5959ZM9.58159 52.3139H11.9156V49.9853H9.58159V52.3139Z" fill="#0D57B7"/>
<path d="M5.98587 7.1024C5.35365 7.1024 4.80835 6.5465 4.82152 5.91427C4.83469 5.27941 5.3958 4.74463 6.02802 4.76834C6.63391 4.79205 7.14759 5.3163 7.15549 5.91955C7.16603 6.54914 6.61546 7.10503 5.98587 7.1024Z" fill="#0D57B7"/>
<path d="M10.7776 4.76608C11.4125 4.78189 11.9446 5.35092 11.9182 5.97788C11.8893 6.6101 11.3124 7.13696 10.6854 7.09744C10.0795 7.06056 9.579 6.52318 9.58427 5.92257C9.58954 5.28771 10.1454 4.74764 10.7776 4.76608Z" fill="#0D57B7"/>
<path d="M15.5324 4.76586C16.1673 4.77903 16.702 5.34279 16.6783 5.97238C16.6546 6.60461 16.0777 7.13404 15.4534 7.09979C14.8501 7.06555 14.3444 6.53344 14.3444 5.93019C14.3444 5.29533 14.8976 4.75269 15.5324 4.76586Z" fill="#0D57B7"/>
<path d="M51.2505 30.6113C52.1699 29.9422 53.1841 29.5655 54.3616 29.8474C55.9659 30.232 57.1065 31.5412 57.1408 33.185C57.1829 35.1659 57.1645 37.1496 57.1487 39.1332C57.1434 39.8998 56.6534 40.4135 55.9922 40.4214C55.3073 40.4293 54.8147 39.8971 54.8094 39.0832C54.7963 37.1996 54.8173 35.3161 54.7989 33.4326C54.7884 32.3868 53.8374 31.7309 53.0603 32.2762C52.7205 32.5133 52.4412 33.0691 52.4254 33.4906C52.3569 35.3214 52.4254 37.1575 52.3701 38.9909C52.3569 39.4071 52.1251 39.913 51.8222 40.1896C51.6035 40.3872 50.9739 40.432 50.7527 40.2607C50.4155 39.9973 50.0914 39.4915 50.0756 39.0753C50.0045 37.2445 50.0677 35.4083 50.0256 33.5748C50.0177 33.1876 49.8886 32.6766 49.6199 32.458C49.3328 32.2235 48.7901 32.1366 48.4108 32.2182C47.847 32.3368 47.631 32.8452 47.631 33.4247C47.6363 35.1844 47.631 36.9441 47.631 38.7038C47.631 38.9014 47.6416 39.1015 47.6205 39.2991C47.5494 39.9603 47.0594 40.424 46.4535 40.424C45.845 40.424 45.305 39.955 45.2997 39.2938C45.276 36.4936 45.2655 33.6935 45.3023 30.8932C45.3129 30.016 46.1216 29.5734 46.954 29.8763C47.149 29.9474 47.3808 30.0239 47.5731 29.9844C49.3538 29.6208 49.5988 29.6551 51.2505 30.614V30.6113Z" fill="#0D57B7"/>
<path d="M34.0672 35.0549C34.1225 33.6297 34.5677 32.3706 35.5108 31.3063C37.4944 29.0724 40.8268 29.2884 42.5443 31.7804C43.6586 33.3952 43.872 35.1708 43.2477 37.0253C42.5285 39.1591 40.6345 40.5262 38.6113 40.4182C36.5961 40.3129 34.7864 38.6928 34.2806 36.5168C34.1699 36.0374 34.1331 35.5423 34.0646 35.0523L34.0672 35.0549ZM36.4591 35.1182L36.2695 35.205C36.5908 35.9031 36.8042 36.6855 37.26 37.2835C38.1082 38.3925 39.5518 38.3425 40.4685 37.2914C41.5196 36.0876 41.5038 34.038 40.4343 32.8552C39.5439 31.87 38.2136 31.8464 37.3047 32.8132C36.6989 33.4586 36.4433 34.2409 36.4618 35.1182H36.4591Z" fill="#0D57B7"/>
<path d="M39.3964 53.5211C37.2231 53.4842 35.2105 53.1418 33.2822 52.3673C32.4893 52.0485 32.1653 51.4794 32.3918 50.8288C32.6315 50.1412 33.269 49.8963 34.1146 50.194C39.1672 51.9748 43.8456 51.2608 48.1632 48.1076C48.885 47.5807 49.562 47.6413 49.9835 48.2445C50.3734 48.8004 50.2206 49.4669 49.5594 49.9779C46.5405 52.3198 43.1028 53.4578 39.3964 53.5211Z" fill="#0D57B7"/>
<path d="M24.8208 35.1204C24.8103 32.3966 26.5753 30.1707 29.0568 29.8124C30.1315 29.657 31.1299 29.9283 32.0045 30.5579C32.5393 30.9425 32.6315 31.4905 32.3259 32.0726C32.0493 32.6021 31.4434 32.7839 30.856 32.5495C28.8144 31.7355 27.3866 32.6021 27.1654 34.8175C27.0758 35.7105 27.3102 36.5403 27.8819 37.2463C28.6142 38.1551 29.6521 38.3343 30.6637 37.7494C31.4882 37.2726 32.1757 37.3622 32.534 37.9918C32.8896 38.6187 32.6341 39.2852 31.8465 39.7752C29.8681 41.0054 27.3761 40.4785 25.9193 38.5186C25.2107 37.5677 24.8261 36.3718 24.8208 35.1179V35.1204Z" fill="#0D57B7"/>
<path d="M22.645 40.4185C22.0128 40.4132 21.4701 39.8548 21.4859 39.2225C21.5017 38.5877 22.0681 38.0557 22.6977 38.082C23.3036 38.1083 23.8146 38.6351 23.8199 39.2383C23.8252 39.8706 23.2746 40.4212 22.645 40.4159V40.4185Z" fill="#0D57B7"/>
<path d="M53.5792 45.2101C53.574 45.8423 53.0129 46.3851 52.3833 46.3693C51.751 46.3534 51.2163 45.7844 51.2453 45.1548C51.2716 44.5489 51.7985 44.0405 52.4017 44.0352C53.0339 44.0299 53.5845 44.5778 53.5792 45.2101Z" fill="#0D57B7"/>
</svg>
