<svg width="67" height="67" viewBox="0 0 67 67" fill="none" xmlns="http://www.w3.org/2000/svg">
<path d="M67.0019 22.5925C66.5807 23.4654 65.8727 23.747 64.9263 23.7419C59.5216 23.7165 54.1144 23.7318 48.7098 23.7292C47.1823 23.7292 46.6367 23.1964 46.6469 21.6892C46.657 20.1794 46.5606 18.657 46.7433 17.1676C47.134 13.9806 48.9178 11.7578 51.8435 10.4485C51.9399 10.4054 52.0338 10.3571 51.983 10.3825C51.5466 9.28887 50.9427 8.26632 50.7397 7.16763C50.1307 3.87408 52.2672 0.841837 55.543 0.133903C55.6876 0.103454 55.8272 0.0450889 55.9693 0.00195312C56.5376 0.00195312 57.1086 0.00195312 57.6769 0.00195312C57.7987 0.0425515 57.9155 0.100907 58.0398 0.123743C61.2927 0.753018 63.4495 3.82328 62.9547 7.10667C62.7746 8.30686 62.2214 9.3269 61.4602 10.2835C61.7317 10.4078 61.9474 10.5043 62.1605 10.6058C64.2945 11.6359 65.7586 13.2752 66.5477 15.503C66.7431 16.0536 66.8522 16.6372 66.9993 17.2056V22.5899L67.0019 22.5925ZM48.7275 21.7069H65.0303C65.0303 20.4737 65.0455 19.2939 65.0278 18.114C64.977 15.0691 62.8634 12.5291 59.8693 11.9277C59.5445 11.8618 59.1689 11.8771 58.8543 11.976C57.4942 12.4049 56.1494 12.4124 54.7945 11.9684C54.5534 11.8897 54.2794 11.8339 54.0332 11.8694C51.374 12.2525 49.0929 14.4068 48.7605 17.0787C48.5728 18.5834 48.7275 20.1286 48.7275 21.7069ZM56.8548 1.97352C54.523 1.96083 52.5945 3.83098 52.5742 6.12479C52.5539 8.40591 54.4697 10.319 56.7965 10.3419C59.108 10.3647 61.0593 8.46934 61.0771 6.18315C61.0948 3.89441 59.1816 1.9862 56.8548 1.97352Z" fill="white"/>
<path d="M67.0019 65.8043C66.6162 66.705 65.9285 67.0044 64.9643 66.9994C59.514 66.9714 54.0637 66.9867 48.6133 66.9867C47.2152 66.9867 46.6418 66.431 46.6494 65.0532C46.657 63.5434 46.5555 62.0184 46.728 60.529C47.1036 57.3166 48.8721 55.0584 51.8181 53.7237C51.9323 53.673 52.0414 53.607 52.1581 53.5461C49.4684 50.1637 50.6915 46.5276 52.7747 44.754C55.1091 42.7672 58.6538 42.8028 60.9629 44.8353C62.975 46.6064 64.1549 50.1967 61.4881 53.541C61.6023 53.6019 61.7063 53.6705 61.8205 53.7213C64.6218 54.9773 66.3244 57.101 66.8877 60.1256C66.9054 60.2271 66.9638 60.3235 67.0019 60.42V65.8043ZM65.0303 65.0025C65.0303 63.744 65.0481 62.5437 65.0278 61.3461C64.9745 58.3951 62.909 55.8501 60.0316 55.2208C59.6307 55.132 59.1638 55.1726 58.7629 55.2842C57.4612 55.6471 56.1824 55.6496 54.8807 55.2791C54.5001 55.17 54.0586 55.1294 53.6754 55.2055C51.1457 55.7156 49.0904 57.809 48.7504 60.3819C48.5677 61.7597 48.6514 63.173 48.6209 64.5711C48.6184 64.7132 48.659 64.8578 48.6793 64.9999H65.0303V65.0025ZM56.832 53.5944C59.1664 53.5944 61.0821 51.7064 61.077 49.4126C61.072 47.1264 59.1359 45.226 56.8167 45.2336C54.4899 45.2412 52.5666 47.1391 52.5717 49.4279C52.5768 51.7242 54.4925 53.5969 56.832 53.5944Z" fill="white"/>
<path d="M11.0523 0.00247793C11.9709 0.385625 12.9884 0.62417 13.7902 1.17479C16.7133 3.18694 17.2613 7.06914 15.1172 9.90849C15.0386 10.0125 14.9599 10.1141 14.8407 10.2663C15.0538 10.3703 15.2416 10.4566 15.4243 10.5479C18.5605 12.116 20.2428 14.6357 20.3671 18.15C20.4128 19.4187 20.3823 20.69 20.3747 21.9587C20.3671 23.0929 19.7759 23.7195 18.6341 23.7221C13.0087 23.7348 7.38325 23.7348 1.75784 23.7221C0.616007 23.7195 0.0197188 23.0903 0.0247936 21.9536C0.0324058 20.3576 -0.0716276 18.7438 0.118677 17.1681C0.504362 13.9811 2.29069 11.7584 5.21885 10.4491C5.31527 10.4059 5.40915 10.3551 5.37617 10.3729C4.93974 9.32745 4.34091 8.35058 4.12523 7.29502C3.45028 3.96088 5.58931 0.855108 8.91838 0.13195C9.06301 0.101501 9.20257 0.0431358 9.3472 0C9.91558 0 10.4865 0 11.0549 0L11.0523 0.00247793ZM18.4032 21.7277C18.4032 20.4666 18.4209 19.2868 18.4006 18.1044C18.3448 15.0595 16.2286 12.5246 13.232 11.9258C12.9072 11.8598 12.5316 11.8801 12.217 11.9791C10.857 12.4053 9.51213 12.4104 8.15716 11.9689C7.89834 11.8852 7.59385 11.8344 7.3325 11.8851C4.82555 12.3799 3.11535 13.8415 2.30338 16.2597C1.70455 18.0384 2.08262 19.8856 1.98113 21.7277H18.4032ZM10.2023 1.97404C7.87297 1.9715 5.94962 3.85684 5.94455 6.14811C5.93947 8.43431 7.86536 10.3373 10.1896 10.3424C12.5063 10.3475 14.4448 8.44441 14.4499 6.16075C14.4524 3.86948 12.5316 1.97658 10.2048 1.97404H10.2023Z" fill="white"/>
<path d="M33.5083 48.1599C33.0058 48.1599 32.5009 48.1777 31.9985 48.1574C30.7882 48.1066 30.1056 47.4013 30.0853 46.2011C30.0777 45.7418 30.0929 45.2825 30.0777 44.8232C30.0599 44.2701 29.796 43.8488 29.2733 43.656C28.7862 43.4758 28.3243 43.5596 27.9412 43.9402C27.5834 44.2929 27.2383 44.6634 26.8653 45.0009C26.0534 45.7317 25.0689 45.7316 24.2747 44.978C23.5134 44.2548 22.77 43.5089 22.0468 42.7502C21.2704 41.9357 21.2831 40.9436 22.0519 40.1113C22.3335 39.8068 22.6279 39.5125 22.9324 39.2283C23.3942 38.7969 23.587 38.2945 23.3333 37.6931C23.077 37.0816 22.5568 36.9141 21.9377 36.9319C21.5013 36.9446 21.0623 36.9446 20.6259 36.9243C19.6896 36.8787 18.9613 36.2823 18.9055 35.3511C18.8319 34.1103 18.8345 32.8569 18.9131 31.6161C18.969 30.7179 19.6972 30.1317 20.6005 30.0835C21.0801 30.0581 21.5622 30.0683 22.0443 30.0733C22.6482 30.0784 23.1278 29.8576 23.351 29.2766C23.5617 28.7336 23.4196 28.2489 22.9958 27.843C22.6634 27.5258 22.3335 27.2036 22.024 26.8636C21.2881 26.0541 21.2805 25.062 22.0291 24.2729C22.7674 23.4964 23.5261 22.7352 24.3051 21.9994C25.0765 21.2737 26.0585 21.2788 26.8476 21.9841C27.2231 22.3191 27.5657 22.6895 27.9234 23.0447C28.3243 23.4405 28.7988 23.5345 29.3114 23.3289C29.8341 23.1183 30.0701 22.6895 30.0828 22.1389C30.0929 21.6568 30.0777 21.1747 30.0904 20.6951C30.1208 19.6852 30.7222 18.9418 31.7143 18.8834C32.912 18.8123 34.1223 18.8149 35.32 18.8834C36.2867 18.9392 36.8957 19.67 36.9337 20.6342C36.954 21.1366 36.9337 21.6416 36.9464 22.144C36.9591 22.6971 37.2002 23.1234 37.7229 23.3289C38.2354 23.5319 38.7099 23.433 39.1108 23.0371C39.4686 22.6819 39.8112 22.3115 40.1867 21.9791C40.9784 21.2762 41.9578 21.2736 42.7292 22.0019C43.5081 22.7377 44.2668 23.4964 45.0052 24.278C45.7512 25.0696 45.7385 26.0541 44.9976 26.8686C44.6601 27.2416 44.2897 27.5841 43.9395 27.9444C43.564 28.3327 43.4929 28.797 43.6807 29.2817C43.871 29.779 44.2694 30.0379 44.7971 30.0607C45.3224 30.0835 45.8476 30.0556 46.3729 30.0784C47.3447 30.1165 48.0755 30.7179 48.1313 31.6846C48.2023 32.9051 48.2023 34.1357 48.1237 35.3562C48.0653 36.2874 47.3371 36.8812 46.3982 36.9243C45.939 36.9446 45.4797 36.9395 45.0204 36.9319C44.4216 36.9217 43.9344 37.1172 43.6934 37.6957C43.4574 38.2666 43.6147 38.7588 44.0562 39.1826C44.3886 39.4998 44.721 39.8194 45.0255 40.162C45.7334 40.9562 45.7461 41.9356 45.0255 42.7045C44.277 43.5012 43.5005 44.2777 42.7013 45.0237C41.9527 45.724 40.9784 45.7164 40.2095 45.0389C39.8162 44.6913 39.461 44.3031 39.0829 43.9377C38.6769 43.547 38.1999 43.4709 37.6899 43.6891C37.1951 43.8997 36.9667 44.3082 36.949 44.8309C36.9337 45.313 36.9515 45.7951 36.9388 46.2747C36.9109 47.3657 36.2486 48.0762 35.15 48.1523C34.6044 48.1904 34.0563 48.1599 33.5083 48.1599ZM32.0366 46.135H34.985C34.848 44.2802 35.0764 42.603 37.0175 41.8291C38.9459 41.0603 40.2603 42.1564 41.4072 43.4708C42.1278 42.7527 42.7926 42.0905 43.5031 41.38C42.1506 40.2509 41.0976 38.9365 41.836 37.0284C42.5998 35.0518 44.31 34.831 46.1673 34.9629V32.0272C44.3607 32.1414 42.6632 31.9612 41.8664 30.0353C41.0596 28.0891 42.1582 26.7545 43.4574 25.6203C42.7444 24.887 42.0897 24.217 41.3996 23.5091C40.2349 24.8742 38.9053 25.9297 36.9718 25.1381C35.0434 24.3464 34.8556 22.6514 34.9799 20.8397H32.0442C32.171 22.6971 31.9503 24.4048 29.9737 25.1711C28.063 25.9121 26.7562 24.8387 25.6778 23.5776C24.9572 24.2779 24.2721 24.9402 23.516 25.676C23.8078 25.9374 24.1376 26.1962 24.4244 26.4931C25.4216 27.5233 25.6931 28.7311 25.1424 30.0556C24.5893 31.3878 23.5134 32.0043 22.09 32.0348C21.6814 32.0424 21.2755 32.0348 20.8568 32.0348V34.9832C22.6736 34.8335 24.3356 35.0339 25.1374 36.9268C25.9646 38.8806 24.876 40.2204 23.62 41.3115C24.3076 42.0473 24.9572 42.7425 25.6474 43.4809C26.7689 42.1006 28.0858 41.1008 29.9584 41.8164C31.9401 42.57 32.1761 44.2777 32.0366 46.1401V46.135Z" fill="white"/>
<path d="M5.52583 53.521C2.92246 50.2859 3.97548 46.7004 6.01809 44.871C8.32966 42.8004 11.8922 42.7523 14.2494 44.7569C16.2971 46.4975 17.5734 50.1259 14.8584 53.5514C15.0588 53.6478 15.2517 53.7367 15.442 53.8305C18.563 55.3784 20.2224 57.8904 20.3645 61.3717C20.4178 62.6607 20.3823 63.9522 20.3722 65.2438C20.362 66.3678 19.7454 66.9844 18.6137 66.9844C12.9909 66.9894 7.36799 66.9894 1.74511 66.9844C0.656565 66.9844 0.0196776 66.3552 0.022215 65.2793C0.0272898 63.663 -0.0742062 62.0264 0.118636 60.4304C0.501783 57.2434 2.29319 55.0231 5.21881 53.7138C5.29747 53.6783 5.37613 53.6377 5.45225 53.5971C5.47001 53.587 5.4827 53.5667 5.52583 53.521ZM18.4031 64.9825C18.4031 63.7518 18.4209 62.5542 18.4006 61.3565C18.3448 58.3979 16.292 55.8605 13.4146 55.221C13.0137 55.1322 12.5443 55.1653 12.1459 55.2769C10.8442 55.6423 9.56537 55.6448 8.26369 55.282C7.86278 55.1703 7.39336 55.1247 6.99499 55.2185C4.82551 55.7336 3.29039 57.0454 2.44797 59.1058C1.66645 61.0139 2.0902 63.016 1.99124 64.9825H18.4031ZM10.1743 53.5946C12.5164 53.6022 14.4346 51.7372 14.4499 49.4409C14.4651 47.1547 12.5494 45.2542 10.2175 45.2339C7.90084 45.2161 5.95719 47.109 5.94451 49.4002C5.93182 51.6941 7.84248 53.587 10.1743 53.5946Z" fill="white"/>
<path d="M25.9366 56.2923C26.4441 56.7642 26.9668 57.226 27.4591 57.7157C27.9716 58.2257 28.0046 58.7916 27.591 59.2154C27.1749 59.6417 26.5989 59.6163 26.0914 59.1139C25.0181 58.0558 23.9473 56.9901 22.8917 55.9117C22.3538 55.3636 22.3589 54.8739 22.9095 54.3156C23.9676 53.2398 25.0333 52.1716 26.1117 51.116C26.609 50.6288 27.1419 50.606 27.5682 51.0069C27.997 51.4103 27.9843 52.0091 27.492 52.509C27.0049 53.0063 26.4847 53.4732 25.9772 53.9553C25.995 54.0137 26.0127 54.0745 26.0305 54.1329C26.2538 54.1329 26.4745 54.1329 26.6978 54.1329C32.1203 54.138 37.5452 54.1431 42.9676 54.1532C43.2696 54.1532 43.6527 54.1025 43.8557 54.2624C44.1475 54.4882 44.4444 54.8662 44.485 55.2113C44.5408 55.668 44.1983 56.0233 43.6959 56.0969C43.4599 56.1324 43.2163 56.1197 42.9753 56.1197C37.5731 56.1146 32.171 56.1095 26.7689 56.1045C26.5304 56.1045 26.2944 56.1045 26.0559 56.1045C26.0153 56.1679 25.9747 56.2313 25.9341 56.2948L25.9366 56.2923Z" fill="white"/>
<path d="M41.0519 10.7159C40.5495 10.2313 40.0395 9.75681 39.5498 9.26202C39.0474 8.752 39.0169 8.18358 39.4432 7.76238C39.8644 7.34624 40.4328 7.38183 40.9428 7.88677C42.0009 8.93218 43.0539 9.98258 44.0993 11.0407C44.6703 11.6192 44.6753 12.1064 44.1044 12.6875C43.0615 13.7481 42.0085 14.7987 40.9479 15.8415C40.4201 16.3592 39.8771 16.3922 39.4432 15.9684C39.022 15.5574 39.0499 14.9711 39.5472 14.4662C40.0344 13.9714 40.547 13.4995 41.1737 12.8981C40.7652 12.8804 40.5394 12.8601 40.311 12.8601C34.886 12.8525 29.4611 12.8499 24.0387 12.8398C23.757 12.8398 23.4652 12.8347 23.1962 12.7611C22.7141 12.6266 22.4731 12.2561 22.5137 11.7689C22.5568 11.2919 22.8359 10.9596 23.3434 10.8936C23.5794 10.8632 23.823 10.8733 24.064 10.8733C29.4662 10.8784 34.8683 10.8835 40.2729 10.8885C40.5064 10.8885 40.7398 10.8885 40.9758 10.8885L41.057 10.7159H41.0519Z" fill="white"/>
<path d="M57.9815 38.4158C58.4483 37.9261 58.9076 37.4263 59.3872 36.9493C59.9276 36.4088 60.5087 36.3656 60.935 36.8071C61.3537 37.2385 61.3156 37.7866 60.8005 38.3093C59.7551 39.3699 58.7046 40.4229 57.644 41.4658C57.068 42.0316 56.5783 42.0266 55.9972 41.4531C54.9366 40.4077 53.8861 39.3547 52.8407 38.294C52.3281 37.7739 52.3028 37.2207 52.7341 36.7919C53.1553 36.3732 53.7186 36.4113 54.2363 36.9137C54.7361 37.3983 55.2182 37.9008 55.845 38.5351C55.845 38.1368 55.845 37.9109 55.845 37.6851C55.8475 33.9856 55.85 30.286 55.8551 26.589C55.8551 26.3505 55.8424 26.0994 55.9008 25.8735C56.0327 25.3661 56.3956 25.0844 56.9157 25.125C57.4283 25.1656 57.7531 25.4801 57.8114 26.0104C57.8343 26.2058 57.8216 26.4038 57.8216 26.6017C57.8216 30.2784 57.8165 33.9551 57.814 37.6343C57.814 37.8677 57.814 38.1037 57.814 38.3371C57.8698 38.3651 57.9256 38.3905 57.984 38.4184L57.9815 38.4158Z" fill="white"/>
<path d="M9.04517 28.5709C8.56306 29.0733 8.0911 29.5883 7.59631 30.0781C7.08629 30.583 6.51284 30.6109 6.09671 30.1897C5.67296 29.7609 5.70341 29.2077 6.21597 28.6876C7.26137 27.6269 8.31186 26.5739 9.37249 25.5311C9.95102 24.9601 10.4407 24.9575 11.0193 25.5284C12.0799 26.5739 13.1304 27.6243 14.1758 28.685C14.6909 29.2051 14.7239 29.7584 14.3001 30.1872C13.884 30.6109 13.308 30.5829 12.8005 30.0805C12.3057 29.5883 11.8363 29.0707 11.3542 28.5658C11.2958 28.5835 11.2375 28.6038 11.1817 28.6215C11.1817 28.8448 11.1817 29.0682 11.1817 29.294C11.1791 33.0139 11.1766 36.7362 11.1715 40.456C11.1715 40.6945 11.1715 40.9457 11.1081 41.169C10.9685 41.6435 10.6082 41.9049 10.121 41.8668C9.61101 41.8262 9.27861 41.5217 9.21517 40.9913C9.19234 40.796 9.20502 40.5982 9.20502 40.4002C9.20502 36.7235 9.2101 33.0468 9.21263 29.3701C9.21263 29.1341 9.21263 28.8957 9.21263 28.6597C9.15681 28.6318 9.10353 28.6038 9.0477 28.5733L9.04517 28.5709Z" fill="white"/>
<path d="M25.7691 33.4861C25.7717 29.2486 29.2631 25.757 33.5006 25.752C37.766 25.7494 41.2701 29.2664 41.2498 33.5343C41.2321 37.7666 37.7228 41.2453 33.4828 41.2352C29.2479 41.225 25.7641 37.7235 25.7666 33.4861H25.7691ZM33.526 39.2636C36.6876 39.256 39.2884 36.64 39.2808 33.4784C39.2732 30.3142 36.6597 27.7185 33.4955 27.7261C30.3314 27.7337 27.7356 30.3447 27.7432 33.5113C27.7508 36.6755 30.3644 39.2738 33.5285 39.2662L33.526 39.2636Z" fill="white"/>
</svg>
