<svg width="77" height="70" viewBox="0 0 77 70" fill="none" xmlns="http://www.w3.org/2000/svg">
<path d="M56.8903 21.7443C56.8903 24.9578 56.8715 28.1714 56.901 31.3823C56.9091 32.2474 56.5813 32.7929 55.8317 33.2201C50.2375 36.4229 44.6487 39.6365 39.0814 42.885C38.2162 43.3901 37.531 43.3713 36.6712 42.8688C31.1308 39.6284 25.5715 36.4202 19.9962 33.2389C19.2036 32.7875 18.9053 32.226 18.908 31.3366C18.9295 24.8557 18.9322 18.3776 18.908 11.8967C18.9053 10.9885 19.2573 10.4512 20.0285 10.0105C25.6226 6.80771 31.206 3.58609 36.776 0.342979C37.5471 -0.105736 38.2028 -0.119171 38.9766 0.332231C44.5251 3.55922 50.0816 6.77277 55.657 9.95409C56.5436 10.4592 56.9252 11.0692 56.9064 12.1063C56.8527 15.3172 56.8876 18.5307 56.8876 21.7443H56.8903ZM36.553 39.7681C36.5745 39.486 36.5906 39.3543 36.5906 39.2254C36.5906 33.8085 36.5852 28.389 36.6041 22.9722C36.6041 22.4698 36.373 22.2575 35.9941 22.0398C31.3968 19.3986 26.8048 16.7439 22.2102 14.0946C22.0302 13.9898 21.8314 13.9173 21.6057 13.8152C21.5788 13.9845 21.5465 14.0866 21.5465 14.1914C21.5439 19.6351 21.5331 25.0814 21.5681 30.5251C21.5681 30.8153 21.8582 31.2103 22.1269 31.3715C24.2012 32.6182 26.3024 33.8193 28.3955 35.0338C31.0744 36.5868 33.7532 38.1425 36.5557 39.7681H36.553ZM39.2077 39.7547C39.4656 39.6204 39.5865 39.5666 39.6994 39.4994C44.3827 36.7883 49.0606 34.0692 53.7547 31.3742C54.2195 31.1082 54.284 30.7804 54.284 30.3129C54.2732 25.0573 54.2759 19.8043 54.2759 14.5487V13.7346C53.983 13.885 53.7923 13.971 53.6123 14.0758C51.7744 15.1372 49.958 16.2361 48.0933 17.2437C47.4216 17.6064 47.2147 18.0336 47.2389 18.7699C47.2926 20.4841 47.2711 22.2011 47.2469 23.9153C47.2362 24.7295 46.6477 25.2883 45.9169 25.2695C45.2156 25.2507 44.6702 24.7106 44.6514 23.9314C44.6218 22.8164 44.6433 21.6986 44.6406 20.5835C44.6406 20.1966 44.6406 19.807 44.6406 19.2992C42.9962 20.2315 41.5238 21.1048 40.0137 21.9028C39.4092 22.2226 39.1808 22.5853 39.1861 23.2866C39.2238 27.7227 39.205 32.1615 39.205 36.6003C39.205 37.6052 39.205 38.6101 39.205 39.7547H39.2077ZM52.8249 11.5152C52.7551 11.3943 52.7417 11.3298 52.704 11.3083C47.881 8.51658 43.058 5.72488 38.227 2.94392C38.0711 2.85525 37.7889 2.81763 37.6439 2.90093C35.7872 3.94614 33.944 5.01822 32.0228 6.12523C36.6202 9.19638 41.118 12.2057 45.6347 15.1855C45.8336 15.3172 46.2608 15.2769 46.4919 15.1533C47.5721 14.581 48.6226 13.9495 49.6813 13.3369C50.7292 12.7297 51.777 12.1224 52.8249 11.5125V11.5152ZM43.4503 16.9347C43.2998 16.8084 43.2246 16.7305 43.1387 16.6714C38.7509 13.7453 34.3659 10.8139 29.9593 7.92009C29.7229 7.76425 29.2231 7.775 28.9625 7.92009C27.13 8.93037 25.3298 9.99439 23.5215 11.0477C23.3253 11.1605 23.148 11.3029 22.89 11.4803C27.8635 14.3418 32.7349 17.147 37.617 19.936C37.7809 20.03 38.098 20.0112 38.2699 19.9118C39.9734 18.9526 41.6635 17.9692 43.4503 16.9374V16.9347Z" fill="#0D57B7"/>
<path d="M16.7424 63.7059H32.786C32.786 63.0261 32.7753 62.3812 32.786 61.7364C32.8102 60.5917 33.2535 60.1484 34.3793 60.1457C36.6122 60.1376 38.8477 60.1403 41.0805 60.1457C42.252 60.1484 42.6792 60.5917 42.6873 61.7928C42.6926 62.4135 42.6873 63.0341 42.6873 63.7005H58.8034C58.8034 63.0691 58.798 62.4296 58.8034 61.7928C58.8195 60.5864 59.2387 60.1538 60.4129 60.1484C62.6457 60.143 64.8813 60.143 67.1141 60.1484C68.248 60.1511 68.6832 60.5917 68.6993 61.731C68.7074 62.3785 68.6993 63.0234 68.6993 63.7462C70.1771 63.7462 71.5582 63.7462 72.942 63.7462C73.5949 63.7462 74.2505 63.7408 74.9035 63.7462C75.946 63.7542 76.5183 64.2271 76.5129 65.0601C76.5075 65.8876 75.9325 66.3552 74.8873 66.3578C72.8506 66.3632 70.8139 66.3578 68.6778 66.3578C68.6778 67.1236 68.6886 67.8249 68.6778 68.5235C68.659 69.5096 68.2103 69.9798 67.2242 69.9879C64.9081 70.004 62.5946 70.004 60.2785 69.9879C59.2817 69.9798 58.8383 69.5284 58.8115 68.5396C58.7927 67.8383 58.8088 67.1371 58.8088 66.3982H42.6926C42.6926 67.0753 42.698 67.7443 42.6926 68.4133C42.6819 69.5177 42.2547 69.9825 41.1826 69.9879C38.8934 70.004 36.6068 70.0013 34.3175 69.9879C33.2777 69.9825 32.829 69.5338 32.7968 68.4993C32.7753 67.8222 32.7914 67.1424 32.7914 66.4116H16.6967C16.6967 67.0779 16.7048 67.7739 16.6967 68.4671C16.6806 69.5015 16.2319 69.9798 15.2081 69.9879C12.892 70.004 10.5786 70.004 8.2625 69.9879C7.28715 69.9798 6.83573 69.5123 6.8008 68.5181C6.77662 67.8383 6.79542 67.1586 6.79542 66.3605C5.97054 66.3605 5.19133 66.3605 4.41213 66.3605C3.54157 66.3605 2.66832 66.3605 1.79776 66.3605C0.591334 66.3605 0.0136625 65.9441 0.000227948 65.0735C-0.0132066 64.1895 0.567145 63.7489 1.75745 63.7462C3.14659 63.7462 4.53573 63.7462 5.92486 63.7462H6.79542C6.79542 62.9777 6.77662 62.3006 6.8008 61.6262C6.83842 60.5971 7.30325 60.1511 8.3404 60.1457C10.6001 60.1376 12.8625 60.1376 15.1222 60.1457C16.2373 60.1484 16.6833 60.6132 16.6967 61.7471C16.7048 62.3194 16.6994 62.8917 16.7048 63.464C16.7048 63.5178 16.7236 63.5688 16.7504 63.7059H16.7424ZM9.45548 62.7923V67.3789H14.0179V62.7923H9.45548ZM40.0165 67.3843V62.7896H35.4541V67.3843H40.0165ZM61.4635 62.8004V67.3654H66.0259V62.8004H61.4635Z" fill="#0D57B7"/>
<path d="M37.9019 53.7454C39.7585 51.4132 41.4835 49.2448 43.2112 47.0792C43.3455 46.9099 43.4772 46.7326 43.633 46.5821C44.2161 46.0179 44.9066 45.9695 45.4655 46.4424C46.0217 46.9126 46.1104 47.6219 45.6214 48.2695C44.8825 49.2448 44.1006 50.1879 43.3348 51.1472C42.0102 52.805 40.6882 54.4682 39.3555 56.1207C38.5333 57.1417 37.832 57.182 36.905 56.2658C35.9001 55.2689 34.8952 54.2694 33.901 53.2618C33.2293 52.582 33.1755 51.8108 33.7398 51.252C34.3175 50.6797 35.043 50.7226 35.747 51.4347C36.4697 52.1682 37.1522 52.942 37.8965 53.7481L37.9019 53.7454Z" fill="#0D57B7"/>
<path d="M11.425 53.7598C13.1661 51.578 14.7756 49.5601 16.385 47.5449C16.6054 47.2682 16.8176 46.9834 17.0487 46.7147C17.6183 46.0564 18.3142 45.9435 18.9188 46.4003C19.5529 46.8786 19.6389 47.6309 19.0827 48.343C17.8064 49.9712 16.5032 51.5807 15.2108 53.1955C14.4101 54.1951 13.6148 55.1973 12.8087 56.1888C12.0591 57.1131 11.3256 57.1507 10.4684 56.307C9.44204 55.294 8.42369 54.2703 7.40535 53.2439C6.67719 52.5077 6.60464 51.7473 7.19576 51.1723C7.77076 50.6107 8.54462 50.6833 9.2674 51.4222C9.99018 52.1611 10.67 52.9376 11.425 53.7544V53.7598Z" fill="#0D57B7"/>
</svg>
