<svg width="74" height="68" viewBox="0 0 74 68" fill="none" xmlns="http://www.w3.org/2000/svg">
<g clip-path="url(#clip0_1277_1705)">
<path d="M35.7133 26.5023C33.8351 26.5001 31.9568 26.5023 30.0786 26.5023C28.2003 26.5023 27.6745 27.0931 27.6745 28.8413V63.8882H25.1234V63.0065C25.1234 55.7577 25.1256 48.5112 25.1234 41.2624C25.1234 39.7549 24.455 39.1029 22.9355 39.1007C21.0372 39.1007 19.1367 39.1007 17.2361 39.1007C15.5651 39.1029 14.9457 39.7068 14.9457 41.3434V63.8882H12.3612V63.0787C12.3612 57.9107 12.3634 52.7427 12.3612 47.5747C12.3612 45.9731 11.7485 45.3802 10.0997 45.378C8.28832 45.378 6.47469 45.378 4.66329 45.378C2.74495 45.378 2.19908 45.9053 2.19908 47.7672V63.886C0.383222 64.072 0.155961 64.153 0.0356468 64.6584C-0.10472 65.2382 0.222802 65.5861 0.677323 65.8662H33.8195C33.7749 65.2295 33.7526 64.5862 33.7526 63.9473V63.8992H29.6842V28.4562H35.8626V52.9046C36.4241 51.524 37.0947 50.2003 37.8723 48.9487V28.6356C37.87 27.1828 37.1838 26.5045 35.7155 26.5023H35.7133ZM10.3537 63.9014H4.21546V47.3406H10.3537V63.9014ZM23.1159 63.9101H16.9576V41.0589H23.1159V63.9101ZM43.7565 33.0269C42.901 32.3595 40.9893 32.9043 40.6016 33.9043C40.4524 34.2915 40.4278 34.7422 40.4278 35.1645C40.4256 37.556 40.4234 39.9496 40.4234 42.3411C40.4234 43.3957 40.4212 44.4525 40.4234 45.5071C40.7019 45.1898 40.9893 44.8813 41.2834 44.5794C41.6577 44.1965 42.0432 43.8245 42.4398 43.4701V34.7379C42.774 34.7379 43.0993 34.8254 43.3265 34.716C43.6451 34.5628 44.0506 34.3003 44.1219 34.0115C44.1955 33.7205 44.0061 33.2194 43.7565 33.0269ZM49.9572 33.261C49.1796 32.6593 48.2683 32.6834 47.4128 32.9678C47.1432 33.0575 46.8491 33.622 46.8936 33.9218C46.9382 34.2237 47.3504 34.5366 47.6779 34.7094C47.9096 34.8341 48.2639 34.7335 48.5869 34.7335V39.3217C49.2398 39 49.9104 38.7003 50.5989 38.4224C50.5989 37.6347 50.5989 36.8449 50.6011 36.0572C50.6011 35.6393 50.6011 35.2214 50.6033 34.8057C50.6055 34.1909 50.4585 33.6483 49.9572 33.261ZM63.3433 15.9935C63.3433 14.6567 62.6815 13.9434 61.387 13.9281C59.2927 13.904 57.1961 13.9018 55.0995 13.9281C53.8852 13.9456 53.2124 14.6523 53.1856 15.8338C53.1812 16.0482 53.1834 16.2626 53.1834 16.477V37.5057C53.8429 37.3 54.518 37.1162 55.2042 36.9477V15.8929H61.3826V16.7659C61.3826 22.4371 61.3804 28.1105 61.3826 33.7817V35.9806C62.0287 35.9281 62.6838 35.8909 63.3455 35.8669C63.3477 35.1361 63.3477 34.4075 63.3477 33.6767V29.7559C63.3477 25.1677 63.3499 20.5795 63.3433 15.9913V15.9935Z" fill="white"/>
<path d="M59.1301 0.0982056C56.9734 -0.378772 54.8679 0.925259 54.3554 3.0651C54.0346 4.39538 54.4245 5.55938 55.2734 6.61399C52.4594 10.7646 49.6587 14.8955 46.8647 19.0176C45.265 18.5559 43.9148 18.8688 42.7139 19.8994C42.578 20.0153 42.2326 20.0284 42.0544 19.9475C40.8134 19.3677 39.5924 18.7529 38.3648 18.149C37.8055 17.8733 37.2485 17.5954 36.7093 17.3285C36.7271 17.1688 36.7361 17.0834 36.745 16.9981C36.9277 15.3221 36.3016 13.9962 34.8489 13.1232C33.4163 12.2611 31.9146 12.2918 30.531 13.226C29.1072 14.1866 28.3519 15.6262 28.8978 17.2344C29.3211 18.4837 28.8889 19.1183 28.0289 19.7812C27.962 19.8337 27.9063 19.9015 27.8439 19.9606C25.93 21.8379 24.0162 23.7174 22.1112 25.5859C18.5708 24.2381 16.1913 25.8463 16.0398 29.6446C16.0331 29.7737 15.9061 29.9531 15.7835 30.0144C13.981 30.918 12.1674 31.8041 10.3516 32.6968C10.1644 32.5305 10.0084 32.3839 9.84135 32.2483C8.52234 31.1652 6.63074 31.0471 5.13572 31.9529C3.67412 32.839 2.96115 34.55 3.37111 36.1844C3.86796 38.1646 5.78408 39.4773 7.78263 39.2082C9.85917 38.9303 11.3765 37.2128 11.2651 35.1408C11.2316 34.5216 11.4611 34.2897 11.9624 34.0555C13.4575 33.3554 14.9391 32.6224 16.4074 31.8698C16.8129 31.6597 17.0513 31.6838 17.4145 31.9901C19.6759 33.9089 23.0982 32.8631 23.8958 30.0319C24.1944 28.9707 24.0117 27.9577 23.4636 26.9249C25.7964 24.6538 28.1158 22.3871 30.4597 20.1422C30.5844 20.0219 30.9365 20.0131 31.1258 20.0897C32.7479 20.7264 34.2095 20.4792 35.5062 19.3524C35.7669 19.127 35.9384 19.1095 36.237 19.2583C37.7699 20.0306 39.305 20.7986 40.8624 21.5206C41.3838 21.7613 41.5754 22.0151 41.5375 22.6212C41.4172 24.5488 42.832 26.2729 44.7124 26.6164C46.7177 26.984 48.5781 25.9666 49.271 24.1156C49.8258 22.6365 49.5117 21.2997 48.5335 20.116C48.5647 20.0394 48.5759 19.9956 48.5982 19.9606C51.2919 15.9807 53.9878 12.003 56.6704 8.01648C56.8932 7.68609 57.1137 7.73204 57.439 7.79987C59.6359 8.2484 61.757 6.86123 62.207 4.70826C62.6437 2.62969 61.269 0.570808 59.1301 0.0982056ZM7.23008 37.3025C6.11383 37.2784 5.22707 36.366 5.24044 35.2545C5.2538 34.1431 6.15616 33.2788 7.29692 33.2876C8.42654 33.2941 9.3289 34.1846 9.32667 35.2917C9.32444 36.412 8.37084 37.3287 7.23008 37.3025ZM20.0057 31.0208C18.885 31.0121 17.9692 30.1106 17.9715 29.0144C17.9715 27.8986 18.9273 26.9862 20.0747 27.0081C21.1955 27.03 22.0822 27.938 22.0644 29.0516C22.0488 30.1631 21.142 31.0296 20.0057 31.0208ZM32.7523 18.5034C31.6316 18.4903 30.6646 17.5035 30.7114 16.4139C30.756 15.3265 31.723 14.4338 32.8236 14.4644C33.9354 14.4973 34.8578 15.4403 34.8311 16.5168C34.8043 17.5998 33.8485 18.5144 32.7523 18.5034ZM45.4923 24.7632C44.3716 24.7501 43.4737 23.8443 43.4781 22.7393C43.4826 21.641 44.4028 20.7286 45.5123 20.7264C46.6419 20.7242 47.5933 21.6782 47.571 22.7897C47.5487 23.8771 46.6018 24.7785 45.4923 24.7632ZM58.3102 5.94447C57.1516 5.96635 56.2158 5.07147 56.2181 3.94029C56.2181 2.84192 57.1338 1.93391 58.2478 1.92516C59.3641 1.91641 60.2909 2.81129 60.3043 3.90965C60.3177 5.0299 59.442 5.92259 58.3102 5.94447Z" fill="white"/>
<path d="M43.5693 62.246C43.7142 61.7888 44.0372 61.6378 44.5118 61.6487C45.4208 61.6706 46.3321 61.6465 47.2434 61.6619C47.4929 61.6662 47.5843 61.5743 47.6823 61.3577C48.5 59.5548 49.8814 58.463 51.9089 58.2639C53.8629 58.0736 55.4849 59.3601 55.7523 61.2724C55.7679 61.3884 55.7879 61.5021 55.808 61.6356H59.6224C59.736 60.6291 59.8496 59.638 59.961 58.6468C60.2128 56.4392 60.4624 54.2293 60.7119 52.0217C60.9392 50.0131 61.1664 48.0067 61.3915 45.9982C61.416 45.7772 61.4516 45.554 61.4561 45.3308C61.465 44.9261 61.1909 44.6526 60.7787 44.6263C60.6807 44.6197 60.5827 44.6241 60.4869 44.6241C55.8793 44.6241 51.2717 44.6241 46.6663 44.6241C46.546 44.6241 46.4279 44.6307 46.3098 44.6176C45.9377 44.5804 45.6659 44.2828 45.6726 43.9305C45.6793 43.5761 45.9556 43.3004 46.3343 43.272C46.399 43.2676 46.4636 43.2676 46.5304 43.2676C51.2449 43.2676 55.9617 43.2654 60.6762 43.2676C61.8014 43.2676 62.7149 43.9699 62.8107 44.9698C62.8597 45.4906 62.7751 46.0288 62.7261 46.5561C62.6592 47.2628 62.5701 47.9673 62.4876 48.7069C62.7238 48.7069 62.9288 48.7069 63.1316 48.7069C64.1609 48.7069 65.1903 48.7069 66.2219 48.7069C67.3002 48.7069 68.2026 49.1029 68.9245 49.8906C70.219 51.3084 71.4845 52.7546 72.8146 54.1396C73.8106 55.1767 74.1559 56.3429 73.942 57.7344C73.7705 58.8481 73.6813 59.9727 73.5677 61.0952C73.4541 62.2089 72.6052 63.0403 71.4734 62.9878C70.7849 62.955 70.4663 63.1519 70.1254 63.7754C69.1874 65.4974 67.679 66.447 65.6359 66.3923C63.8401 66.3441 62.4565 65.0204 62.296 63.2569C62.2894 63.1847 62.276 63.1125 62.2648 63.025C62.1579 63.0184 62.0621 63.0097 61.9685 63.0097C59.941 63.0097 57.9135 63.0118 55.8882 63.0031C55.6587 63.0031 55.5562 63.0665 55.4715 63.2831C54.7407 65.1429 52.8179 66.4382 50.8662 66.4054C49.0236 66.3726 47.6467 65.1714 47.3904 63.3707C47.3748 63.2656 47.3615 63.1606 47.3414 63.0075H46.8758C46.0959 63.0075 45.3139 62.99 44.5341 63.014C44.0617 63.0293 43.7409 62.8718 43.576 62.432V62.2395L43.5693 62.246ZM61.0216 61.6553C61.4226 61.6553 61.7769 61.64 62.1312 61.6597C62.3829 61.675 62.4921 61.5962 62.6013 61.3577C63.4479 59.4936 64.885 58.3974 66.9883 58.253C68.793 58.1283 70.337 59.3579 70.6467 61.1149C70.6779 61.2877 70.7002 61.4628 70.7292 61.6553C70.9542 61.6553 71.1592 61.6597 71.3642 61.6553C71.89 61.6444 72.1351 61.4146 72.1886 60.9092C72.3111 59.7561 72.4225 58.6031 72.5673 57.4522C72.6631 56.6842 72.6074 55.9753 72.046 55.3627C70.6512 53.8464 69.2698 52.3214 67.8817 50.7986C67.4718 50.3479 66.9593 50.0853 66.3444 50.0765C65.0766 50.059 63.8089 50.0722 62.5411 50.0656C62.3763 50.0656 62.3161 50.1247 62.3005 50.2844C62.2448 50.8664 62.1735 51.4462 62.1067 52.0282C61.8772 54.0455 61.6477 56.0628 61.4204 58.0823C61.289 59.2529 61.1575 60.4257 61.0194 61.6553H61.0216ZM67.093 59.6139C65.5178 59.6205 64.0495 60.826 63.7242 62.3817C63.3945 63.9592 64.504 65.1867 66.1327 65.0445C67.6723 64.911 69.0448 63.642 69.2832 62.1366C69.5082 60.7035 68.5591 59.6074 67.0952 59.6139H67.093ZM52.2008 59.6139C50.6211 59.6052 49.1328 60.8173 48.7963 62.3861C48.4621 63.9483 49.5917 65.1911 51.216 65.0467C52.7132 64.9132 54.079 63.6879 54.3553 62.2307C54.6293 60.7757 53.6802 59.6227 52.2008 59.6161V59.6139Z" fill="white"/>
<path d="M49.4558 56.881C47.9942 56.881 46.5326 56.8832 45.071 56.881C44.485 56.881 44.1307 56.4062 44.3491 55.9314C44.4783 55.6491 44.7123 55.5266 45.0242 55.5266C45.7171 55.5266 46.41 55.5266 47.103 55.5266C49.3221 55.5266 51.5412 55.5266 53.7603 55.5266C53.9007 55.5266 54.0455 55.5222 54.1814 55.5507C54.5023 55.6207 54.7251 55.9533 54.6872 56.2727C54.6471 56.6097 54.3708 56.8678 54.001 56.8766C53.4373 56.8897 52.8758 56.881 52.3121 56.881C51.3585 56.881 50.4071 56.881 49.4535 56.881H49.4558Z" fill="white"/>
<path d="M54.3352 48.7112C53.5666 48.7112 52.7957 48.7133 52.027 48.7112C51.5324 48.7112 51.2294 48.4398 51.2338 48.0198C51.2383 47.6084 51.5257 47.3568 52.0159 47.3568C53.5666 47.3524 55.1173 47.3524 56.6658 47.3568C57.1582 47.3568 57.4768 47.6369 57.4679 48.0416C57.459 48.4486 57.1426 48.709 56.6435 48.7112C55.8748 48.7133 55.1039 48.7112 54.3352 48.7112Z" fill="white"/>
<path d="M48.8007 52.7957C47.9986 52.7957 47.1965 52.8001 46.3944 52.7935C46.0446 52.7913 45.7995 52.6075 45.7104 52.31C45.6213 52.0102 45.7037 51.752 45.9622 51.5792C46.087 51.4961 46.263 51.4479 46.4167 51.4457C47.9986 51.437 49.5828 51.437 51.1647 51.4414C51.6237 51.4414 51.9066 51.7083 51.9088 52.1087C51.9111 52.52 51.6147 52.7913 51.1424 52.7935C50.3626 52.7979 49.5805 52.7935 48.8007 52.7935V52.7957Z" fill="white"/>
<path d="M59.7383 65.0537C60.224 65.0537 60.7119 65.0493 61.1976 65.0537C61.6611 65.0581 61.9752 65.3338 61.9775 65.7298C61.9797 66.128 61.6722 66.4059 61.2043 66.4081C60.2195 66.4124 59.2347 66.4124 58.2499 66.4081C57.7665 66.4059 57.479 66.1477 57.4768 65.7363C57.4768 65.3184 57.7776 65.0559 58.2744 65.0537C58.7602 65.0515 59.2481 65.0537 59.7338 65.0537H59.7383Z" fill="white"/>
<path d="M45.4988 65.0556C45.7796 65.0556 46.0625 65.0491 46.3433 65.0556C46.7621 65.0688 47.0585 65.3554 47.0607 65.7317C47.0607 66.1059 46.7666 66.3991 46.3477 66.4056C45.784 66.4166 45.2203 66.4166 44.6566 66.4056C44.2244 66.3969 43.9503 66.1256 43.9481 65.7361C43.9481 65.3488 44.2311 65.071 44.6522 65.0556C44.9329 65.0469 45.2159 65.0556 45.4966 65.0556H45.4988Z" fill="white"/>
<path d="M48.4644 47.3588C48.7028 47.3588 48.9412 47.3478 49.1773 47.361C49.5516 47.3828 49.8079 47.6388 49.8257 47.9889C49.8435 48.3521 49.5984 48.6781 49.2286 48.6978C48.7117 48.7262 48.1903 48.7241 47.6712 48.6978C47.3013 48.6781 47.054 48.3565 47.0718 47.9911C47.0874 47.641 47.3436 47.3828 47.718 47.361C47.9653 47.3478 48.2148 47.3588 48.4644 47.3588Z" fill="white"/>
<path d="M54.6783 52.7967C54.4622 52.7967 54.2461 52.8032 54.03 52.7967C53.6066 52.7835 53.3192 52.51 53.3148 52.1271C53.3103 51.7355 53.5821 51.4576 54.0099 51.4467C54.4644 51.4357 54.9189 51.4357 55.3735 51.4467C55.8012 51.4576 56.0753 51.7333 56.0731 52.125C56.0708 52.51 55.7857 52.7835 55.3623 52.7967C55.1351 52.8054 54.9078 52.7967 54.6805 52.7967H54.6783Z" fill="white"/>
<path d="M67.0195 56.8814C66.077 56.8814 65.1345 56.8814 64.1921 56.8814C63.5972 56.8814 63.332 56.5773 63.3833 55.9931C63.4858 54.8291 63.5771 53.6629 63.6752 52.4989C63.6885 52.3392 63.7019 52.1816 63.7286 52.0241C63.7843 51.6828 64.0116 51.4574 64.3592 51.4487C64.9652 51.4334 65.5735 51.4268 66.1773 51.4552C66.351 51.464 66.5583 51.5712 66.6786 51.6981C67.9396 53.0284 69.1873 54.3718 70.4395 55.7108C70.6512 55.9362 70.7091 56.1966 70.5843 56.4766C70.4596 56.7589 70.2212 56.8836 69.9092 56.8836C68.9445 56.8836 67.982 56.8836 67.0172 56.8836L67.0195 56.8814ZM68.3696 55.5074C67.6143 54.6978 66.8835 53.9714 66.2218 53.1859C65.8809 52.7833 65.5133 52.7461 65.0432 52.8249C64.9697 53.7176 64.8939 54.6015 64.8182 55.5074H68.3696Z" fill="white"/>
<path d="M65.8543 34.7388C65.8587 35.3427 65.3641 35.835 64.7491 35.8393C64.2768 35.8415 63.8089 35.8525 63.3455 35.87C62.6838 35.894 62.0287 35.9312 61.3826 35.9837C59.2236 36.1544 57.1604 36.4782 55.2042 36.9508C54.518 37.1193 53.8429 37.3031 53.1834 37.5088C52.2966 37.7801 51.4344 38.0842 50.5988 38.4233C49.9104 38.7012 49.2397 39.001 48.5869 39.3226C46.3121 40.4428 44.2534 41.8278 42.4398 43.471C42.0432 43.8254 41.6577 44.1974 41.2834 44.5803C40.9893 44.8822 40.7019 45.1907 40.4234 45.508C39.4765 46.5801 38.6231 47.731 37.87 48.9497C37.0924 50.2012 36.4218 51.5249 35.8603 52.9055C34.4812 56.2838 33.7571 60.0055 33.7504 63.9001V63.9482C33.7504 64.5871 33.7727 65.2304 33.8172 65.8671C33.8395 66.1778 33.8662 66.4885 33.8974 66.7948C33.9576 67.3965 33.5142 67.9325 32.9015 67.9938C32.8636 67.9982 32.8235 68.0003 32.7856 68.0003C32.2219 68.0003 31.7385 67.5803 31.6805 67.0158C31.6404 66.6351 31.607 66.2522 31.5825 65.8671C31.5424 65.2304 31.5223 64.5871 31.5223 63.9482V63.9001C31.5313 58.3776 32.9349 52.8333 35.8603 48.0242C36.4619 47.0286 37.1303 46.0659 37.87 45.1426C38.6454 44.1624 39.4965 43.2281 40.4234 42.342C41.0606 41.7359 41.7312 41.1539 42.4398 40.5982C44.2511 39.1716 46.2987 37.9201 48.5869 36.8874C49.2375 36.592 49.9104 36.3163 50.6011 36.0581C51.4321 35.7474 52.2944 35.4652 53.1834 35.2114C53.8406 35.021 54.5157 34.8482 55.2042 34.6928C57.1382 34.2552 59.1969 33.9467 61.3826 33.7848C62.0265 33.7367 62.6815 33.7017 63.3477 33.6798C63.8045 33.6645 64.2657 33.6536 64.7336 33.6514H64.7425C65.3529 33.6514 65.852 34.1371 65.8543 34.7388Z" fill="white"/>
</g>
<defs>
<clipPath id="clip0_1277_1705">
<rect width="74" height="68" fill="white"/>
</clipPath>
</defs>
</svg>
