<svg width="66" height="68" viewBox="0 0 66 68" fill="none" xmlns="http://www.w3.org/2000/svg">
<path d="M13.4596 57.8126C13.1522 57.8126 12.8532 57.6631 12.5429 57.3585C10.3345 55.1698 8.16265 52.998 6.08673 50.9051C5.78775 50.6033 5.62698 50.3241 5.59595 50.0533C5.56493 49.7769 5.66365 49.4441 5.88929 49.0577C6.43083 48.1297 7.02033 47.1341 7.64084 46.1469C8.04982 45.4981 8.09213 44.8663 7.77623 44.1556C7.04007 42.5056 6.4675 41.1348 5.97955 39.8401C5.69467 39.0842 5.20108 38.6499 4.42825 38.475C4.08132 38.396 3.73722 38.3058 3.37337 38.2127C2.80644 38.066 2.21977 37.9137 1.61617 37.8037C0.798213 37.6542 0.304618 37.3299 0 36.7319V26.6626C0.304618 26.0646 0.798213 25.7403 1.61617 25.5908C2.21977 25.4808 2.80644 25.3285 3.37619 25.1818C3.74004 25.0887 4.08132 24.9985 4.42825 24.9195C5.20108 24.7446 5.69185 24.3102 5.97955 23.5543C6.4675 22.2625 7.04007 20.8918 7.77623 19.2389C8.09213 18.5281 8.04982 17.8963 7.64084 17.2476C7.00622 16.2435 6.39981 15.2112 5.88929 14.3368C5.658 13.9419 5.56211 13.6148 5.59877 13.3383C5.63544 13.0591 5.81031 12.7658 6.13468 12.4386C8.41649 10.1455 10.4783 8.08367 12.4358 6.1375C12.9294 5.64673 13.2509 5.59031 13.4512 5.59031C13.6965 5.59031 13.9955 5.69185 14.334 5.88929C15.2394 6.41673 16.2661 7.01187 17.2335 7.63521C17.5917 7.86649 17.9499 7.97649 18.3279 7.97649C18.7058 7.97649 19.0528 7.85239 19.2953 7.74521C20.7366 7.10777 22.1695 6.50981 23.5543 5.96827C24.0733 5.76519 24.6967 5.41262 24.8913 4.47902C24.9759 4.07004 25.0831 3.66388 25.1959 3.23516C25.3313 2.71336 25.4723 2.17464 25.5767 1.62181C25.7318 0.801034 26.0562 0.304618 26.6513 0H36.7178C37.3101 0.298977 37.6345 0.795392 37.7896 1.62181C37.9617 2.53285 38.2042 3.49466 38.5286 4.56364C38.7006 5.12775 39.1745 5.66365 39.7104 5.90057C41.1404 6.5352 42.672 7.17264 44.2571 7.79316C44.4799 7.88059 44.7422 7.92854 45.0074 7.92854C45.2612 7.92854 45.6392 7.88624 45.9974 7.69162C46.6715 7.31931 47.3287 6.92161 47.9661 6.5352C48.2989 6.33494 48.6402 6.12622 48.9759 5.92596C49.3482 5.70596 49.6669 5.59596 49.9264 5.59596C50.1238 5.59596 50.4426 5.65237 50.9333 6.1375C52.9923 8.17957 55.1105 10.3006 57.2344 12.4386C57.5616 12.7658 57.7365 13.0619 57.7731 13.3412C57.8098 13.6176 57.7139 13.9448 57.4826 14.3396C56.8085 15.4932 56.2529 16.4184 55.7311 17.2504C55.3249 17.8992 55.2798 18.531 55.5957 19.2389C55.9313 19.9948 56.2557 20.7761 56.5688 21.5348C56.8593 22.2343 57.1583 22.9564 57.4685 23.6643C57.666 24.1128 58.1398 24.6459 58.7519 24.8264C59.4824 25.0408 60.2242 25.2241 60.9434 25.4018C61.3468 25.5005 61.7642 25.6049 62.1704 25.712C62.6216 25.8305 62.9291 25.9998 63.104 26.231C63.2817 26.4623 63.3691 26.8092 63.3719 27.2859C63.3804 28.9782 63.3804 30.2813 63.3719 31.5139C63.3663 32.3911 62.8501 32.9834 62.0886 32.9834H62.0716C61.3214 32.975 60.8109 32.3939 60.8024 31.5336C60.7968 30.9413 60.7996 30.349 60.8024 29.7257C60.8024 29.4408 60.8024 29.1503 60.8024 28.8541V28.0333L60.007 27.8331C59.6798 27.7513 59.347 27.6639 59.0283 27.5792C58.2949 27.3874 57.539 27.1872 56.7747 27.0264C56.3488 26.939 56.0329 26.7923 55.81 26.578C55.5872 26.3636 55.4293 26.0562 55.3277 25.6387C54.7834 23.3738 53.8949 21.2387 52.6933 19.2869C52.2392 18.5507 52.2421 17.9894 52.7074 17.2927C53.0262 16.8161 53.3139 16.3253 53.5903 15.8514C53.7849 15.5186 53.9682 15.2055 54.1628 14.8925C54.3095 14.6555 54.4816 14.3312 54.4787 13.9194C54.4787 13.4935 54.2982 13.1042 53.9428 12.7629C53.421 12.2581 52.8964 11.7335 52.3887 11.2258C51.7936 10.6306 51.1787 10.0157 50.5582 9.42061C50.1492 9.02856 49.5879 8.98907 49.3651 8.98907C49.0831 8.98907 48.8292 9.04829 48.612 9.16676C47.7856 9.61522 46.9818 10.106 46.2033 10.5827C46.0905 10.6532 45.9776 10.7209 45.862 10.7914C45.5828 10.9606 45.3289 11.0424 45.0807 11.0424C44.8269 11.0424 44.5617 10.9578 44.2684 10.7801C42.1417 9.49958 39.874 8.56035 37.5273 7.9906C36.9124 7.84111 36.5852 7.51957 36.4357 6.91597C36.2355 6.1093 36.0381 5.32236 35.8265 4.4903C35.7363 4.13492 35.646 3.77671 35.5529 3.41568L35.3527 2.62028H27.9939L27.7936 3.4185C27.7118 3.74569 27.6244 4.0785 27.5426 4.40005C27.3536 5.13339 27.1562 5.89211 26.9926 6.65084C26.8177 7.46316 26.4369 7.85803 25.6331 8.05265C23.3597 8.60547 21.2246 9.48831 19.284 10.6814C18.9033 10.9155 18.5676 11.0311 18.2545 11.0311C17.9499 11.0311 17.634 10.9183 17.2871 10.687C16.8443 10.3909 16.3873 10.1257 15.9473 9.86625C15.5835 9.65189 15.2366 9.45164 14.9009 9.23446C14.6809 9.09343 14.3425 8.90727 13.9109 8.90727C13.4794 8.90727 13.0676 9.09907 12.7037 9.47702C11.6996 10.5206 10.6278 11.5952 9.42343 12.7601C9.0906 13.0817 8.91291 13.4258 8.87906 13.815C8.83393 14.3425 9.0906 14.7543 9.17804 14.8896C9.49112 15.3861 9.80138 15.905 10.1004 16.4071C10.3147 16.7653 10.5347 17.1376 10.7604 17.5043C11.1073 18.0712 11.1101 18.531 10.7688 19.0951C9.4883 21.2218 8.54906 23.4895 7.97649 25.8362C7.82136 26.4708 7.48289 26.8092 6.84545 26.9644C6.0557 27.159 5.28287 27.3536 4.46492 27.5623C4.11235 27.6526 3.75696 27.7428 3.39875 27.8331L2.60336 28.0333V35.3893L3.40157 35.5896C3.72875 35.6714 4.06158 35.7588 4.38312 35.8406C5.12774 36.0324 5.89493 36.2299 6.66494 36.4047C7.44905 36.5824 7.82982 36.9547 8.0188 37.736C8.57444 40.0319 9.47138 42.1896 10.6786 44.1527C11.1186 44.8663 11.1158 45.4107 10.6673 46.0933C10.3739 46.5417 10.106 46.9987 9.84369 47.4415C9.61805 47.8223 9.4065 48.1833 9.18086 48.5387C8.70419 49.2889 8.79163 50.0448 9.43471 50.6682C10.6645 51.8641 11.7391 52.9387 12.715 53.9541C13.0732 54.3264 13.4765 54.5154 13.9137 54.5154C14.3509 54.5154 14.6837 54.3293 14.9066 54.1882C15.8176 53.6128 16.7286 53.0769 17.4986 52.6313C17.7694 52.4733 18.0543 52.3916 18.3251 52.3916C18.7679 52.3916 19.1402 52.6087 19.3743 53.0008C19.5576 53.3054 19.6084 53.6354 19.5266 53.9541C19.4392 54.2898 19.2079 54.5831 18.8638 54.7975C17.4507 55.6747 15.922 56.5913 14.193 57.5955C13.9222 57.7534 13.6712 57.8324 13.4427 57.8324L13.4596 57.8126Z" fill="#0D57B7"/>
<path d="M15.324 37.6881C15.0137 37.6881 14.7063 37.5555 14.4581 37.313C12.8588 35.7589 11.2652 34.1681 9.72523 32.5801C9.55035 32.3996 9.34445 32.0978 9.35291 31.6747C9.35855 31.3447 9.5024 31.0288 9.75061 30.7862C9.996 30.5465 10.3063 30.4167 10.6306 30.4167C10.955 30.4167 11.2624 30.5437 11.5191 30.7806C11.5529 30.8201 11.6855 30.9668 11.7476 31.0401C11.8435 31.1501 11.9365 31.198 12.007 31.3137L13.7699 32.8791L13.9194 31.0542L13.9701 30.7862C14.0519 30.3688 14.1253 29.9485 14.1958 29.5424C14.3509 28.6596 14.4976 27.8247 14.7176 27.0095C15.2281 25.1198 16.0432 23.3457 17.1404 21.7351C18.2094 20.1669 19.521 18.7877 21.0384 17.6341C22.553 16.4833 24.2341 15.5892 26.0364 14.9771C27.8782 14.3509 29.8047 14.0322 31.7593 14.0322C32.0526 14.0322 32.3488 14.0407 32.6421 14.0548C34.6447 14.1535 36.605 14.5992 38.4694 15.3804C40.283 16.142 41.9527 17.1969 43.4307 18.5197C44.9087 19.8425 46.1469 21.3854 47.1087 23.1031C48.0959 24.8716 48.7615 26.7754 49.0859 28.7611C49.2241 29.6101 49.3087 30.5155 49.3397 31.528C49.3538 31.9652 49.2184 32.3516 48.9646 32.6168C48.7361 32.8537 48.4259 32.9778 48.0705 32.9778C47.7151 32.9778 47.4076 32.8509 47.182 32.6111C46.9366 32.3516 46.7956 31.9681 46.7843 31.5337C46.742 29.8583 46.4458 28.228 45.9071 26.6852C45.3769 25.1705 44.6181 23.7631 43.6535 22.4995C42.6889 21.2359 41.5325 20.1415 40.2181 19.2446C38.8783 18.3307 37.3947 17.6369 35.8068 17.1828C34.4642 16.7992 33.0793 16.6046 31.6944 16.6046C28.1631 16.6046 24.7136 17.871 21.9805 20.1725C20.6182 21.3177 19.4815 22.6772 18.6043 24.2116C17.6904 25.808 17.084 27.5454 16.802 29.3788C16.7681 29.6044 16.7512 29.8244 16.7314 30.0783C16.723 30.208 16.7117 30.3547 16.6976 30.5268L16.4579 33.2683L18.4661 31.387C18.5789 31.2827 18.6748 31.1924 18.7566 31.1106C18.9033 30.9696 19.0104 30.868 19.1176 30.775C19.3828 30.5409 19.693 30.4167 20.0202 30.4167C20.3474 30.4167 20.6661 30.5521 20.9115 30.7947C21.4135 31.2968 21.4276 32.0527 20.9482 32.5463C19.3461 34.2019 17.7384 35.8096 16.1673 37.3271C15.9248 37.5612 15.6371 37.6853 15.3296 37.6853L15.324 37.6881Z" fill="#0D57B7"/>
<path d="M55.4096 67.9183C55.4096 67.9183 55.0204 67.8563 54.8483 67.8309C54.4478 67.7688 54.0473 67.7068 53.6552 67.6334C51.6893 67.2668 49.65 66.5419 47.2328 65.3572C43.7636 63.6536 40.6497 61.5918 37.9786 59.2282C31.875 53.8241 27.7852 47.9799 25.4752 41.3629C24.7954 39.4195 24.4852 37.6172 24.5275 35.8572C24.5726 33.9026 25.2157 32.3231 26.4934 31.0256C26.7585 30.7577 27.0265 30.4813 27.2832 30.2133C28.1321 29.3389 29.0037 28.4392 29.9316 27.6297C30.9358 26.7553 31.9653 26.3125 32.9919 26.3125C34.0186 26.3125 35.0989 26.7864 36.0917 27.7256C37.8348 29.3728 39.6371 31.192 41.6087 33.2905C43.1543 34.9349 43.1656 37.1801 41.6369 38.8724C40.8133 39.7891 39.9192 40.6606 39.0561 41.5068L38.4722 42.0793C38.3369 42.2119 38.3312 42.2486 38.413 42.4234C39.5271 44.7617 41.1743 46.6825 42.6382 48.2507C44.4377 50.1771 46.271 51.7284 48.2482 52.9892C48.5529 53.1838 48.8772 53.3587 49.1931 53.5279C49.4526 53.6661 49.7065 53.8043 49.949 53.9482C49.9829 53.9679 50.0421 53.9989 50.0759 53.9989C50.09 53.9989 50.1267 53.9877 50.2057 53.9087C51.0716 53.023 51.9375 52.1628 52.8993 51.2066C53.785 50.3266 54.5973 49.8668 55.5252 49.7117C55.7706 49.6722 56.0132 49.6497 56.2473 49.6497C57.3388 49.6497 58.3317 50.0812 59.2004 50.9358C60.9576 52.6648 62.664 54.3769 64.4015 56.1228C65.3746 57.0987 65.8964 58.1395 65.9556 59.2141C66.0148 60.3028 65.5946 61.3775 64.7033 62.4013C63.4989 63.789 62.145 65.0893 60.8645 66.3021C59.9591 67.1596 58.8027 67.6616 57.3276 67.8365C57.2881 67.8422 57.2429 67.8562 57.1922 67.8732L57.0737 67.9127H55.4096V67.9183ZM32.913 28.9102C32.4504 28.9102 31.9935 29.1443 31.4773 29.652L31.0542 30.0638C30.1968 30.8987 29.3111 31.7646 28.4875 32.6587C28.0137 33.1749 27.6414 33.7333 27.4129 34.2749C27.1026 35.0082 26.846 36.0546 27.2888 38.2406C27.7711 40.6267 28.7188 43.0637 30.1799 45.6868C32.4588 49.7822 35.4176 53.4884 38.9743 56.7095C42.5536 59.9503 46.5644 62.469 50.8939 64.1924C52.7611 64.937 54.5042 65.3234 56.2247 65.377H56.3517C57.5814 65.377 58.5855 65.0103 59.3358 64.2883C60.5148 63.1488 61.6909 61.9444 62.8276 60.709C63.6004 59.8713 63.5863 58.9941 62.7853 58.1705C61.2086 56.5515 59.4796 54.8225 57.3417 52.7269C57.0145 52.4053 56.6309 52.2361 56.2332 52.2361C55.8665 52.2361 55.4886 52.3799 55.1388 52.6507C54.9611 52.7889 54.7975 52.9497 54.6283 53.1189C54.2786 53.4687 53.4465 54.2979 53.4465 54.2979C52.857 54.8874 52.2478 55.4995 51.6442 56.0946C51.2042 56.5261 50.7275 56.7461 50.2226 56.7461C49.8954 56.7461 49.5654 56.6587 49.21 56.4782C48.6149 56.1764 48.0311 55.8774 47.4669 55.5389C44.9736 54.0441 42.6607 52.1063 40.3959 49.6186C38.9461 48.025 37.1297 45.856 35.9422 43.1906C35.4289 42.0398 35.5671 41.3234 36.4753 40.449C37.4625 39.4957 38.4299 38.5621 39.3889 37.5834C40.4269 36.5257 40.4269 35.7303 39.3946 34.6416L38.1422 33.3864C36.9209 32.1623 35.6602 30.8987 34.4022 29.6577C34.123 29.3812 33.8409 29.1782 33.5673 29.0541C33.3473 28.9554 33.1273 28.9046 32.9186 28.9046L32.913 28.9102Z" fill="#0D57B7"/>
</svg>
