<svg width="59" height="66" viewBox="0 0 59 66" fill="none" xmlns="http://www.w3.org/2000/svg">
<path d="M0 45.1095C0.513638 43.6191 1.43717 42.6622 3.09448 42.6597C3.8156 42.6597 4.53418 42.6597 5.2553 42.6597C6.01184 42.6597 6.76838 42.6597 7.59071 42.6597C7.59071 41.4155 7.59071 40.2407 7.59071 39.0632C7.59071 37.0034 8.50918 36.0645 10.5283 36.0619C16.2441 36.0619 21.9624 36.0619 27.6782 36.0619H28.4803V31.2111C28.2248 31.2111 27.9971 31.2111 27.7719 31.2111C24.5964 31.2111 21.4184 31.2111 18.243 31.2111C16.5629 31.2111 15.7077 30.344 15.7026 28.6356C15.6951 26.509 15.6849 24.385 15.7026 22.2584C15.7406 17.9258 18.7162 14.9193 22.9973 14.8655C23.3237 14.8603 23.6526 14.8655 24.1233 14.8655C23.931 14.6551 23.85 14.5679 23.769 14.4807C21.4134 12.0489 20.5961 9.16811 21.6032 5.91284C22.6152 2.63961 24.9102 0.720832 28.245 0.100047C28.3235 0.0846561 28.3968 0.0333479 28.4702 0C29.1483 0 29.8264 0 30.5045 0C30.9119 0.102609 31.3193 0.19753 31.7241 0.312965C37.7385 2.0368 39.7854 9.62986 35.4688 14.2139C35.3094 14.3832 35.1247 14.532 34.9805 14.868C35.274 14.868 35.5675 14.868 35.861 14.868C39.416 14.886 42.1866 16.9151 43.0165 20.1755C43.1987 20.8938 43.2367 21.6582 43.262 22.4047C43.2847 23.0998 42.9204 23.4692 42.3486 23.4846C41.7565 23.4974 41.3719 23.1127 41.3795 22.3893C41.3972 20.609 40.8254 19.1058 39.4489 17.9617C38.4571 17.1357 37.2931 16.8022 36.028 16.8022C31.6634 16.8022 27.3012 16.7791 22.9366 16.8099C19.7789 16.8304 17.6459 19.016 17.613 22.2097C17.5902 24.3363 17.6206 26.4628 17.6003 28.5894C17.5953 29.1204 17.7774 29.3128 18.3037 29.2949C19.25 29.2615 20.1963 29.2846 21.211 29.2846C21.211 28.2508 21.211 27.2888 21.211 26.3269C21.211 25.211 21.2084 24.0926 21.211 22.9767C21.2135 22.1558 21.5475 21.7326 22.1699 21.7428C22.7746 21.7505 23.1137 22.1969 23.1162 23.0075C23.1213 24.8545 23.1162 26.7014 23.1162 28.5484C23.1162 28.7613 23.1162 28.9742 23.1162 29.2333H35.861C35.861 29.0204 35.861 28.7921 35.861 28.5663C35.861 26.6758 35.861 24.7852 35.861 22.8946C35.861 22.3764 36.0154 21.9532 36.5391 21.7839C37.2071 21.5658 37.7587 22.0302 37.7638 22.8254C37.7739 24.7159 37.7688 26.6065 37.7688 28.4971C37.7688 28.7279 37.7688 28.9614 37.7688 29.2769C38.8745 29.2769 39.9246 29.2974 40.9746 29.2538C41.1138 29.2487 41.3314 28.9255 41.3516 28.7331C41.4073 28.2226 41.3592 27.7044 41.3769 27.1888C41.3997 26.4962 41.7944 26.0652 42.3561 26.0858C42.8951 26.1063 43.2518 26.5167 43.2721 27.1863C43.2898 27.7429 43.2898 28.3047 43.2721 28.8613C43.2265 30.3235 42.341 31.2085 40.8937 31.2136C37.6524 31.2239 34.4112 31.2316 31.1725 31.2034C30.583 31.1983 30.4134 31.365 30.4311 31.955C30.4716 33.3017 30.4438 34.6485 30.4438 36.0671H31.2737C36.992 36.0671 42.7129 36.0671 48.4312 36.0671C50.458 36.0671 51.384 37.0059 51.3891 39.0504C51.3891 40.2278 51.3891 41.4053 51.3891 42.6648C52.6441 42.6648 53.8485 42.7392 55.0427 42.6494C57.9146 42.4391 59.1898 44.1167 58.9773 46.6178C58.9241 47.2566 58.9823 47.9056 58.9646 48.5494C58.9469 49.1984 58.5572 49.6166 58.0107 49.6166C57.4642 49.6166 57.0771 49.1984 57.0669 48.552C57.0543 47.6721 57.0669 46.7897 57.0619 45.9098C57.0543 44.9915 56.6798 44.599 55.7942 44.599C52.2367 44.5938 48.6767 44.5938 45.1192 44.599C44.2159 44.599 43.849 44.9735 43.849 45.8919C43.8465 51.52 43.8465 57.148 43.849 62.7736C43.849 63.6842 44.2235 64.0536 45.1293 64.0562C46.6095 64.0613 48.0871 64.0562 49.6432 64.0562C49.6432 63.3046 49.6432 62.6017 49.6432 61.8963C49.6458 61.0369 49.6154 60.175 49.6685 59.3208C49.7672 57.756 50.9463 56.6042 52.4897 56.5632C53.7599 56.5298 55.0301 56.5529 56.3028 56.5504C56.5305 56.5504 56.7582 56.5504 57.0619 56.5504C57.0619 55.414 57.0543 54.3468 57.0644 53.2797C57.0695 52.6512 57.411 52.2485 57.9297 52.2049C58.4586 52.1613 58.9393 52.5409 58.9494 53.1232C58.9798 54.6034 58.9773 56.0886 58.9393 57.5688C58.9317 57.8304 58.7242 58.1305 58.5269 58.3332C56.1712 60.7445 53.8131 63.1507 51.4194 65.5235C51.1512 65.7877 50.6832 65.9596 50.3011 65.9699C48.5451 66.016 46.7866 65.9981 45.0281 65.9878C43.1937 65.9775 41.9437 64.7283 41.9412 62.8813C41.9336 57.1686 41.9336 51.4533 41.9412 45.7405C41.9437 43.9295 43.1987 42.6751 44.9901 42.6622C46.4678 42.652 47.9429 42.6622 49.4737 42.6622C49.4737 41.2668 49.499 39.938 49.4459 38.6143C49.4383 38.404 49.0891 38.1757 48.8589 38.0192C48.7399 37.9397 48.5299 37.9987 48.3604 37.9987C42.6421 37.9987 36.9212 37.9987 31.2029 37.9987H30.4843V42.634C30.6816 42.6443 30.8815 42.6597 31.0839 42.6597C32.3971 42.6622 33.7103 42.6494 35.0235 42.6648C36.7289 42.6853 37.9965 43.9577 38.0016 45.6892C38.0168 49.555 38.0193 53.4208 37.9864 57.2866C37.9839 57.6483 37.7891 58.0946 37.5386 58.3537C35.2108 60.7599 32.8602 63.1481 30.4843 65.5055C30.2161 65.7723 29.7505 65.957 29.371 65.9673C27.5922 66.016 25.8135 65.9981 24.0347 65.9852C22.2509 65.9724 20.9832 64.7078 20.9807 62.9044C20.9706 57.1917 20.9706 51.4763 20.9807 45.7636C20.9832 43.9243 22.2484 42.6725 24.0777 42.6622C25.4972 42.6545 26.9166 42.6545 28.3361 42.6494C28.3741 42.6494 28.412 42.6212 28.4955 42.5904V38.0269C28.2678 38.0166 28.0628 37.9987 27.8579 37.9987C22.0763 37.9987 16.2922 37.9987 10.5106 37.9987C9.61237 37.9987 9.50863 38.1038 9.5061 38.9863C9.50357 40.1842 9.5061 41.3847 9.5061 42.6597C10.7586 42.6597 11.9579 42.6597 13.1598 42.6597C13.5823 42.6597 14.0099 42.6366 14.4299 42.6802C15.9051 42.8367 17.0361 44.0757 17.0437 45.5994C17.0614 49.5088 17.0614 53.4182 17.0335 57.3276C17.0335 57.6688 16.8463 58.0921 16.6085 58.3383C14.2629 60.7599 11.8997 63.1609 9.50863 65.5363C9.25307 65.7903 8.80775 65.9596 8.44593 65.9673C6.71019 66.0109 4.97191 65.9904 3.23617 65.9852C1.60417 65.9827 0.64015 65.2696 0.116391 63.6894C0.0986792 63.6329 0.0480745 63.5868 0.0101209 63.5355C0.0101209 57.3918 0.0101209 51.248 0.0101209 45.1043L0 45.1095ZM15.1333 56.5478C15.1333 56.2707 15.1333 56.1014 15.1333 55.9321C15.1333 52.605 15.1333 49.2779 15.1333 45.9509C15.1333 44.9504 14.7816 44.5964 13.7948 44.5964C10.2803 44.5939 6.76585 44.5939 3.25388 44.5964C2.28227 44.5964 1.92298 44.9684 1.91792 45.9662C1.91286 47.1899 1.91792 48.4135 1.91792 49.6371C1.91792 53.9082 1.91792 58.1793 1.91792 62.4529C1.91792 63.7586 2.20637 64.0588 3.46895 64.0588C4.69612 64.0588 5.92328 64.0588 7.15298 64.0588C7.33515 64.0588 7.51733 64.0331 7.73746 64.0152C7.73746 62.6171 7.73746 61.2678 7.73746 59.9185C7.73999 57.7073 8.8786 56.5555 11.0673 56.5529C12.3956 56.5529 13.724 56.5529 15.1359 56.5529L15.1333 56.5478ZM28.6929 64.0485C28.6929 62.5222 28.6802 61.0857 28.6954 59.6492C28.7156 57.7714 29.915 56.5683 31.7747 56.5504C33.0019 56.5375 34.2316 56.5478 35.4587 56.5478C35.6611 56.5478 35.861 56.5478 36.0963 56.5478C36.0963 52.9488 36.0963 49.4498 36.0963 45.9509C36.0963 44.9581 35.7345 44.5939 34.7528 44.5939C31.2585 44.5913 27.7668 44.5939 24.2726 44.5939C23.2149 44.5939 22.8784 44.9401 22.8784 46.0278C22.8784 49.9577 22.8784 53.8851 22.8784 57.815C22.8784 59.4901 22.8733 61.1652 22.8809 62.8377C22.8835 63.5508 23.2352 64.0254 23.8525 64.0382C25.4365 64.069 27.0204 64.0485 28.6903 64.0485H28.6929ZM29.4671 14.8603C32.974 14.8732 35.8281 12.0181 35.8534 8.47037C35.8787 4.88163 33.055 1.95983 29.5354 1.93674C26.0108 1.91365 23.1314 4.79697 23.1162 8.36776C23.1011 11.9591 25.9273 14.8501 29.4646 14.8629L29.4671 14.8603ZM34.5175 58.5102C33.5104 58.5102 32.4604 58.4589 31.4179 58.5461C31.1396 58.5692 30.6918 59.0001 30.669 59.2721C30.583 60.3443 30.6336 61.4269 30.6336 62.4401C31.9265 61.1319 33.2169 59.8262 34.5175 58.5102ZM13.557 58.5179C12.5398 58.5179 11.4746 58.4768 10.4144 58.5487C10.1614 58.5666 9.74394 58.9488 9.72623 59.1874C9.65285 60.2956 9.69333 61.4115 9.69333 62.4375C10.9736 61.1395 12.2615 59.8313 13.5545 58.5179H13.557ZM51.5763 62.376C52.8541 61.078 54.1369 59.7748 55.397 58.4974C54.4836 58.4974 53.4765 58.4743 52.472 58.5076C51.9736 58.523 51.6117 58.8514 51.5915 59.3516C51.546 60.3879 51.5789 61.4294 51.5789 62.376H51.5763Z" fill="white"/>
</svg>
