<svg width="70" height="69" viewBox="0 0 70 69" fill="none" xmlns="http://www.w3.org/2000/svg">
<path d="M0.541748 51.9077C0.934063 51.34 1.47498 51.1884 2.15262 51.2003C4.18255 51.236 6.21545 51.2122 8.32266 51.2122C8.32266 50.906 8.32266 50.6594 8.32266 50.4097C8.32266 46.011 8.32266 41.6123 8.32266 37.2137C8.32266 35.9832 8.65553 35.6533 9.88597 35.6533C14.7691 35.6533 19.6552 35.6533 24.5383 35.6533C25.7688 35.6533 26.1016 35.9862 26.1016 37.2166C26.1016 41.8442 26.1016 46.4747 26.1016 51.2122C26.3691 51.2122 26.6128 51.2122 26.8536 51.2122C28.729 51.2122 30.6044 51.2092 32.4797 51.2122C33.4843 51.2122 33.8766 51.5985 33.8796 52.5882C33.8826 57.5873 33.8826 62.5893 33.8796 67.5884C33.8796 68.5899 33.4902 68.9882 32.5035 68.9882C22.3182 68.9882 12.1329 68.9852 1.94754 69.0001C1.32043 69.0001 0.907314 68.7385 0.54472 68.2927V51.9017L0.541748 51.9077ZM20.5439 37.8943C20.5439 39.3149 20.5468 40.6761 20.5439 42.0373C20.5409 43.0389 20.1545 43.4313 19.1648 43.4372C17.9611 43.4432 16.7574 43.4372 15.5537 43.4372C14.1747 43.4372 13.8775 43.143 13.8775 41.7817C13.8775 40.4948 13.8775 39.2079 13.8775 37.9389H10.5814V51.1736H23.825V37.8973H20.5439V37.8943ZM2.81539 53.471V66.7383H16.059V53.4858H12.7659C12.7659 54.8975 12.7719 56.2617 12.7659 57.6259C12.76 58.5829 12.3677 58.9842 11.4255 58.9901C10.1535 58.999 8.87844 58.9931 7.60639 58.9901C6.46213 58.9901 6.10548 58.6364 6.10251 57.51C6.10251 56.1726 6.10251 54.8381 6.10251 53.468H2.81836L2.81539 53.471ZM18.3713 53.471V66.7383H31.6149V53.4858H28.3218C28.3218 54.8738 28.3248 56.2142 28.3218 57.5546C28.3188 58.6037 27.9414 58.9871 26.9101 58.9901C25.6588 58.9961 24.4105 58.9931 23.1593 58.9901C22.015 58.9901 21.6554 58.6364 21.6524 57.51C21.6495 56.1726 21.6524 54.8381 21.6524 53.468H18.3683L18.3713 53.471ZM18.2732 41.1844V37.9359H16.1392V41.1844H18.2732ZM10.5071 56.7403V53.4799H8.37021V56.7403H10.5071ZM26.063 56.7403V53.4799H23.9261V56.7403H26.063Z" fill="#0D57B7"/>
<path d="M67.7732 0.0957031C69.0364 0.639594 69.4614 1.59958 69.4584 2.96377C69.4317 24.0537 69.4406 45.1406 69.4406 66.2305C69.4406 68.2217 68.6619 68.9975 66.6646 68.9975C57.5195 68.9975 48.3774 68.9975 39.2323 68.9975H38.3675V66.7952H67.164V2.36638H31.6565C31.6565 4.01291 31.6565 5.64757 31.6565 7.28519C31.6565 9.33295 30.8927 10.0997 28.8598 10.0997C27.2222 10.0997 25.5845 10.0997 23.8964 10.0997V31.1629H21.6554V30.4288C21.6554 23.4384 21.6614 16.4481 21.6436 9.45478C21.6436 8.8039 21.8338 8.31945 22.2974 7.85878C24.6721 5.51678 27.0171 3.15103 29.3769 0.797146C29.6177 0.556408 29.8762 0.330498 30.1259 0.0957031C42.674 0.0957031 55.2221 0.0957031 67.7703 0.0957031H67.7732ZM29.3769 7.85584V4.24178C28.2059 5.42169 26.9695 6.66998 25.7926 7.85584H29.3769Z" fill="#0D57B7"/>
<path d="M48.2555 17.8781C45.4321 17.8781 42.6056 17.8781 39.7821 17.8781C38.6944 17.8781 38.3258 17.5095 38.3258 16.4188C38.3228 14.4037 38.3199 12.3916 38.3258 10.3765C38.3258 9.37791 38.7152 8.98856 39.7138 8.98856C45.4558 8.98559 51.1949 8.98559 56.937 8.98856C57.9356 8.98856 58.322 9.37791 58.325 10.3765C58.3309 12.4124 58.3309 14.4512 58.325 16.4871C58.325 17.4828 57.9326 17.8751 56.937 17.8751C54.0422 17.881 51.1504 17.8751 48.2555 17.8751V17.8781ZM40.6024 11.2355V15.6193H56.0662V11.2355H40.6024Z" fill="#0D57B7"/>
<path d="M48.3328 30.1019C51.1801 30.1019 54.0273 30.1019 56.8746 30.1019C57.9594 30.1019 58.3279 30.4704 58.3279 31.5641C58.3309 33.5792 58.3339 35.5913 58.3279 37.6064C58.3279 38.5991 57.9327 38.9884 56.934 38.9884C51.192 38.9914 45.4529 38.9914 39.7108 38.9884C38.7181 38.9884 38.3318 38.5961 38.3288 37.5945C38.3229 35.5586 38.3229 33.5198 38.3288 31.4839C38.3288 30.4883 38.7181 30.1049 39.7227 30.1019C42.5937 30.0989 45.4648 30.1019 48.3358 30.1019H48.3328ZM56.0484 36.7534V32.3696H40.6024V36.7534H56.0484Z" fill="#0D57B7"/>
<path d="M48.3269 60.1046C45.4796 60.1046 42.6324 60.1046 39.7851 60.1046C38.6973 60.1046 38.3288 59.736 38.3258 58.6483C38.3228 56.6332 38.3199 54.6211 38.3258 52.606C38.3258 51.6074 38.7152 51.218 39.7138 51.218C45.4558 51.2151 51.1949 51.2151 56.937 51.218C57.9356 51.218 58.325 51.6074 58.325 52.603C58.3309 54.6389 58.3309 56.6778 58.325 58.7137C58.325 59.7093 57.9326 60.1016 56.937 60.1016C54.066 60.1075 51.1949 60.1016 48.3239 60.1016L48.3269 60.1046ZM40.5787 57.8458H56.0602V53.4857H40.5787V57.8458Z" fill="#0D57B7"/>
<path d="M49.4443 20.1562V23.4048H51.6763C50.5202 24.9473 49.4621 26.359 48.3297 27.8718C47.2182 26.3917 46.1482 24.971 45.007 23.4493H47.1914V20.1562H49.4443Z" fill="#0D57B7"/>
<path d="M51.6763 44.5252C50.5053 46.0855 49.4532 47.4883 48.3297 48.9863C47.2241 47.5151 46.1631 46.1034 45.0248 44.5906H47.1974V41.2529H49.4027V44.5281H51.6763V44.5252Z" fill="#0D57B7"/>
</svg>
