<svg width="103" height="68" viewBox="0 0 103 68" fill="none" xmlns="http://www.w3.org/2000/svg">
<path d="M102.969 47.0163C102.969 48.3049 102.818 49.5896 102.481 50.8317C102.481 50.8395 102.481 50.8433 102.477 50.851C100.744 57.2319 94.9395 61.558 88.2878 61.4265C88.0904 61.4226 87.8892 61.4265 87.6338 61.4265C87.5758 61.6664 87.5139 61.8792 87.4674 62.0959C86.829 65.2612 84.2325 67.4977 81.0092 67.5055C70.5885 67.5326 60.1679 67.5364 49.7473 67.5016C46.1138 67.49 43.2581 64.584 43.2503 60.9466C43.2271 50.5686 43.2271 40.1866 43.2503 29.8086C43.2581 26.2293 45.9396 23.4742 49.5306 23.2497C49.964 23.2226 50.4012 23.2226 50.8346 23.2226C60.4504 23.2226 70.0662 23.2226 79.6819 23.2226C80.1114 23.2226 80.5371 23.2226 81.0092 23.2226V20.4598C80.3243 20.4598 79.6394 20.4598 78.9506 20.4598C77.782 20.4521 76.8533 20.0419 76.3967 18.8888C75.8434 17.4919 76.5902 16.4238 77.8439 15.4719C80.9473 13.1154 83.6443 10.2829 86.0705 7.22983C87.6609 5.22929 89.1313 5.00098 90.683 6.54492C93.8405 9.68697 96.9826 12.8446 100.14 15.9866C100.96 16.8031 101.425 17.7008 100.976 18.8655C100.57 19.9258 99.7222 20.4366 98.3292 20.4559C97.6985 20.4637 97.0677 20.4559 96.3712 20.4559C96.348 20.8197 96.3132 21.1099 96.3093 21.4001C96.3093 25.6875 96.2938 29.9711 96.3286 34.2546C96.3286 34.6493 96.526 35.1988 96.8201 35.4155C100.105 37.834 102.148 40.9992 102.787 45.0506C102.787 45.0506 102.787 45.0506 102.787 45.0545C102.876 45.6001 102.957 46.1495 102.957 46.7029V47.0163H102.969ZM57.1342 26.4343C54.7893 26.4343 52.5565 26.4266 50.32 26.4343C47.7428 26.446 46.4582 27.7538 46.4582 30.3541C46.4582 40.3646 46.4582 50.3712 46.4582 60.3817C46.4582 63.0246 47.7467 64.3015 50.4167 64.3015C59.394 64.3015 68.3713 64.3015 77.3525 64.3015C78.5907 64.3015 79.8328 64.3247 81.0711 64.2899C82.5879 64.2473 83.8842 63.2026 84.2402 61.8018C84.4066 61.1556 84.3447 60.7609 83.5708 60.4397C78.2579 58.2496 75.1004 54.2678 74.5122 48.5603C73.955 43.1429 76.0987 38.7781 80.4597 35.4929C80.7654 35.2607 81.0247 34.7577 81.0363 34.3746C81.0866 31.9987 81.0634 29.6228 81.0595 27.243C81.0595 26.9876 81.0092 26.7362 80.9898 26.5272H73.6609C73.6609 26.9838 73.6609 27.3476 73.6609 27.7113C73.6609 32.0645 73.6455 36.4139 73.6687 40.7671C73.6764 41.9705 73.3359 42.9572 72.2524 43.5531C71.1264 44.1723 70.07 43.9207 69.0523 43.2164C68.0617 42.5315 67.0286 41.9086 66.038 41.2198C65.5891 40.9102 65.2447 40.8986 64.7842 41.2237C63.8014 41.9202 62.7605 42.5315 61.7699 43.2164C60.7522 43.9168 59.6958 44.1645 58.5698 43.5493C57.436 42.934 57.1226 41.8931 57.1303 40.6665C57.1497 36.3133 57.1381 31.9639 57.1381 27.6107V26.4227L57.1342 26.4343ZM99.7532 47.1286C99.7377 41.0379 94.7731 36.1159 88.6592 36.1314C82.5493 36.1469 77.6233 41.0882 77.6349 47.1943C77.6466 53.2656 82.6692 58.2612 88.7211 58.2302C94.804 58.1954 99.7648 53.2037 99.7493 47.1325L99.7532 47.1286ZM96.4293 17.2442C93.7825 14.5936 91.1551 11.9546 88.6941 9.4858C86.1595 12.0049 83.5398 14.6052 80.9163 17.2132C80.955 17.2132 81.075 17.2365 81.1949 17.2403C83.5902 17.3293 84.2789 18.0336 84.2789 20.4095C84.2789 24.426 84.2789 28.4388 84.2789 32.4554C84.2789 32.8036 84.2789 33.1518 84.2789 33.593C87.2817 32.6759 90.1529 32.7262 93.1015 33.562C93.1015 33.1131 93.1015 32.7494 93.1015 32.3895C93.1015 28.2066 93.0937 24.0275 93.1092 19.8445C93.1169 18.2309 94.0495 17.2984 95.6476 17.2481C95.9417 17.2404 96.2319 17.2481 96.4293 17.2481V17.2442ZM60.4155 26.4962V40.2447C61.499 39.5443 62.5051 38.9522 63.4415 38.275C64.7494 37.3309 66.007 37.3116 67.3265 38.2364C68.2939 38.9174 69.3077 39.5327 70.3873 40.2331V26.4924H60.4155V26.4962Z" fill="white"/>
<path d="M53.431 6.92402C52.897 5.20982 52.4172 3.72396 51.98 2.22645C51.6549 1.11203 52.2044 0.144663 53.2182 0.0169684C54.1043 -0.0913783 54.7273 0.322642 54.9943 1.15846C55.9192 4.05674 56.8362 6.95502 57.703 9.86877C58.0242 10.9522 57.5792 11.6759 56.4725 12.0241C53.698 12.9064 50.9236 13.7693 48.1375 14.6167C47.0038 14.9611 46.1138 14.5586 45.8506 13.6377C45.5759 12.6742 46.048 11.9158 47.1934 11.5443C48.8108 11.0219 50.436 10.5305 52.0419 9.91525C43.9159 6.31272 36.0453 6.67642 28.5771 11.6178C22.0724 15.9246 17.22 25.3082 18.3925 31.0854C18.7291 31.0854 19.089 31.0854 19.4488 31.0854C23.1017 31.0854 26.7545 31.0777 30.4035 31.0854C34.126 31.097 36.4593 33.3684 36.467 37.0638C36.4864 45.2324 36.4902 53.401 36.467 61.5696C36.4554 65.1876 34.0873 67.5054 30.4499 67.5092C22.3084 67.517 14.1669 67.517 6.02545 67.5092C2.36101 67.5054 0.00833767 65.1334 0.00446815 61.4651C0.000598618 53.3313 -0.00327091 45.1937 0.00446815 37.06C0.00446815 33.4536 2.35714 31.1086 5.98676 31.0893C8.66834 31.0738 11.3461 31.0661 14.0276 31.1009C14.7242 31.1087 15.0182 30.977 15.0569 30.1838C15.6644 17.6465 23.9375 7.69797 36.1149 4.94287C41.629 3.69688 47.027 4.25799 52.2508 6.42493C52.5565 6.55262 52.8622 6.68411 53.4156 6.92015L53.431 6.92402ZM11.2687 34.4519C11.0945 34.3822 11.0326 34.3358 10.9746 34.3358C9.39968 34.3242 7.82865 34.3087 6.25376 34.3126C4.0636 34.3126 3.23165 35.1562 3.23165 37.354C3.23165 45.2866 3.23165 53.2191 3.23165 61.1516C3.23165 63.4772 4.05199 64.3091 6.35436 64.3091C14.225 64.3091 22.0956 64.3091 29.9662 64.3091C32.5124 64.3091 33.2669 63.5623 33.2669 61.0355C33.2669 53.2036 33.2669 45.3717 33.2669 37.5398C33.2669 37.1064 33.2785 36.6613 33.1973 36.2396C32.9961 35.218 32.3499 34.4518 31.3399 34.3938C29.3471 34.2777 27.3466 34.359 25.3073 34.359C25.2802 34.6957 25.2454 34.9588 25.2454 35.2181C25.2415 38.7006 25.2377 42.1793 25.2454 45.6619C25.2454 46.7106 24.8971 47.5696 23.953 48.0959C22.9662 48.6453 22.0298 48.4789 21.1205 47.8714C20.1763 47.2407 19.2205 46.6331 18.2609 46.0101C17.3245 46.6215 16.419 47.1942 15.5329 47.794C14.6119 48.417 13.66 48.6918 12.6153 48.123C11.5434 47.5387 11.2532 46.5828 11.2609 45.422C11.2919 41.7769 11.2725 38.1318 11.2725 34.4558L11.2687 34.4519ZM14.5539 34.359V44.3541C15.8076 43.7736 17.0265 42.7675 18.2532 42.7636C19.4682 42.7598 20.691 43.7581 21.9563 44.3424V34.3629H14.5539V34.359Z" fill="white"/>
<path d="M86.3221 47.6154C85.8423 47.6154 85.3895 47.6116 84.9368 47.6154C84.8052 47.6154 84.7124 47.5767 84.6234 47.48C84.2132 47.0427 83.7953 46.6132 83.3774 46.1799C83.3464 46.1489 83.3193 46.1141 83.269 46.056H86.3144C86.3182 45.9709 86.326 45.9012 86.326 45.8354C86.326 44.93 86.2834 44.0206 86.3376 43.1151C86.3956 42.1245 85.2619 41.5441 84.4609 41.9891C84.2906 41.6099 84.1203 41.2385 83.9578 40.8554C83.9346 40.8051 83.9694 40.7161 83.9965 40.658C84.2403 40.1202 84.6466 39.7603 85.2348 39.6907C85.6024 39.6481 85.9893 39.648 86.3531 39.7138C87.0844 39.8492 87.4636 40.3833 87.7035 41.0411C87.8931 41.5712 87.9512 42.1207 87.9512 42.6779C87.9512 43.7188 87.9512 44.7598 87.9512 45.8007C87.9512 45.8742 87.9512 45.9515 87.9512 46.0444C88.2298 46.0444 88.4852 46.0405 88.7367 46.0444C88.8063 46.0444 88.8915 46.0714 88.9379 46.114C89.4022 46.5784 89.8627 47.0505 90.3232 47.5226C90.3387 47.5381 90.3464 47.5613 90.3735 47.6038H87.9628C87.9589 47.6851 87.9512 47.7548 87.9512 47.8205C87.9512 49.1942 87.9512 50.5679 87.9512 51.9415C87.9512 52.7967 88.4697 53.3385 89.3171 53.412C89.8705 53.4584 90.389 53.3539 90.8611 53.0675C91.8787 52.4523 92.6797 51.632 93.1673 50.5292C93.3105 50.2003 93.3917 49.8559 93.4033 49.4728C93.1247 49.4728 92.8577 49.5038 92.5946 49.469C91.6466 49.3413 91.1358 48.8614 90.9888 47.9211C90.9307 47.5574 90.923 47.1627 90.9926 46.8028C91.1745 45.8973 91.8439 45.4059 92.8074 45.3517C93.9257 45.2859 94.7112 45.8045 95.2955 46.7022C95.8644 47.5728 96.0424 48.5441 95.876 49.5463C95.4813 51.93 94.1308 53.6055 91.9329 54.5922C91.2093 54.9173 90.4586 55.1765 89.6576 55.2113C88.934 55.2422 88.2104 55.1958 87.5603 54.8166C86.7516 54.3445 86.3221 53.6403 86.3182 52.6961C86.3182 51.0864 86.3182 49.4766 86.3182 47.8669C86.3182 47.7895 86.3182 47.716 86.3182 47.6077L86.3221 47.6154Z" fill="white"/>
</svg>
