<svg width="70" height="69" viewBox="0 0 70 69" fill="none" xmlns="http://www.w3.org/2000/svg">
<path d="M32.4425 19.5861H36.58C36.5973 19.256 36.6234 18.9549 36.6234 18.6538C36.6234 13.5782 36.6234 8.50559 36.6292 3.43003C36.6292 1.68992 37.4601 0.511485 38.9484 0.111926C39.2669 0.0250651 39.6114 0.00479896 39.9444 0.00479896C48.5291 -0.000991755 57.1138 -0.000994583 65.7015 0.00190078C67.7456 0.00190078 69.034 1.28455 69.034 3.33446C69.0369 17.956 69.0369 32.5776 69.034 47.1991C69.034 49.2288 67.7253 50.5143 65.6783 50.5143C61.6393 50.5172 57.5974 50.5259 53.5583 50.5028C53.0661 50.5028 52.8548 50.6446 52.6897 51.1079C52.4147 51.8723 52.0643 52.6164 51.6879 53.3373C51.5026 53.6935 51.5345 53.9338 51.769 54.2378C52.3886 55.034 52.9851 55.8505 53.5728 56.6699C54.4993 57.9583 54.4125 59.3336 53.3122 60.4628C52.406 61.3922 51.4795 62.3042 50.5414 63.2018C49.5454 64.1515 48.1759 64.2528 47.0409 63.4652C46.1723 62.863 45.321 62.2347 44.4843 61.5862C44.1542 61.3314 43.9023 61.314 43.5172 61.4907C42.4489 61.9771 41.3428 62.3795 40.2715 62.8631C40.0428 62.9673 39.7909 63.2423 39.7446 63.4797C39.5477 64.4439 39.4261 65.4225 39.2813 66.3954C39.0265 68.0805 37.9871 68.9896 36.2933 68.9954C35.0657 68.9983 33.8409 69.0041 32.6133 68.9954C31.1193 68.9809 30.0162 68.0139 29.7903 66.5344C29.6369 65.5355 29.5269 64.5307 29.33 63.5434C29.2779 63.2828 29.0318 62.9615 28.7914 62.8515C27.7028 62.3535 26.591 61.8989 25.4705 61.4791C25.2359 61.3922 24.8624 61.4241 24.6569 61.5601C23.8143 62.1161 23.0181 62.7385 22.1987 63.3292C20.864 64.2846 19.5176 64.192 18.3595 63.057C17.4822 62.2 16.6078 61.3372 15.7507 60.4599C14.6563 59.3394 14.5521 58.0191 15.4612 56.7365C16.0577 55.8939 16.6715 55.0601 17.3056 54.2436C17.5459 53.9338 17.5632 53.6964 17.3808 53.3431C17.0073 52.6193 16.6541 51.878 16.3819 51.1108C16.2169 50.6417 15.9998 50.5057 15.5133 50.5057C11.4975 50.5259 7.4816 50.5201 3.46574 50.5172C1.32318 50.5172 0.0405324 49.252 0.0405324 47.1268C0.0376371 32.5544 0.0405324 17.9792 0.0405324 3.40685C0.0405324 1.26428 1.3058 0.00479896 3.44837 0.00479896C11.9607 0.00479896 20.476 0.00479896 28.9883 0.00479896C31.183 0.00479896 32.4425 1.24115 32.4454 3.43583C32.457 8.48533 32.4483 13.5348 32.4483 18.5872C32.4483 18.897 32.4483 19.2068 32.4483 19.589L32.4425 19.5861ZM38.7196 12.3854C38.7196 13.364 38.682 14.3021 38.7283 15.2344C38.8412 17.5594 38.3867 19.9133 39.2437 22.2064C39.5824 23.1098 39.6027 24.1376 39.7069 25.1162C39.7504 25.5332 39.9559 25.6635 40.3005 25.7967C41.3949 26.2223 42.4836 26.6653 43.552 27.1488C43.9023 27.308 44.1426 27.3283 44.4553 27.0822C45.2516 26.4626 46.0681 25.869 46.8845 25.2755C48.1817 24.3374 49.5251 24.4272 50.663 25.5361C51.5403 26.3931 52.4118 27.2559 53.2717 28.1303C54.4154 29.2856 54.5167 30.6493 53.5612 31.9696C52.9851 32.7687 52.4031 33.5649 51.8009 34.3438C51.5519 34.6623 51.5084 34.9113 51.6908 35.305C52.1859 36.3676 52.5855 37.4766 53.0748 38.542C53.1877 38.7853 53.4917 39.0458 53.7523 39.0979C54.7396 39.3006 55.7443 39.4106 56.7374 39.5786C58.3328 39.8478 59.213 40.896 59.2246 42.5232C59.2304 43.3165 59.2304 44.1098 59.2246 44.9031C59.2159 46.1076 59.433 47.3642 58.2575 48.392C58.686 48.4123 58.8974 48.4297 59.1087 48.4297C61.1992 48.4297 63.2925 48.4326 65.383 48.4297C66.6598 48.4297 66.9639 48.1286 66.9639 46.8604C66.9639 35.6322 66.9639 24.404 66.9639 13.1758C66.9639 12.921 66.9436 12.6662 66.9291 12.3796H38.7196V12.3854ZM2.14835 12.3912C2.13098 12.6054 2.10492 12.7675 2.10492 12.9297C2.10492 24.3027 2.10203 35.6756 2.10492 47.0486C2.10492 48.0764 2.46105 48.4239 3.50917 48.4268C5.45775 48.4355 7.40343 48.4268 9.35201 48.4268C9.77473 48.4268 10.1975 48.4268 10.8663 48.4268C9.78341 47.4916 9.82105 46.429 9.83843 45.3664C9.8529 44.4283 9.83843 43.4902 9.84132 42.5521C9.85001 40.867 10.7794 39.8044 12.4414 39.5583C13.4142 39.4135 14.3928 39.2919 15.357 39.095C15.5944 39.0458 15.8753 38.7939 15.9795 38.5652C16.4746 37.4736 16.935 36.3676 17.3606 35.2471C17.4503 35.0097 17.4387 34.6333 17.3056 34.4335C16.7178 33.5562 16.0519 32.731 15.4409 31.8682C14.5579 30.629 14.6621 29.2856 15.7218 28.2027C16.5788 27.3254 17.4503 26.4626 18.3218 25.5998C19.5176 24.4127 20.8495 24.3056 22.2103 25.2929C23.0268 25.8864 23.823 26.5089 24.654 27.0822C24.8335 27.2038 25.1549 27.2733 25.346 27.198C26.5533 26.7348 27.7462 26.231 28.9333 25.7185C29.0955 25.649 29.2894 25.4463 29.3126 25.2842C29.7295 22.1948 30.7111 19.1721 30.3665 15.9872C30.2594 15.0115 30.352 14.0183 30.3491 13.031C30.3491 12.8225 30.326 12.6141 30.3115 12.3883H2.14835V12.3912ZM57.1602 44.3299C57.1602 43.8 57.1283 43.2701 57.1689 42.7432C57.2239 42.0164 56.8909 41.6951 56.1931 41.6024C54.9539 41.4374 53.7263 41.2086 52.4871 41.0494C51.8182 40.9625 51.5171 40.6006 51.2855 39.9955C50.718 38.4986 50.1187 37.0075 49.4382 35.5569C49.1313 34.8997 49.1313 34.4045 49.5714 33.84C50.3387 32.8526 51.0539 31.8248 51.8124 30.8346C52.183 30.3481 52.1888 29.9602 51.7227 29.523C50.8975 28.7499 50.0984 27.9508 49.3195 27.1314C48.8852 26.6711 48.503 26.6595 48.0108 27.0359C47.0033 27.8147 45.958 28.5472 44.9475 29.3203C44.4235 29.7199 43.9515 29.7025 43.3522 29.4303C41.8727 28.7586 40.3642 28.1448 38.8441 27.5657C38.2737 27.3486 37.8916 27.0822 37.8047 26.4365C37.6397 25.1973 37.437 23.9668 37.2401 22.7334C37.0924 21.804 36.9564 21.6881 36.0356 21.6852C35.0252 21.6823 34.0147 21.6823 33.0071 21.6852C32.1124 21.6881 31.9358 21.8561 31.8084 22.7536C31.6318 23.99 31.4291 25.2234 31.267 26.4626C31.1859 27.0764 30.824 27.3428 30.2797 27.5541C28.7422 28.1506 27.2106 28.776 25.705 29.4477C25.1346 29.7025 24.6771 29.7315 24.1705 29.3464C23.1773 28.5878 22.1437 27.8813 21.1622 27.1082C20.6063 26.671 20.1835 26.645 19.6826 27.1922C18.953 27.9884 18.18 28.7528 17.3895 29.4883C16.906 29.9399 16.8713 30.3308 17.2766 30.852C18.0555 31.8595 18.7851 32.9048 19.5581 33.9181C19.9606 34.4451 19.9345 34.917 19.6595 35.5135C18.9849 36.993 18.3682 38.4986 17.7833 40.0158C17.5632 40.5862 17.2824 40.9567 16.6396 41.0407C15.4265 41.2 14.2162 41.4084 13.0059 41.5937C12.0476 41.7414 11.9202 41.8833 11.9173 42.8416C11.9173 43.8029 11.9173 44.7642 11.9173 45.7283C11.9173 46.7764 12.0331 46.8894 13.0899 47.0457C14.2538 47.2165 15.412 47.4279 16.5817 47.5756C17.2505 47.6595 17.5603 48.0185 17.792 48.6237C18.3624 50.1206 18.9617 51.6088 19.6363 53.0622C19.9403 53.7166 19.9519 54.2146 19.5118 54.7821C18.733 55.7897 18.0033 56.8349 17.2303 57.8454C16.8684 58.3173 16.9031 58.6822 17.3374 59.0933C18.1568 59.8693 18.9617 60.6655 19.7377 61.4878C20.172 61.9452 20.5513 61.9713 21.0493 61.5949C22.0829 60.8131 23.1542 60.0748 24.1878 59.2931C24.6945 58.9109 25.1549 58.9312 25.7224 59.186C27.2308 59.8577 28.7567 60.483 30.2941 61.0824C30.8414 61.2966 31.1917 61.5746 31.2699 62.1855C31.4349 63.4479 31.6492 64.7045 31.8142 65.9669C31.9011 66.6183 32.179 66.9628 32.8826 66.9426C33.9886 66.9136 35.0946 66.9223 36.2007 66.9397C36.8058 66.9484 37.1301 66.7139 37.214 66.0856C37.3878 64.8 37.6281 63.5232 37.7989 62.2376C37.8887 61.563 38.2708 61.2822 38.8731 61.0564C40.3729 60.4918 41.8582 59.8837 43.3204 59.2265C43.911 58.9601 44.3887 58.9109 44.9186 59.3162C45.9117 60.0748 46.9453 60.7813 47.9298 61.5486C48.4625 61.9626 48.8708 61.9886 49.3543 61.4704C50.11 60.6626 50.9004 59.8866 51.7082 59.1338C52.2004 58.6763 52.1888 58.2652 51.8009 57.7585C51.0104 56.7278 50.2518 55.6739 49.473 54.6373C49.1313 54.1828 49.1313 53.7572 49.363 53.2331C50.0521 51.6812 50.7006 50.109 51.326 48.531C51.5316 48.0099 51.8067 47.6827 52.3857 47.6016C53.6713 47.4221 54.9481 47.1962 56.2337 47.0196C56.8967 46.927 57.2181 46.6201 57.1718 45.9223C57.137 45.3954 57.166 44.8655 57.166 44.3356L57.1602 44.3299ZM30.3491 10.2283C30.3491 7.91204 30.352 5.65653 30.3491 3.40105C30.3491 2.4311 29.9814 2.06919 28.9796 2.06919C20.4905 2.0663 12.0042 2.0663 3.51496 2.06919C2.44658 2.06919 2.10782 2.42533 2.10492 3.52267C2.09913 5.54363 2.10492 7.56171 2.10492 9.58267C2.10492 9.79113 2.13098 9.9996 2.14546 10.2312H30.3491V10.2283ZM38.7225 10.2109H66.9667C66.9667 8.03073 66.9667 5.89685 66.9667 3.76297C66.9667 2.33845 66.7004 2.06919 65.2903 2.06629C56.9951 2.06629 48.6999 2.06629 40.4047 2.06629C40.1876 2.06629 39.9704 2.05183 39.7562 2.07789C39.1221 2.15606 38.7312 2.50061 38.7254 3.16075C38.7138 5.49151 38.7196 7.81937 38.7196 10.2109H38.7225Z" fill="#0D57B7"/>
<path d="M58.8539 20.663C60.125 20.663 61.396 20.6572 62.6671 20.663C63.5357 20.6688 64.0076 21.0481 64.0047 21.7198C64.0047 22.3886 63.5328 22.7737 62.6613 22.7766C60.1192 22.7853 57.577 22.7853 55.0349 22.7766C54.1605 22.7766 53.6973 22.3915 53.6973 21.714C53.6973 21.0365 54.1605 20.6659 55.0378 20.6601C56.3089 20.6514 57.5799 20.6601 58.851 20.6601L58.8539 20.663Z" fill="#0D57B7"/>
<path d="M58.851 18.0659C57.5539 18.0659 56.2539 18.0717 54.9567 18.0659C54.12 18.0601 53.6915 17.6924 53.703 17.0149C53.7146 16.3605 54.12 16.0102 54.9249 16.0073C57.5452 16.0015 60.1655 16.0015 62.7858 16.0073C63.5791 16.0073 63.9932 16.3692 64.0018 17.0206C64.0105 17.6924 63.5762 18.063 62.7453 18.0688C61.4481 18.0775 60.1481 18.0688 58.851 18.0688V18.0659Z" fill="#0D57B7"/>
<path d="M9.42728 22.7822C8.15622 22.7822 6.88226 22.7909 5.6112 22.7822C4.76286 22.7735 4.25906 22.3537 4.27644 21.6993C4.29091 21.0681 4.77733 20.6715 5.58514 20.6686C8.15332 20.6599 10.7215 20.6628 13.2897 20.6686C14.1351 20.6686 14.636 21.0884 14.6187 21.7457C14.6042 22.3798 14.1264 22.7735 13.3157 22.7822C12.0186 22.7938 10.7244 22.7851 9.42728 22.7851V22.7822Z" fill="#0D57B7"/>
<path d="M9.50256 16.0016C10.7736 16.0016 12.0447 15.9958 13.3158 16.0016C14.138 16.0045 14.6042 16.3751 14.6158 17.0121C14.6273 17.6548 14.1583 18.0602 13.3534 18.0631C10.7389 18.0689 8.12437 18.0689 5.50986 18.0631C4.75707 18.0631 4.28802 17.6635 4.27644 17.0526C4.26196 16.4185 4.74549 16.0103 5.54461 16.0045C6.86489 15.9958 8.18228 16.0045 9.50256 16.0045V16.0016Z" fill="#0D57B7"/>
<path d="M34.5821 30.3886C42.2983 30.3771 48.5638 36.631 48.5899 44.3645C48.613 52.072 42.3533 58.3694 34.6343 58.4012C26.9181 58.4331 20.5657 52.098 20.5773 44.379C20.586 36.6716 26.866 30.3973 34.585 30.3857L34.5821 30.3886ZM22.688 44.379C22.6822 50.9717 28.0068 56.2992 34.5966 56.2992C41.143 56.2992 46.4907 50.9775 46.5081 44.4398C46.5255 37.8558 41.1922 32.4907 34.6227 32.4791C28.0357 32.4675 22.6938 37.7921 22.688 44.379Z" fill="#0D57B7"/>
<path d="M5.29853 5.13195C5.87181 5.12327 6.36113 5.59809 6.36113 6.16848C6.36113 6.72439 5.85444 7.22239 5.29853 7.2137C4.77447 7.20501 4.29384 6.73307 4.26779 6.20322C4.24173 5.65021 4.72815 5.14064 5.29564 5.13195H5.29853Z" fill="#0D57B7"/>
<path d="M9.47647 7.21065C8.90898 7.22802 8.42257 6.7561 8.41388 6.17992C8.40519 5.59506 8.86266 5.12891 9.44752 5.12891C9.99764 5.12891 10.4464 5.56029 10.4696 6.1162C10.4927 6.70396 10.0498 7.19328 9.47937 7.21065H9.47647Z" fill="#0D57B7"/>
<path d="M13.5821 7.21094C13.0175 7.21383 12.5368 6.71584 12.5484 6.13677C12.56 5.56928 12.9914 5.15234 13.5734 5.15234C14.1467 5.15234 14.5983 5.57506 14.6186 6.12808C14.6389 6.68688 14.1438 7.20515 13.5821 7.21094Z" fill="#0D57B7"/>
<path d="M50.1562 5.12922C50.7237 5.11474 51.2246 5.60115 51.2246 6.16285C51.2246 6.6898 50.7614 7.17912 50.2344 7.20807C49.6785 7.23992 49.1631 6.76798 49.1371 6.20339C49.111 5.64169 49.5859 5.1437 50.1591 5.12922H50.1562Z" fill="#0D57B7"/>
<path d="M41.9248 5.12891C42.5096 5.12891 42.9555 5.59214 42.941 6.18858C42.9295 6.7416 42.4894 7.19618 41.9508 7.21355C41.3949 7.23092 40.8911 6.74452 40.8824 6.17992C40.8738 5.60375 41.3428 5.12891 41.9219 5.1318L41.9248 5.12891Z" fill="#0D57B7"/>
<path d="M47.0843 6.18864C47.0698 6.76192 46.5718 7.23387 46.0101 7.21071C45.4397 7.18755 44.9967 6.69246 45.0257 6.1076C45.0518 5.55458 45.5063 5.12317 46.0564 5.12896C46.6413 5.13475 47.0988 5.60667 47.0843 6.18864Z" fill="#0D57B7"/>
<path d="M30.3347 46.2326H27.5986C27.5986 46.7364 27.6101 47.2112 27.5986 47.6831C27.5754 48.4186 27.1469 48.8963 26.536 48.8905C25.954 48.8818 25.511 48.4273 25.4994 47.7324C25.4792 46.1949 25.4473 44.6546 25.5081 43.1201C25.5863 41.1483 27.1208 39.692 28.9941 39.7151C30.9137 39.7412 32.373 41.2497 32.3991 43.2648C32.4193 44.7067 32.4078 46.1486 32.3991 47.5876C32.3962 48.4012 32.0053 48.8818 31.3741 48.8847C30.74 48.8905 30.3463 48.407 30.3347 47.6021C30.3289 47.1707 30.3347 46.7422 30.3347 46.2297V46.2326ZM30.2912 44.0871C30.3781 43.2822 30.4621 42.4686 29.6803 42.0777C29.2837 41.878 28.6206 41.8809 28.224 42.0835C27.4393 42.4831 27.5609 43.3025 27.6449 44.0871H30.2912Z" fill="#0D57B7"/>
<path d="M35.804 45.7569C35.804 46.4547 35.8156 47.0511 35.8011 47.6505C35.7808 48.4004 35.3755 48.8723 34.7704 48.8897C34.1363 48.9042 33.6991 48.4149 33.6962 47.6244C33.6846 45.4182 33.6846 43.209 33.6962 41.0027C33.6991 40.1139 34.0871 39.7317 34.9701 39.7143C35.7374 39.6998 36.5076 39.694 37.272 39.7143C39.0468 39.7693 40.3352 41.0751 40.3208 42.7805C40.3063 44.4771 38.9802 45.7366 37.1909 45.754C36.7624 45.7569 36.3339 45.754 35.804 45.754V45.7569ZM35.8416 43.6549C36.3918 43.6549 36.9129 43.6925 37.4254 43.6433C37.9495 43.5912 38.2448 43.2292 38.2245 42.711C38.2043 42.2014 37.9031 41.8626 37.3617 41.8395C36.8695 41.8192 36.3744 41.8337 35.8445 41.8337V43.652L35.8416 43.6549Z" fill="#0D57B7"/>
<path d="M41.8697 44.3128C41.8697 43.1836 41.861 42.0573 41.8726 40.9281C41.8813 40.1869 42.3011 39.715 42.912 39.7208C43.523 39.7265 43.9312 40.1985 43.9341 40.9484C43.9428 43.1807 43.9428 45.4101 43.9341 47.6425C43.9341 48.401 43.5374 48.8672 42.9294 48.8846C42.2953 48.9019 41.8784 48.4184 41.8726 47.6222C41.8639 46.5191 41.8726 45.4159 41.8726 44.3099L41.8697 44.3128Z" fill="#0D57B7"/>
</svg>
