<svg width="83" height="69" viewBox="0 0 83 69" fill="none" xmlns="http://www.w3.org/2000/svg">
<path d="M76.623 0.00343906C76.7948 0.061846 76.9597 0.133992 77.135 0.171785C79.9763 0.779904 82.0515 3.20551 82.0618 6.09837C82.0892 15.8729 82.0755 25.6476 82.0721 35.4221C82.0721 36.2948 81.6082 36.8342 80.8971 36.8513C80.1584 36.8685 79.6739 36.3085 79.6739 35.3912C79.6705 29.3272 79.6739 23.2666 79.6739 17.2026C79.6739 16.8865 79.6739 16.5705 79.6739 16.2097H2.40156C2.40156 16.4743 2.40156 16.7525 2.40156 17.0308C2.40156 30.0384 2.40156 43.0425 2.40156 56.0501C2.40156 58.7059 3.92357 60.2416 6.56219 60.2416C18.9067 60.2416 31.2477 60.2416 43.5922 60.2416H44.4202C43.8808 58.9155 43.3654 57.6649 42.8638 56.4109C42.2282 54.827 42.6989 53.7103 44.2656 53.0678C45.7601 52.4563 45.8941 52.233 45.6502 50.5976C45.6227 50.4155 45.4131 50.2094 45.2345 50.1166C44.8119 49.8933 44.348 49.7456 43.9186 49.536C42.7882 48.976 42.3347 47.9006 42.7848 46.7256C43.3036 45.3822 43.8567 44.0526 44.4546 42.7436C44.9527 41.6476 46.0556 41.2113 47.1997 41.572C47.3509 41.6201 47.5123 41.6648 47.6429 41.7507C48.5465 42.3416 49.2542 42.2901 49.9998 41.3762C50.4224 40.8609 50.5873 40.5138 50.2712 39.9366C50.0925 39.6136 49.9654 39.2529 49.8589 38.899C49.5188 37.779 49.9551 36.7105 51.0271 36.2329C52.367 35.6385 53.7275 35.0854 55.1018 34.5735C56.239 34.1509 57.3144 34.6251 57.8572 35.7039C57.9397 35.8688 58.0324 36.0406 58.0702 36.2192C58.2833 37.2293 58.8295 37.6209 59.9118 37.5282C60.5852 37.4732 61.0043 37.3805 61.1864 36.6864C61.2792 36.3291 61.451 35.989 61.6262 35.6592C62.1656 34.6525 63.2066 34.1955 64.2683 34.5975C65.6872 35.1369 67.0924 35.7245 68.4701 36.3635C69.4733 36.8273 69.8684 37.858 69.573 38.9196C69.5146 39.1258 69.4665 39.3422 69.3531 39.5175C68.7518 40.4417 68.8858 41.1391 69.7654 41.8709C70.2567 42.2798 70.5831 42.4275 71.1328 42.1321C71.4592 41.9568 71.8131 41.8194 72.1669 41.7095C73.2904 41.3556 74.3795 41.7713 74.8605 42.833C75.4755 44.1901 76.0493 45.5746 76.5612 46.9764C76.9769 48.1067 76.4684 49.1753 75.3759 49.7112C75.2316 49.7834 75.0873 49.8623 74.9361 49.8967C73.9329 50.1372 73.4588 50.6526 73.5756 51.7898C73.6408 52.4357 73.7474 52.8205 74.383 52.9957C74.6647 53.0747 74.9258 53.2156 75.1938 53.3358C76.489 53.9337 76.9597 55.0468 76.4375 56.3662C75.9359 57.6271 75.3931 58.8673 74.864 60.1282C77.5404 60.6436 79.6533 58.9326 79.6602 56.2768C79.6705 51.6283 79.6602 46.9832 79.6636 42.3347C79.6636 42.0667 79.6327 41.7919 79.6877 41.5343C79.8182 40.9158 80.203 40.5413 80.8593 40.5379C81.512 40.5379 81.9003 40.9089 82.0411 41.5239C82.0927 41.7541 82.0686 42.0014 82.0686 42.2419C82.0686 46.863 82.0721 51.484 82.0686 56.1016C82.0652 60.0149 79.4472 62.6294 75.5374 62.6398C73.3522 62.6432 71.1637 62.6398 68.8687 62.6398C69.0576 63.1139 69.2294 63.4952 69.3668 63.8903C69.7894 65.11 69.3531 66.2232 68.1712 66.7488C66.8553 67.3329 65.5223 67.8826 64.1721 68.3774C63.0039 68.8068 61.9285 68.3018 61.3823 67.1714C61.3376 67.0752 61.2792 66.9791 61.2551 66.8794C61.0112 65.8316 60.5199 65.2509 59.2796 65.4158C58.6681 65.4948 58.2833 65.5498 58.1287 66.1854C58.0599 66.4671 57.9122 66.7282 57.7885 66.9962C57.1804 68.3293 56.0535 68.7931 54.693 68.2503C53.5557 67.7933 52.4323 67.302 51.3019 66.8244C49.6837 66.1441 49.2439 65.0619 49.9173 63.4162C50.0067 63.1998 50.0891 62.9799 50.2231 62.6398H49.213C35.319 62.6398 21.425 62.5676 7.5345 62.6844C3.40822 62.7187 0.745547 60.8566 0 57.3659C0 40.0053 0 22.6448 0 5.28759C0.0618426 5.08832 0.130556 4.88906 0.188963 4.68978C0.872668 2.36725 2.37751 0.872719 4.71378 0.223371C4.96115 0.154657 5.20509 0.0755855 5.45246 0C21.109 0 36.7654 0 52.4219 0C52.5147 0.0515355 52.604 0.10649 52.7002 0.15459C53.2878 0.439753 53.5179 0.924197 53.3736 1.53919C53.2259 2.17136 52.7621 2.44281 52.123 2.4325C51.8825 2.42907 51.642 2.4325 51.4015 2.4325C36.628 2.4325 21.8545 2.4325 7.08098 2.4325C6.78551 2.4325 6.49348 2.42564 6.19801 2.43938C3.94762 2.53902 2.41873 4.11255 2.40843 6.36637C2.39812 8.60988 2.40499 10.8534 2.40843 13.0969C2.40843 13.2996 2.44622 13.5024 2.47027 13.7119H79.6739C79.6739 13.4096 79.6739 13.1484 79.6739 12.8908C79.6739 10.8328 79.6739 8.77824 79.6739 6.72025C79.6739 3.92359 78.176 2.43938 75.3553 2.43594C71.3733 2.43594 67.3947 2.43594 63.4128 2.43594C61.7568 2.43594 60.0973 2.48401 58.4447 2.39811C58.0359 2.3775 57.5068 1.99958 57.2938 1.63196C57.0086 1.14409 57.2319 0.594363 57.7404 0.243921C57.8435 0.171772 57.9363 0.0824602 58.0359 0.00343906C64.2339 0.00343906 70.4319 0.00343906 76.6299 0.00343906H76.623ZM45.0867 47.4161C45.8701 47.7528 46.5984 48.0724 47.3268 48.3781C47.9521 48.6393 48.1823 49.1031 48.1548 49.7731C48.1101 50.8381 48.0827 51.9067 48.1308 52.9683C48.1651 53.7585 47.8593 54.2257 47.1413 54.4972C46.4473 54.7583 45.767 55.0641 45.0352 55.3664C45.5231 56.5586 45.9938 57.7027 46.4816 58.8949C47.265 58.5754 47.9624 58.3142 48.6392 58.0153C49.3607 57.6992 49.8898 57.8917 50.4018 58.4723C51.0339 59.1869 51.7245 59.8534 52.4323 60.4959C53.1331 61.1315 53.274 61.5816 52.9133 62.4714C52.6384 63.1517 52.3567 63.8285 52.0646 64.5397C53.2671 65.0448 54.394 65.5189 55.5759 66.0171C55.892 65.2784 56.2047 64.5775 56.4898 63.8629C56.7647 63.1689 57.2457 62.9111 57.9912 62.9489C59.0288 63.0005 60.0698 63.0108 61.1074 62.9593C61.8907 62.9215 62.3752 63.2101 62.6535 63.9316C62.9249 64.6393 63.2272 65.3368 63.5296 66.0651C64.7527 65.5635 65.8762 65.1032 67.058 64.6153C66.7523 63.856 66.4912 63.1654 66.1957 62.4852C65.8693 61.7362 66.0617 61.1864 66.6767 60.6573C67.4222 60.0183 68.1197 59.314 68.7725 58.5787C69.2913 57.9981 69.8307 57.8263 70.5453 58.1355C71.2462 58.4379 71.9574 58.7196 72.7166 59.0323C73.2217 57.8195 73.6958 56.6788 74.1837 55.5107C73.421 55.1877 72.7647 54.8922 72.0948 54.6311C71.3802 54.3528 71.0709 53.8821 71.1225 53.0885C71.1878 52.0784 71.2084 51.0615 71.1397 50.0514C71.0813 49.1925 71.4008 48.6874 72.1944 48.4022C72.8644 48.1617 73.5206 47.8662 74.2352 47.5742C73.7405 46.3682 73.2732 45.2241 72.7922 44.0457C72.0295 44.3515 71.3355 44.6127 70.6518 44.9013C69.944 45.2002 69.3978 45.0662 68.879 44.4718C68.2159 43.7125 67.4978 42.9876 66.7454 42.3142C66.1613 41.7919 66.0067 41.249 66.3159 40.5379C66.6183 39.8404 66.8966 39.1292 67.2023 38.3871C65.9998 37.8821 64.8764 37.4148 63.6945 36.92C63.3544 37.7103 63.0383 38.4421 62.7222 39.1704C62.4405 39.8232 61.9492 40.0363 61.2448 39.9916C60.2347 39.9298 59.2178 39.8954 58.2111 39.9641C57.3831 40.0191 56.8918 39.7168 56.6032 38.9712C56.3352 38.2807 56.0466 37.5969 55.7511 36.8651C54.5349 37.3633 53.3874 37.834 52.2124 38.315C52.5319 39.112 52.8171 39.8267 53.1091 40.5413C53.3736 41.1906 53.2259 41.7026 52.6968 42.1801C51.9272 42.8741 51.1782 43.5991 50.4808 44.3653C49.9585 44.9425 49.4157 45.1074 48.7045 44.7879C48.0105 44.4786 47.2993 44.1969 46.5641 43.8911C46.059 45.0936 45.5883 46.2171 45.0902 47.4024L45.0867 47.4161Z" fill="white"/>
<path d="M22.1053 38.662C17.7523 38.662 13.3958 38.662 9.04276 38.662C6.81299 38.662 5.77197 37.6107 5.77197 35.3638C5.77197 31.4368 5.77197 27.5132 5.77197 23.5862C5.77197 21.5385 6.88514 20.4219 8.93625 20.4082C9.81923 20.4013 10.6988 20.391 11.5817 20.4116C12.475 20.4322 12.9801 20.8857 12.9835 21.6141C12.9835 22.3459 12.4819 22.7891 11.5852 22.8063C10.7297 22.8234 9.8742 22.8303 9.02215 22.8063C8.4209 22.7891 8.15979 22.9849 8.16666 23.6342C8.18727 27.5853 8.18727 31.5398 8.16666 35.4909C8.16666 36.1024 8.40372 36.2708 8.97405 36.2673C17.7351 36.257 26.4996 36.257 35.2606 36.2673C35.8309 36.2673 36.0749 36.1024 36.0714 35.4909C36.0508 31.5398 36.0439 27.5853 36.0749 23.6342C36.0817 22.8234 35.6454 22.8063 35.0545 22.8063C29.657 22.8131 24.2629 22.8097 18.8654 22.8097C18.6249 22.8097 18.3844 22.8166 18.1439 22.8097C17.2507 22.7788 16.7525 22.339 16.7628 21.6038C16.7731 20.8754 17.2816 20.415 18.1749 20.415C23.9709 20.4047 29.7669 20.3944 35.5664 20.4219C37.322 20.4288 38.4558 21.6278 38.4627 23.3766C38.473 27.4891 38.473 31.6016 38.4627 35.7141C38.4558 37.5076 37.3049 38.6517 35.4874 38.6586C31.0278 38.6723 26.5648 38.662 22.1053 38.662Z" fill="white"/>
<path d="M31.0209 56.7511C29.6329 56.7511 28.2449 56.7648 26.8568 56.7476C25.1733 56.727 24.0155 55.6379 23.9949 53.9544C23.9571 51.0203 23.9571 48.0828 23.9949 45.1487C24.0155 43.4343 25.1905 42.3177 26.9049 42.3108C29.6535 42.2971 32.4021 42.3005 35.1541 42.3108C36.9372 42.3177 38.1122 43.4789 38.1259 45.2724C38.1466 48.1274 38.15 50.9825 38.1259 53.8375C38.1122 55.5897 36.9406 56.7305 35.1919 56.7476C33.8038 56.7614 32.4158 56.7476 31.0278 56.7476L31.0209 56.7511ZM35.721 49.5945C35.721 48.234 35.7072 46.8699 35.7278 45.5094C35.7381 44.9356 35.5354 44.6986 34.9342 44.7021C32.3437 44.7227 29.7531 44.7261 27.1626 44.7021C26.5511 44.6952 26.3758 44.9391 26.3793 45.5094C26.393 48.1789 26.3999 50.8485 26.3793 53.518C26.3758 54.1296 26.5648 54.3666 27.2073 54.3598C29.7703 54.3323 32.3368 54.3323 34.8998 54.3598C35.532 54.3666 35.7484 54.1433 35.7347 53.5215C35.7038 52.2125 35.7244 50.9035 35.7244 49.5979L35.721 49.5945Z" fill="white"/>
<path d="M58.5959 26.9257C63.6395 26.9257 68.6866 26.9189 73.7302 26.936C74.1116 26.936 74.6097 26.9841 74.8399 27.2177C75.1148 27.4926 75.3347 28.0389 75.2522 28.3893C75.1663 28.7432 74.7128 29.0524 74.3589 29.2791C74.1665 29.4028 73.8401 29.3273 73.5722 29.3273C63.564 29.3273 53.5523 29.3273 43.5441 29.3273C43.3586 29.3273 43.1696 29.3341 42.9841 29.3238C42.2454 29.2757 41.7369 28.7844 41.7369 28.1248C41.7369 27.4686 42.2454 26.9498 42.9841 26.9326C44.1316 26.9051 45.2791 26.9223 46.4267 26.9223C50.4842 26.9223 54.5418 26.9223 58.5994 26.9223L58.5959 26.9257Z" fill="white"/>
<path d="M52.5559 21.7931C55.6515 21.7931 58.7471 21.7931 61.8461 21.7931C62.8493 21.7931 63.4093 22.2329 63.4059 22.9921C63.4059 23.7514 62.8356 24.1946 61.8392 24.1946C55.6481 24.1946 49.4535 24.1946 43.2624 24.1946C42.3485 24.1946 41.8228 23.8064 41.7472 23.1055C41.6648 22.3324 42.2385 21.7965 43.1868 21.7931C46.3098 21.7862 49.4329 21.7931 52.5559 21.7931Z" fill="white"/>
<path d="M13.5917 43.5919C15.3542 43.5919 17.1167 43.585 18.8792 43.5919C19.8 43.5953 20.3566 44.066 20.3497 44.8047C20.3394 45.5399 19.7862 45.99 18.8517 45.99C15.3267 45.9934 11.8017 45.9934 8.28008 45.99C7.34213 45.99 6.78555 45.5468 6.76494 44.815C6.74432 44.0592 7.32495 43.5919 8.30757 43.5884C10.0701 43.585 11.8326 43.5884 13.5951 43.5884L13.5917 43.5919Z" fill="white"/>
<path d="M13.5161 51.1264C11.7536 51.1264 9.99105 51.1333 8.22854 51.1264C7.30777 51.123 6.74431 50.6454 6.76149 49.9101C6.77523 49.2058 7.32494 48.7317 8.19418 48.7317C11.7707 48.7248 15.3507 48.7248 18.9273 48.7317C19.8 48.7317 20.336 49.2024 20.3497 49.9136C20.3634 50.6523 19.8034 51.123 18.8861 51.1298C17.0961 51.1367 15.3095 51.1298 13.5195 51.1298L13.5161 51.1264Z" fill="white"/>
<path d="M71.0125 21.7923C71.9986 21.7923 72.9812 21.782 73.9673 21.7923C74.809 21.8061 75.3518 22.3076 75.3312 23.0188C75.3106 23.7025 74.7884 24.1801 73.981 24.187C71.9574 24.2007 69.9337 24.2007 67.9135 24.187C67.1165 24.1801 66.5908 23.6785 66.5839 22.9948C66.5771 22.3077 67.0993 21.8095 67.8964 21.7958C68.934 21.7786 69.9715 21.7923 71.0091 21.7923H71.0125Z" fill="white"/>
<path d="M23.9228 5.89941C25.1356 5.91316 26.1114 6.88542 26.1182 8.09135C26.1251 9.3282 25.115 10.3177 23.8644 10.3039C22.6585 10.2902 21.6724 9.30761 21.6656 8.11199C21.6587 6.88888 22.6791 5.88567 23.9263 5.90285L23.9228 5.89941Z" fill="white"/>
<path d="M17.1166 5.89933C18.3707 5.93369 19.2983 6.94034 19.2468 8.21155C19.1952 9.42436 18.2092 10.3313 16.9723 10.297C15.7595 10.266 14.8078 9.27313 14.8285 8.06376C14.8491 6.82347 15.8626 5.86498 17.1201 5.89933H17.1166Z" fill="white"/>
<path d="M10.1801 5.89552C11.41 5.89208 12.372 6.8266 12.3926 8.04971C12.4167 9.30718 11.4513 10.2966 10.1938 10.3035C8.93633 10.3069 7.9709 9.33116 7.98464 8.06682C7.99838 6.84371 8.95351 5.89895 10.1801 5.89552Z" fill="white"/>
<path d="M59.6129 59.1522C55.3595 59.1316 51.9341 55.6924 51.9409 51.4493C51.9478 47.2302 55.435 43.7602 59.6575 43.7705C63.9144 43.7843 67.3569 47.2852 67.326 51.5764C67.2951 55.7714 63.8319 59.1728 59.6129 59.1522ZM59.6678 56.7506C62.5985 56.7369 64.9451 54.3559 64.921 51.4218C64.897 48.5427 62.5195 46.1824 59.6438 46.1755C56.7337 46.1721 54.339 48.5736 54.3459 51.4837C54.3528 54.4074 56.7337 56.7609 59.6678 56.7472V56.7506Z" fill="white"/>
<path d="M61.3789 51.5051C61.3617 52.4533 60.5612 53.2195 59.6095 53.2057C58.6612 53.192 57.8779 52.388 57.8951 51.4466C57.9122 50.5087 58.7299 49.7184 59.6679 49.7356C60.6093 49.7528 61.3995 50.5706 61.3823 51.5051H61.3789Z" fill="white"/>
</svg>
