<svg width="76" height="67" viewBox="0 0 76 67" fill="none" xmlns="http://www.w3.org/2000/svg">
<path d="M32.6185 67C31.4877 66.9845 30.1607 66.972 28.7495 66.9596H28.628C24.4756 66.9223 19.3076 66.8788 14.1178 66.68C10.2706 66.5339 6.41403 65.9839 2.79113 65.4309C1.90644 65.2973 0.82237 65.03 0.295913 64.16C-0.23366 63.2807 0.049817 62.1714 0.3551 61.3014C1.57623 57.8276 2.71014 54.7018 4.18983 51.6661C12.0836 35.4622 20.3356 21.107 29.4193 7.78348C30.4161 6.32 31.5625 4.94044 32.6684 3.60746L32.6871 3.58569C33.1138 3.0699 33.5562 2.53855 33.9798 2.01344C34.254 1.67165 34.5998 1.34541 35.0296 1.01294C35.5966 0.577937 36.4626 0 37.4221 0C38.2008 0 38.9329 0.360447 39.665 1.10306C41.9203 3.38994 43.7395 5.48421 45.2224 7.50698C52.1473 16.9435 58.0193 26.9983 63.9225 37.3327C67.8787 44.2586 71.6916 51.082 74.8317 58.3745C75.2647 59.3812 75.5731 60.2233 75.8005 61.028C75.9843 61.6805 76.1774 62.6406 75.7039 63.4299C75.2304 64.2222 74.299 64.508 73.6386 64.6572C71.9876 65.0269 70.3802 65.2879 68.8631 65.434C57.3246 66.5463 45.6273 66.798 32.6341 66.9969H32.6248H32.6154L32.6185 67ZM16.5289 34.4461C15.6037 36.2203 14.6754 37.9884 13.7502 39.7594C11.149 44.7247 8.46379 49.8484 5.91561 54.9286C5.0901 56.5723 4.45461 58.3714 3.84093 60.1114C3.59484 60.8105 3.3394 61.5314 3.0715 62.2398L2.91885 62.6437L3.34251 62.7276C3.53565 62.7649 3.72256 62.8084 3.90324 62.8488C4.31755 62.942 4.70383 63.029 5.07453 63.0508C6.5511 63.1378 8.05259 63.2341 9.50425 63.3304H9.56032C13.4667 63.5883 17.5039 63.8524 21.4726 63.9239C24.8463 63.986 28.22 64.0202 31.5033 64.0202C43.0293 64.0202 54.2999 63.6225 65.0003 62.8426C66.1872 62.7556 67.3896 62.6313 68.4083 62.5195L69.5827 62.392L16.6971 34.1199L16.5258 34.4493L16.5289 34.4461ZM52.2875 23.8942C52.2003 23.9066 52.0912 23.9315 51.9604 23.9719C45.5526 25.8952 39.0419 27.8279 32.7431 29.6953C30.5096 30.3571 28.2729 31.0189 26.0394 31.6838C24.6843 32.0878 23.3292 32.4918 21.9243 32.9174L21.077 33.1722L72.5545 60.6893L72.1683 59.7509C71.6823 58.5702 71.2399 57.5076 70.7415 56.4822C64.8975 44.4792 58.0785 32.964 52.789 24.2733C52.7267 24.1707 52.6675 24.0868 52.6146 24.0247L52.4837 23.8693L52.2844 23.8973L52.2875 23.8942ZM37.123 3.12583C37.0389 3.1973 36.9423 3.2936 36.8333 3.41167C36.6371 3.62606 36.4408 3.83737 36.2414 4.05177L36.2227 4.07043C35.1106 5.26669 33.9612 6.5002 33.0827 7.8425C29.0143 14.0413 24.9802 20.4079 21.077 26.5663L20.8745 26.8833C20.2141 27.9242 19.591 29.0179 19.0116 30.0464L18.5662 30.8325L50.9012 21.2531L50.624 20.8398C49.9418 19.8238 49.2596 18.8077 48.5805 17.7917L48.4964 17.6674C46.4684 14.6348 44.3719 11.5028 42.2318 8.4826C40.9422 6.6649 39.3721 4.99015 37.8488 3.37131C37.7554 3.27188 37.6682 3.18798 37.5934 3.12583L37.3566 2.93012L37.123 3.12583Z" fill="#0D57B7"/>
</svg>
