<svg width="75" height="69" viewBox="0 0 75 69" fill="none" xmlns="http://www.w3.org/2000/svg">
<path d="M71.6942 40.5776C71.4016 40.914 71.1063 41.2449 70.8164 41.5703C70.6114 41.7973 70.409 42.0269 70.2066 42.2566C68.3417 44.3731 66.4767 46.487 64.6091 48.6007L53.3264 61.3819C53.2936 61.4202 53.258 61.4585 53.2061 61.5104L50.1844 64.7126L50.6821 60.0967C50.9146 57.9775 50.395 56.1371 49.0934 54.4745C48.7297 54.0096 48.2648 53.5639 47.6714 53.1072C47.2229 52.7627 46.821 52.3962 46.4299 52.0407L46.3616 51.9778C45.4291 51.1274 44.4994 50.2743 43.5724 49.4211L42.5742 48.505C42.5278 48.464 42.484 48.423 42.4375 48.3765L41.3629 47.3647L42.2598 46.3147C44.0536 44.2118 45.8447 42.1226 47.6386 40.0307C49.1316 38.2888 50.6274 36.5442 52.1314 34.7832L44.5759 28.2039C39.8425 24.083 34.8629 19.7433 31.0236 16.4044C29.8532 15.3844 28.9946 14.2031 28.4723 12.8878C27.2855 9.89896 27.5343 7.02497 29.2106 4.34787C30.5204 2.25596 32.4483 0.885981 34.9394 0.267978C35.1609 0.213288 35.366 0.17501 35.5657 0.136726C35.645 0.123054 35.7215 0.106604 35.8008 0.0929312L35.984 0.0683632L36.9657 0L37.1818 0.024568C37.9256 0.0382407 38.6447 0.131217 39.3174 0.300758C40.764 0.669919 42.0875 1.37273 43.2497 2.38997C45.6068 4.44907 49.5774 7.90552 52.8315 10.7385L56.143 13.6206L58.6697 15.8219C62.8808 19.4889 67.0893 23.1559 71.3005 26.8229C72.881 28.2011 73.901 29.9211 74.3276 31.942C74.3631 32.106 74.3932 32.2701 74.4233 32.4342L74.4862 32.8143L74.5436 33.8288C74.5381 33.9191 74.5327 34.0066 74.5299 34.0968C74.519 34.3265 74.5053 34.5562 74.4835 34.7832C74.303 36.5989 73.6549 38.2068 72.5556 39.5631C72.2767 39.9077 71.9896 40.2467 71.7024 40.5776H71.6942ZM53.403 56.9082L62.4324 46.6784C64.2973 44.5646 66.165 42.4508 68.0272 40.337C68.2323 40.1018 68.4401 39.8694 68.648 39.637C69.225 38.9889 69.7691 38.3791 70.2887 37.7392C71.0243 36.8314 71.4591 35.7402 71.5821 34.4988C71.6013 34.3183 71.6095 34.1351 71.6177 33.9519C71.6204 33.8835 71.6231 33.8179 71.6286 33.7495L71.5848 33.1014L71.5602 32.9701C71.5329 32.828 71.5055 32.6858 71.4782 32.5436C71.1801 31.1353 70.4938 29.9813 69.3835 29.0133C65.1751 25.3463 60.9639 21.6793 56.7528 18.0123L54.2261 15.811L50.9146 12.9288C47.6577 10.0931 43.6845 6.6367 41.3273 4.5776C40.4987 3.85295 39.6018 3.37438 38.5873 3.1146C38.1197 2.99428 37.6302 2.93413 37.0943 2.92593C37.0286 2.92593 36.963 2.92045 36.9001 2.91498L36.2657 2.95871C36.2083 2.96965 36.1481 2.98062 36.0907 2.99156C35.9375 3.0189 35.7844 3.04894 35.6313 3.08449C33.873 3.52201 32.5741 4.43808 31.6662 5.88738C30.4904 7.76326 30.3263 9.70209 31.1658 11.8131C31.5186 12.7046 32.0955 13.4894 32.9241 14.2113C36.7606 17.5502 41.743 21.8899 46.4764 26.0108L54.9316 33.3749C54.9589 33.3995 55.0027 33.4378 55.0437 33.4733L55.1039 33.528L56.184 34.4714L55.2625 35.5734C53.444 37.7064 51.6365 39.8119 49.8344 41.9175C48.3441 43.6567 46.8565 45.3904 45.3662 47.135L45.5275 47.2827C46.4545 48.1331 47.3815 48.9836 48.3113 49.8313L48.3824 49.8969C48.7433 50.2251 49.0824 50.5367 49.4324 50.8047C50.2227 51.4118 50.8599 52.0271 51.3767 52.6861C52.3939 53.985 53.0694 55.396 53.4002 56.9082H53.403Z" fill="white"/>
<path d="M45.7292 65.9295C44.4002 67.4553 42.6829 68.4343 40.6184 68.8391C40.3887 68.8855 40.1726 68.9129 39.9648 68.9429C39.8828 68.9539 39.8035 68.9648 39.7214 68.9785L39.4015 69.0003H39.1937C39.046 68.9976 38.8984 68.9949 38.7507 68.9949C34.6051 68.9183 31.0366 66.069 30.074 62.0629C29.4068 59.2846 29.9428 56.6403 31.6272 54.4172C33.5277 51.9096 36.1912 50.649 39.3331 50.7775C43.4513 50.9443 46.9379 53.873 47.8184 57.8982C48.4583 60.8378 47.7445 63.6078 45.7511 65.9103L45.7347 65.9295H45.7292ZM39.3605 66.0963C39.4316 66.0854 39.4999 66.0771 39.571 66.0662C39.7324 66.0443 39.8965 66.0224 40.0551 65.9924C41.4907 65.7107 42.631 65.0654 43.5388 64.0235L43.5498 64.0098C44.9608 62.3801 45.4257 60.5835 44.9772 58.5162C44.3811 55.779 42.0102 53.7909 39.2128 53.676C37.0006 53.5858 35.2751 54.4007 33.9407 56.1672C32.7675 57.7177 32.4257 59.4241 32.8961 61.382C33.5496 64.1028 35.9779 66.0389 38.8026 66.0881C38.9394 66.0881 39.0788 66.0908 39.2156 66.0936H39.3632L39.3605 66.0963Z" fill="white"/>
<path d="M40.8096 49.2658L36.273 48.6861C33.4017 48.3197 31.1348 49.11 29.3437 51.1007C27.5444 53.1024 27.0111 55.4295 27.692 58.2378L28.7038 62.4189L25.3239 59.6735C25.272 59.6324 25.2255 59.5941 25.1817 59.5558C18.5833 53.7723 11.9849 47.9888 5.38924 42.2025C5.22517 42.0576 5.05836 41.9155 4.89429 41.7733C4.41575 41.3603 3.91806 40.931 3.44226 40.4661C1.99022 39.0415 1.1015 37.3023 0.806172 35.2951C0.385054 32.4457 1.12885 29.9027 3.0102 27.7424L3.03481 27.7123C6.89596 23.3097 10.5657 19.1368 14.3011 14.8874C16.1332 12.8037 17.9817 10.7008 19.8768 8.54601L21.2249 7.01465C21.2577 6.9791 21.2905 6.94084 21.3315 6.89709L24.3012 3.7168L23.8801 7.98816C23.8664 8.12489 23.8528 8.25887 23.8364 8.39013C23.809 8.63897 23.7817 8.87416 23.7707 9.09018C23.7024 10.3973 23.9403 11.606 24.4954 12.7873C24.9548 13.7608 25.5974 14.6002 26.4642 15.3522C27.6127 16.3476 28.7585 17.3484 29.907 18.3465L32.0181 20.1841C32.0755 20.2333 32.1247 20.2853 32.1794 20.34L33.2541 21.2779L23.0488 32.9899L40.8068 49.2658H40.8096ZM27.0549 49.3041C27.0987 49.2549 27.1397 49.2057 27.1834 49.1565C28.7612 47.4009 30.6508 46.3071 32.8275 45.8887L18.999 33.2142L29.166 21.5486L28.001 20.5341C26.8553 19.536 25.7095 18.538 24.5637 17.5426C23.4016 16.5363 22.4964 15.3495 21.8702 14.0205C21.5011 13.2357 21.2304 12.4235 21.0636 11.5922C19.5131 13.3533 17.9927 15.0843 16.4832 16.8015C12.7479 21.051 9.07812 25.2211 5.2197 29.621C3.88798 31.1441 3.3821 32.856 3.68016 34.8658C3.88525 36.2495 4.47044 37.4007 5.47674 38.3851C5.88692 38.7871 6.32718 39.1672 6.79205 39.5665C6.96433 39.7141 7.1366 39.8618 7.30614 40.0122C13.0486 45.0492 18.7939 50.0834 24.5391 55.1204C24.7141 52.9711 25.5564 51.0241 27.0576 49.2986L27.0549 49.3041Z" fill="white"/>
</svg>
