<svg width="375" height="551" viewBox="0 0 375 551" fill="none" xmlns="http://www.w3.org/2000/svg">
<rect x="15" width="345" height="452" rx="10" fill="url(#paint0_linear_1018_9008)"/>
<g opacity="0.74" filter="url(#filter0_f_1018_9008)">
<ellipse cx="197" cy="361.5" rx="146" ry="58.5" fill="white" fill-opacity="0.91"/>
</g>
<path d="M288.762 451.218V385.491" stroke="#263238" stroke-linecap="round" stroke-linejoin="round"/>
<path d="M283.432 451.218V418.626" stroke="#263238" stroke-linecap="round" stroke-linejoin="round"/>
<path d="M290.426 396.266C290.426 396.266 285.056 395.654 282.854 391.402C280.653 387.151 280.443 376.184 288.806 364.028C297.17 351.873 301.556 351.745 303.012 361.664C304.468 371.583 304.258 385.986 300.834 391.443C297.409 396.901 290.426 396.266 290.426 396.266Z" fill="white" stroke="#263238" stroke-linecap="round" stroke-linejoin="round"/>
<path d="M292.332 373.37C293.322 369.992 294.504 366.963 295.879 364.89" stroke="#263238" stroke-linecap="round" stroke-linejoin="round"/>
<path d="M288.172 395.537C288.909 388.853 290.076 382.223 291.666 375.688" stroke="#263238" stroke-linecap="round" stroke-linejoin="round"/>
<path d="M293.624 417.601C293.624 417.601 290.176 414.927 290.456 411.083C290.735 407.239 295.162 399.58 306 394.723C316.839 389.866 319.932 391.59 316.787 399.033C313.642 406.476 307.468 416.325 302.809 418.655C298.149 420.985 293.624 417.601 293.624 417.601Z" fill="white" stroke="#263238" stroke-linecap="round" stroke-linejoin="round"/>
<path d="M304.52 402.608C306.616 400.697 308.701 399.113 310.513 398.251" stroke="#263238" stroke-linecap="round" stroke-linejoin="round"/>
<path d="M303.13 403.924C299.294 407.765 295.711 411.851 292.402 416.155C292.402 416.155 289.624 419.894 288.803 427.32" stroke="#263238" stroke-linecap="round" stroke-linejoin="round"/>
<path d="M291.666 439.801C291.666 439.801 289.669 438.252 289.832 436.027C289.995 433.802 292.557 429.364 298.842 426.545C305.126 423.726 306.908 424.734 305.085 429.05C303.262 433.366 299.686 439.067 296.996 440.413C294.305 441.758 291.666 439.801 291.666 439.801Z" fill="white" stroke="#263238" stroke-linecap="round" stroke-linejoin="round"/>
<path d="M297.965 431.141C299.004 430.138 300.18 429.289 301.459 428.619" stroke="#263238" stroke-linecap="round" stroke-linejoin="round"/>
<path d="M297.159 431.905C294.937 434.128 292.861 436.492 290.944 438.982C290.944 438.982 289.331 441.148 288.854 445.452" stroke="#263238" stroke-linecap="round" stroke-linejoin="round"/>
<path d="M283.891 408.712C283.891 408.712 287.334 406.039 287.06 402.195C286.786 398.351 282.354 390.692 271.509 385.834C260.664 380.977 257.583 382.701 260.728 390.144C263.874 397.588 270.047 407.436 274.707 409.766C279.366 412.096 283.891 408.712 283.891 408.712Z" fill="white" stroke="#263238" stroke-linecap="round" stroke-linejoin="round"/>
<path d="M272.995 393.721C271.21 391.994 269.19 390.527 266.996 389.364" stroke="#263238" stroke-linecap="round" stroke-linejoin="round"/>
<path d="M274.387 395.036C278.22 398.878 281.802 402.964 285.109 407.267C285.109 407.267 287.887 411.006 288.714 418.432" stroke="#263238" stroke-linecap="round" stroke-linejoin="round"/>
<path d="M282.197 438.399C282.197 438.399 285.691 438.509 287.439 436.407C289.186 434.304 290.234 428.433 285.866 421.264C281.498 414.094 278.708 413.593 276.961 418.835C275.214 424.077 274.194 431.759 275.942 434.968C277.689 438.177 282.197 438.399 282.197 438.399Z" fill="white" stroke="#263238" stroke-linecap="round" stroke-linejoin="round"/>
<path d="M282.744 433.052C282.797 433.768 282.832 434.485 282.849 435.195" stroke="#263238" stroke-linecap="round" stroke-linejoin="round"/>
<path d="M280.066 418.492C281.254 422.714 282.1 427.024 282.594 431.381" stroke="#263238" stroke-linecap="round" stroke-linejoin="round"/>
<path d="M56.949 396.875H137.324V290.099" stroke="white" stroke-linecap="round" stroke-linejoin="round"/>
<path d="M222.941 404.276H142.566V282.698" stroke="white" stroke-linecap="round" stroke-linejoin="round"/>
<path d="M175.179 404.276H256.136V270.012" stroke="white" stroke-linecap="round" stroke-linejoin="round"/>
<path d="M239.5 282.451L211.322 310.71" stroke="white" stroke-linecap="round" stroke-linejoin="round"/>
<path d="M223.867 304.313L216.051 312.153" stroke="white" stroke-linecap="round" stroke-linejoin="round"/>
<path d="M161.761 275.029L146.543 290.29" stroke="white" stroke-linecap="round" stroke-linejoin="round"/>
<path d="M165.875 271.313L176.16 261" stroke="white" stroke-linecap="round" stroke-linejoin="round"/>
<path d="M134.208 365.778L124.336 375.679" stroke="white" stroke-linecap="round" stroke-linejoin="round"/>
<path d="M130.915 352.58L112.609 370.938" stroke="white" stroke-linecap="round" stroke-linejoin="round"/>
<path d="M316.593 312.085C322.575 297.121 315.294 280.141 300.33 274.159C285.366 268.177 268.386 275.458 262.404 290.422C256.422 305.386 263.703 322.366 278.667 328.348C293.631 334.33 310.611 327.049 316.593 312.085Z" stroke="white" stroke-linecap="round" stroke-linejoin="round"/>
<path d="M289.508 326.73C303.575 326.73 314.978 315.327 314.978 301.26C314.978 287.194 303.575 275.791 289.508 275.791C275.442 275.791 264.039 287.194 264.039 301.26C264.039 315.327 275.442 326.73 289.508 326.73Z" stroke="white" stroke-linecap="round" stroke-linejoin="round"/>
<path d="M289.507 303.001C290.469 303.001 291.249 302.222 291.249 301.26C291.249 300.298 290.469 299.519 289.507 299.519C288.545 299.519 287.766 300.298 287.766 301.26C287.766 302.222 288.545 303.001 289.507 303.001Z" stroke="white" stroke-linecap="round" stroke-linejoin="round"/>
<path d="M289.51 303.002V311.558" stroke="white" stroke-linecap="round" stroke-linejoin="round"/>
<path d="M287.767 301.262H266.998" stroke="white" stroke-linecap="round" stroke-linejoin="round"/>
<path d="M234.983 391.562H266.184C266.184 391.562 249.293 433.094 252.479 451.644H220.859C220.859 451.644 226.759 404.212 234.983 391.562Z" fill="#263238" stroke="#263238" stroke-linecap="round" stroke-linejoin="round"/>
<path d="M207.989 331.946C207.989 331.946 208.297 337.566 218.764 340.845C229.23 344.124 239.853 340.845 245.788 345.505C251.723 350.164 251.566 357.375 249.533 360.968C247.5 364.562 244.221 368.149 253.907 372.366C263.593 376.583 257.809 388.924 253.75 393.456C249.69 397.987 242.684 400.171 234.85 398.61C227.017 397.049 217.826 378.15 207.831 368.149C197.837 358.149 196.614 339.704 202.991 334.415C209.369 329.127 207.989 331.946 207.989 331.946Z" fill="#263238" stroke="#263238" stroke-linecap="round" stroke-linejoin="round"/>
<path d="M206.38 311.729C206.38 311.729 210.69 309.847 211.797 313.476C212.904 317.104 213.23 327.076 213.23 327.076L210.9 326.522C210.9 326.522 211.453 315.247 208.908 313.476C206.363 311.705 204.377 315.689 204.377 315.689L206.38 311.729Z" fill="#A6A6A6" stroke="#263238" stroke-linecap="round" stroke-linejoin="round"/>
<path d="M158 433.036L172.724 425.162C172.724 425.162 171.704 409.71 171.85 409.128C171.996 408.545 175.682 378.312 175.682 378.312L165.583 408.254L158 433.036Z" fill="#263238" stroke="#263238" stroke-linecap="round" stroke-linejoin="round"/>
<path d="M223.091 362.783C223.091 362.783 237.651 370.716 239.608 371.52C241.565 372.324 240.412 382.44 240.412 389.051C240.412 395.661 230.511 451.487 230.511 451.487H157.184C157.184 451.487 169.572 432.494 169.904 427.537C170.236 422.581 168.087 418.615 167.755 413.827C167.423 409.04 174.528 379.796 175.681 378.299C176.835 376.802 181.797 373.017 181.797 373.017L199.305 357.681L207.4 355.864L223.091 362.783Z" fill="#EA7013" stroke="#263238" stroke-linecap="round" stroke-linejoin="round"/>
<path d="M174.491 432.907L172.045 437.939" stroke="#263238" stroke-linecap="round" stroke-linejoin="round"/>
<path d="M176.838 418.452C176.838 418.452 173.203 420.927 175.021 422.25C176.838 423.572 177.665 426.379 177.665 426.379L175.335 430.916" stroke="#263238" stroke-linecap="round" stroke-linejoin="round"/>
<path d="M193.957 430.485C194.941 430.561 195.978 430.619 197.061 430.648" stroke="#263238" stroke-linecap="round" stroke-linejoin="round"/>
<path d="M178.32 426.408C178.32 426.408 182.275 429.052 190.889 430.182" stroke="#263238" stroke-linecap="round" stroke-linejoin="round"/>
<path d="M168.463 320.792C167.767 321.132 167.186 321.669 166.793 322.337C166.401 323.005 166.214 323.774 166.256 324.548C166.256 327.425 168.585 333.057 168.585 333.057L169.913 332.621C169.913 332.621 167.485 326.761 167.817 324.659C167.924 324.046 168.199 323.474 168.61 323.007C169.02 322.539 169.552 322.194 170.146 322.009L169.704 320.57L168.463 320.792Z" fill="#A6A6A6" stroke="#263238" stroke-linecap="round" stroke-linejoin="round"/>
<path d="M174.156 335.591C174.739 338.503 173.743 341.13 171.972 341.473C170.202 341.817 168.315 339.726 167.756 336.814C167.196 333.902 168.169 331.269 169.94 330.931C171.71 330.594 173.597 332.684 174.156 335.591Z" fill="white" stroke="#263238" stroke-linecap="round" stroke-linejoin="round"/>
<path d="M179.533 334.653C180.633 338.369 179.346 342.033 176.655 342.807C173.965 343.582 170.889 341.24 169.783 337.525C168.676 333.809 169.969 330.145 172.66 329.371C175.351 328.596 178.432 330.937 179.533 334.653Z" fill="#263238" stroke="#263238" stroke-linecap="round" stroke-linejoin="round"/>
<path d="M189.508 354.91L192.123 363.413L183.526 374.246L182.094 382.616C182.094 382.616 180.667 406.495 181.482 410.176C182.298 413.857 182.298 414.87 182.298 414.87C182.298 414.87 200.061 394.253 208.839 381.597C217.616 368.94 219.654 361.177 219.654 361.177L211.081 356.517L207.004 337.53L189.508 354.91Z" fill="white" stroke="#263238" stroke-linecap="round" stroke-linejoin="round"/>
<path d="M203.066 346.679L192.122 363.412L189.07 353.563L203.066 346.679Z" fill="#263238" stroke="#263238" stroke-linecap="round" stroke-linejoin="round"/>
<path d="M182.171 382.142L182.09 382.614C182.09 382.614 180.663 406.494 181.478 410.174C182.294 413.855 182.294 414.869 182.294 414.869C182.294 414.869 200.058 394.251 208.835 381.595C209.522 380.605 210.163 379.644 210.774 378.712C199.784 382.474 188.578 382.538 182.171 382.142Z" fill="white" stroke="#263238" stroke-linecap="round" stroke-linejoin="round"/>
<path d="M177.866 302.777C177.866 302.777 169.683 307.751 168.797 315.264C167.912 322.777 171.011 330.849 172.228 334.053C173.445 337.256 177.644 349.749 179.852 352.184C182.059 354.618 189.246 358.258 190.464 358.922C191.681 359.586 193.888 359.365 195.769 358.037C197.651 356.709 205.385 347.32 206.603 345.107C207.82 342.894 208.035 338.031 208.035 338.031C208.035 338.031 207.814 328.304 207.377 322.008C206.94 315.712 207.267 309.626 202.071 304.32C196.876 299.014 182.95 298.903 177.866 302.777Z" fill="white" stroke="#263238" stroke-linecap="round" stroke-linejoin="round"/>
<path d="M207.376 322.008C206.933 315.706 207.265 309.626 202.07 304.32C196.875 299.014 182.949 298.903 177.865 302.777C177.865 302.777 169.682 307.751 168.796 315.264C168.284 319.632 169.117 324.175 170.136 327.856C172.017 326.691 178.365 322.8 185.489 317.809C193.998 311.839 196.764 302.555 196.764 302.555C196.764 302.555 197.754 302.002 197.539 303.219C197.323 304.437 193.998 311.618 192.786 312.724L191.569 313.825C191.569 313.825 192.565 313.604 197.096 319.02C201.628 324.437 204.167 326.65 205.495 327.314C206.2 327.569 206.941 327.712 207.691 327.739C207.603 325.753 207.498 323.75 207.376 322.008Z" fill="#263238" stroke="#263238" stroke-linecap="round" stroke-linejoin="round"/>
<path d="M193.764 333.727C193.903 334.537 193.606 335.271 193.094 335.358C192.581 335.445 192.057 334.863 191.929 334.053C191.801 333.244 192.086 332.51 192.599 332.417C193.111 332.324 193.618 332.918 193.764 333.727Z" fill="#263238" stroke="#263238" stroke-linecap="round" stroke-linejoin="round"/>
<path d="M181.381 335.492C181.527 336.307 181.23 337.036 180.717 337.129C180.205 337.222 179.675 336.634 179.552 335.818C179.43 335.003 179.704 334.281 180.216 334.187C180.729 334.094 181.241 334.682 181.381 335.492Z" fill="#263238" stroke="#263238" stroke-linecap="round" stroke-linejoin="round"/>
<path d="M188.693 328.746C188.693 328.746 192.345 325.875 195.682 328.193" stroke="#263238" stroke-linecap="round" stroke-linejoin="round"/>
<path d="M181.29 330.307C181.29 330.307 176.98 328.205 173.992 331.967" stroke="#263238" stroke-linecap="round" stroke-linejoin="round"/>
<path d="M182.062 330.407C182.062 330.407 185.045 331.846 185.266 334.607" stroke="#263238" stroke-linecap="round" stroke-linejoin="round"/>
<path d="M185.379 342.235C185.379 342.235 186.596 343.115 188.693 342.457" stroke="#263238" stroke-linecap="round" stroke-linejoin="round"/>
<path d="M184.498 346.878C186.975 346.771 189.412 346.209 191.685 345.218C195.552 343.558 197.102 341.24 197.102 341.24" stroke="#263238" stroke-linecap="round" stroke-linejoin="round"/>
<path d="M186.375 346.766C187.259 347.548 188.398 347.979 189.578 347.978C191.57 347.978 193.335 344.442 193.335 344.442C193.335 344.442 188.25 346.656 186.375 346.766Z" stroke="#263238" stroke-linecap="round" stroke-linejoin="round"/>
<path d="M209.362 338.583C212.17 338.583 214.446 335.441 214.446 331.565C214.446 327.689 212.17 324.547 209.362 324.547C206.554 324.547 204.277 327.689 204.277 331.565C204.277 335.441 206.554 338.583 209.362 338.583Z" fill="#263238" stroke="#263238" stroke-linecap="round" stroke-linejoin="round"/>
<path d="M211.518 335.713C213.319 335.713 214.779 333.314 214.779 330.354C214.779 327.395 213.319 324.996 211.518 324.996C209.716 324.996 208.256 327.395 208.256 330.354C208.256 333.314 209.716 335.713 211.518 335.713Z" fill="white" stroke="#263238" stroke-linecap="round" stroke-linejoin="round"/>
<path d="M171.971 339.044C171.971 339.044 172.006 350.529 174.988 351.525C177.97 352.521 186.153 350.529 186.153 350.529" stroke="#263238" stroke-width="2" stroke-linecap="round" stroke-linejoin="round"/>
<path d="M190.352 350.484C190.352 351.369 189.262 352.085 187.917 352.085C186.572 352.085 185.488 351.369 185.488 350.484C185.488 349.598 186.577 348.882 187.917 348.882C189.257 348.882 190.352 349.598 190.352 350.484Z" fill="#263238" stroke="#263238" stroke-linecap="round" stroke-linejoin="round"/>
<path d="M191.047 363.943C191.047 363.943 187.552 370.053 185.1 388.225C182.648 406.396 184.273 410.025 184.273 410.025L180.778 412.174C180.778 412.174 173.516 411.347 175.991 394.171C178.466 376.995 179.841 374.182 179.841 374.182L191.047 363.943Z" fill="#EA7013" stroke="#263238" stroke-linecap="round" stroke-linejoin="round"/>
<path d="M213.177 357.682C213.177 357.682 205.251 376.511 196.992 388.241C188.733 399.971 177.51 416.798 177.51 416.798C177.51 416.798 183.456 413.99 196.013 404.567C208.57 395.143 221.285 373.512 222.607 371.369C223.929 369.225 225.909 364.269 225.909 364.269L213.177 357.682Z" fill="#EA7013" stroke="#263238" stroke-linecap="round" stroke-linejoin="round"/>
<path d="M144.562 441.342C142.624 442.521 140.592 443.538 138.487 444.382C134.771 445.902 134.41 445.634 135.616 446.915C136.821 448.197 143.047 445.902 144.736 445.226C146.425 444.551 149.635 443.537 149.635 443.537C149.635 443.537 153.519 445.733 155.884 446.409C158.249 447.084 161.126 446.071 161.126 446.071C161.126 446.071 161.295 443.368 159.268 441.848C157.241 440.328 152.861 436.781 151.33 436.95C149.798 437.119 144.562 441.342 144.562 441.342Z" fill="white" stroke="#263238" stroke-linecap="round" stroke-linejoin="round"/>
<path d="M143.546 437.288C143.546 437.288 141.52 436.781 140.168 437.795C138.817 438.808 137.297 442.017 137.128 442.862C136.959 443.706 137.297 444.213 138.648 443.031C139.999 441.848 142.364 440.159 142.364 440.159L144.391 439.484L143.546 437.288Z" fill="white" stroke="#263238" stroke-linecap="round" stroke-linejoin="round"/>
<path d="M148.786 435.767C148.786 435.767 144.709 434.416 143.887 435.598C143.066 436.781 140.172 443.537 141.016 444.043C141.861 444.55 143.043 443.537 144.563 441.341C146.083 439.145 146.928 437.963 146.928 437.963L148.955 437.625L148.786 435.767Z" fill="white" stroke="#263238" stroke-linecap="round" stroke-linejoin="round"/>
<path d="M156.024 437.283C156.024 437.283 150.742 433.153 149.42 434.144C148.098 435.134 143.805 441.575 143.31 442.88C142.815 444.185 145.127 443.544 146.939 441.89C148.75 440.236 150.905 438.395 150.905 438.395L155.034 440.544L156.024 437.283Z" fill="white" stroke="#263238" stroke-linecap="round" stroke-linejoin="round"/>
<path d="M175.023 440.422C175.023 440.422 168.086 440.09 165.279 439.1C162.472 438.11 156.851 435.961 155.203 436.124C153.555 436.287 147.27 442.403 145.948 443.725C144.626 445.047 144.783 445.402 146.082 445.565C147.381 445.728 150.573 443.562 152.064 442.403C152.986 441.693 153.982 441.083 155.034 440.585C156.22 442.291 157.546 443.895 159 445.379C160.649 446.864 164.615 448.017 166.1 447.854C167.045 447.746 167.983 447.581 168.907 447.359L174.528 447.196L175.023 440.422Z" fill="white" stroke="#263238" stroke-linecap="round" stroke-linejoin="round"/>
<path d="M223.254 392.681C223.254 392.681 217.144 399.781 217.476 402.262C217.808 404.743 217.971 407.212 217.971 407.212L213.51 434.138C213.51 434.138 209.712 432.321 209.712 433.806V435.297L174.016 438.931L173.684 451.482L230.505 451.645C230.505 451.645 233.312 448.512 233.644 447.353C233.976 446.194 240.249 426.211 241.903 405.232C243.557 384.253 242.73 374.841 241.903 373.199C241.076 371.556 231.332 368.411 231.332 368.411" fill="#EA7013"/>
<path d="M223.254 392.681C223.254 392.681 217.144 399.781 217.476 402.262C217.808 404.743 217.971 407.212 217.971 407.212L213.51 434.138C213.51 434.138 209.712 432.321 209.712 433.806V435.297L174.016 438.931L173.684 451.482L230.505 451.645C230.505 451.645 233.312 448.512 233.644 447.353C233.976 446.194 240.249 426.211 241.903 405.232C243.557 384.253 242.73 374.841 241.903 373.199C241.076 371.556 231.332 368.411 231.332 368.411" stroke="#263238" stroke-linecap="round" stroke-linejoin="round"/>
<path d="M214.832 433.98C214.832 433.98 220.115 437.446 223.254 438.273L214.832 433.98Z" fill="white"/>
<path d="M214.832 433.98C214.832 433.98 220.115 437.446 223.254 438.273" stroke="#263238" stroke-linecap="round" stroke-linejoin="round"/>
<path d="M165.28 400.473L169.357 387.386C171.01 385.766 172.457 383.948 173.667 381.975C175.414 379.022 175.414 373.483 175.14 372.499C174.866 371.514 178.71 367.088 179.8 365.51C180.889 363.931 181.518 361.077 180.044 358.987C178.571 356.896 177.831 360.344 176.847 361.939C175.862 363.535 172.414 365.137 172.414 365.137L168.774 368.096C168.774 368.096 162.746 373.384 162.368 374.124C161.989 374.863 161.261 377.199 161.261 377.199L161.756 384.334L158.559 396.757L165.28 400.473Z" fill="white" stroke="#263238" stroke-linecap="round" stroke-linejoin="round"/>
<path d="M166.285 363.793C166.285 363.793 169.238 359.133 170.1 357.642C170.962 356.151 172.313 350.263 173.175 350.653C174.037 351.044 174.923 352.983 174.655 355.575C174.387 358.167 171.329 364.061 171.329 364.061L166.285 363.793Z" stroke="#263238" stroke-linecap="round" stroke-linejoin="round"/>
<path d="M159.15 393.07L161.736 384.334L160.618 370.309L164.06 363.669L173.53 362.44C173.53 362.44 179.314 365.516 179.809 365.516C180.304 365.516 179.809 366.867 178.702 367.111C177.596 367.356 175.499 366.745 175.499 366.745L179.069 369.074C179.069 369.074 178.825 370.181 177.963 370.425C177.112 370.597 176.245 370.681 175.377 370.676C175.377 370.676 178.452 372.644 177.706 373.006C176.976 373.341 176.18 373.508 175.377 373.495H173.047L171.201 373.25L168.37 374.357C168.37 374.357 170.339 379.401 170.216 381.864C170.094 384.328 167.019 385.941 167.019 385.941" fill="white"/>
<path d="M159.15 393.07L161.736 384.334L160.618 370.309L164.06 363.669L173.53 362.44C173.53 362.44 179.314 365.516 179.809 365.516C180.304 365.516 179.809 366.867 178.702 367.111C177.596 367.356 175.499 366.745 175.499 366.745L179.069 369.074C179.069 369.074 178.825 370.181 177.963 370.425C177.112 370.597 176.245 370.681 175.377 370.676C175.377 370.676 178.452 372.644 177.706 373.006C176.976 373.341 176.18 373.508 175.377 373.495H173.047L171.201 373.25L168.37 374.357C168.37 374.357 170.339 379.401 170.216 381.864C170.094 384.328 167.019 385.941 167.019 385.941" stroke="#263238" stroke-linecap="round" stroke-linejoin="round"/>
<path d="M175.512 366.745C175.512 366.745 173.544 365.144 172.437 365.144C171.331 365.144 164.569 366.372 164.569 366.372" stroke="#263238" stroke-linecap="round" stroke-linejoin="round"/>
<path d="M175.391 370.682C175.391 370.682 172.194 368.935 171.209 368.935C170.225 368.935 162.473 370.903 162.473 370.903" stroke="#263238" stroke-linecap="round" stroke-linejoin="round"/>
<path d="M159.309 390.328L169.298 397.055C169.298 397.055 164.848 420.935 164.411 422.979C163.974 425.023 160.771 430.411 159.169 432.018C157.568 433.626 155.675 433.329 151.301 432.164C146.927 430.999 143.147 427.504 143.281 422.979C143.415 418.453 159.309 390.328 159.309 390.328Z" fill="#EA7013" stroke="#263238" stroke-linecap="round" stroke-linejoin="round"/>
<path d="M107.686 448.203H104.785V449.094H107.686V448.203Z" fill="white" stroke="#263238" stroke-linecap="round" stroke-linejoin="round"/>
<path d="M111.701 448.203H108.801V449.094H111.701V448.203Z" fill="white" stroke="#263238" stroke-linecap="round" stroke-linejoin="round"/>
<path d="M115.721 448.203H112.82V449.094H115.721V448.203Z" fill="white" stroke="#263238" stroke-linecap="round" stroke-linejoin="round"/>
<path d="M119.748 448.203H116.848V449.094H119.748V448.203Z" fill="white" stroke="#263238" stroke-linecap="round" stroke-linejoin="round"/>
<path d="M123.768 448.203H120.867V449.094H123.768V448.203Z" fill="white" stroke="#263238" stroke-linecap="round" stroke-linejoin="round"/>
<path d="M127.785 448.203H124.885V449.094H127.785V448.203Z" fill="white" stroke="#263238" stroke-linecap="round" stroke-linejoin="round"/>
<path d="M131.803 448.203H128.902V449.094H131.803V448.203Z" fill="white" stroke="#263238" stroke-linecap="round" stroke-linejoin="round"/>
<path d="M135.822 448.203H132.922V449.094H135.822V448.203Z" fill="white" stroke="#263238" stroke-linecap="round" stroke-linejoin="round"/>
<path d="M139.842 448.203H136.941V449.094H139.842V448.203Z" fill="white" stroke="#263238" stroke-linecap="round" stroke-linejoin="round"/>
<path d="M143.859 448.203H140.959V449.094H143.859V448.203Z" fill="white" stroke="#263238" stroke-linecap="round" stroke-linejoin="round"/>
<path d="M147.885 448.203H144.984V449.094H147.885V448.203Z" fill="white" stroke="#263238" stroke-linecap="round" stroke-linejoin="round"/>
<path d="M151.902 448.203H149.002V449.094H151.902V448.203Z" fill="white" stroke="#263238" stroke-linecap="round" stroke-linejoin="round"/>
<path d="M155.92 448.203H153.02V449.094H155.92V448.203Z" fill="white" stroke="#263238" stroke-linecap="round" stroke-linejoin="round"/>
<path d="M159.94 448.203H157.039V449.094H159.94V448.203Z" fill="white" stroke="#263238" stroke-linecap="round" stroke-linejoin="round"/>
<path d="M163.959 448.203H161.059V449.094H163.959V448.203Z" fill="white" stroke="#263238" stroke-linecap="round" stroke-linejoin="round"/>
<path d="M167.979 448.203H165.078V449.094H167.979V448.203Z" fill="white" stroke="#263238" stroke-linecap="round" stroke-linejoin="round"/>
<path d="M174.985 448.906H103.119V451.434H174.985V448.906Z" fill="white" stroke="#263238" stroke-linecap="round" stroke-linejoin="round"/>
<path d="M174.979 448.906H147.43V451.434H174.979V448.906Z" fill="white" stroke="#263238" stroke-linecap="round" stroke-linejoin="round"/>
<path d="M125.542 426.769H69.0409L57.6953 366.687H114.196L125.542 426.769Z" fill="#263238" stroke="white" stroke-linecap="round" stroke-linejoin="round"/>
<path d="M123.823 425.25H69.0112L58.2422 368.207H113.048L123.823 425.25Z" fill="#263238" stroke="white" stroke-linecap="round" stroke-linejoin="round"/>
<path d="M113.27 420.707H72.5181L64.5098 378.301H105.262L113.27 420.707Z" fill="#263238" stroke="white" stroke-linecap="round" stroke-linejoin="round"/>
<path d="M64.5091 378.3L58.2422 368.207" stroke="#263238" stroke-linecap="round" stroke-linejoin="round"/>
<path d="M105.262 378.3L113.049 368.207" stroke="white" stroke-linecap="round" stroke-linejoin="round"/>
<path d="M113.271 420.707L123.825 425.25" stroke="white" stroke-linecap="round" stroke-linejoin="round"/>
<path d="M72.5179 420.707L69.0117 425.25" stroke="#263238" stroke-linecap="round" stroke-linejoin="round"/>
<path d="M89.0886 408.004H79.8105L85.7163 402.739H94.9944L89.0886 408.004Z" fill="#263238" stroke="white" stroke-linecap="round" stroke-linejoin="round"/>
<path d="M119.869 448.273H85.9258V451.646H119.869V448.273Z" fill="#263238" stroke="white" stroke-linecap="round" stroke-linejoin="round"/>
<path d="M100.475 451.645H91.1969L79.8105 438.709H89.0886L100.475 451.645Z" fill="#263238" stroke="white" stroke-linecap="round" stroke-linejoin="round"/>
<path d="M89.0886 408.218H79.8105V438.574H89.0886V408.218Z" fill="#263238" stroke="white" stroke-linecap="round" stroke-linejoin="round"/>
<path d="M224.926 445.874C226.251 448.28 228.265 450.235 230.709 451.489L224.926 445.874Z" fill="white"/>
<path d="M224.926 445.874C226.251 448.28 228.265 450.235 230.709 451.489" stroke="#263238" stroke-linecap="round" stroke-linejoin="round"/>
<path d="M50.5762 451.646H316.284" stroke="#263238" stroke-linecap="round" stroke-linejoin="round"/>
<defs>
<filter id="filter0_f_1018_9008" x="-79.5" y="172.5" width="553" height="378" filterUnits="userSpaceOnUse" color-interpolation-filters="sRGB">
<feFlood flood-opacity="0" result="BackgroundImageFix"/>
<feBlend mode="normal" in="SourceGraphic" in2="BackgroundImageFix" result="shape"/>
<feGaussianBlur stdDeviation="65.25" result="effect1_foregroundBlur_1018_9008"/>
</filter>
<linearGradient id="paint0_linear_1018_9008" x1="-78.0455" y1="-66.0711" x2="426.856" y2="-15.1829" gradientUnits="userSpaceOnUse">
<stop stop-color="#4A78DF"/>
<stop offset="1" stop-color="#265EDC"/>
</linearGradient>
</defs>
</svg>
